<?xml version="1.0" encoding="UTF-8" standalone="no"?><svg xmlns="http://www.w3.org/2000/svg" xmlns:xlink="http://www.w3.org/1999/xlink" clip-rule="evenodd" stroke-miterlimit="4.00" viewBox="0 0 1920 1080"><desc>SVG generated by Keynote</desc><defs></defs><g transform="matrix(1.00, 0.00, -0.00, -1.00, 0.0, 1080.0)"><g><clipPath id="clip-92"><path d="M 0.0 1080.0 L 1920.0 1080.0 L 1920.0 0.0 L 0.0 0.0 Z M 0.0 1080.0 "></path></clipPath><g clip-path="url(#clip-92)"><image xlink:href="../../C790834B-C1C8-4410-8563-9C912CD2A702/assets/4B0075050CC9D0F3DC006F0CDE78D676.jpeg" width="1365.00" height="767.00" transform="matrix(1.41, 0.00, -0.00, -1.41, 0.0, 1080.0)"></image></g></g><image xlink:href="180731FCA735A4A22B7DFF3C63349218.png" width="476.00" height="188.00" transform="matrix(1.00, 0.00, -0.00, -1.00, 721.0, 1006.0)"></image><text xml:space="preserve" font-family="YanoneKaffeesatz-Bold" font-weight="bold" font-size="200.0" fill="#FC6900" transform="matrix(1.00, 0.00, -0.00, -1.00, 723.0, 865.0)">T</text><text xml:space="preserve" font-family="YanoneKaffeesatz-Bold" font-weight="bold" font-size="200.0" fill="#FC6900" transform="matrix(1.00, 0.00, -0.00, -1.00, 778.6, 865.0)">r</text><text xml:space="preserve" font-family="YanoneKaffeesatz-Bold" font-weight="bold" font-size="200.0" fill="#FC6900" transform="matrix(1.00, 0.00, -0.00, -1.00, 824.4, 865.0)">e</text><text xml:space="preserve" font-family="YanoneKaffeesatz-Bold" font-weight="bold" font-size="200.0" fill="#FC6900" transform="matrix(1.00, 0.00, -0.00, -1.00, 891.6, 865.0)">e</text><text xml:space="preserve" font-family="YanoneKaffeesatz-Bold" font-weight="bold" font-size="200.0" fill="#FC6900" transform="matrix(1.00, 0.00, -0.00, -1.00, 960.8, 865.0)">M</text><text xml:space="preserve" font-family="YanoneKaffeesatz-Bold" font-weight="bold" font-size="200.0" fill="#FC6900" transform="matrix(1.00, 0.00, -0.00, -1.00, 1056.2, 865.0)">a</text><text xml:space="preserve" font-family="YanoneKaffeesatz-Bold" font-weight="bold" font-size="200.0" fill="#FC6900" transform="matrix(1.00, 0.00, -0.00, -1.00, 1123.8, 865.0)">p</text><image xlink:href="88944E9AD732004CCACECAA5EE946FBE.png" width="178.00" height="143.00" transform="matrix(1.00, 0.00, -0.00, -1.00, 143.0, 678.0)"></image><text xml:space="preserve" font-family="YanoneKaffeesatz-Bold" font-weight="bold" font-size="150.0" fill="#FC6900" transform="matrix(1.00, 0.00, -0.00, -1.00, 143.0, 572.0)">M</text><text xml:space="preserve" font-family="YanoneKaffeesatz-Bold" font-weight="bold" font-size="150.0" fill="#FC6900" transform="matrix(1.00, 0.00, -0.00, -1.00, 214.6, 572.0)">a</text><text xml:space="preserve" font-family="YanoneKaffeesatz-Bold" font-weight="bold" font-size="150.0" fill="#FC6900" transform="matrix(1.00, 0.00, -0.00, -1.00, 265.2, 572.0)">p</text><image xlink:href="A044E3A30CD8ECB4F6374F9357FBEE7E.png" width="30.00" height="79.00" transform="matrix(1.00, 0.00, -0.00, -1.00, 319.0, 642.0)"></image><text xml:space="preserve" font-family="YanoneKaffeesatz-Bold" font-weight="bold" font-size="150.0" fill="#FEFFFE" transform="matrix(1.00, 0.00, -0.00, -1.00, 319.9, 572.0)">:</text><text xml:space="preserve" font-family="YanoneKaffeesatz-Bold" font-weight="bold" font-size="150.0" fill="#FEFFFE" transform="matrix(1.00, 0.00, -0.00, -1.00, 348.0, 572.0)"> </text><image xlink:href="B0729068933C4B13E027C58F510AE8B2.png" width="36.00" height="98.00" transform="matrix(1.00, 0.00, -0.00, -1.00, 378.0, 649.0)"></image><text xml:space="preserve" font-family="Hack-Bold" font-weight="bold" font-size="100.0" fill="#E0E4CB" transform="matrix(1.00, 0.00, -0.00, -1.00, 369.1, 572.0)">(</text><image xlink:href="7A045EF1A0742ABD5E73D38EC832641D.png" width="179.00" height="105.00" transform="matrix(1.00, 0.00, -0.00, -1.00, 433.0, 649.0)"></image><text xml:space="preserve" font-family="Hack-Bold" font-weight="bold" font-size="100.0" fill="#FE2500" transform="matrix(1.00, 0.00, -0.00, -1.00, 429.3, 572.0)">k</text><text xml:space="preserve" font-family="Hack-Bold" font-weight="bold" font-size="100.0" fill="#FE2500" transform="matrix(1.00, 0.00, -0.00, -1.00, 489.5, 572.0)">e</text><text xml:space="preserve" font-family="Hack-Bold" font-weight="bold" font-size="100.0" fill="#FE2500" transform="matrix(1.00, 0.00, -0.00, -1.00, 549.7, 572.0)">y</text><text xml:space="preserve" font-family="Hack-Bold" font-weight="bold" font-size="100.0" fill="#FEFFFE" transform="matrix(1.00, 0.00, -0.00, -1.00, 609.9, 572.0)"> </text><image xlink:href="7F12813C59A217D7E63CEBE22DEF9BBB.png" width="115.00" height="61.00" transform="matrix(1.00, 0.00, -0.00, -1.00, 676.0, 631.0)"></image><text xml:space="preserve" font-family="Hack-Bold" font-weight="bold" font-size="100.0" fill="#E0E4CB" transform="matrix(1.00, 0.00, -0.00, -1.00, 670.1, 572.0)">-</text><text xml:space="preserve" font-family="Hack-Bold" font-weight="bold" font-size="100.0" fill="#E0E4CB" transform="matrix(1.00, 0.00, -0.00, -1.00, 730.3, 572.0)">&gt;</text><text xml:space="preserve" font-family="Hack-Bold" font-weight="bold" font-size="100.0" fill="#FEFFFE" transform="matrix(1.00, 0.00, -0.00, -1.00, 790.5, 572.0)"> </text><image xlink:href="2C51BB983880D503E644CC0351845664.png" width="302.00" height="86.00" transform="matrix(1.00, 0.00, -0.00, -1.00, 850.0, 649.0)"></image><text xml:space="preserve" font-family="Hack-Bold" font-weight="bold" font-size="100.0" fill="#64D1E8" transform="matrix(1.00, 0.00, -0.00, -1.00, 850.7, 572.0)">v</text><text xml:space="preserve" font-family="Hack-Bold" font-weight="bold" font-size="100.0" fill="#64D1E8" transform="matrix(1.00, 0.00, -0.00, -1.00, 910.9, 572.0)">a</text><text xml:space="preserve" font-family="Hack-Bold" font-weight="bold" font-size="100.0" fill="#64D1E8" transform="matrix(1.00, 0.00, -0.00, -1.00, 971.1, 572.0)">l</text><text xml:space="preserve" font-family="Hack-Bold" font-weight="bold" font-size="100.0" fill="#64D1E8" transform="matrix(1.00, 0.00, -0.00, -1.00, 1031.3, 572.0)">u</text><text xml:space="preserve" font-family="Hack-Bold" font-weight="bold" font-size="100.0" fill="#64D1E8" transform="matrix(1.00, 0.00, -0.00, -1.00, 1091.6, 572.0)">e</text><image xlink:href="06708AC135372A12D3F8394105AC1A73.png" width="36.00" height="98.00" transform="matrix(1.00, 0.00, -0.00, -1.00, 1167.0, 649.0)"></image><text xml:space="preserve" font-family="Hack-Bold" font-weight="bold" font-size="100.0" fill="#E0E4CB" transform="matrix(1.00, 0.00, -0.00, -1.00, 1151.7, 572.0)">)</text><image xlink:href="8E4EB06C59DBE9E9F2A696EF9E72B837.png" width="523.00" height="149.00" transform="matrix(1.00, 0.00, -0.00, -1.00, 1233.0, 684.0)"></image><text xml:space="preserve" font-family="YanoneKaffeesatz-Bold" font-weight="bold" font-size="150.0" fill="#FEFFFE" transform="matrix(1.00, 0.00, -0.00, -1.00, 1211.9, 572.0)"> </text><text xml:space="preserve" font-family="YanoneKaffeesatz-Bold" font-weight="bold" font-size="150.0" fill="#FEFFFE" transform="matrix(1.00, 0.00, -0.00, -1.00, 1232.9, 572.0)">r</text><text xml:space="preserve" font-family="YanoneKaffeesatz-Bold" font-weight="bold" font-size="150.0" fill="#FEFFFE" transform="matrix(1.00, 0.00, -0.00, -1.00, 1267.3, 572.0)">e</text><text xml:space="preserve" font-family="YanoneKaffeesatz-Bold" font-weight="bold" font-size="150.0" fill="#FEFFFE" transform="matrix(1.00, 0.00, -0.00, -1.00, 1319.2, 572.0)">l</text><text xml:space="preserve" font-family="YanoneKaffeesatz-Bold" font-weight="bold" font-size="150.0" fill="#FEFFFE" transform="matrix(1.00, 0.00, -0.00, -1.00, 1345.9, 572.0)">a</text><text xml:space="preserve" font-family="YanoneKaffeesatz-Bold" font-weight="bold" font-size="150.0" fill="#FEFFFE" transform="matrix(1.00, 0.00, -0.00, -1.00, 1395.1, 572.0)">t</text><text xml:space="preserve" font-family="YanoneKaffeesatz-Bold" font-weight="bold" font-size="150.0" fill="#FEFFFE" transform="matrix(1.00, 0.00, -0.00, -1.00, 1437.7, 572.0)">i</text><text xml:space="preserve" font-family="YanoneKaffeesatz-Bold" font-weight="bold" font-size="150.0" fill="#FEFFFE" transform="matrix(1.00, 0.00, -0.00, -1.00, 1464.7, 572.0)">o</text><text xml:space="preserve" font-family="YanoneKaffeesatz-Bold" font-weight="bold" font-size="150.0" fill="#FEFFFE" transform="matrix(1.00, 0.00, -0.00, -1.00, 1517.3, 572.0)">n</text><text xml:space="preserve" font-family="YanoneKaffeesatz-Bold" font-weight="bold" font-size="150.0" fill="#FEFFFE" transform="matrix(1.00, 0.00, -0.00, -1.00, 1571.5, 572.0)">s</text><text xml:space="preserve" font-family="YanoneKaffeesatz-Bold" font-weight="bold" font-size="150.0" fill="#FEFFFE" transform="matrix(1.00, 0.00, -0.00, -1.00, 1619.2, 572.0)">h</text><text xml:space="preserve" font-family="YanoneKaffeesatz-Bold" font-weight="bold" font-size="150.0" fill="#FEFFFE" transform="matrix(1.00, 0.00, -0.00, -1.00, 1673.3, 572.0)">i</text><text xml:space="preserve" font-family="YanoneKaffeesatz-Bold" font-weight="bold" font-size="150.0" fill="#FEFFFE" transform="matrix(1.00, 0.00, -0.00, -1.00, 1700.3, 572.0)">p</text><text xml:space="preserve" font-family="YanoneKaffeesatz-Bold" font-weight="bold" font-size="150.0" fill="#FEFFFE" transform="matrix(1.00, 0.00, -0.00, -1.00, 1754.9, 572.0)"> </text><image xlink:href="D613DA6F7670CF731B96D1C71E58F5E8.png" width="183.00" height="115.00" transform="matrix(1.00, 0.00, -0.00, -1.00, 140.0, 500.0)"></image><text xml:space="preserve" font-family="YanoneKaffeesatz-Bold" font-weight="bold" font-size="150.0" fill="#FC6900" transform="matrix(1.00, 0.00, -0.00, -1.00, 143.0, 394.0)">T</text><text xml:space="preserve" font-family="YanoneKaffeesatz-Bold" font-weight="bold" font-size="150.0" fill="#FC6900" transform="matrix(1.00, 0.00, -0.00, -1.00, 184.7, 394.0)">r</text><text xml:space="preserve" font-family="YanoneKaffeesatz-Bold" font-weight="bold" font-size="150.0" fill="#FC6900" transform="matrix(1.00, 0.00, -0.00, -1.00, 219.1, 394.0)">e</text><text xml:space="preserve" font-family="YanoneKaffeesatz-Bold" font-weight="bold" font-size="150.0" fill="#FC6900" transform="matrix(1.00, 0.00, -0.00, -1.00, 269.5, 394.0)">e</text><image xlink:href="28F1166A16330EF752AB76915EBB2F8D.png" width="1018.00" height="149.00" transform="matrix(1.00, 0.00, -0.00, -1.00, 320.0, 506.0)"></image><text xml:space="preserve" font-family="YanoneKaffeesatz-Bold" font-weight="bold" font-size="150.0" fill="#FEFFFE" transform="matrix(1.00, 0.00, -0.00, -1.00, 321.4, 394.0)">:</text><text xml:space="preserve" font-family="YanoneKaffeesatz-Bold" font-weight="bold" font-size="150.0" fill="#FEFFFE" transform="matrix(1.00, 0.00, -0.00, -1.00, 349.5, 394.0)"> </text><text xml:space="preserve" font-family="YanoneKaffeesatz-Bold" font-weight="bold" font-size="150.0" fill="#FEFFFE" transform="matrix(1.00, 0.00, -0.00, -1.00, 370.5, 394.0)">i</text><text xml:space="preserve" font-family="YanoneKaffeesatz-Bold" font-weight="bold" font-size="150.0" fill="#FEFFFE" transform="matrix(1.00, 0.00, -0.00, -1.00, 397.5, 394.0)">m</text><text xml:space="preserve" font-family="YanoneKaffeesatz-Bold" font-weight="bold" font-size="150.0" fill="#FEFFFE" transform="matrix(1.00, 0.00, -0.00, -1.00, 477.0, 394.0)">p</text><text xml:space="preserve" font-family="YanoneKaffeesatz-Bold" font-weight="bold" font-size="150.0" fill="#FEFFFE" transform="matrix(1.00, 0.00, -0.00, -1.00, 531.6, 394.0)">l</text><text xml:space="preserve" font-family="YanoneKaffeesatz-Bold" font-weight="bold" font-size="150.0" fill="#FEFFFE" transform="matrix(1.00, 0.00, -0.00, -1.00, 558.3, 394.0)">e</text><text xml:space="preserve" font-family="YanoneKaffeesatz-Bold" font-weight="bold" font-size="150.0" fill="#FEFFFE" transform="matrix(1.00, 0.00, -0.00, -1.00, 610.2, 394.0)">m</text><text xml:space="preserve" font-family="YanoneKaffeesatz-Bold" font-weight="bold" font-size="150.0" fill="#FEFFFE" transform="matrix(1.00, 0.00, -0.00, -1.00, 689.8, 394.0)">e</text><text xml:space="preserve" font-family="YanoneKaffeesatz-Bold" font-weight="bold" font-size="150.0" fill="#FEFFFE" transform="matrix(1.00, 0.00, -0.00, -1.00, 741.6, 394.0)">n</text><text xml:space="preserve" font-family="YanoneKaffeesatz-Bold" font-weight="bold" font-size="150.0" fill="#FEFFFE" transform="matrix(1.00, 0.00, -0.00, -1.00, 795.8, 394.0)">t</text><text xml:space="preserve" font-family="YanoneKaffeesatz-Bold" font-weight="bold" font-size="150.0" fill="#FEFFFE" transform="matrix(1.00, 0.00, -0.00, -1.00, 838.4, 394.0)">a</text><text xml:space="preserve" font-family="YanoneKaffeesatz-Bold" font-weight="bold" font-size="150.0" fill="#FEFFFE" transform="matrix(1.00, 0.00, -0.00, -1.00, 887.6, 394.0)">t</text><text xml:space="preserve" font-family="YanoneKaffeesatz-Bold" font-weight="bold" font-size="150.0" fill="#FEFFFE" transform="matrix(1.00, 0.00, -0.00, -1.00, 930.2, 394.0)">i</text><text xml:space="preserve" font-family="YanoneKaffeesatz-Bold" font-weight="bold" font-size="150.0" fill="#FEFFFE" transform="matrix(1.00, 0.00, -0.00, -1.00, 957.2, 394.0)">o</text><text xml:space="preserve" font-family="YanoneKaffeesatz-Bold" font-weight="bold" font-size="150.0" fill="#FEFFFE" transform="matrix(1.00, 0.00, -0.00, -1.00, 1009.9, 394.0)">n</text><text xml:space="preserve" font-family="YanoneKaffeesatz-Bold" font-weight="bold" font-size="150.0" fill="#FEFFFE" transform="matrix(1.00, 0.00, -0.00, -1.00, 1064.0, 394.0)"> </text><text xml:space="preserve" font-family="YanoneKaffeesatz-Bold" font-weight="bold" font-size="150.0" fill="#FEFFFE" transform="matrix(1.00, 0.00, -0.00, -1.00, 1085.0, 394.0)">d</text><text xml:space="preserve" font-family="YanoneKaffeesatz-Bold" font-weight="bold" font-size="150.0" fill="#FEFFFE" transform="matrix(1.00, 0.00, -0.00, -1.00, 1139.9, 394.0)">e</text><text xml:space="preserve" font-family="YanoneKaffeesatz-Bold" font-weight="bold" font-size="150.0" fill="#FEFFFE" transform="matrix(1.00, 0.00, -0.00, -1.00, 1191.8, 394.0)">t</text><text xml:space="preserve" font-family="YanoneKaffeesatz-Bold" font-weight="bold" font-size="150.0" fill="#FEFFFE" transform="matrix(1.00, 0.00, -0.00, -1.00, 1234.4, 394.0)">a</text><text xml:space="preserve" font-family="YanoneKaffeesatz-Bold" font-weight="bold" font-size="150.0" fill="#FEFFFE" transform="matrix(1.00, 0.00, -0.00, -1.00, 1285.1, 394.0)">i</text><text xml:space="preserve" font-family="YanoneKaffeesatz-Bold" font-weight="bold" font-size="150.0" fill="#FEFFFE" transform="matrix(1.00, 0.00, -0.00, -1.00, 1312.1, 394.0)">l</text></g></svg>