<?xml version="1.0" encoding="UTF-8" standalone="no"?><svg xmlns="http://www.w3.org/2000/svg" xmlns:xlink="http://www.w3.org/1999/xlink" clip-rule="evenodd" stroke-miterlimit="4.00" viewBox="0 0 1920 1080"><desc>SVG generated by Keynote</desc><defs></defs><g transform="matrix(1.00, 0.00, -0.00, -1.00, 0.0, 1080.0)"><g><clipPath id="clip-6918"><path d="M 0.0 1080.0 L 1920.0 1080.0 L 1920.0 0.0 L 0.0 0.0 Z M 0.0 1080.0 "></path></clipPath><g clip-path="url(#clip-6918)"><image xlink:href="../../C790834B-C1C8-4410-8563-9C912CD2A702/assets/4B0075050CC9D0F3DC006F0CDE78D676.jpeg" width="1365.00" height="767.00" transform="matrix(1.41, 0.00, -0.00, -1.41, 0.0, 1080.0)"></image></g></g><path d="M 565.0 696.0 L 1355.0 696.0 L 1355.0 76.0 L 565.0 76.0 Z M 565.0 696.0 " fill="#E0E4CB"></path><image xlink:href="../../46B3C890-7B8E-43C6-B8B7-A6B112FA3157/assets/25D505548195CCA48BA282BD87254C4F.png" width="382.00" height="150.00" transform="matrix(1.00, 0.00, -0.00, -1.00, 769.0, 1006.0)"></image><text xml:space="preserve" font-family="YanoneKaffeesatz-Bold" font-weight="bold" font-size="200.0" fill="#FC6900" transform="matrix(1.00, 0.00, -0.00, -1.00, 772.0, 865.0)">V</text><text xml:space="preserve" font-family="YanoneKaffeesatz-Bold" font-weight="bold" font-size="200.0" fill="#FC6900" transform="matrix(1.00, 0.00, -0.00, -1.00, 846.6, 865.0)">e</text><text xml:space="preserve" font-family="YanoneKaffeesatz-Bold" font-weight="bold" font-size="200.0" fill="#FC6900" transform="matrix(1.00, 0.00, -0.00, -1.00, 915.8, 865.0)">c</text><text xml:space="preserve" font-family="YanoneKaffeesatz-Bold" font-weight="bold" font-size="200.0" fill="#FC6900" transform="matrix(1.00, 0.00, -0.00, -1.00, 976.2, 865.0)">t</text><text xml:space="preserve" font-family="YanoneKaffeesatz-Bold" font-weight="bold" font-size="200.0" fill="#FC6900" transform="matrix(1.00, 0.00, -0.00, -1.00, 1029.0, 865.0)">o</text><text xml:space="preserve" font-family="YanoneKaffeesatz-Bold" font-weight="bold" font-size="200.0" fill="#FC6900" transform="matrix(1.00, 0.00, -0.00, -1.00, 1099.2, 865.0)">r</text><image xlink:href="../../BCE833C9-89BE-47DC-A06D-B55EB0C850AB/assets/0BFCD39FAC0E55E8B9CBB06D343011EF.png" width="497.00" height="158.00" transform="matrix(1.00, 0.00, -0.00, -1.00, 9.0, 932.0)"></image><text xml:space="preserve" font-family="YanoneKaffeesatz-Bold" font-weight="bold" font-size="150.0" fill="#FE2500" transform="matrix(1.00, 0.00, -0.00, -1.00, 9.0, 810.0)">R</text><text xml:space="preserve" font-family="YanoneKaffeesatz-Bold" font-weight="bold" font-size="150.0" fill="#FE2500" transform="matrix(1.00, 0.00, -0.00, -1.00, 61.6, 810.0)">e</text><text xml:space="preserve" font-family="YanoneKaffeesatz-Bold" font-weight="bold" font-size="150.0" fill="#FE2500" transform="matrix(1.00, 0.00, -0.00, -1.00, 113.5, 810.0)">m</text><text xml:space="preserve" font-family="YanoneKaffeesatz-Bold" font-weight="bold" font-size="150.0" fill="#FE2500" transform="matrix(1.00, 0.00, -0.00, -1.00, 193.1, 810.0)">o</text><text xml:space="preserve" font-family="YanoneKaffeesatz-Bold" font-weight="bold" font-size="150.0" fill="#FE2500" transform="matrix(1.00, 0.00, -0.00, -1.00, 244.2, 810.0)">v</text><text xml:space="preserve" font-family="YanoneKaffeesatz-Bold" font-weight="bold" font-size="150.0" fill="#FE2500" transform="matrix(1.00, 0.00, -0.00, -1.00, 290.1, 810.0)">e</text><text xml:space="preserve" font-family="YanoneKaffeesatz-Bold" font-weight="bold" font-size="150.0" fill="#FE2500" transform="matrix(1.00, 0.00, -0.00, -1.00, 342.0, 810.0)"> </text><text xml:space="preserve" font-family="YanoneKaffeesatz-Bold" font-weight="bold" font-size="150.0" fill="#FE2500" transform="matrix(1.00, 0.00, -0.00, -1.00, 363.0, 810.0)">(</text><text xml:space="preserve" font-family="YanoneKaffeesatz-Bold" font-weight="bold" font-size="150.0" fill="#FE2500" transform="matrix(1.00, 0.00, -0.00, -1.00, 406.5, 810.0)">1</text><text xml:space="preserve" font-family="YanoneKaffeesatz-Bold" font-weight="bold" font-size="150.0" fill="#FE2500" transform="matrix(1.00, 0.00, -0.00, -1.00, 466.5, 810.0)">)</text><image xlink:href="../../F03797F4-16C0-42FC-9AF5-AE42FF3166A8/assets/CFF3D613D7B811C838F457579EECDFC6.png" width="128.00" height="84.00" transform="matrix(1.00, 0.00, -0.00, -1.00, 162.0, 766.0)"></image><text xml:space="preserve" font-family="YanoneKaffeesatz-Bold" font-weight="bold" font-size="75.0" fill="#FEFFFE" transform="matrix(1.00, 0.00, -0.00, -1.00, 165.0, 704.0)">O</text><text xml:space="preserve" font-family="YanoneKaffeesatz-Bold" font-weight="bold" font-size="75.0" fill="#FEFFFE" transform="matrix(1.00, 0.00, -0.00, -1.00, 195.6, 704.0)">(</text><text xml:space="preserve" font-family="YanoneKaffeesatz-Bold" font-weight="bold" font-size="75.0" fill="#FEFFFE" transform="matrix(1.00, 0.00, -0.00, -1.00, 217.3, 704.0)">l</text><text xml:space="preserve" font-family="YanoneKaffeesatz-Bold" font-weight="bold" font-size="75.0" fill="#FEFFFE" transform="matrix(1.00, 0.00, -0.00, -1.00, 230.7, 704.0)">o</text><text xml:space="preserve" font-family="YanoneKaffeesatz-Bold" font-weight="bold" font-size="75.0" fill="#FEFFFE" transform="matrix(1.00, 0.00, -0.00, -1.00, 257.0, 704.0)">g</text><image xlink:href="../../F03797F4-16C0-42FC-9AF5-AE42FF3166A8/assets/B7E146E3D875A7807394EA846CFF791B.png" width="27.00" height="38.00" transform="matrix(1.00, 0.00, -0.00, -1.00, 282.0, 730.0)"></image><text xml:space="preserve" font-family="YanoneKaffeesatz-Bold" font-weight="bold" font-size="50.0" fill="#FEFFFE" transform="matrix(1.00, 0.00, -0.00, -1.00, 285.7, 699.0)">2</text><image xlink:href="../../F03797F4-16C0-42FC-9AF5-AE42FF3166A8/assets/1669E842C4AB884B115A62F93BE8C1AE.png" width="49.00" height="84.00" transform="matrix(1.00, 0.00, -0.00, -1.00, 304.0, 766.0)"></image><text xml:space="preserve" font-family="YanoneKaffeesatz-Bold" font-weight="bold" font-size="75.0" fill="#FEFFFE" transform="matrix(1.00, 0.00, -0.00, -1.00, 305.7, 704.0)">n</text><text xml:space="preserve" font-family="YanoneKaffeesatz-Bold" font-weight="bold" font-size="75.0" fill="#FEFFFE" transform="matrix(1.00, 0.00, -0.00, -1.00, 331.3, 704.0)">)</text><image xlink:href="../../BCE833C9-89BE-47DC-A06D-B55EB0C850AB/assets/671E2769678F0571EA6F1742AB50EEDD.png" width="640.00" height="365.00" transform="matrix(1.64, 0.00, -0.00, -1.64, 434.0, 686.0)"></image></g></svg>