<?xml version="1.0" encoding="UTF-8" standalone="no"?><svg xmlns="http://www.w3.org/2000/svg" xmlns:xlink="http://www.w3.org/1999/xlink" clip-rule="evenodd" stroke-miterlimit="4.00" viewBox="0 0 1920 1080"><desc>SVG generated by Keynote</desc><defs></defs><g transform="matrix(1.00, 0.00, -0.00, -1.00, 0.0, 1080.0)"><g><clipPath id="clip-6905"><path d="M 0.0 1080.0 L 1920.0 1080.0 L 1920.0 0.0 L 0.0 0.0 Z M 0.0 1080.0 "></path></clipPath><g clip-path="url(#clip-6905)"><image xlink:href="../../C790834B-C1C8-4410-8563-9C912CD2A702/assets/4B0075050CC9D0F3DC006F0CDE78D676.jpeg" width="1365.00" height="767.00" transform="matrix(1.41, 0.00, -0.00, -1.41, 0.0, 1080.0)"></image></g></g><path d="M 575.0 685.7 L 1345.0 685.7 L 1345.0 85.7 L 575.0 85.7 Z M 575.0 685.7 " fill="#E0E4CB"></path><image xlink:href="../../46B3C890-7B8E-43C6-B8B7-A6B112FA3157/assets/25D505548195CCA48BA282BD87254C4F.png" width="382.00" height="150.00" transform="matrix(1.00, 0.00, -0.00, -1.00, 769.0, 1006.0)"></image><text xml:space="preserve" font-family="YanoneKaffeesatz-Bold" font-weight="bold" font-size="200.0" fill="#FC6900" transform="matrix(1.00, 0.00, -0.00, -1.00, 772.0, 865.0)">V</text><text xml:space="preserve" font-family="YanoneKaffeesatz-Bold" font-weight="bold" font-size="200.0" fill="#FC6900" transform="matrix(1.00, 0.00, -0.00, -1.00, 846.6, 865.0)">e</text><text xml:space="preserve" font-family="YanoneKaffeesatz-Bold" font-weight="bold" font-size="200.0" fill="#FC6900" transform="matrix(1.00, 0.00, -0.00, -1.00, 915.8, 865.0)">c</text><text xml:space="preserve" font-family="YanoneKaffeesatz-Bold" font-weight="bold" font-size="200.0" fill="#FC6900" transform="matrix(1.00, 0.00, -0.00, -1.00, 976.2, 865.0)">t</text><text xml:space="preserve" font-family="YanoneKaffeesatz-Bold" font-weight="bold" font-size="200.0" fill="#FC6900" transform="matrix(1.00, 0.00, -0.00, -1.00, 1029.0, 865.0)">o</text><text xml:space="preserve" font-family="YanoneKaffeesatz-Bold" font-weight="bold" font-size="200.0" fill="#FC6900" transform="matrix(1.00, 0.00, -0.00, -1.00, 1099.2, 865.0)">r</text><image xlink:href="F39A617B0100FDB89E80B5B5E8AB983D.png" width="229.00" height="64.00" transform="matrix(1.00, 0.00, -0.00, -1.00, 558.0, 840.0)"></image><text xml:space="preserve" font-family="YanoneKaffeesatz-Bold" font-weight="bold" font-size="75.0" fill="#FE2500" transform="matrix(1.00, 0.00, -0.00, -1.00, 560.0, 784.0)">P</text><text xml:space="preserve" font-family="YanoneKaffeesatz-Bold" font-weight="bold" font-size="75.0" fill="#FE2500" transform="matrix(1.00, 0.00, -0.00, -1.00, 584.5, 784.0)">e</text><text xml:space="preserve" font-family="YanoneKaffeesatz-Bold" font-weight="bold" font-size="75.0" fill="#FE2500" transform="matrix(1.00, 0.00, -0.00, -1.00, 610.4, 784.0)">r</text><text xml:space="preserve" font-family="YanoneKaffeesatz-Bold" font-weight="bold" font-size="75.0" fill="#FE2500" transform="matrix(1.00, 0.00, -0.00, -1.00, 629.1, 784.0)">s</text><text xml:space="preserve" font-family="YanoneKaffeesatz-Bold" font-weight="bold" font-size="75.0" fill="#FE2500" transform="matrix(1.00, 0.00, -0.00, -1.00, 652.9, 784.0)">i</text><text xml:space="preserve" font-family="YanoneKaffeesatz-Bold" font-weight="bold" font-size="75.0" fill="#FE2500" transform="matrix(1.00, 0.00, -0.00, -1.00, 666.4, 784.0)">s</text><text xml:space="preserve" font-family="YanoneKaffeesatz-Bold" font-weight="bold" font-size="75.0" fill="#FE2500" transform="matrix(1.00, 0.00, -0.00, -1.00, 690.3, 784.0)">t</text><text xml:space="preserve" font-family="YanoneKaffeesatz-Bold" font-weight="bold" font-size="75.0" fill="#FE2500" transform="matrix(1.00, 0.00, -0.00, -1.00, 709.3, 784.0)">e</text><text xml:space="preserve" font-family="YanoneKaffeesatz-Bold" font-weight="bold" font-size="75.0" fill="#FE2500" transform="matrix(1.00, 0.00, -0.00, -1.00, 735.3, 784.0)">n</text><text xml:space="preserve" font-family="YanoneKaffeesatz-Bold" font-weight="bold" font-size="75.0" fill="#FE2500" transform="matrix(1.00, 0.00, -0.00, -1.00, 762.4, 784.0)">t</text><text xml:space="preserve" font-family="YanoneKaffeesatz-Bold" font-weight="bold" font-size="75.0" fill="#FE2500" transform="matrix(1.00, 0.00, -0.00, -1.00, 783.6, 784.0)"> </text><image xlink:href="B3CE189D7AB56ADD4A8795C515B765B7.png" width="82.00" height="64.00" transform="matrix(1.00, 0.00, -0.00, -1.00, 792.0, 840.0)"></image><text xml:space="preserve" font-family="YanoneKaffeesatz-Bold" font-weight="bold" font-size="75.0" fill="#64D1E8" transform="matrix(1.00, 0.00, -0.00, -1.00, 794.1, 784.0)">B</text><text xml:space="preserve" font-family="YanoneKaffeesatz-Bold" font-weight="bold" font-size="75.0" fill="#64D1E8" transform="matrix(1.00, 0.00, -0.00, -1.00, 821.0, 784.0)">i</text><text xml:space="preserve" font-family="YanoneKaffeesatz-Bold" font-weight="bold" font-size="75.0" fill="#64D1E8" transform="matrix(1.00, 0.00, -0.00, -1.00, 834.5, 784.0)">t</text><text xml:space="preserve" font-family="YanoneKaffeesatz-Bold" font-weight="bold" font-size="75.0" fill="#64D1E8" transform="matrix(1.00, 0.00, -0.00, -1.00, 851.8, 784.0)">-</text><image xlink:href="6C71FE98442AC18B0D283D0FBD8F10B8.png" width="250.00" height="65.00" transform="matrix(1.00, 0.00, -0.00, -1.00, 869.0, 841.0)"></image><text xml:space="preserve" font-family="YanoneKaffeesatz-Bold" font-weight="bold" font-size="75.0" fill="#E37055" transform="matrix(1.00, 0.00, -0.00, -1.00, 871.5, 784.0)">P</text><text xml:space="preserve" font-family="YanoneKaffeesatz-Bold" font-weight="bold" font-size="75.0" fill="#E37055" transform="matrix(1.00, 0.00, -0.00, -1.00, 897.0, 784.0)">a</text><text xml:space="preserve" font-family="YanoneKaffeesatz-Bold" font-weight="bold" font-size="75.0" fill="#E37055" transform="matrix(1.00, 0.00, -0.00, -1.00, 922.4, 784.0)">r</text><text xml:space="preserve" font-family="YanoneKaffeesatz-Bold" font-weight="bold" font-size="75.0" fill="#E37055" transform="matrix(1.00, 0.00, -0.00, -1.00, 941.1, 784.0)">t</text><text xml:space="preserve" font-family="YanoneKaffeesatz-Bold" font-weight="bold" font-size="75.0" fill="#E37055" transform="matrix(1.00, 0.00, -0.00, -1.00, 962.4, 784.0)">i</text><text xml:space="preserve" font-family="YanoneKaffeesatz-Bold" font-weight="bold" font-size="75.0" fill="#E37055" transform="matrix(1.00, 0.00, -0.00, -1.00, 975.9, 784.0)">t</text><text xml:space="preserve" font-family="YanoneKaffeesatz-Bold" font-weight="bold" font-size="75.0" fill="#E37055" transform="matrix(1.00, 0.00, -0.00, -1.00, 997.2, 784.0)">i</text><text xml:space="preserve" font-family="YanoneKaffeesatz-Bold" font-weight="bold" font-size="75.0" fill="#E37055" transform="matrix(1.00, 0.00, -0.00, -1.00, 1010.7, 784.0)">o</text><text xml:space="preserve" font-family="YanoneKaffeesatz-Bold" font-weight="bold" font-size="75.0" fill="#E37055" transform="matrix(1.00, 0.00, -0.00, -1.00, 1037.0, 784.0)">n</text><text xml:space="preserve" font-family="YanoneKaffeesatz-Bold" font-weight="bold" font-size="75.0" fill="#E37055" transform="matrix(1.00, 0.00, -0.00, -1.00, 1064.1, 784.0)">e</text><text xml:space="preserve" font-family="YanoneKaffeesatz-Bold" font-weight="bold" font-size="75.0" fill="#E37055" transform="matrix(1.00, 0.00, -0.00, -1.00, 1090.0, 784.0)">d</text><text xml:space="preserve" font-family="YanoneKaffeesatz-Bold" font-weight="bold" font-size="75.0" fill="#FE2500" transform="matrix(1.00, 0.00, -0.00, -1.00, 1117.5, 784.0)"> </text><image xlink:href="94DC335FA899C47F0D98C5DA6E8A2E5F.png" width="149.00" height="62.00" transform="matrix(1.00, 0.00, -0.00, -1.00, 1124.0, 838.0)"></image><text xml:space="preserve" font-family="YanoneKaffeesatz-Bold" font-weight="bold" font-size="75.0" fill="#55E3B7" transform="matrix(1.00, 0.00, -0.00, -1.00, 1128.0, 784.0)">V</text><text xml:space="preserve" font-family="YanoneKaffeesatz-Bold" font-weight="bold" font-size="75.0" fill="#55E3B7" transform="matrix(1.00, 0.00, -0.00, -1.00, 1156.0, 784.0)">e</text><text xml:space="preserve" font-family="YanoneKaffeesatz-Bold" font-weight="bold" font-size="75.0" fill="#55E3B7" transform="matrix(1.00, 0.00, -0.00, -1.00, 1181.9, 784.0)">c</text><text xml:space="preserve" font-family="YanoneKaffeesatz-Bold" font-weight="bold" font-size="75.0" fill="#55E3B7" transform="matrix(1.00, 0.00, -0.00, -1.00, 1204.6, 784.0)">t</text><text xml:space="preserve" font-family="YanoneKaffeesatz-Bold" font-weight="bold" font-size="75.0" fill="#55E3B7" transform="matrix(1.00, 0.00, -0.00, -1.00, 1224.3, 784.0)">o</text><text xml:space="preserve" font-family="YanoneKaffeesatz-Bold" font-weight="bold" font-size="75.0" fill="#55E3B7" transform="matrix(1.00, 0.00, -0.00, -1.00, 1250.7, 784.0)">r</text><text xml:space="preserve" font-family="YanoneKaffeesatz-Bold" font-weight="bold" font-size="75.0" fill="#FE2500" transform="matrix(1.00, 0.00, -0.00, -1.00, 1269.3, 784.0)"> </text><image xlink:href="6371F4462010D497893DEB5F66AF2161.png" width="86.00" height="64.00" transform="matrix(1.00, 0.00, -0.00, -1.00, 1276.0, 840.0)"></image><text xml:space="preserve" font-family="YanoneKaffeesatz-Bold" font-weight="bold" font-size="75.0" fill="#FC6900" transform="matrix(1.00, 0.00, -0.00, -1.00, 1279.8, 784.0)">T</text><text xml:space="preserve" font-family="YanoneKaffeesatz-Bold" font-weight="bold" font-size="75.0" fill="#FC6900" transform="matrix(1.00, 0.00, -0.00, -1.00, 1300.7, 784.0)">r</text><text xml:space="preserve" font-family="YanoneKaffeesatz-Bold" font-weight="bold" font-size="75.0" fill="#FC6900" transform="matrix(1.00, 0.00, -0.00, -1.00, 1319.4, 784.0)">i</text><text xml:space="preserve" font-family="YanoneKaffeesatz-Bold" font-weight="bold" font-size="75.0" fill="#FC6900" transform="matrix(1.00, 0.00, -0.00, -1.00, 1332.9, 784.0)">e</text><g><clipPath id="clip-6906"><path d="M 575.0 686.0 L 1345.0 686.0 L 1345.0 86.0 L 575.0 86.0 Z M 575.2 685.7 "></path></clipPath><g clip-path="url(#clip-6906)"><image xlink:href="087E8CE2F1207C10EEDBED298FDEB372.png" width="640.00" height="499.00" transform="matrix(1.20, 0.00, -0.00, -1.20, 575.0, 686.0)"></image></g></g><image xlink:href="4EF385A4096C12DD1247CCAE3B07BBAB.png" width="728.00" height="42.00" transform="matrix(1.00, 0.00, -0.00, -1.00, 596.0, 56.0)"></image><text xml:space="preserve" font-family="YanoneKaffeesatz-Regular" font-size="35.0" fill="#FEFFFE" transform="matrix(1.00, 0.00, -0.00, -1.00, 599.0, 28.0)">h</text><text xml:space="preserve" font-family="YanoneKaffeesatz-Regular" font-size="35.0" fill="#FEFFFE" transform="matrix(1.00, 0.00, -0.00, -1.00, 612.1, 28.0)">t</text><text xml:space="preserve" font-family="YanoneKaffeesatz-Regular" font-size="35.0" fill="#FEFFFE" transform="matrix(1.00, 0.00, -0.00, -1.00, 620.4, 28.0)">t</text><text xml:space="preserve" font-family="YanoneKaffeesatz-Regular" font-size="35.0" fill="#FEFFFE" transform="matrix(1.00, 0.00, -0.00, -1.00, 630.5, 28.0)">p</text><text xml:space="preserve" font-family="YanoneKaffeesatz-Regular" font-size="35.0" fill="#FEFFFE" transform="matrix(1.00, 0.00, -0.00, -1.00, 643.9, 28.0)">:</text><text xml:space="preserve" font-family="YanoneKaffeesatz-Regular" font-size="35.0" fill="#FEFFFE" transform="matrix(1.00, 0.00, -0.00, -1.00, 650.6, 28.0)">/</text><text xml:space="preserve" font-family="YanoneKaffeesatz-Regular" font-size="35.0" fill="#FEFFFE" transform="matrix(1.00, 0.00, -0.00, -1.00, 657.7, 28.0)">/</text><text xml:space="preserve" font-family="YanoneKaffeesatz-Regular" font-size="35.0" fill="#FEFFFE" transform="matrix(1.00, 0.00, -0.00, -1.00, 669.4, 28.0)">h</text><text xml:space="preserve" font-family="YanoneKaffeesatz-Regular" font-size="35.0" fill="#FEFFFE" transform="matrix(1.00, 0.00, -0.00, -1.00, 682.4, 28.0)">y</text><text xml:space="preserve" font-family="YanoneKaffeesatz-Regular" font-size="35.0" fill="#FEFFFE" transform="matrix(1.00, 0.00, -0.00, -1.00, 694.3, 28.0)">p</text><text xml:space="preserve" font-family="YanoneKaffeesatz-Regular" font-size="35.0" fill="#FEFFFE" transform="matrix(1.00, 0.00, -0.00, -1.00, 707.7, 28.0)">i</text><text xml:space="preserve" font-family="YanoneKaffeesatz-Regular" font-size="35.0" fill="#FEFFFE" transform="matrix(1.00, 0.00, -0.00, -1.00, 713.9, 28.0)">r</text><text xml:space="preserve" font-family="YanoneKaffeesatz-Regular" font-size="35.0" fill="#FEFFFE" transform="matrix(1.00, 0.00, -0.00, -1.00, 723.1, 28.0)">i</text><text xml:space="preserve" font-family="YanoneKaffeesatz-Regular" font-size="35.0" fill="#FEFFFE" transform="matrix(1.00, 0.00, -0.00, -1.00, 729.2, 28.0)">o</text><text xml:space="preserve" font-family="YanoneKaffeesatz-Regular" font-size="35.0" fill="#FEFFFE" transform="matrix(1.00, 0.00, -0.00, -1.00, 742.1, 28.0)">n</text><text xml:space="preserve" font-family="YanoneKaffeesatz-Regular" font-size="35.0" fill="#FEFFFE" transform="matrix(1.00, 0.00, -0.00, -1.00, 755.5, 28.0)">.</text><text xml:space="preserve" font-family="YanoneKaffeesatz-Regular" font-size="35.0" fill="#FEFFFE" transform="matrix(1.00, 0.00, -0.00, -1.00, 761.6, 28.0)">c</text><text xml:space="preserve" font-family="YanoneKaffeesatz-Regular" font-size="35.0" fill="#FEFFFE" transform="matrix(1.00, 0.00, -0.00, -1.00, 772.1, 28.0)">o</text><text xml:space="preserve" font-family="YanoneKaffeesatz-Regular" font-size="35.0" fill="#FEFFFE" transform="matrix(1.00, 0.00, -0.00, -1.00, 785.0, 28.0)">m</text><text xml:space="preserve" font-family="YanoneKaffeesatz-Regular" font-size="35.0" fill="#FEFFFE" transform="matrix(1.00, 0.00, -0.00, -1.00, 805.5, 28.0)">/</text><text xml:space="preserve" font-family="YanoneKaffeesatz-Regular" font-size="35.0" fill="#FEFFFE" transform="matrix(1.00, 0.00, -0.00, -1.00, 815.5, 28.0)">m</text><text xml:space="preserve" font-family="YanoneKaffeesatz-Regular" font-size="35.0" fill="#FEFFFE" transform="matrix(1.00, 0.00, -0.00, -1.00, 835.2, 28.0)">u</text><text xml:space="preserve" font-family="YanoneKaffeesatz-Regular" font-size="35.0" fill="#FEFFFE" transform="matrix(1.00, 0.00, -0.00, -1.00, 848.8, 28.0)">s</text><text xml:space="preserve" font-family="YanoneKaffeesatz-Regular" font-size="35.0" fill="#FEFFFE" transform="matrix(1.00, 0.00, -0.00, -1.00, 860.9, 28.0)">i</text><text xml:space="preserve" font-family="YanoneKaffeesatz-Regular" font-size="35.0" fill="#FEFFFE" transform="matrix(1.00, 0.00, -0.00, -1.00, 867.0, 28.0)">n</text><text xml:space="preserve" font-family="YanoneKaffeesatz-Regular" font-size="35.0" fill="#FEFFFE" transform="matrix(1.00, 0.00, -0.00, -1.00, 880.4, 28.0)">g</text><text xml:space="preserve" font-family="YanoneKaffeesatz-Regular" font-size="35.0" fill="#FEFFFE" transform="matrix(1.00, 0.00, -0.00, -1.00, 894.2, 28.0)">s</text><text xml:space="preserve" font-family="YanoneKaffeesatz-Regular" font-size="35.0" fill="#FEFFFE" transform="matrix(1.00, 0.00, -0.00, -1.00, 906.5, 28.0)">/</text><text xml:space="preserve" font-family="YanoneKaffeesatz-Regular" font-size="35.0" fill="#FEFFFE" transform="matrix(1.00, 0.00, -0.00, -1.00, 916.9, 28.0)">u</text><text xml:space="preserve" font-family="YanoneKaffeesatz-Regular" font-size="35.0" fill="#FEFFFE" transform="matrix(1.00, 0.00, -0.00, -1.00, 930.5, 28.0)">n</text><text xml:space="preserve" font-family="YanoneKaffeesatz-Regular" font-size="35.0" fill="#FEFFFE" transform="matrix(1.00, 0.00, -0.00, -1.00, 943.9, 28.0)">d</text><text xml:space="preserve" font-family="YanoneKaffeesatz-Regular" font-size="35.0" fill="#FEFFFE" transform="matrix(1.00, 0.00, -0.00, -1.00, 957.4, 28.0)">e</text><text xml:space="preserve" font-family="YanoneKaffeesatz-Regular" font-size="35.0" fill="#FEFFFE" transform="matrix(1.00, 0.00, -0.00, -1.00, 970.0, 28.0)">r</text><text xml:space="preserve" font-family="YanoneKaffeesatz-Regular" font-size="35.0" fill="#FEFFFE" transform="matrix(1.00, 0.00, -0.00, -1.00, 979.2, 28.0)">s</text><text xml:space="preserve" font-family="YanoneKaffeesatz-Regular" font-size="35.0" fill="#FEFFFE" transform="matrix(1.00, 0.00, -0.00, -1.00, 991.3, 28.0)">t</text><text xml:space="preserve" font-family="YanoneKaffeesatz-Regular" font-size="35.0" fill="#FEFFFE" transform="matrix(1.00, 0.00, -0.00, -1.00, 1001.5, 28.0)">a</text><text xml:space="preserve" font-family="YanoneKaffeesatz-Regular" font-size="35.0" fill="#FEFFFE" transform="matrix(1.00, 0.00, -0.00, -1.00, 1013.9, 28.0)">n</text><text xml:space="preserve" font-family="YanoneKaffeesatz-Regular" font-size="35.0" fill="#FEFFFE" transform="matrix(1.00, 0.00, -0.00, -1.00, 1027.3, 28.0)">d</text><text xml:space="preserve" font-family="YanoneKaffeesatz-Regular" font-size="35.0" fill="#FEFFFE" transform="matrix(1.00, 0.00, -0.00, -1.00, 1040.8, 28.0)">i</text><text xml:space="preserve" font-family="YanoneKaffeesatz-Regular" font-size="35.0" fill="#FEFFFE" transform="matrix(1.00, 0.00, -0.00, -1.00, 1046.9, 28.0)">n</text><text xml:space="preserve" font-family="YanoneKaffeesatz-Regular" font-size="35.0" fill="#FEFFFE" transform="matrix(1.00, 0.00, -0.00, -1.00, 1060.3, 28.0)">g</text><text xml:space="preserve" font-family="YanoneKaffeesatz-Regular" font-size="35.0" fill="#FEFFFE" transform="matrix(1.00, 0.00, -0.00, -1.00, 1074.0, 28.0)">-</text><text xml:space="preserve" font-family="YanoneKaffeesatz-Regular" font-size="35.0" fill="#FEFFFE" transform="matrix(1.00, 0.00, -0.00, -1.00, 1083.8, 28.0)">p</text><text xml:space="preserve" font-family="YanoneKaffeesatz-Regular" font-size="35.0" fill="#FEFFFE" transform="matrix(1.00, 0.00, -0.00, -1.00, 1097.2, 28.0)">e</text><text xml:space="preserve" font-family="YanoneKaffeesatz-Regular" font-size="35.0" fill="#FEFFFE" transform="matrix(1.00, 0.00, -0.00, -1.00, 1109.8, 28.0)">r</text><text xml:space="preserve" font-family="YanoneKaffeesatz-Regular" font-size="35.0" fill="#FEFFFE" transform="matrix(1.00, 0.00, -0.00, -1.00, 1119.0, 28.0)">s</text><text xml:space="preserve" font-family="YanoneKaffeesatz-Regular" font-size="35.0" fill="#FEFFFE" transform="matrix(1.00, 0.00, -0.00, -1.00, 1131.1, 28.0)">i</text><text xml:space="preserve" font-family="YanoneKaffeesatz-Regular" font-size="35.0" fill="#FEFFFE" transform="matrix(1.00, 0.00, -0.00, -1.00, 1137.2, 28.0)">s</text><text xml:space="preserve" font-family="YanoneKaffeesatz-Regular" font-size="35.0" fill="#FEFFFE" transform="matrix(1.00, 0.00, -0.00, -1.00, 1149.3, 28.0)">t</text><text xml:space="preserve" font-family="YanoneKaffeesatz-Regular" font-size="35.0" fill="#FEFFFE" transform="matrix(1.00, 0.00, -0.00, -1.00, 1158.7, 28.0)">e</text><text xml:space="preserve" font-family="YanoneKaffeesatz-Regular" font-size="35.0" fill="#FEFFFE" transform="matrix(1.00, 0.00, -0.00, -1.00, 1171.3, 28.0)">n</text><text xml:space="preserve" font-family="YanoneKaffeesatz-Regular" font-size="35.0" fill="#FEFFFE" transform="matrix(1.00, 0.00, -0.00, -1.00, 1184.7, 28.0)">t</text><text xml:space="preserve" font-family="YanoneKaffeesatz-Regular" font-size="35.0" fill="#FEFFFE" transform="matrix(1.00, 0.00, -0.00, -1.00, 1192.6, 28.0)">-</text><text xml:space="preserve" font-family="YanoneKaffeesatz-Regular" font-size="35.0" fill="#FEFFFE" transform="matrix(1.00, 0.00, -0.00, -1.00, 1201.4, 28.0)">v</text><text xml:space="preserve" font-family="YanoneKaffeesatz-Regular" font-size="35.0" fill="#FEFFFE" transform="matrix(1.00, 0.00, -0.00, -1.00, 1212.6, 28.0)">e</text><text xml:space="preserve" font-family="YanoneKaffeesatz-Regular" font-size="35.0" fill="#FEFFFE" transform="matrix(1.00, 0.00, -0.00, -1.00, 1225.3, 28.0)">c</text><text xml:space="preserve" font-family="YanoneKaffeesatz-Regular" font-size="35.0" fill="#FEFFFE" transform="matrix(1.00, 0.00, -0.00, -1.00, 1236.4, 28.0)">t</text><text xml:space="preserve" font-family="YanoneKaffeesatz-Regular" font-size="35.0" fill="#FEFFFE" transform="matrix(1.00, 0.00, -0.00, -1.00, 1246.0, 28.0)">o</text><text xml:space="preserve" font-family="YanoneKaffeesatz-Regular" font-size="35.0" fill="#FEFFFE" transform="matrix(1.00, 0.00, -0.00, -1.00, 1258.9, 28.0)">r</text><text xml:space="preserve" font-family="YanoneKaffeesatz-Regular" font-size="35.0" fill="#FEFFFE" transform="matrix(1.00, 0.00, -0.00, -1.00, 1265.6, 28.0)">-</text><text xml:space="preserve" font-family="YanoneKaffeesatz-Regular" font-size="35.0" fill="#FEFFFE" transform="matrix(1.00, 0.00, -0.00, -1.00, 1275.3, 28.0)">p</text><text xml:space="preserve" font-family="YanoneKaffeesatz-Regular" font-size="35.0" fill="#FEFFFE" transform="matrix(1.00, 0.00, -0.00, -1.00, 1288.4, 28.0)">t</text><text xml:space="preserve" font-family="YanoneKaffeesatz-Regular" font-size="35.0" fill="#FEFFFE" transform="matrix(1.00, 0.00, -0.00, -1.00, 1296.3, 28.0)">-</text><text xml:space="preserve" font-family="YanoneKaffeesatz-Regular" font-size="35.0" fill="#FEFFFE" transform="matrix(1.00, 0.00, -0.00, -1.00, 1306.0, 28.0)">1</text></g></svg>