<?xml version="1.0" encoding="UTF-8" standalone="no"?><svg xmlns="http://www.w3.org/2000/svg" xmlns:xlink="http://www.w3.org/1999/xlink" clip-rule="evenodd" stroke-miterlimit="4.00" viewBox="0 0 1920 1080"><desc>SVG generated by Keynote</desc><defs></defs><g transform="matrix(1.00, 0.00, -0.00, -1.00, 0.0, 1080.0)"><g><clipPath id="clip-563"><path d="M 0.0 1080.0 L 1920.0 1080.0 L 1920.0 0.0 L 0.0 0.0 Z M 0.0 1080.0 "></path></clipPath><g clip-path="url(#clip-563)"><image xlink:href="../../C790834B-C1C8-4410-8563-9C912CD2A702/assets/4B0075050CC9D0F3DC006F0CDE78D676.jpeg" width="1365.00" height="767.00" transform="matrix(1.41, 0.00, -0.00, -1.41, 0.0, 1080.0)"></image></g></g><image xlink:href="../../46B3C890-7B8E-43C6-B8B7-A6B112FA3157/assets/25D505548195CCA48BA282BD87254C4F.png" width="382.00" height="150.00" transform="matrix(1.00, 0.00, -0.00, -1.00, 769.0, 1006.0)"></image><text xml:space="preserve" font-family="YanoneKaffeesatz-Bold" font-weight="bold" font-size="200.0" fill="#FC6900" transform="matrix(1.00, 0.00, -0.00, -1.00, 772.0, 865.0)">V</text><text xml:space="preserve" font-family="YanoneKaffeesatz-Bold" font-weight="bold" font-size="200.0" fill="#FC6900" transform="matrix(1.00, 0.00, -0.00, -1.00, 846.6, 865.0)">e</text><text xml:space="preserve" font-family="YanoneKaffeesatz-Bold" font-weight="bold" font-size="200.0" fill="#FC6900" transform="matrix(1.00, 0.00, -0.00, -1.00, 915.8, 865.0)">c</text><text xml:space="preserve" font-family="YanoneKaffeesatz-Bold" font-weight="bold" font-size="200.0" fill="#FC6900" transform="matrix(1.00, 0.00, -0.00, -1.00, 976.2, 865.0)">t</text><text xml:space="preserve" font-family="YanoneKaffeesatz-Bold" font-weight="bold" font-size="200.0" fill="#FC6900" transform="matrix(1.00, 0.00, -0.00, -1.00, 1029.0, 865.0)">o</text><text xml:space="preserve" font-family="YanoneKaffeesatz-Bold" font-weight="bold" font-size="200.0" fill="#FC6900" transform="matrix(1.00, 0.00, -0.00, -1.00, 1099.2, 865.0)">r</text><image xlink:href="../../97A940DC-794B-4E41-B500-E97DC4D90C20/assets/91378FEA877AC38CE20B137A0F0044D1.png" width="302.00" height="82.00" transform="matrix(1.00, 0.00, -0.00, -1.00, 426.0, 576.0)"></image><text xml:space="preserve" font-family="YanoneKaffeesatz-Bold" font-weight="bold" font-size="100.0" fill="#FE2500" transform="matrix(1.00, 0.00, -0.00, -1.00, 427.0, 502.0)">P</text><text xml:space="preserve" font-family="YanoneKaffeesatz-Bold" font-weight="bold" font-size="100.0" fill="#FE2500" transform="matrix(1.00, 0.00, -0.00, -1.00, 459.6, 502.0)">e</text><text xml:space="preserve" font-family="YanoneKaffeesatz-Bold" font-weight="bold" font-size="100.0" fill="#FE2500" transform="matrix(1.00, 0.00, -0.00, -1.00, 494.2, 502.0)">r</text><text xml:space="preserve" font-family="YanoneKaffeesatz-Bold" font-weight="bold" font-size="100.0" fill="#FE2500" transform="matrix(1.00, 0.00, -0.00, -1.00, 519.1, 502.0)">s</text><text xml:space="preserve" font-family="YanoneKaffeesatz-Bold" font-weight="bold" font-size="100.0" fill="#FE2500" transform="matrix(1.00, 0.00, -0.00, -1.00, 550.9, 502.0)">i</text><text xml:space="preserve" font-family="YanoneKaffeesatz-Bold" font-weight="bold" font-size="100.0" fill="#FE2500" transform="matrix(1.00, 0.00, -0.00, -1.00, 568.9, 502.0)">s</text><text xml:space="preserve" font-family="YanoneKaffeesatz-Bold" font-weight="bold" font-size="100.0" fill="#FE2500" transform="matrix(1.00, 0.00, -0.00, -1.00, 600.7, 502.0)">t</text><text xml:space="preserve" font-family="YanoneKaffeesatz-Bold" font-weight="bold" font-size="100.0" fill="#FE2500" transform="matrix(1.00, 0.00, -0.00, -1.00, 626.1, 502.0)">e</text><text xml:space="preserve" font-family="YanoneKaffeesatz-Bold" font-weight="bold" font-size="100.0" fill="#FE2500" transform="matrix(1.00, 0.00, -0.00, -1.00, 660.7, 502.0)">n</text><text xml:space="preserve" font-family="YanoneKaffeesatz-Bold" font-weight="bold" font-size="100.0" fill="#FE2500" transform="matrix(1.00, 0.00, -0.00, -1.00, 696.8, 502.0)">t</text><text xml:space="preserve" font-family="YanoneKaffeesatz-Bold" font-weight="bold" font-size="100.0" fill="#FE2500" transform="matrix(1.00, 0.00, -0.00, -1.00, 725.2, 502.0)"> </text><image xlink:href="../../97A940DC-794B-4E41-B500-E97DC4D90C20/assets/E74DD07A822CDFE95C13D703D5209847.png" width="106.00" height="82.00" transform="matrix(1.00, 0.00, -0.00, -1.00, 738.0, 576.0)"></image><text xml:space="preserve" font-family="YanoneKaffeesatz-Bold" font-weight="bold" font-size="100.0" fill="#64D1E8" transform="matrix(1.00, 0.00, -0.00, -1.00, 739.2, 502.0)">B</text><text xml:space="preserve" font-family="YanoneKaffeesatz-Bold" font-weight="bold" font-size="100.0" fill="#64D1E8" transform="matrix(1.00, 0.00, -0.00, -1.00, 775.0, 502.0)">i</text><text xml:space="preserve" font-family="YanoneKaffeesatz-Bold" font-weight="bold" font-size="100.0" fill="#64D1E8" transform="matrix(1.00, 0.00, -0.00, -1.00, 793.0, 502.0)">t</text><text xml:space="preserve" font-family="YanoneKaffeesatz-Bold" font-weight="bold" font-size="100.0" fill="#64D1E8" transform="matrix(1.00, 0.00, -0.00, -1.00, 816.0, 502.0)">-</text><image xlink:href="../../97A940DC-794B-4E41-B500-E97DC4D90C20/assets/BF4A7F55131E7DE222E09444550B9045.png" width="330.00" height="83.00" transform="matrix(1.00, 0.00, -0.00, -1.00, 841.0, 577.0)"></image><text xml:space="preserve" font-family="YanoneKaffeesatz-Bold" font-weight="bold" font-size="100.0" fill="#E37055" transform="matrix(1.00, 0.00, -0.00, -1.00, 842.3, 502.0)">P</text><text xml:space="preserve" font-family="YanoneKaffeesatz-Bold" font-weight="bold" font-size="100.0" fill="#E37055" transform="matrix(1.00, 0.00, -0.00, -1.00, 876.4, 502.0)">a</text><text xml:space="preserve" font-family="YanoneKaffeesatz-Bold" font-weight="bold" font-size="100.0" fill="#E37055" transform="matrix(1.00, 0.00, -0.00, -1.00, 910.2, 502.0)">r</text><text xml:space="preserve" font-family="YanoneKaffeesatz-Bold" font-weight="bold" font-size="100.0" fill="#E37055" transform="matrix(1.00, 0.00, -0.00, -1.00, 935.1, 502.0)">t</text><text xml:space="preserve" font-family="YanoneKaffeesatz-Bold" font-weight="bold" font-size="100.0" fill="#E37055" transform="matrix(1.00, 0.00, -0.00, -1.00, 963.5, 502.0)">i</text><text xml:space="preserve" font-family="YanoneKaffeesatz-Bold" font-weight="bold" font-size="100.0" fill="#E37055" transform="matrix(1.00, 0.00, -0.00, -1.00, 981.5, 502.0)">t</text><text xml:space="preserve" font-family="YanoneKaffeesatz-Bold" font-weight="bold" font-size="100.0" fill="#E37055" transform="matrix(1.00, 0.00, -0.00, -1.00, 1009.9, 502.0)">i</text><text xml:space="preserve" font-family="YanoneKaffeesatz-Bold" font-weight="bold" font-size="100.0" fill="#E37055" transform="matrix(1.00, 0.00, -0.00, -1.00, 1027.9, 502.0)">o</text><text xml:space="preserve" font-family="YanoneKaffeesatz-Bold" font-weight="bold" font-size="100.0" fill="#E37055" transform="matrix(1.00, 0.00, -0.00, -1.00, 1063.0, 502.0)">n</text><text xml:space="preserve" font-family="YanoneKaffeesatz-Bold" font-weight="bold" font-size="100.0" fill="#E37055" transform="matrix(1.00, 0.00, -0.00, -1.00, 1099.1, 502.0)">e</text><text xml:space="preserve" font-family="YanoneKaffeesatz-Bold" font-weight="bold" font-size="100.0" fill="#E37055" transform="matrix(1.00, 0.00, -0.00, -1.00, 1133.7, 502.0)">d</text><text xml:space="preserve" font-family="YanoneKaffeesatz-Bold" font-weight="bold" font-size="100.0" fill="#FE2500" transform="matrix(1.00, 0.00, -0.00, -1.00, 1170.3, 502.0)"> </text><image xlink:href="../../97A940DC-794B-4E41-B500-E97DC4D90C20/assets/FF644EF225426B12FA7943998624A628.png" width="196.00" height="79.00" transform="matrix(1.00, 0.00, -0.00, -1.00, 1180.0, 573.0)"></image><text xml:space="preserve" font-family="YanoneKaffeesatz-Bold" font-weight="bold" font-size="100.0" fill="#55E3B7" transform="matrix(1.00, 0.00, -0.00, -1.00, 1184.3, 502.0)">V</text><text xml:space="preserve" font-family="YanoneKaffeesatz-Bold" font-weight="bold" font-size="100.0" fill="#55E3B7" transform="matrix(1.00, 0.00, -0.00, -1.00, 1221.6, 502.0)">e</text><text xml:space="preserve" font-family="YanoneKaffeesatz-Bold" font-weight="bold" font-size="100.0" fill="#55E3B7" transform="matrix(1.00, 0.00, -0.00, -1.00, 1256.2, 502.0)">c</text><text xml:space="preserve" font-family="YanoneKaffeesatz-Bold" font-weight="bold" font-size="100.0" fill="#55E3B7" transform="matrix(1.00, 0.00, -0.00, -1.00, 1286.4, 502.0)">t</text><text xml:space="preserve" font-family="YanoneKaffeesatz-Bold" font-weight="bold" font-size="100.0" fill="#55E3B7" transform="matrix(1.00, 0.00, -0.00, -1.00, 1312.8, 502.0)">o</text><text xml:space="preserve" font-family="YanoneKaffeesatz-Bold" font-weight="bold" font-size="100.0" fill="#55E3B7" transform="matrix(1.00, 0.00, -0.00, -1.00, 1347.9, 502.0)">r</text><text xml:space="preserve" font-family="YanoneKaffeesatz-Bold" font-weight="bold" font-size="100.0" fill="#FE2500" transform="matrix(1.00, 0.00, -0.00, -1.00, 1372.8, 502.0)"> </text><image xlink:href="../../97A940DC-794B-4E41-B500-E97DC4D90C20/assets/AD260B62D5A67919BB70DECA521E93E1.png" width="112.00" height="82.00" transform="matrix(1.00, 0.00, -0.00, -1.00, 1383.0, 576.0)"></image><text xml:space="preserve" font-family="YanoneKaffeesatz-Bold" font-weight="bold" font-size="100.0" fill="#FC6900" transform="matrix(1.00, 0.00, -0.00, -1.00, 1386.8, 502.0)">T</text><text xml:space="preserve" font-family="YanoneKaffeesatz-Bold" font-weight="bold" font-size="100.0" fill="#FC6900" transform="matrix(1.00, 0.00, -0.00, -1.00, 1414.6, 502.0)">r</text><text xml:space="preserve" font-family="YanoneKaffeesatz-Bold" font-weight="bold" font-size="100.0" fill="#FC6900" transform="matrix(1.00, 0.00, -0.00, -1.00, 1439.5, 502.0)">i</text><text xml:space="preserve" font-family="YanoneKaffeesatz-Bold" font-weight="bold" font-size="100.0" fill="#FC6900" transform="matrix(1.00, 0.00, -0.00, -1.00, 1457.5, 502.0)">e</text></g></svg>