<?xml version="1.0" encoding="UTF-8" standalone="no"?><svg xmlns="http://www.w3.org/2000/svg" xmlns:xlink="http://www.w3.org/1999/xlink" clip-rule="evenodd" stroke-miterlimit="4.00" viewBox="0 0 1920 1080"><desc>SVG generated by Keynote</desc><defs></defs><g transform="matrix(1.00, 0.00, -0.00, -1.00, 0.0, 1080.0)"><g><clipPath id="clip-9539"><path d="M 0.0 1080.0 L 1920.0 1080.0 L 1920.0 0.0 L 0.0 0.0 Z M 0.0 1080.0 "></path></clipPath><g clip-path="url(#clip-9539)"><image xlink:href="../../C790834B-C1C8-4410-8563-9C912CD2A702/assets/4B0075050CC9D0F3DC006F0CDE78D676.jpeg" width="1365.00" height="767.00" transform="matrix(1.41, 0.00, -0.00, -1.41, 0.0, 1080.0)"></image></g></g><image xlink:href="../../6D5BF4D2-8683-4777-9688-D15DBCFF0099/assets/7A391A0DF112F10415F2647D27738FCC.png" width="580.00" height="195.00" transform="matrix(1.00, 0.00, -0.00, -1.00, 669.0, 631.0)"></image><text xml:space="preserve" font-family="YanoneKaffeesatz-Bold" font-weight="bold" font-size="250.0" fill="#FC6900" transform="matrix(1.00, 0.00, -0.00, -1.00, 671.0, 446.0)">T</text><text xml:space="preserve" font-family="YanoneKaffeesatz-Bold" font-weight="bold" font-size="250.0" fill="#FC6900" transform="matrix(1.00, 0.00, -0.00, -1.00, 762.0, 446.0)">h</text><text xml:space="preserve" font-family="YanoneKaffeesatz-Bold" font-weight="bold" font-size="250.0" fill="#FC6900" transform="matrix(1.00, 0.00, -0.00, -1.00, 852.2, 446.0)">a</text><text xml:space="preserve" font-family="YanoneKaffeesatz-Bold" font-weight="bold" font-size="250.0" fill="#FC6900" transform="matrix(1.00, 0.00, -0.00, -1.00, 936.8, 446.0)">n</text><text xml:space="preserve" font-family="YanoneKaffeesatz-Bold" font-weight="bold" font-size="250.0" fill="#FC6900" transform="matrix(1.00, 0.00, -0.00, -1.00, 1027.0, 446.0)">k</text><text xml:space="preserve" font-family="YanoneKaffeesatz-Bold" font-weight="bold" font-size="250.0" fill="#FC6900" transform="matrix(1.00, 0.00, -0.00, -1.00, 1119.2, 446.0)">s</text><text xml:space="preserve" font-family="YanoneKaffeesatz-Bold" font-weight="bold" font-size="250.0" fill="#FC6900" transform="matrix(1.00, 0.00, -0.00, -1.00, 1198.8, 446.0)">!</text><image xlink:href="../../C790834B-C1C8-4410-8563-9C912CD2A702/assets/C66C27239D9A2120A7D802E471A5D1D9.png" width="341.00" height="102.00" transform="matrix(1.00, 0.00, -0.00, -1.00, 791.0, 368.0)"></image><text xml:space="preserve" font-family="YanoneKaffeesatz-Regular" font-size="100.0" fill="#64D1E8" transform="matrix(1.00, 0.00, -0.00, -1.00, 791.0, 293.0)">@</text><text xml:space="preserve" font-family="YanoneKaffeesatz-Regular" font-size="100.0" fill="#64D1E8" transform="matrix(1.00, 0.00, -0.00, -1.00, 864.8, 293.0)">f</text><text xml:space="preserve" font-family="YanoneKaffeesatz-Regular" font-size="100.0" fill="#64D1E8" transform="matrix(1.00, 0.00, -0.00, -1.00, 890.3, 293.0)">x</text><text xml:space="preserve" font-family="YanoneKaffeesatz-Regular" font-size="100.0" fill="#64D1E8" transform="matrix(1.00, 0.00, -0.00, -1.00, 930.3, 293.0)">p</text><text xml:space="preserve" font-family="YanoneKaffeesatz-Regular" font-size="100.0" fill="#64D1E8" transform="matrix(1.00, 0.00, -0.00, -1.00, 968.6, 293.0)">o</text><text xml:space="preserve" font-family="YanoneKaffeesatz-Regular" font-size="100.0" fill="#64D1E8" transform="matrix(1.00, 0.00, -0.00, -1.00, 1005.4, 293.0)">s</text><text xml:space="preserve" font-family="YanoneKaffeesatz-Regular" font-size="100.0" fill="#64D1E8" transform="matrix(1.00, 0.00, -0.00, -1.00, 1039.9, 293.0)">t</text><text xml:space="preserve" font-family="YanoneKaffeesatz-Regular" font-size="100.0" fill="#64D1E8" transform="matrix(1.00, 0.00, -0.00, -1.00, 1066.7, 293.0)">e</text><text xml:space="preserve" font-family="YanoneKaffeesatz-Regular" font-size="100.0" fill="#64D1E8" transform="matrix(1.00, 0.00, -0.00, -1.00, 1102.8, 293.0)">r</text></g></svg>