<?xml version="1.0" encoding="UTF-8" standalone="no"?><svg xmlns="http://www.w3.org/2000/svg" xmlns:xlink="http://www.w3.org/1999/xlink" clip-rule="evenodd" stroke-miterlimit="4.00" viewBox="0 0 1920 1080"><desc>SVG generated by Keynote</desc><defs></defs><g transform="matrix(1.00, 0.00, -0.00, -1.00, 0.0, 1080.0)"><g><clipPath id="clip-2943"><path d="M 0.0 1080.0 L 1920.0 1080.0 L 1920.0 0.0 L 0.0 0.0 Z M 0.0 1080.0 "></path></clipPath><g clip-path="url(#clip-2943)"><image xlink:href="../../C790834B-C1C8-4410-8563-9C912CD2A702/assets/4B0075050CC9D0F3DC006F0CDE78D676.jpeg" width="1365.00" height="767.00" transform="matrix(1.41, 0.00, -0.00, -1.41, 0.0, 1080.0)"></image></g></g><image xlink:href="../../2E331B7C-7617-4512-A881-368BC7309C1B/assets/5A8D98ADE81213C80040246DBC1A4E6C.png" width="514.00" height="195.00" transform="matrix(1.00, 0.00, -0.00, -1.00, 704.0, 1013.0)"></image><text xml:space="preserve" font-family="YanoneKaffeesatz-Bold" font-weight="bold" font-size="200.0" fill="#FC6900" transform="matrix(1.00, 0.00, -0.00, -1.00, 702.0, 865.0)">H</text><text xml:space="preserve" font-family="YanoneKaffeesatz-Bold" font-weight="bold" font-size="200.0" fill="#FC6900" transform="matrix(1.00, 0.00, -0.00, -1.00, 778.4, 865.0)">a</text><text xml:space="preserve" font-family="YanoneKaffeesatz-Bold" font-weight="bold" font-size="200.0" fill="#FC6900" transform="matrix(1.00, 0.00, -0.00, -1.00, 846.0, 865.0)">s</text><text xml:space="preserve" font-family="YanoneKaffeesatz-Bold" font-weight="bold" font-size="200.0" fill="#FC6900" transform="matrix(1.00, 0.00, -0.00, -1.00, 909.6, 865.0)">h</text><text xml:space="preserve" font-family="YanoneKaffeesatz-Bold" font-weight="bold" font-size="200.0" fill="#FC6900" transform="matrix(1.00, 0.00, -0.00, -1.00, 981.8, 865.0)">M</text><text xml:space="preserve" font-family="YanoneKaffeesatz-Bold" font-weight="bold" font-size="200.0" fill="#FC6900" transform="matrix(1.00, 0.00, -0.00, -1.00, 1077.2, 865.0)">a</text><text xml:space="preserve" font-family="YanoneKaffeesatz-Bold" font-weight="bold" font-size="200.0" fill="#FC6900" transform="matrix(1.00, 0.00, -0.00, -1.00, 1144.8, 865.0)">p</text><image xlink:href="73F9526123E97D450D99A58F6AD652B2.png" width="1640.00" height="108.00" transform="matrix(1.00, 0.00, -0.00, -1.00, 139.0, 648.0)"></image><text xml:space="preserve" font-family="YanoneKaffeesatz-Bold" font-weight="bold" font-size="100.0" fill="#FEFFFE" transform="matrix(1.00, 0.00, -0.00, -1.00, 143.0, 567.0)">W</text><text xml:space="preserve" font-family="YanoneKaffeesatz-Bold" font-weight="bold" font-size="100.0" fill="#FEFFFE" transform="matrix(1.00, 0.00, -0.00, -1.00, 205.1, 567.0)">e</text><text xml:space="preserve" font-family="YanoneKaffeesatz-Bold" font-weight="bold" font-size="100.0" fill="#FEFFFE" transform="matrix(1.00, 0.00, -0.00, -1.00, 239.7, 567.0)"> </text><text xml:space="preserve" font-family="YanoneKaffeesatz-Bold" font-weight="bold" font-size="100.0" fill="#FEFFFE" transform="matrix(1.00, 0.00, -0.00, -1.00, 253.7, 567.0)">c</text><text xml:space="preserve" font-family="YanoneKaffeesatz-Bold" font-weight="bold" font-size="100.0" fill="#FEFFFE" transform="matrix(1.00, 0.00, -0.00, -1.00, 282.9, 567.0)">a</text><text xml:space="preserve" font-family="YanoneKaffeesatz-Bold" font-weight="bold" font-size="100.0" fill="#FEFFFE" transform="matrix(1.00, 0.00, -0.00, -1.00, 316.7, 567.0)">n</text><text xml:space="preserve" font-family="YanoneKaffeesatz-Bold" font-weight="bold" font-size="100.0" fill="#FEFFFE" transform="matrix(1.00, 0.00, -0.00, -1.00, 344.2, 567.0)">’</text><text xml:space="preserve" font-family="YanoneKaffeesatz-Bold" font-weight="bold" font-size="100.0" fill="#FEFFFE" transform="matrix(1.00, 0.00, -0.00, -1.00, 362.0, 567.0)">t</text><text xml:space="preserve" font-family="YanoneKaffeesatz-Bold" font-weight="bold" font-size="100.0" fill="#FEFFFE" transform="matrix(1.00, 0.00, -0.00, -1.00, 390.4, 567.0)"> </text><text xml:space="preserve" font-family="YanoneKaffeesatz-Bold" font-weight="bold" font-size="100.0" fill="#FEFFFE" transform="matrix(1.00, 0.00, -0.00, -1.00, 404.4, 567.0)">a</text><text xml:space="preserve" font-family="YanoneKaffeesatz-Bold" font-weight="bold" font-size="100.0" fill="#FEFFFE" transform="matrix(1.00, 0.00, -0.00, -1.00, 438.2, 567.0)">l</text><text xml:space="preserve" font-family="YanoneKaffeesatz-Bold" font-weight="bold" font-size="100.0" fill="#FEFFFE" transform="matrix(1.00, 0.00, -0.00, -1.00, 456.0, 567.0)">l</text><text xml:space="preserve" font-family="YanoneKaffeesatz-Bold" font-weight="bold" font-size="100.0" fill="#FEFFFE" transform="matrix(1.00, 0.00, -0.00, -1.00, 473.8, 567.0)">o</text><text xml:space="preserve" font-family="YanoneKaffeesatz-Bold" font-weight="bold" font-size="100.0" fill="#FEFFFE" transform="matrix(1.00, 0.00, -0.00, -1.00, 508.9, 567.0)">c</text><text xml:space="preserve" font-family="YanoneKaffeesatz-Bold" font-weight="bold" font-size="100.0" fill="#FEFFFE" transform="matrix(1.00, 0.00, -0.00, -1.00, 538.1, 567.0)">a</text><text xml:space="preserve" font-family="YanoneKaffeesatz-Bold" font-weight="bold" font-size="100.0" fill="#FEFFFE" transform="matrix(1.00, 0.00, -0.00, -1.00, 570.9, 567.0)">t</text><text xml:space="preserve" font-family="YanoneKaffeesatz-Bold" font-weight="bold" font-size="100.0" fill="#FEFFFE" transform="matrix(1.00, 0.00, -0.00, -1.00, 596.3, 567.0)">e</text><text xml:space="preserve" font-family="YanoneKaffeesatz-Bold" font-weight="bold" font-size="100.0" fill="#FEFFFE" transform="matrix(1.00, 0.00, -0.00, -1.00, 630.9, 567.0)"> </text><text xml:space="preserve" font-family="YanoneKaffeesatz-Bold" font-weight="bold" font-size="100.0" fill="#FEFFFE" transform="matrix(1.00, 0.00, -0.00, -1.00, 644.9, 567.0)">t</text><text xml:space="preserve" font-family="YanoneKaffeesatz-Bold" font-weight="bold" font-size="100.0" fill="#FEFFFE" transform="matrix(1.00, 0.00, -0.00, -1.00, 673.3, 567.0)">h</text><text xml:space="preserve" font-family="YanoneKaffeesatz-Bold" font-weight="bold" font-size="100.0" fill="#FEFFFE" transform="matrix(1.00, 0.00, -0.00, -1.00, 709.4, 567.0)">a</text><text xml:space="preserve" font-family="YanoneKaffeesatz-Bold" font-weight="bold" font-size="100.0" fill="#FEFFFE" transform="matrix(1.00, 0.00, -0.00, -1.00, 742.2, 567.0)">t</text><text xml:space="preserve" font-family="YanoneKaffeesatz-Bold" font-weight="bold" font-size="100.0" fill="#FEFFFE" transform="matrix(1.00, 0.00, -0.00, -1.00, 770.6, 567.0)"> </text><text xml:space="preserve" font-family="YanoneKaffeesatz-Bold" font-weight="bold" font-size="100.0" fill="#FEFFFE" transform="matrix(1.00, 0.00, -0.00, -1.00, 784.6, 567.0)">m</text><text xml:space="preserve" font-family="YanoneKaffeesatz-Bold" font-weight="bold" font-size="100.0" fill="#FEFFFE" transform="matrix(1.00, 0.00, -0.00, -1.00, 837.6, 567.0)">u</text><text xml:space="preserve" font-family="YanoneKaffeesatz-Bold" font-weight="bold" font-size="100.0" fill="#FEFFFE" transform="matrix(1.00, 0.00, -0.00, -1.00, 873.7, 567.0)">c</text><text xml:space="preserve" font-family="YanoneKaffeesatz-Bold" font-weight="bold" font-size="100.0" fill="#FEFFFE" transform="matrix(1.00, 0.00, -0.00, -1.00, 902.9, 567.0)">h</text><text xml:space="preserve" font-family="YanoneKaffeesatz-Bold" font-weight="bold" font-size="100.0" fill="#FEFFFE" transform="matrix(1.00, 0.00, -0.00, -1.00, 939.0, 567.0)"> </text><text xml:space="preserve" font-family="YanoneKaffeesatz-Bold" font-weight="bold" font-size="100.0" fill="#FEFFFE" transform="matrix(1.00, 0.00, -0.00, -1.00, 953.0, 567.0)">m</text><text xml:space="preserve" font-family="YanoneKaffeesatz-Bold" font-weight="bold" font-size="100.0" fill="#FEFFFE" transform="matrix(1.00, 0.00, -0.00, -1.00, 1006.0, 567.0)">e</text><text xml:space="preserve" font-family="YanoneKaffeesatz-Bold" font-weight="bold" font-size="100.0" fill="#FEFFFE" transform="matrix(1.00, 0.00, -0.00, -1.00, 1040.6, 567.0)">m</text><text xml:space="preserve" font-family="YanoneKaffeesatz-Bold" font-weight="bold" font-size="100.0" fill="#FEFFFE" transform="matrix(1.00, 0.00, -0.00, -1.00, 1093.6, 567.0)">o</text><text xml:space="preserve" font-family="YanoneKaffeesatz-Bold" font-weight="bold" font-size="100.0" fill="#FEFFFE" transform="matrix(1.00, 0.00, -0.00, -1.00, 1128.7, 567.0)">r</text><text xml:space="preserve" font-family="YanoneKaffeesatz-Bold" font-weight="bold" font-size="100.0" fill="#FEFFFE" transform="matrix(1.00, 0.00, -0.00, -1.00, 1153.6, 567.0)">y</text><text xml:space="preserve" font-family="YanoneKaffeesatz-Bold" font-weight="bold" font-size="100.0" fill="#FEFFFE" transform="matrix(1.00, 0.00, -0.00, -1.00, 1187.6, 567.0)"> </text><text xml:space="preserve" font-family="YanoneKaffeesatz-Bold" font-weight="bold" font-size="100.0" fill="#FEFFFE" transform="matrix(1.00, 0.00, -0.00, -1.00, 1201.6, 567.0)">f</text><text xml:space="preserve" font-family="YanoneKaffeesatz-Bold" font-weight="bold" font-size="100.0" fill="#FEFFFE" transform="matrix(1.00, 0.00, -0.00, -1.00, 1226.8, 567.0)">r</text><text xml:space="preserve" font-family="YanoneKaffeesatz-Bold" font-weight="bold" font-size="100.0" fill="#FEFFFE" transform="matrix(1.00, 0.00, -0.00, -1.00, 1249.7, 567.0)">o</text><text xml:space="preserve" font-family="YanoneKaffeesatz-Bold" font-weight="bold" font-size="100.0" fill="#FEFFFE" transform="matrix(1.00, 0.00, -0.00, -1.00, 1284.8, 567.0)">m</text><text xml:space="preserve" font-family="YanoneKaffeesatz-Bold" font-weight="bold" font-size="100.0" fill="#FEFFFE" transform="matrix(1.00, 0.00, -0.00, -1.00, 1337.8, 567.0)"> </text><text xml:space="preserve" font-family="YanoneKaffeesatz-Bold" font-weight="bold" font-size="100.0" fill="#FEFFFE" transform="matrix(1.00, 0.00, -0.00, -1.00, 1351.8, 567.0)">t</text><text xml:space="preserve" font-family="YanoneKaffeesatz-Bold" font-weight="bold" font-size="100.0" fill="#FEFFFE" transform="matrix(1.00, 0.00, -0.00, -1.00, 1380.2, 567.0)">h</text><text xml:space="preserve" font-family="YanoneKaffeesatz-Bold" font-weight="bold" font-size="100.0" fill="#FEFFFE" transform="matrix(1.00, 0.00, -0.00, -1.00, 1416.3, 567.0)">e</text><text xml:space="preserve" font-family="YanoneKaffeesatz-Bold" font-weight="bold" font-size="100.0" fill="#FEFFFE" transform="matrix(1.00, 0.00, -0.00, -1.00, 1450.9, 567.0)"> </text><text xml:space="preserve" font-family="YanoneKaffeesatz-Bold" font-weight="bold" font-size="100.0" fill="#FEFFFE" transform="matrix(1.00, 0.00, -0.00, -1.00, 1464.9, 567.0)">b</text><text xml:space="preserve" font-family="YanoneKaffeesatz-Bold" font-weight="bold" font-size="100.0" fill="#FEFFFE" transform="matrix(1.00, 0.00, -0.00, -1.00, 1501.1, 567.0)">e</text><text xml:space="preserve" font-family="YanoneKaffeesatz-Bold" font-weight="bold" font-size="100.0" fill="#FEFFFE" transform="matrix(1.00, 0.00, -0.00, -1.00, 1535.7, 567.0)">g</text><text xml:space="preserve" font-family="YanoneKaffeesatz-Bold" font-weight="bold" font-size="100.0" fill="#FEFFFE" transform="matrix(1.00, 0.00, -0.00, -1.00, 1573.9, 567.0)">i</text><text xml:space="preserve" font-family="YanoneKaffeesatz-Bold" font-weight="bold" font-size="100.0" fill="#FEFFFE" transform="matrix(1.00, 0.00, -0.00, -1.00, 1591.9, 567.0)">n</text><text xml:space="preserve" font-family="YanoneKaffeesatz-Bold" font-weight="bold" font-size="100.0" fill="#FEFFFE" transform="matrix(1.00, 0.00, -0.00, -1.00, 1628.0, 567.0)">n</text><text xml:space="preserve" font-family="YanoneKaffeesatz-Bold" font-weight="bold" font-size="100.0" fill="#FEFFFE" transform="matrix(1.00, 0.00, -0.00, -1.00, 1664.1, 567.0)">i</text><text xml:space="preserve" font-family="YanoneKaffeesatz-Bold" font-weight="bold" font-size="100.0" fill="#FEFFFE" transform="matrix(1.00, 0.00, -0.00, -1.00, 1682.1, 567.0)">n</text><text xml:space="preserve" font-family="YanoneKaffeesatz-Bold" font-weight="bold" font-size="100.0" fill="#FEFFFE" transform="matrix(1.00, 0.00, -0.00, -1.00, 1718.2, 567.0)">g</text><text xml:space="preserve" font-family="YanoneKaffeesatz-Bold" font-weight="bold" font-size="100.0" fill="#FEFFFE" transform="matrix(1.00, 0.00, -0.00, -1.00, 1756.4, 567.0)">!</text><text xml:space="preserve" font-family="YanoneKaffeesatz-Bold" font-weight="bold" font-size="100.0" fill="#FEFFFE" transform="matrix(1.00, 0.00, -0.00, -1.00, 1776.6, 567.0)"> </text><image xlink:href="7DACE49B5858374DEDC6E93537003E35.png" width="966.00" height="102.00" transform="matrix(1.00, 0.00, -0.00, -1.00, 477.0, 523.0)"></image><text xml:space="preserve" font-family="YanoneKaffeesatz-Bold" font-weight="bold" font-size="100.0" fill="#FEFFFE" transform="matrix(1.00, 0.00, -0.00, -1.00, 480.0, 448.0)">S</text><text xml:space="preserve" font-family="YanoneKaffeesatz-Bold" font-weight="bold" font-size="100.0" fill="#FEFFFE" transform="matrix(1.00, 0.00, -0.00, -1.00, 514.4, 448.0)">o</text><text xml:space="preserve" font-family="YanoneKaffeesatz-Bold" font-weight="bold" font-size="100.0" fill="#FEFFFE" transform="matrix(1.00, 0.00, -0.00, -1.00, 549.5, 448.0)">l</text><text xml:space="preserve" font-family="YanoneKaffeesatz-Bold" font-weight="bold" font-size="100.0" fill="#FEFFFE" transform="matrix(1.00, 0.00, -0.00, -1.00, 567.3, 448.0)">u</text><text xml:space="preserve" font-family="YanoneKaffeesatz-Bold" font-weight="bold" font-size="100.0" fill="#FEFFFE" transform="matrix(1.00, 0.00, -0.00, -1.00, 603.4, 448.0)">t</text><text xml:space="preserve" font-family="YanoneKaffeesatz-Bold" font-weight="bold" font-size="100.0" fill="#FEFFFE" transform="matrix(1.00, 0.00, -0.00, -1.00, 631.8, 448.0)">i</text><text xml:space="preserve" font-family="YanoneKaffeesatz-Bold" font-weight="bold" font-size="100.0" fill="#FEFFFE" transform="matrix(1.00, 0.00, -0.00, -1.00, 649.8, 448.0)">o</text><text xml:space="preserve" font-family="YanoneKaffeesatz-Bold" font-weight="bold" font-size="100.0" fill="#FEFFFE" transform="matrix(1.00, 0.00, -0.00, -1.00, 684.9, 448.0)">n</text><text xml:space="preserve" font-family="YanoneKaffeesatz-Bold" font-weight="bold" font-size="100.0" fill="#FEFFFE" transform="matrix(1.00, 0.00, -0.00, -1.00, 721.0, 448.0)">:</text><text xml:space="preserve" font-family="YanoneKaffeesatz-Bold" font-weight="bold" font-size="100.0" fill="#FEFFFE" transform="matrix(1.00, 0.00, -0.00, -1.00, 739.8, 448.0)"> </text><text xml:space="preserve" font-family="YanoneKaffeesatz-Bold" font-weight="bold" font-size="100.0" fill="#FEFFFE" transform="matrix(1.00, 0.00, -0.00, -1.00, 753.8, 448.0)">b</text><text xml:space="preserve" font-family="YanoneKaffeesatz-Bold" font-weight="bold" font-size="100.0" fill="#FEFFFE" transform="matrix(1.00, 0.00, -0.00, -1.00, 790.0, 448.0)">u</text><text xml:space="preserve" font-family="YanoneKaffeesatz-Bold" font-weight="bold" font-size="100.0" fill="#FEFFFE" transform="matrix(1.00, 0.00, -0.00, -1.00, 826.1, 448.0)">i</text><text xml:space="preserve" font-family="YanoneKaffeesatz-Bold" font-weight="bold" font-size="100.0" fill="#FEFFFE" transform="matrix(1.00, 0.00, -0.00, -1.00, 844.1, 448.0)">l</text><text xml:space="preserve" font-family="YanoneKaffeesatz-Bold" font-weight="bold" font-size="100.0" fill="#FEFFFE" transform="matrix(1.00, 0.00, -0.00, -1.00, 861.9, 448.0)">t</text><text xml:space="preserve" font-family="YanoneKaffeesatz-Bold" font-weight="bold" font-size="100.0" fill="#FEFFFE" transform="matrix(1.00, 0.00, -0.00, -1.00, 890.3, 448.0)"> </text><text xml:space="preserve" font-family="YanoneKaffeesatz-Bold" font-weight="bold" font-size="100.0" fill="#FEFFFE" transform="matrix(1.00, 0.00, -0.00, -1.00, 904.3, 448.0)">t</text><text xml:space="preserve" font-family="YanoneKaffeesatz-Bold" font-weight="bold" font-size="100.0" fill="#FEFFFE" transform="matrix(1.00, 0.00, -0.00, -1.00, 932.7, 448.0)">r</text><text xml:space="preserve" font-family="YanoneKaffeesatz-Bold" font-weight="bold" font-size="100.0" fill="#FEFFFE" transform="matrix(1.00, 0.00, -0.00, -1.00, 957.6, 448.0)">i</text><text xml:space="preserve" font-family="YanoneKaffeesatz-Bold" font-weight="bold" font-size="100.0" fill="#FEFFFE" transform="matrix(1.00, 0.00, -0.00, -1.00, 975.6, 448.0)">e</text><text xml:space="preserve" font-family="YanoneKaffeesatz-Bold" font-weight="bold" font-size="100.0" fill="#FEFFFE" transform="matrix(1.00, 0.00, -0.00, -1.00, 1010.2, 448.0)"> </text><text xml:space="preserve" font-family="YanoneKaffeesatz-Bold" font-weight="bold" font-size="100.0" fill="#FEFFFE" transform="matrix(1.00, 0.00, -0.00, -1.00, 1024.2, 448.0)">i</text><text xml:space="preserve" font-family="YanoneKaffeesatz-Bold" font-weight="bold" font-size="100.0" fill="#FEFFFE" transform="matrix(1.00, 0.00, -0.00, -1.00, 1042.2, 448.0)">n</text><text xml:space="preserve" font-family="YanoneKaffeesatz-Bold" font-weight="bold" font-size="100.0" fill="#FEFFFE" transform="matrix(1.00, 0.00, -0.00, -1.00, 1078.3, 448.0)">c</text><text xml:space="preserve" font-family="YanoneKaffeesatz-Bold" font-weight="bold" font-size="100.0" fill="#FEFFFE" transform="matrix(1.00, 0.00, -0.00, -1.00, 1107.5, 448.0)">r</text><text xml:space="preserve" font-family="YanoneKaffeesatz-Bold" font-weight="bold" font-size="100.0" fill="#FEFFFE" transform="matrix(1.00, 0.00, -0.00, -1.00, 1130.4, 448.0)">e</text><text xml:space="preserve" font-family="YanoneKaffeesatz-Bold" font-weight="bold" font-size="100.0" fill="#FEFFFE" transform="matrix(1.00, 0.00, -0.00, -1.00, 1165.0, 448.0)">m</text><text xml:space="preserve" font-family="YanoneKaffeesatz-Bold" font-weight="bold" font-size="100.0" fill="#FEFFFE" transform="matrix(1.00, 0.00, -0.00, -1.00, 1218.0, 448.0)">e</text><text xml:space="preserve" font-family="YanoneKaffeesatz-Bold" font-weight="bold" font-size="100.0" fill="#FEFFFE" transform="matrix(1.00, 0.00, -0.00, -1.00, 1252.6, 448.0)">n</text><text xml:space="preserve" font-family="YanoneKaffeesatz-Bold" font-weight="bold" font-size="100.0" fill="#FEFFFE" transform="matrix(1.00, 0.00, -0.00, -1.00, 1288.7, 448.0)">t</text><text xml:space="preserve" font-family="YanoneKaffeesatz-Bold" font-weight="bold" font-size="100.0" fill="#FEFFFE" transform="matrix(1.00, 0.00, -0.00, -1.00, 1317.1, 448.0)">a</text><text xml:space="preserve" font-family="YanoneKaffeesatz-Bold" font-weight="bold" font-size="100.0" fill="#FEFFFE" transform="matrix(1.00, 0.00, -0.00, -1.00, 1350.9, 448.0)">l</text><text xml:space="preserve" font-family="YanoneKaffeesatz-Bold" font-weight="bold" font-size="100.0" fill="#FEFFFE" transform="matrix(1.00, 0.00, -0.00, -1.00, 1368.7, 448.0)">l</text><text xml:space="preserve" font-family="YanoneKaffeesatz-Bold" font-weight="bold" font-size="100.0" fill="#FEFFFE" transform="matrix(1.00, 0.00, -0.00, -1.00, 1386.5, 448.0)">y</text><text xml:space="preserve" font-family="YanoneKaffeesatz-Bold" font-weight="bold" font-size="100.0" fill="#FEFFFE" transform="matrix(1.00, 0.00, -0.00, -1.00, 1420.5, 448.0)">!</text><text xml:space="preserve" font-family="YanoneKaffeesatz-Bold" font-weight="bold" font-size="100.0" fill="#FEFFFE" transform="matrix(1.00, 0.00, -0.00, -1.00, 1440.7, 448.0)"> </text><image xlink:href="26B2184059BF0AE4ECED372C76BAD1E6.png" width="1053.00" height="102.00" transform="matrix(1.00, 0.00, -0.00, -1.00, 434.0, 404.0)"></image><text xml:space="preserve" font-family="YanoneKaffeesatz-Bold" font-weight="bold" font-size="100.0" fill="#FEFFFE" transform="matrix(1.00, 0.00, -0.00, -1.00, 435.0, 329.0)">P</text><text xml:space="preserve" font-family="YanoneKaffeesatz-Bold" font-weight="bold" font-size="100.0" fill="#FEFFFE" transform="matrix(1.00, 0.00, -0.00, -1.00, 469.1, 329.0)">a</text><text xml:space="preserve" font-family="YanoneKaffeesatz-Bold" font-weight="bold" font-size="100.0" fill="#FEFFFE" transform="matrix(1.00, 0.00, -0.00, -1.00, 501.9, 329.0)">t</text><text xml:space="preserve" font-family="YanoneKaffeesatz-Bold" font-weight="bold" font-size="100.0" fill="#FEFFFE" transform="matrix(1.00, 0.00, -0.00, -1.00, 530.3, 329.0)">h</text><text xml:space="preserve" font-family="YanoneKaffeesatz-Bold" font-weight="bold" font-size="100.0" fill="#FEFFFE" transform="matrix(1.00, 0.00, -0.00, -1.00, 566.4, 329.0)"> </text><text xml:space="preserve" font-family="YanoneKaffeesatz-Bold" font-weight="bold" font-size="100.0" fill="#FEFFFE" transform="matrix(1.00, 0.00, -0.00, -1.00, 580.4, 329.0)">c</text><text xml:space="preserve" font-family="YanoneKaffeesatz-Bold" font-weight="bold" font-size="100.0" fill="#FEFFFE" transform="matrix(1.00, 0.00, -0.00, -1.00, 608.0, 329.0)">o</text><text xml:space="preserve" font-family="YanoneKaffeesatz-Bold" font-weight="bold" font-size="100.0" fill="#FEFFFE" transform="matrix(1.00, 0.00, -0.00, -1.00, 643.1, 329.0)">p</text><text xml:space="preserve" font-family="YanoneKaffeesatz-Bold" font-weight="bold" font-size="100.0" fill="#FEFFFE" transform="matrix(1.00, 0.00, -0.00, -1.00, 676.5, 329.0)">y</text><text xml:space="preserve" font-family="YanoneKaffeesatz-Bold" font-weight="bold" font-size="100.0" fill="#FEFFFE" transform="matrix(1.00, 0.00, -0.00, -1.00, 710.5, 329.0)">i</text><text xml:space="preserve" font-family="YanoneKaffeesatz-Bold" font-weight="bold" font-size="100.0" fill="#FEFFFE" transform="matrix(1.00, 0.00, -0.00, -1.00, 728.5, 329.0)">n</text><text xml:space="preserve" font-family="YanoneKaffeesatz-Bold" font-weight="bold" font-size="100.0" fill="#FEFFFE" transform="matrix(1.00, 0.00, -0.00, -1.00, 764.6, 329.0)">g</text><text xml:space="preserve" font-family="YanoneKaffeesatz-Bold" font-weight="bold" font-size="100.0" fill="#FEFFFE" transform="matrix(1.00, 0.00, -0.00, -1.00, 802.8, 329.0)"> </text><text xml:space="preserve" font-family="YanoneKaffeesatz-Bold" font-weight="bold" font-size="100.0" fill="#FEFFFE" transform="matrix(1.00, 0.00, -0.00, -1.00, 816.8, 329.0)">s</text><text xml:space="preserve" font-family="YanoneKaffeesatz-Bold" font-weight="bold" font-size="100.0" fill="#FEFFFE" transform="matrix(1.00, 0.00, -0.00, -1.00, 848.6, 329.0)">t</text><text xml:space="preserve" font-family="YanoneKaffeesatz-Bold" font-weight="bold" font-size="100.0" fill="#FEFFFE" transform="matrix(1.00, 0.00, -0.00, -1.00, 877.0, 329.0)">i</text><text xml:space="preserve" font-family="YanoneKaffeesatz-Bold" font-weight="bold" font-size="100.0" fill="#FEFFFE" transform="matrix(1.00, 0.00, -0.00, -1.00, 895.0, 329.0)">l</text><text xml:space="preserve" font-family="YanoneKaffeesatz-Bold" font-weight="bold" font-size="100.0" fill="#FEFFFE" transform="matrix(1.00, 0.00, -0.00, -1.00, 912.8, 329.0)">l</text><text xml:space="preserve" font-family="YanoneKaffeesatz-Bold" font-weight="bold" font-size="100.0" fill="#FEFFFE" transform="matrix(1.00, 0.00, -0.00, -1.00, 930.6, 329.0)"> </text><text xml:space="preserve" font-family="YanoneKaffeesatz-Bold" font-weight="bold" font-size="100.0" fill="#FEFFFE" transform="matrix(1.00, 0.00, -0.00, -1.00, 944.6, 329.0)">w</text><text xml:space="preserve" font-family="YanoneKaffeesatz-Bold" font-weight="bold" font-size="100.0" fill="#FEFFFE" transform="matrix(1.00, 0.00, -0.00, -1.00, 995.2, 329.0)">o</text><text xml:space="preserve" font-family="YanoneKaffeesatz-Bold" font-weight="bold" font-size="100.0" fill="#FEFFFE" transform="matrix(1.00, 0.00, -0.00, -1.00, 1030.3, 329.0)">r</text><text xml:space="preserve" font-family="YanoneKaffeesatz-Bold" font-weight="bold" font-size="100.0" fill="#FEFFFE" transform="matrix(1.00, 0.00, -0.00, -1.00, 1055.2, 329.0)">k</text><text xml:space="preserve" font-family="YanoneKaffeesatz-Bold" font-weight="bold" font-size="100.0" fill="#FEFFFE" transform="matrix(1.00, 0.00, -0.00, -1.00, 1092.1, 329.0)">s</text><text xml:space="preserve" font-family="YanoneKaffeesatz-Bold" font-weight="bold" font-size="100.0" fill="#FEFFFE" transform="matrix(1.00, 0.00, -0.00, -1.00, 1123.9, 329.0)"> </text><text xml:space="preserve" font-family="YanoneKaffeesatz-Bold" font-weight="bold" font-size="100.0" fill="#FEFFFE" transform="matrix(1.00, 0.00, -0.00, -1.00, 1137.9, 329.0)">a</text><text xml:space="preserve" font-family="YanoneKaffeesatz-Bold" font-weight="bold" font-size="100.0" fill="#FEFFFE" transform="matrix(1.00, 0.00, -0.00, -1.00, 1171.7, 329.0)">s</text><text xml:space="preserve" font-family="YanoneKaffeesatz-Bold" font-weight="bold" font-size="100.0" fill="#FEFFFE" transform="matrix(1.00, 0.00, -0.00, -1.00, 1203.5, 329.0)"> </text><text xml:space="preserve" font-family="YanoneKaffeesatz-Bold" font-weight="bold" font-size="100.0" fill="#FEFFFE" transform="matrix(1.00, 0.00, -0.00, -1.00, 1217.5, 329.0)">e</text><text xml:space="preserve" font-family="YanoneKaffeesatz-Bold" font-weight="bold" font-size="100.0" fill="#FEFFFE" transform="matrix(1.00, 0.00, -0.00, -1.00, 1251.1, 329.0)">x</text><text xml:space="preserve" font-family="YanoneKaffeesatz-Bold" font-weight="bold" font-size="100.0" fill="#FEFFFE" transform="matrix(1.00, 0.00, -0.00, -1.00, 1288.0, 329.0)">p</text><text xml:space="preserve" font-family="YanoneKaffeesatz-Bold" font-weight="bold" font-size="100.0" fill="#FEFFFE" transform="matrix(1.00, 0.00, -0.00, -1.00, 1324.4, 329.0)">e</text><text xml:space="preserve" font-family="YanoneKaffeesatz-Bold" font-weight="bold" font-size="100.0" fill="#FEFFFE" transform="matrix(1.00, 0.00, -0.00, -1.00, 1359.0, 329.0)">c</text><text xml:space="preserve" font-family="YanoneKaffeesatz-Bold" font-weight="bold" font-size="100.0" fill="#FEFFFE" transform="matrix(1.00, 0.00, -0.00, -1.00, 1389.2, 329.0)">t</text><text xml:space="preserve" font-family="YanoneKaffeesatz-Bold" font-weight="bold" font-size="100.0" fill="#FEFFFE" transform="matrix(1.00, 0.00, -0.00, -1.00, 1414.6, 329.0)">e</text><text xml:space="preserve" font-family="YanoneKaffeesatz-Bold" font-weight="bold" font-size="100.0" fill="#FEFFFE" transform="matrix(1.00, 0.00, -0.00, -1.00, 1449.2, 329.0)">d</text></g></svg>