<?xml version="1.0" encoding="UTF-8" standalone="no"?><svg xmlns="http://www.w3.org/2000/svg" xmlns:xlink="http://www.w3.org/1999/xlink" clip-rule="evenodd" stroke-miterlimit="4.00" viewBox="0 0 1920 1080"><desc>SVG generated by Keynote</desc><defs></defs><g transform="matrix(1.00, 0.00, -0.00, -1.00, 0.0, 1080.0)"><g><clipPath id="clip-96"><path d="M 0.0 1080.0 L 1920.0 1080.0 L 1920.0 0.0 L 0.0 0.0 Z M 0.0 1080.0 "></path></clipPath><g clip-path="url(#clip-96)"><image xlink:href="../../C790834B-C1C8-4410-8563-9C912CD2A702/assets/4B0075050CC9D0F3DC006F0CDE78D676.jpeg" width="1365.00" height="767.00" transform="matrix(1.41, 0.00, -0.00, -1.41, 0.0, 1080.0)"></image></g></g><image xlink:href="7AEBD24B328466430D0E88E8AB55A6DE.png" width="695.00" height="192.00" transform="matrix(1.00, 0.00, -0.00, -1.00, 615.0, 1011.0)"></image><text xml:space="preserve" font-family="YanoneKaffeesatz-Bold" font-weight="bold" font-size="200.0" fill="#FC6900" transform="matrix(1.00, 0.00, -0.00, -1.00, 613.0, 865.0)">B</text><text xml:space="preserve" font-family="YanoneKaffeesatz-Bold" font-weight="bold" font-size="200.0" fill="#FC6900" transform="matrix(1.00, 0.00, -0.00, -1.00, 684.6, 865.0)">i</text><text xml:space="preserve" font-family="YanoneKaffeesatz-Bold" font-weight="bold" font-size="200.0" fill="#FC6900" transform="matrix(1.00, 0.00, -0.00, -1.00, 720.6, 865.0)">n</text><text xml:space="preserve" font-family="YanoneKaffeesatz-Bold" font-weight="bold" font-size="200.0" fill="#FC6900" transform="matrix(1.00, 0.00, -0.00, -1.00, 792.8, 865.0)">a</text><text xml:space="preserve" font-family="YanoneKaffeesatz-Bold" font-weight="bold" font-size="200.0" fill="#FC6900" transform="matrix(1.00, 0.00, -0.00, -1.00, 860.4, 865.0)">r</text><text xml:space="preserve" font-family="YanoneKaffeesatz-Bold" font-weight="bold" font-size="200.0" fill="#FC6900" transform="matrix(1.00, 0.00, -0.00, -1.00, 910.2, 865.0)">y</text><text xml:space="preserve" font-family="YanoneKaffeesatz-Bold" font-weight="bold" font-size="200.0" fill="#FC6900" transform="matrix(1.00, 0.00, -0.00, -1.00, 978.2, 865.0)"> </text><text xml:space="preserve" font-family="YanoneKaffeesatz-Bold" font-weight="bold" font-size="200.0" fill="#FC6900" transform="matrix(1.00, 0.00, -0.00, -1.00, 1006.2, 865.0)">T</text><text xml:space="preserve" font-family="YanoneKaffeesatz-Bold" font-weight="bold" font-size="200.0" fill="#FC6900" transform="matrix(1.00, 0.00, -0.00, -1.00, 1061.8, 865.0)">r</text><text xml:space="preserve" font-family="YanoneKaffeesatz-Bold" font-weight="bold" font-size="200.0" fill="#FC6900" transform="matrix(1.00, 0.00, -0.00, -1.00, 1107.6, 865.0)">e</text><text xml:space="preserve" font-family="YanoneKaffeesatz-Bold" font-weight="bold" font-size="200.0" fill="#FC6900" transform="matrix(1.00, 0.00, -0.00, -1.00, 1174.8, 865.0)">e</text><text xml:space="preserve" font-family="YanoneKaffeesatz-Bold" font-weight="bold" font-size="200.0" fill="#FC6900" transform="matrix(1.00, 0.00, -0.00, -1.00, 1244.0, 865.0)">s</text><path d="M 845.6 500.4 C 865.1 480.8 865.1 449.2 845.6 429.6 C 826.0 410.1 794.4 410.1 774.8 429.6 C 755.3 449.2 755.3 480.8 774.8 500.4 C 794.4 519.9 826.0 519.9 845.6 500.4 Z M 845.6 500.4 " fill="#0072CF"></path><image xlink:href="../../57DCFE9C-EB16-4547-A1E6-07AF019490C2/assets/FB958DEE093F14D554C28DDEBFEEFBDD.png" width="27.00" height="45.00" transform="matrix(1.00, 0.00, -0.00, -1.00, 797.0, 484.0)"></image><g><clipPath id="clip-97"><path d="M 757.1 415.0 L 863.3 415.0 L 863.3 515.0 L 757.1 515.0 Z M 757.1 415.0 "></path></clipPath><g clip-path="url(#clip-97)"><text xml:space="preserve" font-family="YanoneKaffeesatz-Regular" font-size="50.0" fill="#FEFFFE" transform="matrix(1.00, 0.00, -0.00, -1.00, 800.0, 447.0)">6</text></g></g><path d="M 545.6 500.4 C 565.1 480.8 565.1 449.2 545.6 429.6 C 526.0 410.1 494.4 410.1 474.8 429.6 C 455.3 449.2 455.3 480.8 474.8 500.4 C 494.4 519.9 526.0 519.9 545.6 500.4 Z M 545.6 500.4 " fill="#0072CF"></path><image xlink:href="../../C8AEE72E-70A3-4C9B-BA22-51AEE4FDAAFF/assets/E7AEF64253C87F4D497618DC0AE9825F.png" width="27.00" height="38.00" transform="matrix(1.00, 0.00, -0.00, -1.00, 497.0, 478.0)"></image><g><clipPath id="clip-98"><path d="M 457.1 415.0 L 563.3 415.0 L 563.3 515.0 L 457.1 515.0 Z M 457.1 415.0 "></path></clipPath><g clip-path="url(#clip-98)"><text xml:space="preserve" font-family="YanoneKaffeesatz-Regular" font-size="50.0" fill="#FEFFFE" transform="matrix(1.00, 0.00, -0.00, -1.00, 500.0, 447.0)">2</text></g></g><path d="M 85.4 14.6 C 104.9 34.2 104.9 65.8 85.4 85.4 C 65.8 104.9 34.2 104.9 14.6 85.4 C -4.9 65.8 -4.9 34.2 14.6 14.6 C 34.2 -4.9 65.8 -4.9 85.4 14.6 Z M 85.4 14.6 " fill="none" stroke="#0073CF" stroke-width="5.00" transform="matrix(1.00, 0.00, 0.00, -1.00, 835.0, 365.0)"></path><path d="M 770.3 350.4 C 789.9 330.8 789.9 299.2 770.3 279.6 C 750.8 260.1 719.2 260.1 699.6 279.6 C 680.1 299.2 680.1 330.8 699.6 350.4 C 719.2 369.9 750.8 369.9 770.3 350.4 Z M 770.3 350.4 " fill="#0072CF"></path><image xlink:href="../../C8AEE72E-70A3-4C9B-BA22-51AEE4FDAAFF/assets/FF07FE57AB571085446D29C043F45098.png" width="26.00" height="43.00" transform="matrix(1.00, 0.00, -0.00, -1.00, 722.0, 328.0)"></image><g><clipPath id="clip-99"><path d="M 681.9 265.0 L 788.1 265.0 L 788.1 365.0 L 681.9 365.0 Z M 681.9 265.0 "></path></clipPath><g clip-path="url(#clip-99)"><text xml:space="preserve" font-family="YanoneKaffeesatz-Regular" font-size="50.0" fill="#FEFFFE" transform="matrix(1.00, 0.00, -0.00, -1.00, 725.0, 297.0)">5</text></g></g><path d="M 470.3 350.4 C 489.9 330.8 489.9 299.2 470.3 279.6 C 450.8 260.1 419.2 260.1 399.6 279.6 C 380.1 299.2 380.1 330.8 399.6 350.4 C 419.2 369.9 450.8 369.9 470.3 350.4 Z M 470.3 350.4 " fill="#0072CF"></path><image xlink:href="../../C8AEE72E-70A3-4C9B-BA22-51AEE4FDAAFF/assets/71356A7CE7F435F08C902D1691E19ED5.png" width="27.00" height="38.00" transform="matrix(1.00, 0.00, -0.00, -1.00, 422.0, 328.0)"></image><g><clipPath id="clip-100"><path d="M 381.9 265.0 L 488.1 265.0 L 488.1 365.0 L 381.9 365.0 Z M 381.9 265.0 "></path></clipPath><g clip-path="url(#clip-100)"><text xml:space="preserve" font-family="YanoneKaffeesatz-Regular" font-size="50.0" fill="#FEFFFE" transform="matrix(1.00, 0.00, -0.00, -1.00, 425.0, 297.0)">1</text></g></g><path d="M 620.3 350.4 C 639.9 330.8 639.9 299.2 620.3 279.6 C 600.8 260.1 569.2 260.1 549.6 279.6 C 530.1 299.2 530.1 330.8 549.6 350.4 C 569.2 369.9 600.8 369.9 620.3 350.4 Z M 620.3 350.4 " fill="#0072CF"></path><image xlink:href="../../C8AEE72E-70A3-4C9B-BA22-51AEE4FDAAFF/assets/39665D8815AD654D5AC45C1CE1A6FB8C.png" width="25.00" height="43.00" transform="matrix(1.00, 0.00, -0.00, -1.00, 573.0, 328.0)"></image><g><clipPath id="clip-101"><path d="M 531.9 265.0 L 638.1 265.0 L 638.1 365.0 L 531.9 365.0 Z M 531.9 265.0 "></path></clipPath><g clip-path="url(#clip-101)"><text xml:space="preserve" font-family="YanoneKaffeesatz-Regular" font-size="50.0" fill="#FEFFFE" transform="matrix(1.00, 0.00, -0.00, -1.00, 575.0, 297.0)">3</text></g></g><path d="M 1445.6 500.4 C 1465.1 480.8 1465.1 449.2 1445.6 429.6 C 1426.0 410.1 1394.4 410.1 1374.8 429.6 C 1355.3 449.2 1355.3 480.8 1374.8 500.4 C 1394.4 519.9 1426.0 519.9 1445.6 500.4 Z M 1445.6 500.4 " fill="#0072CF"></path><image xlink:href="442D375B046DA6F1107028D9D637795C.png" width="48.00" height="39.00" transform="matrix(1.00, 0.00, -0.00, -1.00, 1386.0, 479.0)"></image><g><clipPath id="clip-102"><path d="M 1356.5 415.0 L 1463.9 415.0 L 1463.9 515.0 L 1356.5 515.0 Z M 1356.5 415.0 "></path></clipPath><g clip-path="url(#clip-102)"><text xml:space="preserve" font-family="YanoneKaffeesatz-Regular" font-size="50.0" fill="#FEFFFE" transform="matrix(1.00, 0.00, -0.00, -1.00, 1389.0, 447.0)">1</text><text xml:space="preserve" font-family="YanoneKaffeesatz-Regular" font-size="50.0" fill="#FEFFFE" transform="matrix(1.00, 0.00, -0.00, -1.00, 1409.8, 447.0)">4</text></g></g><path d="M 1145.6 500.4 C 1165.1 480.8 1165.1 449.2 1145.6 429.6 C 1126.0 410.1 1094.4 410.1 1074.8 429.6 C 1055.3 449.2 1055.3 480.8 1074.8 500.4 C 1094.4 519.9 1126.0 519.9 1145.6 500.4 Z M 1145.6 500.4 " fill="#0072CF"></path><image xlink:href="9A4242B27C94C0C4D026288A2227FB9C.png" width="48.00" height="39.00" transform="matrix(1.00, 0.00, -0.00, -1.00, 1086.0, 478.0)"></image><g><clipPath id="clip-103"><path d="M 1056.5 415.0 L 1163.9 415.0 L 1163.9 515.0 L 1056.5 515.0 Z M 1056.5 415.0 "></path></clipPath><g clip-path="url(#clip-103)"><text xml:space="preserve" font-family="YanoneKaffeesatz-Regular" font-size="50.0" fill="#FEFFFE" transform="matrix(1.00, 0.00, -0.00, -1.00, 1089.0, 447.0)">1</text><text xml:space="preserve" font-family="YanoneKaffeesatz-Regular" font-size="50.0" fill="#FEFFFE" transform="matrix(1.00, 0.00, -0.00, -1.00, 1109.8, 447.0)">0</text></g></g><path d="M 1520.4 350.4 C 1539.9 330.8 1539.9 299.2 1520.4 279.6 C 1500.8 260.1 1469.2 260.1 1449.7 279.6 C 1430.1 299.2 1430.1 330.8 1449.7 350.4 C 1469.2 369.9 1500.8 369.9 1520.4 350.4 Z M 1520.4 350.4 " fill="#0072CF"></path><image xlink:href="A7EDC3BA4CB0D982800928A24B93E2C5.png" width="47.00" height="43.00" transform="matrix(1.00, 0.00, -0.00, -1.00, 1461.0, 328.0)"></image><g><clipPath id="clip-104"><path d="M 1431.3 265.0 L 1538.7 265.0 L 1538.7 365.0 L 1431.3 365.0 Z M 1431.3 265.0 "></path></clipPath><g clip-path="url(#clip-104)"><text xml:space="preserve" font-family="YanoneKaffeesatz-Regular" font-size="50.0" fill="#FEFFFE" transform="matrix(1.00, 0.00, -0.00, -1.00, 1464.0, 297.0)">1</text><text xml:space="preserve" font-family="YanoneKaffeesatz-Regular" font-size="50.0" fill="#FEFFFE" transform="matrix(1.00, 0.00, -0.00, -1.00, 1484.8, 297.0)">5</text></g></g><path d="M 1370.3 350.4 C 1389.9 330.8 1389.9 299.2 1370.3 279.6 C 1350.8 260.1 1319.2 260.1 1299.6 279.6 C 1280.1 299.2 1280.1 330.8 1299.6 350.4 C 1319.2 369.9 1350.8 369.9 1370.3 350.4 Z M 1370.3 350.4 " fill="#0072CF"></path><image xlink:href="39826E6D84A7EFD27A97EC8421F869EC.png" width="47.00" height="43.00" transform="matrix(1.00, 0.00, -0.00, -1.00, 1311.0, 328.0)"></image><g><clipPath id="clip-105"><path d="M 1281.3 265.0 L 1388.7 265.0 L 1388.7 365.0 L 1281.3 365.0 Z M 1281.3 265.0 "></path></clipPath><g clip-path="url(#clip-105)"><text xml:space="preserve" font-family="YanoneKaffeesatz-Regular" font-size="50.0" fill="#FEFFFE" transform="matrix(1.00, 0.00, -0.00, -1.00, 1314.0, 297.0)">1</text><text xml:space="preserve" font-family="YanoneKaffeesatz-Regular" font-size="50.0" fill="#FEFFFE" transform="matrix(1.00, 0.00, -0.00, -1.00, 1334.8, 297.0)">3</text></g></g><path d="M 1070.3 350.4 C 1089.9 330.8 1089.9 299.2 1070.3 279.6 C 1050.8 260.1 1019.2 260.1 999.6 279.6 C 980.1 299.2 980.1 330.8 999.6 350.4 C 1019.2 369.9 1050.8 369.9 1070.3 350.4 Z M 1070.3 350.4 " fill="#0072CF"></path><image xlink:href="67D46463C34504740F69035374305386.png" width="27.00" height="45.00" transform="matrix(1.00, 0.00, -0.00, -1.00, 1022.0, 329.0)"></image><g><clipPath id="clip-106"><path d="M 981.9 265.0 L 1088.1 265.0 L 1088.1 365.0 L 981.9 365.0 Z M 981.9 265.0 "></path></clipPath><g clip-path="url(#clip-106)"><text xml:space="preserve" font-family="YanoneKaffeesatz-Regular" font-size="50.0" fill="#FEFFFE" transform="matrix(1.00, 0.00, -0.00, -1.00, 1025.0, 297.0)">9</text></g></g><path d="M 1220.3 350.4 C 1239.9 330.8 1239.9 299.2 1220.3 279.6 C 1200.8 260.1 1169.2 260.1 1149.6 279.6 C 1130.1 299.2 1130.1 330.8 1149.6 350.4 C 1169.2 369.9 1200.8 369.9 1220.3 350.4 Z M 1220.3 350.4 " fill="#0072CF"></path><image xlink:href="9E0CA59AF695863452F3273625233CB8.png" width="48.00" height="38.00" transform="matrix(1.00, 0.00, -0.00, -1.00, 1161.0, 328.0)"></image><g><clipPath id="clip-107"><path d="M 1131.3 265.0 L 1238.7 265.0 L 1238.7 365.0 L 1131.3 365.0 Z M 1131.3 265.0 "></path></clipPath><g clip-path="url(#clip-107)"><text xml:space="preserve" font-family="YanoneKaffeesatz-Regular" font-size="50.0" fill="#FEFFFE" transform="matrix(1.00, 0.00, -0.00, -1.00, 1164.0, 297.0)">1</text><text xml:space="preserve" font-family="YanoneKaffeesatz-Regular" font-size="50.0" fill="#FEFFFE" transform="matrix(1.00, 0.00, -0.00, -1.00, 1184.8, 297.0)">1</text></g></g><path d="M 695.6 650.4 C 715.1 630.8 715.1 599.2 695.6 579.6 C 676.0 560.1 644.4 560.1 624.8 579.6 C 605.3 599.2 605.3 630.8 624.8 650.4 C 644.4 669.9 676.0 669.9 695.6 650.4 Z M 695.6 650.4 " fill="#0072CF"></path><image xlink:href="../../C8AEE72E-70A3-4C9B-BA22-51AEE4FDAAFF/assets/E0AD3E3C00BF5C2A46AEBAD9E7212B61.png" width="27.00" height="39.00" transform="matrix(1.00, 0.00, -0.00, -1.00, 647.0, 629.0)"></image><g><clipPath id="clip-108"><path d="M 607.1 565.0 L 713.3 565.0 L 713.3 665.0 L 607.1 665.0 Z M 607.1 565.0 "></path></clipPath><g clip-path="url(#clip-108)"><text xml:space="preserve" font-family="YanoneKaffeesatz-Regular" font-size="50.0" fill="#FEFFFE" transform="matrix(1.00, 0.00, -0.00, -1.00, 650.0, 597.0)">4</text></g></g><path d="M 1307.6 650.4 C 1327.1 630.8 1327.1 599.2 1307.6 579.6 C 1288.1 560.1 1256.4 560.1 1236.9 579.6 C 1217.4 599.2 1217.4 630.8 1236.9 650.4 C 1256.4 669.9 1288.1 669.9 1307.6 650.4 Z M 1307.6 650.4 " fill="#0072CF"></path><image xlink:href="BF021E5A9E2D550CFE10059A08791DAD.png" width="48.00" height="38.00" transform="matrix(1.00, 0.00, -0.00, -1.00, 1248.0, 628.0)"></image><g><clipPath id="clip-109"><path d="M 1218.6 565.0 L 1325.9 565.0 L 1325.9 665.0 L 1218.6 665.0 Z M 1218.6 565.0 "></path></clipPath><g clip-path="url(#clip-109)"><text xml:space="preserve" font-family="YanoneKaffeesatz-Regular" font-size="50.0" fill="#FEFFFE" transform="matrix(1.00, 0.00, -0.00, -1.00, 1251.0, 597.0)">1</text><text xml:space="preserve" font-family="YanoneKaffeesatz-Regular" font-size="50.0" fill="#FEFFFE" transform="matrix(1.00, 0.00, -0.00, -1.00, 1271.8, 597.0)">2</text></g></g><path d="M 1001.6 800.4 C 1021.1 780.8 1021.1 749.2 1001.6 729.6 C 982.1 710.1 950.4 710.1 930.9 729.6 C 911.4 749.2 911.4 780.8 930.9 800.4 C 950.4 819.9 982.1 819.9 1001.6 800.4 Z M 1001.6 800.4 " fill="#0072CF"></path><image xlink:href="4263C28EF96D609E606024A91F0C6B84.png" width="27.00" height="45.00" transform="matrix(1.00, 0.00, -0.00, -1.00, 953.0, 784.0)"></image><g><clipPath id="clip-110"><path d="M 913.1 715.0 L 1019.3 715.0 L 1019.3 815.0 L 913.1 815.0 Z M 913.1 715.0 "></path></clipPath><g clip-path="url(#clip-110)"><text xml:space="preserve" font-family="YanoneKaffeesatz-Regular" font-size="50.0" fill="#FEFFFE" transform="matrix(1.00, 0.00, -0.00, -1.00, 956.0, 747.0)">8</text></g></g><path d="M 12.7 97.0 L 14.5 95.2 C 72.9 40.4 142.6 8.7 223.6 0.0 " fill="none" stroke="#E0E4CB" stroke-width="5.00" transform="matrix(1.00, 0.00, 0.00, -1.00, 692.7, 762.6)"></path><path d="M 700.1 674.6 L 692.7 653.0 L 714.4 660.1 Z M 700.1 674.6 " fill="#E0E4CB"></path><path d="M 6.9 73.9 L 7.9 71.6 C 24.8 37.2 52.4 13.3 90.5 0.0 " fill="none" stroke="#E0E4CB" stroke-width="5.00" transform="matrix(1.00, 0.00, 0.00, -1.00, 520.9, 604.3)"></path><path d="M 519.3 536.6 L 520.9 513.9 L 538.1 528.8 Z M 519.3 536.6 " fill="#E0E4CB"></path><path d="M 0.0 0.0 C 38.1 13.3 65.7 37.2 82.6 71.6 L 83.6 73.9 " fill="none" stroke="#E0E4CB" stroke-width="5.00" transform="matrix(1.00, 0.00, 0.00, -1.00, 709.1, 604.3)"></path><path d="M 782.3 528.8 L 799.5 513.9 L 801.1 536.6 Z M 782.3 528.8 " fill="#E0E4CB"></path><path d="M 1.2 61.4 L 1.4 58.9 C 5.4 34.9 18.2 15.2 39.8 0.0 " fill="none" stroke="#E0E4CB" stroke-width="5.00" transform="matrix(1.00, 0.00, 0.00, -1.00, 425.3, 443.3)"></path><path d="M 416.6 385.1 L 425.4 364.1 L 436.9 383.8 Z M 416.6 385.1 " fill="#E0E4CB"></path><path d="M 0.0 0.0 C 21.5 15.2 34.2 34.9 38.2 58.8 L 38.3 61.3 " fill="none" stroke="#E0E4CB" stroke-width="5.00" transform="matrix(1.00, 0.00, 0.00, -1.00, 555.2, 443.3)"></path><path d="M 583.2 383.8 L 594.7 364.0 L 603.6 385.1 Z M 583.2 383.8 " fill="#E0E4CB"></path><path d="M 1.2 61.4 L 1.4 58.9 C 5.4 34.9 18.2 15.2 39.8 0.0 " fill="none" stroke="#E0E4CB" stroke-width="5.00" transform="matrix(1.00, 0.00, 0.00, -1.00, 725.3, 443.3)"></path><path d="M 716.6 385.1 L 725.4 364.1 L 736.9 383.8 Z M 716.6 385.1 " fill="#E0E4CB"></path><path d="M 7.6 76.1 L 8.6 73.8 C 28.2 37.6 58.6 13.0 99.7 0.0 " fill="none" stroke="#E0E4CB" stroke-width="5.00" transform="matrix(1.00, 0.00, 0.00, -1.00, 1123.5, 605.5)"></path><path d="M 1122.9 536.0 L 1123.5 513.2 L 1141.4 527.4 Z M 1122.9 536.0 " fill="#E0E4CB"></path><path d="M 1.2 61.4 L 1.4 58.9 C 5.4 34.9 18.2 15.2 39.8 0.0 " fill="none" stroke="#E0E4CB" stroke-width="5.00" transform="matrix(1.00, 0.00, 0.00, -1.00, 1025.3, 443.3)"></path><path d="M 1016.6 385.1 L 1025.4 364.1 L 1036.9 383.8 Z M 1016.6 385.1 " fill="#E0E4CB"></path><path d="M 1.2 61.4 L 1.4 58.9 C 5.4 34.9 18.2 15.2 39.8 0.0 " fill="none" stroke="#E0E4CB" stroke-width="5.00" transform="matrix(1.00, 0.00, 0.00, -1.00, 1325.3, 443.3)"></path><path d="M 1316.6 385.1 L 1325.4 364.1 L 1336.9 383.8 Z M 1316.6 385.1 " fill="#E0E4CB"></path><path d="M 0.0 0.0 C 35.2 13.6 60.0 36.8 74.5 69.5 L 75.4 71.8 " fill="none" stroke="#E0E4CB" stroke-width="5.00" transform="matrix(1.00, 0.00, 0.00, -1.00, 1320.8, 603.0)"></path><path d="M 1385.7 530.0 L 1402.3 514.4 L 1404.9 537.0 Z M 1385.7 530.0 " fill="#E0E4CB"></path><path d="M 0.0 0.0 C 81.0 8.7 150.7 40.4 209.1 95.2 L 210.8 97.0 " fill="none" stroke="#E0E4CB" stroke-width="5.00" transform="matrix(1.00, 0.00, 0.00, -1.00, 1016.2, 762.6)"></path><path d="M 1218.1 660.1 L 1239.7 653.0 L 1232.4 674.6 Z M 1218.1 660.1 " fill="#E0E4CB"></path><path d="M 0.0 0.0 C 21.5 15.2 34.2 34.9 38.2 58.8 L 38.3 61.3 " fill="none" stroke="#E0E4CB" stroke-width="5.00" transform="matrix(1.00, 0.00, 0.00, -1.00, 1155.2, 443.3)"></path><path d="M 1183.2 383.8 L 1194.7 364.0 L 1203.6 385.1 Z M 1183.2 383.8 " fill="#E0E4CB"></path><path d="M 0.0 0.0 C 21.5 15.2 34.2 34.9 38.2 58.8 L 38.4 61.3 " fill="none" stroke="#E0E4CB" stroke-width="5.00" transform="matrix(1.00, 0.00, 0.00, -1.00, 1455.2, 443.3)"></path><path d="M 1483.3 383.8 L 1494.7 364.1 L 1503.6 385.1 Z M 1483.3 383.8 " fill="#E0E4CB"></path><path d="M 0.0 0.0 C 20.7 14.7 33.3 33.5 37.7 56.3 L 38.0 58.8 " fill="none" stroke="#E0E4CB" stroke-width="5.00" transform="matrix(1.00, 0.00, 0.00, -1.00, 855.2, 443.3)"></path><path d="M 882.8 386.0 L 894.8 366.6 L 903.1 387.8 Z M 882.8 386.0 " fill="#E0E4CB"></path></g></svg>