<?xml version="1.0" encoding="UTF-8" standalone="no"?><svg xmlns="http://www.w3.org/2000/svg" xmlns:xlink="http://www.w3.org/1999/xlink" clip-rule="evenodd" stroke-miterlimit="4.00" viewBox="0 0 1920 1080"><desc>SVG generated by Keynote</desc><defs></defs><g transform="matrix(1.00, 0.00, -0.00, -1.00, 0.0, 1080.0)"><g><clipPath id="clip-95"><path d="M 0.0 1080.0 L 1920.0 1080.0 L 1920.0 0.0 L 0.0 0.0 Z M 0.0 1080.0 "></path></clipPath><g clip-path="url(#clip-95)"><image xlink:href="../../C790834B-C1C8-4410-8563-9C912CD2A702/assets/4B0075050CC9D0F3DC006F0CDE78D676.jpeg" width="1365.00" height="767.00" transform="matrix(1.41, 0.00, -0.00, -1.41, 0.0, 1080.0)"></image></g></g><image xlink:href="../../F50D1756-4DA7-4133-994F-35839B45040B/assets/180731FCA735A4A22B7DFF3C63349218.png" width="476.00" height="188.00" transform="matrix(1.00, 0.00, -0.00, -1.00, 721.0, 1006.0)"></image><text xml:space="preserve" font-family="YanoneKaffeesatz-Bold" font-weight="bold" font-size="200.0" fill="#FC6900" transform="matrix(1.00, 0.00, -0.00, -1.00, 723.0, 865.0)">T</text><text xml:space="preserve" font-family="YanoneKaffeesatz-Bold" font-weight="bold" font-size="200.0" fill="#FC6900" transform="matrix(1.00, 0.00, -0.00, -1.00, 778.6, 865.0)">r</text><text xml:space="preserve" font-family="YanoneKaffeesatz-Bold" font-weight="bold" font-size="200.0" fill="#FC6900" transform="matrix(1.00, 0.00, -0.00, -1.00, 824.4, 865.0)">e</text><text xml:space="preserve" font-family="YanoneKaffeesatz-Bold" font-weight="bold" font-size="200.0" fill="#FC6900" transform="matrix(1.00, 0.00, -0.00, -1.00, 891.6, 865.0)">e</text><text xml:space="preserve" font-family="YanoneKaffeesatz-Bold" font-weight="bold" font-size="200.0" fill="#FC6900" transform="matrix(1.00, 0.00, -0.00, -1.00, 960.8, 865.0)">M</text><text xml:space="preserve" font-family="YanoneKaffeesatz-Bold" font-weight="bold" font-size="200.0" fill="#FC6900" transform="matrix(1.00, 0.00, -0.00, -1.00, 1056.2, 865.0)">a</text><text xml:space="preserve" font-family="YanoneKaffeesatz-Bold" font-weight="bold" font-size="200.0" fill="#FC6900" transform="matrix(1.00, 0.00, -0.00, -1.00, 1123.8, 865.0)">p</text><image xlink:href="../../86D0BE33-7319-4A48-B741-49EB6BEEFFF1/assets/7C528B54235124279E950B0138183C67.png" width="524.00" height="146.00" transform="matrix(1.00, 0.00, -0.00, -1.00, 621.0, 682.0)"></image><text xml:space="preserve" font-family="YanoneKaffeesatz-Bold" font-weight="bold" font-size="150.0" fill="#FEFFFE" transform="matrix(1.00, 0.00, -0.00, -1.00, 621.0, 572.0)">B</text><text xml:space="preserve" font-family="YanoneKaffeesatz-Bold" font-weight="bold" font-size="150.0" fill="#FEFFFE" transform="matrix(1.00, 0.00, -0.00, -1.00, 674.7, 572.0)">i</text><text xml:space="preserve" font-family="YanoneKaffeesatz-Bold" font-weight="bold" font-size="150.0" fill="#FEFFFE" transform="matrix(1.00, 0.00, -0.00, -1.00, 701.7, 572.0)">n</text><text xml:space="preserve" font-family="YanoneKaffeesatz-Bold" font-weight="bold" font-size="150.0" fill="#FEFFFE" transform="matrix(1.00, 0.00, -0.00, -1.00, 755.9, 572.0)">a</text><text xml:space="preserve" font-family="YanoneKaffeesatz-Bold" font-weight="bold" font-size="150.0" fill="#FEFFFE" transform="matrix(1.00, 0.00, -0.00, -1.00, 806.5, 572.0)">r</text><text xml:space="preserve" font-family="YanoneKaffeesatz-Bold" font-weight="bold" font-size="150.0" fill="#FEFFFE" transform="matrix(1.00, 0.00, -0.00, -1.00, 843.9, 572.0)">y</text><text xml:space="preserve" font-family="YanoneKaffeesatz-Bold" font-weight="bold" font-size="150.0" fill="#FEFFFE" transform="matrix(1.00, 0.00, -0.00, -1.00, 894.9, 572.0)"> </text><text xml:space="preserve" font-family="YanoneKaffeesatz-Bold" font-weight="bold" font-size="150.0" fill="#FEFFFE" transform="matrix(1.00, 0.00, -0.00, -1.00, 915.9, 572.0)">T</text><text xml:space="preserve" font-family="YanoneKaffeesatz-Bold" font-weight="bold" font-size="150.0" fill="#FEFFFE" transform="matrix(1.00, 0.00, -0.00, -1.00, 957.6, 572.0)">r</text><text xml:space="preserve" font-family="YanoneKaffeesatz-Bold" font-weight="bold" font-size="150.0" fill="#FEFFFE" transform="matrix(1.00, 0.00, -0.00, -1.00, 992.0, 572.0)">e</text><text xml:space="preserve" font-family="YanoneKaffeesatz-Bold" font-weight="bold" font-size="150.0" fill="#FEFFFE" transform="matrix(1.00, 0.00, -0.00, -1.00, 1042.3, 572.0)">e</text><text xml:space="preserve" font-family="YanoneKaffeesatz-Bold" font-weight="bold" font-size="150.0" fill="#FEFFFE" transform="matrix(1.00, 0.00, -0.00, -1.00, 1094.2, 572.0)">s</text><text xml:space="preserve" font-family="YanoneKaffeesatz-Bold" font-weight="bold" font-size="150.0" fill="#FEFFFE" transform="matrix(1.00, 0.00, -0.00, -1.00, 1141.9, 572.0)"> </text><image xlink:href="../../86D0BE33-7319-4A48-B741-49EB6BEEFFF1/assets/2886B73919ABB264F5F49AD55C5046F4.png" width="679.00" height="121.00" transform="matrix(1.00, 0.00, -0.00, -1.00, 621.0, 506.0)"></image><text xml:space="preserve" font-family="YanoneKaffeesatz-Bold" font-weight="bold" font-size="150.0" fill="#FEFFFE" transform="matrix(1.00, 0.00, -0.00, -1.00, 621.0, 394.0)">R</text><text xml:space="preserve" font-family="YanoneKaffeesatz-Bold" font-weight="bold" font-size="150.0" fill="#FEFFFE" transform="matrix(1.00, 0.00, -0.00, -1.00, 673.6, 394.0)">e</text><text xml:space="preserve" font-family="YanoneKaffeesatz-Bold" font-weight="bold" font-size="150.0" fill="#FEFFFE" transform="matrix(1.00, 0.00, -0.00, -1.00, 725.5, 394.0)">d</text><text xml:space="preserve" font-family="YanoneKaffeesatz-Bold" font-weight="bold" font-size="150.0" fill="#FEFFFE" transform="matrix(1.00, 0.00, -0.00, -1.00, 780.5, 394.0)">-</text><text xml:space="preserve" font-family="YanoneKaffeesatz-Bold" font-weight="bold" font-size="150.0" fill="#FEFFFE" transform="matrix(1.00, 0.00, -0.00, -1.00, 819.9, 394.0)">B</text><text xml:space="preserve" font-family="YanoneKaffeesatz-Bold" font-weight="bold" font-size="150.0" fill="#FEFFFE" transform="matrix(1.00, 0.00, -0.00, -1.00, 873.6, 394.0)">l</text><text xml:space="preserve" font-family="YanoneKaffeesatz-Bold" font-weight="bold" font-size="150.0" fill="#FEFFFE" transform="matrix(1.00, 0.00, -0.00, -1.00, 900.3, 394.0)">a</text><text xml:space="preserve" font-family="YanoneKaffeesatz-Bold" font-weight="bold" font-size="150.0" fill="#FEFFFE" transform="matrix(1.00, 0.00, -0.00, -1.00, 951.0, 394.0)">c</text><text xml:space="preserve" font-family="YanoneKaffeesatz-Bold" font-weight="bold" font-size="150.0" fill="#FEFFFE" transform="matrix(1.00, 0.00, -0.00, -1.00, 994.8, 394.0)">k</text><text xml:space="preserve" font-family="YanoneKaffeesatz-Bold" font-weight="bold" font-size="150.0" fill="#FEFFFE" transform="matrix(1.00, 0.00, -0.00, -1.00, 1050.2, 394.0)"> </text><text xml:space="preserve" font-family="YanoneKaffeesatz-Bold" font-weight="bold" font-size="150.0" fill="#FEFFFE" transform="matrix(1.00, 0.00, -0.00, -1.00, 1071.2, 394.0)">T</text><text xml:space="preserve" font-family="YanoneKaffeesatz-Bold" font-weight="bold" font-size="150.0" fill="#FEFFFE" transform="matrix(1.00, 0.00, -0.00, -1.00, 1112.8, 394.0)">r</text><text xml:space="preserve" font-family="YanoneKaffeesatz-Bold" font-weight="bold" font-size="150.0" fill="#FEFFFE" transform="matrix(1.00, 0.00, -0.00, -1.00, 1147.2, 394.0)">e</text><text xml:space="preserve" font-family="YanoneKaffeesatz-Bold" font-weight="bold" font-size="150.0" fill="#FEFFFE" transform="matrix(1.00, 0.00, -0.00, -1.00, 1197.6, 394.0)">e</text><text xml:space="preserve" font-family="YanoneKaffeesatz-Bold" font-weight="bold" font-size="150.0" fill="#FEFFFE" transform="matrix(1.00, 0.00, -0.00, -1.00, 1249.5, 394.0)">s</text></g></svg>