<?xml version="1.0" encoding="UTF-8" standalone="no"?><svg xmlns="http://www.w3.org/2000/svg" xmlns:xlink="http://www.w3.org/1999/xlink" clip-rule="evenodd" stroke-miterlimit="4.00" viewBox="0 0 1920 1080"><desc>SVG generated by Keynote</desc><defs></defs><g transform="matrix(1.00, 0.00, -0.00, -1.00, 0.0, 1080.0)"><g><clipPath id="clip-6859"><path d="M 0.0 1080.0 L 1920.0 1080.0 L 1920.0 0.0 L 0.0 0.0 Z M 0.0 1080.0 "></path></clipPath><g clip-path="url(#clip-6859)"><image xlink:href="../../C790834B-C1C8-4410-8563-9C912CD2A702/assets/4B0075050CC9D0F3DC006F0CDE78D676.jpeg" width="1365.00" height="767.00" transform="matrix(1.41, 0.00, -0.00, -1.41, 0.0, 1080.0)"></image></g></g><image xlink:href="../../5F4518D6-B3FE-4FDA-A465-D9ED16816C9D/assets/369BFC600248AAC10A36D1E759E5B561.png" width="877.00" height="157.00" transform="matrix(1.00, 0.00, -0.00, -1.00, 524.0, 1013.0)"></image><text xml:space="preserve" font-family="YanoneKaffeesatz-Bold" font-weight="bold" font-size="200.0" fill="#FC6900" transform="matrix(1.00, 0.00, -0.00, -1.00, 522.0, 865.0)">R</text><text xml:space="preserve" font-family="YanoneKaffeesatz-Bold" font-weight="bold" font-size="200.0" fill="#FC6900" transform="matrix(1.00, 0.00, -0.00, -1.00, 592.2, 865.0)">e</text><text xml:space="preserve" font-family="YanoneKaffeesatz-Bold" font-weight="bold" font-size="200.0" fill="#FC6900" transform="matrix(1.00, 0.00, -0.00, -1.00, 661.4, 865.0)">d</text><text xml:space="preserve" font-family="YanoneKaffeesatz-Bold" font-weight="bold" font-size="200.0" fill="#FC6900" transform="matrix(1.00, 0.00, -0.00, -1.00, 734.6, 865.0)"> </text><text xml:space="preserve" font-family="YanoneKaffeesatz-Bold" font-weight="bold" font-size="200.0" fill="#FC6900" transform="matrix(1.00, 0.00, -0.00, -1.00, 762.6, 865.0)">B</text><text xml:space="preserve" font-family="YanoneKaffeesatz-Bold" font-weight="bold" font-size="200.0" fill="#FC6900" transform="matrix(1.00, 0.00, -0.00, -1.00, 834.2, 865.0)">l</text><text xml:space="preserve" font-family="YanoneKaffeesatz-Bold" font-weight="bold" font-size="200.0" fill="#FC6900" transform="matrix(1.00, 0.00, -0.00, -1.00, 869.8, 865.0)">a</text><text xml:space="preserve" font-family="YanoneKaffeesatz-Bold" font-weight="bold" font-size="200.0" fill="#FC6900" transform="matrix(1.00, 0.00, -0.00, -1.00, 937.4, 865.0)">c</text><text xml:space="preserve" font-family="YanoneKaffeesatz-Bold" font-weight="bold" font-size="200.0" fill="#FC6900" transform="matrix(1.00, 0.00, -0.00, -1.00, 995.8, 865.0)">k</text><text xml:space="preserve" font-family="YanoneKaffeesatz-Bold" font-weight="bold" font-size="200.0" fill="#FC6900" transform="matrix(1.00, 0.00, -0.00, -1.00, 1069.6, 865.0)"> </text><text xml:space="preserve" font-family="YanoneKaffeesatz-Bold" font-weight="bold" font-size="200.0" fill="#FC6900" transform="matrix(1.00, 0.00, -0.00, -1.00, 1097.6, 865.0)">T</text><text xml:space="preserve" font-family="YanoneKaffeesatz-Bold" font-weight="bold" font-size="200.0" fill="#FC6900" transform="matrix(1.00, 0.00, -0.00, -1.00, 1153.2, 865.0)">r</text><text xml:space="preserve" font-family="YanoneKaffeesatz-Bold" font-weight="bold" font-size="200.0" fill="#FC6900" transform="matrix(1.00, 0.00, -0.00, -1.00, 1199.0, 865.0)">e</text><text xml:space="preserve" font-family="YanoneKaffeesatz-Bold" font-weight="bold" font-size="200.0" fill="#FC6900" transform="matrix(1.00, 0.00, -0.00, -1.00, 1266.2, 865.0)">e</text><text xml:space="preserve" font-family="YanoneKaffeesatz-Bold" font-weight="bold" font-size="200.0" fill="#FC6900" transform="matrix(1.00, 0.00, -0.00, -1.00, 1335.4, 865.0)">s</text><image xlink:href="../../5F4518D6-B3FE-4FDA-A465-D9ED16816C9D/assets/F79B3613B9A5D0434014AAAF630A740B.png" width="1338.00" height="415.00" transform="matrix(1.00, 0.00, -0.00, -1.00, 291.1, 747.6)" opacity="0.25"></image><path d="M 311.1 727.6 L 1608.9 727.6 L 1608.9 352.4 L 311.1 352.4 Z M 311.1 727.6 " fill="#535253"></path><g><clipPath id="clip-6860"><path d="M 293.4 332.5 L 1626.6 332.5 L 1626.6 745.3 L 293.4 745.3 Z M 293.4 332.5 "></path></clipPath><g clip-path="url(#clip-6860)"><path d="M 315.1 634.6 L 636.7 634.6 L 636.7 538.9 L 315.1 538.9 Z M 315.1 634.6 " fill="#000000" fill-opacity="0.00"></path><text xml:space="preserve" font-family="YanoneKaffeesatz-Bold" font-weight="bold" font-size="75.0" fill="#FE2500" transform="matrix(1.00, 0.00, -0.00, -1.00, 315.0, 652.0)">R</text><text xml:space="preserve" font-family="YanoneKaffeesatz-Bold" font-weight="bold" font-size="75.0" fill="#FE2500" transform="matrix(1.00, 0.00, -0.00, -1.00, 341.3, 652.0)">e</text><text xml:space="preserve" font-family="YanoneKaffeesatz-Bold" font-weight="bold" font-size="75.0" fill="#FE2500" transform="matrix(1.00, 0.00, -0.00, -1.00, 367.3, 652.0)">d</text><text xml:space="preserve" font-family="YanoneKaffeesatz-Bold" font-weight="bold" font-size="75.0" fill="#FE2500" transform="matrix(1.00, 0.00, -0.00, -1.00, 394.7, 652.0)"> </text><text xml:space="preserve" font-family="YanoneKaffeesatz-Bold" font-weight="bold" font-size="75.0" fill="#FE2500" transform="matrix(1.00, 0.00, -0.00, -1.00, 405.2, 652.0)">i</text><text xml:space="preserve" font-family="YanoneKaffeesatz-Bold" font-weight="bold" font-size="75.0" fill="#FE2500" transform="matrix(1.00, 0.00, -0.00, -1.00, 418.7, 652.0)">n</text><text xml:space="preserve" font-family="YanoneKaffeesatz-Bold" font-weight="bold" font-size="75.0" fill="#FE2500" transform="matrix(1.00, 0.00, -0.00, -1.00, 445.8, 652.0)">v</text><text xml:space="preserve" font-family="YanoneKaffeesatz-Bold" font-weight="bold" font-size="75.0" fill="#FE2500" transform="matrix(1.00, 0.00, -0.00, -1.00, 469.9, 652.0)">a</text><text xml:space="preserve" font-family="YanoneKaffeesatz-Bold" font-weight="bold" font-size="75.0" fill="#FE2500" transform="matrix(1.00, 0.00, -0.00, -1.00, 495.3, 652.0)">r</text><text xml:space="preserve" font-family="YanoneKaffeesatz-Bold" font-weight="bold" font-size="75.0" fill="#FE2500" transform="matrix(1.00, 0.00, -0.00, -1.00, 514.0, 652.0)">i</text><text xml:space="preserve" font-family="YanoneKaffeesatz-Bold" font-weight="bold" font-size="75.0" fill="#FE2500" transform="matrix(1.00, 0.00, -0.00, -1.00, 527.5, 652.0)">a</text><text xml:space="preserve" font-family="YanoneKaffeesatz-Bold" font-weight="bold" font-size="75.0" fill="#FE2500" transform="matrix(1.00, 0.00, -0.00, -1.00, 552.8, 652.0)">n</text><text xml:space="preserve" font-family="YanoneKaffeesatz-Bold" font-weight="bold" font-size="75.0" fill="#FE2500" transform="matrix(1.00, 0.00, -0.00, -1.00, 579.9, 652.0)">t</text><text xml:space="preserve" font-family="YanoneKaffeesatz-Regular" font-size="75.0" fill="#FEFFFE" transform="matrix(1.00, 0.00, -0.00, -1.00, 601.2, 652.0)">:</text><text xml:space="preserve" font-family="YanoneKaffeesatz-Regular" font-size="75.0" fill="#FEFFFE" transform="matrix(1.00, 0.00, -0.00, -1.00, 614.9, 652.0)"> </text><text xml:space="preserve" font-family="YanoneKaffeesatz-Regular" font-size="75.0" fill="#FEFFFE" transform="matrix(1.00, 0.00, -0.00, -1.00, 626.7, 652.0)">N</text><text xml:space="preserve" font-family="YanoneKaffeesatz-Regular" font-size="75.0" fill="#FEFFFE" transform="matrix(1.00, 0.00, -0.00, -1.00, 660.0, 652.0)">o</text><text xml:space="preserve" font-family="YanoneKaffeesatz-Regular" font-size="75.0" fill="#FEFFFE" transform="matrix(1.00, 0.00, -0.00, -1.00, 687.6, 652.0)"> </text><text xml:space="preserve" font-family="YanoneKaffeesatz-Regular" font-size="75.0" fill="#FEFFFE" transform="matrix(1.00, 0.00, -0.00, -1.00, 699.4, 652.0)">r</text><text xml:space="preserve" font-family="YanoneKaffeesatz-Regular" font-size="75.0" fill="#FEFFFE" transform="matrix(1.00, 0.00, -0.00, -1.00, 717.5, 652.0)">e</text><text xml:space="preserve" font-family="YanoneKaffeesatz-Regular" font-size="75.0" fill="#FEFFFE" transform="matrix(1.00, 0.00, -0.00, -1.00, 744.6, 652.0)">d</text><text xml:space="preserve" font-family="YanoneKaffeesatz-Regular" font-size="75.0" fill="#FEFFFE" transform="matrix(1.00, 0.00, -0.00, -1.00, 773.5, 652.0)"> </text><text xml:space="preserve" font-family="YanoneKaffeesatz-Regular" font-size="75.0" fill="#FEFFFE" transform="matrix(1.00, 0.00, -0.00, -1.00, 785.3, 652.0)">n</text><text xml:space="preserve" font-family="YanoneKaffeesatz-Regular" font-size="75.0" fill="#FEFFFE" transform="matrix(1.00, 0.00, -0.00, -1.00, 814.0, 652.0)">o</text><text xml:space="preserve" font-family="YanoneKaffeesatz-Regular" font-size="75.0" fill="#FEFFFE" transform="matrix(1.00, 0.00, -0.00, -1.00, 841.6, 652.0)">d</text><text xml:space="preserve" font-family="YanoneKaffeesatz-Regular" font-size="75.0" fill="#FEFFFE" transform="matrix(1.00, 0.00, -0.00, -1.00, 870.5, 652.0)">e</text><text xml:space="preserve" font-family="YanoneKaffeesatz-Regular" font-size="75.0" fill="#FEFFFE" transform="matrix(1.00, 0.00, -0.00, -1.00, 897.6, 652.0)"> </text><text xml:space="preserve" font-family="YanoneKaffeesatz-Regular" font-size="75.0" fill="#FEFFFE" transform="matrix(1.00, 0.00, -0.00, -1.00, 909.4, 652.0)">h</text><text xml:space="preserve" font-family="YanoneKaffeesatz-Regular" font-size="75.0" fill="#FEFFFE" transform="matrix(1.00, 0.00, -0.00, -1.00, 937.9, 652.0)">a</text><text xml:space="preserve" font-family="YanoneKaffeesatz-Regular" font-size="75.0" fill="#FEFFFE" transform="matrix(1.00, 0.00, -0.00, -1.00, 964.4, 652.0)">s</text><text xml:space="preserve" font-family="YanoneKaffeesatz-Regular" font-size="75.0" fill="#FEFFFE" transform="matrix(1.00, 0.00, -0.00, -1.00, 990.3, 652.0)"> </text><text xml:space="preserve" font-family="YanoneKaffeesatz-Regular" font-size="75.0" fill="#FEFFFE" transform="matrix(1.00, 0.00, -0.00, -1.00, 1002.1, 652.0)">r</text><text xml:space="preserve" font-family="YanoneKaffeesatz-Regular" font-size="75.0" fill="#FEFFFE" transform="matrix(1.00, 0.00, -0.00, -1.00, 1020.2, 652.0)">e</text><text xml:space="preserve" font-family="YanoneKaffeesatz-Regular" font-size="75.0" fill="#FEFFFE" transform="matrix(1.00, 0.00, -0.00, -1.00, 1047.3, 652.0)">d</text><text xml:space="preserve" font-family="YanoneKaffeesatz-Regular" font-size="75.0" fill="#FEFFFE" transform="matrix(1.00, 0.00, -0.00, -1.00, 1076.2, 652.0)"> </text><text xml:space="preserve" font-family="YanoneKaffeesatz-Regular" font-size="75.0" fill="#FEFFFE" transform="matrix(1.00, 0.00, -0.00, -1.00, 1088.0, 652.0)">p</text><text xml:space="preserve" font-family="YanoneKaffeesatz-Regular" font-size="75.0" fill="#FEFFFE" transform="matrix(1.00, 0.00, -0.00, -1.00, 1116.2, 652.0)">a</text><text xml:space="preserve" font-family="YanoneKaffeesatz-Regular" font-size="75.0" fill="#FEFFFE" transform="matrix(1.00, 0.00, -0.00, -1.00, 1142.8, 652.0)">r</text><text xml:space="preserve" font-family="YanoneKaffeesatz-Regular" font-size="75.0" fill="#FEFFFE" transform="matrix(1.00, 0.00, -0.00, -1.00, 1160.9, 652.0)">e</text><text xml:space="preserve" font-family="YanoneKaffeesatz-Regular" font-size="75.0" fill="#FEFFFE" transform="matrix(1.00, 0.00, -0.00, -1.00, 1188.0, 652.0)">n</text><text xml:space="preserve" font-family="YanoneKaffeesatz-Regular" font-size="75.0" fill="#FEFFFE" transform="matrix(1.00, 0.00, -0.00, -1.00, 1216.7, 652.0)">t</text><text xml:space="preserve" font-family="YanoneKaffeesatz-Regular" font-size="75.0" fill="#FEFFFE" transform="matrix(1.00, 0.00, -0.00, -1.00, 1238.5, 652.0)"> </text><text xml:space="preserve" font-family="YanoneKaffeesatz-Bold" font-weight="bold" font-size="75.0" fill="#000000" transform="matrix(1.00, 0.00, -0.00, -1.00, 315.0, 556.0)">B</text><text xml:space="preserve" font-family="YanoneKaffeesatz-Bold" font-weight="bold" font-size="75.0" fill="#000000" transform="matrix(1.00, 0.00, -0.00, -1.00, 341.9, 556.0)">l</text><text xml:space="preserve" font-family="YanoneKaffeesatz-Bold" font-weight="bold" font-size="75.0" fill="#000000" transform="matrix(1.00, 0.00, -0.00, -1.00, 355.2, 556.0)">a</text><text xml:space="preserve" font-family="YanoneKaffeesatz-Bold" font-weight="bold" font-size="75.0" fill="#000000" transform="matrix(1.00, 0.00, -0.00, -1.00, 380.6, 556.0)">c</text><text xml:space="preserve" font-family="YanoneKaffeesatz-Bold" font-weight="bold" font-size="75.0" fill="#000000" transform="matrix(1.00, 0.00, -0.00, -1.00, 402.4, 556.0)">k</text><text xml:space="preserve" font-family="YanoneKaffeesatz-Bold" font-weight="bold" font-size="75.0" fill="#000000" transform="matrix(1.00, 0.00, -0.00, -1.00, 430.1, 556.0)"> </text><text xml:space="preserve" font-family="YanoneKaffeesatz-Bold" font-weight="bold" font-size="75.0" fill="#000000" transform="matrix(1.00, 0.00, -0.00, -1.00, 440.6, 556.0)">i</text><text xml:space="preserve" font-family="YanoneKaffeesatz-Bold" font-weight="bold" font-size="75.0" fill="#000000" transform="matrix(1.00, 0.00, -0.00, -1.00, 454.1, 556.0)">n</text><text xml:space="preserve" font-family="YanoneKaffeesatz-Bold" font-weight="bold" font-size="75.0" fill="#000000" transform="matrix(1.00, 0.00, -0.00, -1.00, 481.2, 556.0)">v</text><text xml:space="preserve" font-family="YanoneKaffeesatz-Bold" font-weight="bold" font-size="75.0" fill="#000000" transform="matrix(1.00, 0.00, -0.00, -1.00, 505.4, 556.0)">a</text><text xml:space="preserve" font-family="YanoneKaffeesatz-Bold" font-weight="bold" font-size="75.0" fill="#000000" transform="matrix(1.00, 0.00, -0.00, -1.00, 530.7, 556.0)">r</text><text xml:space="preserve" font-family="YanoneKaffeesatz-Bold" font-weight="bold" font-size="75.0" fill="#000000" transform="matrix(1.00, 0.00, -0.00, -1.00, 549.4, 556.0)">i</text><text xml:space="preserve" font-family="YanoneKaffeesatz-Bold" font-weight="bold" font-size="75.0" fill="#000000" transform="matrix(1.00, 0.00, -0.00, -1.00, 562.9, 556.0)">a</text><text xml:space="preserve" font-family="YanoneKaffeesatz-Bold" font-weight="bold" font-size="75.0" fill="#000000" transform="matrix(1.00, 0.00, -0.00, -1.00, 588.2, 556.0)">n</text><text xml:space="preserve" font-family="YanoneKaffeesatz-Bold" font-weight="bold" font-size="75.0" fill="#000000" transform="matrix(1.00, 0.00, -0.00, -1.00, 615.3, 556.0)">t</text><text xml:space="preserve" font-family="YanoneKaffeesatz-Regular" font-size="75.0" fill="#FEFFFE" transform="matrix(1.00, 0.00, -0.00, -1.00, 636.6, 556.0)">:</text><text xml:space="preserve" font-family="YanoneKaffeesatz-Regular" font-size="75.0" fill="#FEFFFE" transform="matrix(1.00, 0.00, -0.00, -1.00, 650.3, 556.0)"> </text><text xml:space="preserve" font-family="YanoneKaffeesatz-Regular" font-size="75.0" fill="#FEFFFE" transform="matrix(1.00, 0.00, -0.00, -1.00, 662.1, 556.0)">E</text><text xml:space="preserve" font-family="YanoneKaffeesatz-Regular" font-size="75.0" fill="#FEFFFE" transform="matrix(1.00, 0.00, -0.00, -1.00, 686.1, 556.0)">v</text><text xml:space="preserve" font-family="YanoneKaffeesatz-Regular" font-size="75.0" fill="#FEFFFE" transform="matrix(1.00, 0.00, -0.00, -1.00, 710.1, 556.0)">e</text><text xml:space="preserve" font-family="YanoneKaffeesatz-Regular" font-size="75.0" fill="#FEFFFE" transform="matrix(1.00, 0.00, -0.00, -1.00, 737.2, 556.0)">r</text><text xml:space="preserve" font-family="YanoneKaffeesatz-Regular" font-size="75.0" fill="#FEFFFE" transform="matrix(1.00, 0.00, -0.00, -1.00, 756.9, 556.0)">y</text><text xml:space="preserve" font-family="YanoneKaffeesatz-Regular" font-size="75.0" fill="#FEFFFE" transform="matrix(1.00, 0.00, -0.00, -1.00, 783.6, 556.0)"> </text><text xml:space="preserve" font-family="YanoneKaffeesatz-Regular" font-size="75.0" fill="#FEFFFE" transform="matrix(1.00, 0.00, -0.00, -1.00, 795.4, 556.0)">r</text><text xml:space="preserve" font-family="YanoneKaffeesatz-Regular" font-size="75.0" fill="#FEFFFE" transform="matrix(1.00, 0.00, -0.00, -1.00, 813.6, 556.0)">o</text><text xml:space="preserve" font-family="YanoneKaffeesatz-Regular" font-size="75.0" fill="#FEFFFE" transform="matrix(1.00, 0.00, -0.00, -1.00, 841.2, 556.0)">o</text><text xml:space="preserve" font-family="YanoneKaffeesatz-Regular" font-size="75.0" fill="#FEFFFE" transform="matrix(1.00, 0.00, -0.00, -1.00, 867.8, 556.0)">t</text><text xml:space="preserve" font-family="YanoneKaffeesatz-Regular" font-size="75.0" fill="#FEFFFE" transform="matrix(1.00, 0.00, -0.00, -1.00, 884.7, 556.0)">-</text><text xml:space="preserve" font-family="YanoneKaffeesatz-Regular" font-size="75.0" fill="#FEFFFE" transform="matrix(1.00, 0.00, -0.00, -1.00, 903.4, 556.0)">t</text><text xml:space="preserve" font-family="YanoneKaffeesatz-Regular" font-size="75.0" fill="#FEFFFE" transform="matrix(1.00, 0.00, -0.00, -1.00, 923.9, 556.0)">o</text><text xml:space="preserve" font-family="YanoneKaffeesatz-Regular" font-size="75.0" fill="#FEFFFE" transform="matrix(1.00, 0.00, -0.00, -1.00, 951.5, 556.0)">-</text><text xml:space="preserve" font-family="YanoneKaffeesatz-Regular" font-size="75.0" fill="#FEFFFE" transform="matrix(1.00, 0.00, -0.00, -1.00, 972.4, 556.0)">l</text><text xml:space="preserve" font-family="YanoneKaffeesatz-Regular" font-size="75.0" fill="#FEFFFE" transform="matrix(1.00, 0.00, -0.00, -1.00, 985.4, 556.0)">e</text><text xml:space="preserve" font-family="YanoneKaffeesatz-Regular" font-size="75.0" fill="#FEFFFE" transform="matrix(1.00, 0.00, -0.00, -1.00, 1012.4, 556.0)">a</text><text xml:space="preserve" font-family="YanoneKaffeesatz-Regular" font-size="75.0" fill="#FEFFFE" transform="matrix(1.00, 0.00, -0.00, -1.00, 1038.3, 556.0)">f</text><text xml:space="preserve" font-family="YanoneKaffeesatz-Regular" font-size="75.0" fill="#FEFFFE" transform="matrix(1.00, 0.00, -0.00, -1.00, 1057.4, 556.0)"> </text><text xml:space="preserve" font-family="YanoneKaffeesatz-Regular" font-size="75.0" fill="#FEFFFE" transform="matrix(1.00, 0.00, -0.00, -1.00, 1069.2, 556.0)">p</text><text xml:space="preserve" font-family="YanoneKaffeesatz-Regular" font-size="75.0" fill="#FEFFFE" transform="matrix(1.00, 0.00, -0.00, -1.00, 1097.4, 556.0)">a</text><text xml:space="preserve" font-family="YanoneKaffeesatz-Regular" font-size="75.0" fill="#FEFFFE" transform="matrix(1.00, 0.00, -0.00, -1.00, 1122.7, 556.0)">t</text><text xml:space="preserve" font-family="YanoneKaffeesatz-Regular" font-size="75.0" fill="#FEFFFE" transform="matrix(1.00, 0.00, -0.00, -1.00, 1144.5, 556.0)">h</text><text xml:space="preserve" font-family="YanoneKaffeesatz-Regular" font-size="75.0" fill="#FEFFFE" transform="matrix(1.00, 0.00, -0.00, -1.00, 1173.0, 556.0)"> </text><text xml:space="preserve" font-family="YanoneKaffeesatz-Regular" font-size="75.0" fill="#FEFFFE" transform="matrix(1.00, 0.00, -0.00, -1.00, 1184.8, 556.0)">c</text><text xml:space="preserve" font-family="YanoneKaffeesatz-Regular" font-size="75.0" fill="#FEFFFE" transform="matrix(1.00, 0.00, -0.00, -1.00, 1207.4, 556.0)">o</text><text xml:space="preserve" font-family="YanoneKaffeesatz-Regular" font-size="75.0" fill="#FEFFFE" transform="matrix(1.00, 0.00, -0.00, -1.00, 1235.0, 556.0)">n</text><text xml:space="preserve" font-family="YanoneKaffeesatz-Regular" font-size="75.0" fill="#FEFFFE" transform="matrix(1.00, 0.00, -0.00, -1.00, 1263.6, 556.0)">t</text><text xml:space="preserve" font-family="YanoneKaffeesatz-Regular" font-size="75.0" fill="#FEFFFE" transform="matrix(1.00, 0.00, -0.00, -1.00, 1285.4, 556.0)">a</text><text xml:space="preserve" font-family="YanoneKaffeesatz-Regular" font-size="75.0" fill="#FEFFFE" transform="matrix(1.00, 0.00, -0.00, -1.00, 1312.0, 556.0)">i</text><text xml:space="preserve" font-family="YanoneKaffeesatz-Regular" font-size="75.0" fill="#FEFFFE" transform="matrix(1.00, 0.00, -0.00, -1.00, 1325.1, 556.0)">n</text><text xml:space="preserve" font-family="YanoneKaffeesatz-Regular" font-size="75.0" fill="#FEFFFE" transform="matrix(1.00, 0.00, -0.00, -1.00, 1353.8, 556.0)">s</text><text xml:space="preserve" font-family="YanoneKaffeesatz-Regular" font-size="75.0" fill="#FEFFFE" transform="matrix(1.00, 0.00, -0.00, -1.00, 1379.6, 556.0)"> </text><text xml:space="preserve" font-family="YanoneKaffeesatz-Regular" font-size="75.0" fill="#FEFFFE" transform="matrix(1.00, 0.00, -0.00, -1.00, 1391.4, 556.0)">t</text><text xml:space="preserve" font-family="YanoneKaffeesatz-Regular" font-size="75.0" fill="#FEFFFE" transform="matrix(1.00, 0.00, -0.00, -1.00, 1413.2, 556.0)">h</text><text xml:space="preserve" font-family="YanoneKaffeesatz-Regular" font-size="75.0" fill="#FEFFFE" transform="matrix(1.00, 0.00, -0.00, -1.00, 1441.7, 556.0)">e</text><text xml:space="preserve" font-family="YanoneKaffeesatz-Regular" font-size="75.0" fill="#FEFFFE" transform="matrix(1.00, 0.00, -0.00, -1.00, 1468.8, 556.0)"> </text><text xml:space="preserve" font-family="YanoneKaffeesatz-Regular" font-size="75.0" fill="#FEFFFE" transform="matrix(1.00, 0.00, -0.00, -1.00, 1480.6, 556.0)">s</text><text xml:space="preserve" font-family="YanoneKaffeesatz-Regular" font-size="75.0" fill="#FEFFFE" transform="matrix(1.00, 0.00, -0.00, -1.00, 1506.5, 556.0)">a</text><text xml:space="preserve" font-family="YanoneKaffeesatz-Regular" font-size="75.0" fill="#FEFFFE" transform="matrix(1.00, 0.00, -0.00, -1.00, 1533.0, 556.0)">m</text><text xml:space="preserve" font-family="YanoneKaffeesatz-Regular" font-size="75.0" fill="#FEFFFE" transform="matrix(1.00, 0.00, -0.00, -1.00, 1575.2, 556.0)">e</text><text xml:space="preserve" font-family="YanoneKaffeesatz-Regular" font-size="75.0" fill="#FEFFFE" transform="matrix(1.00, 0.00, -0.00, -1.00, 1602.3, 556.0)"> </text><text xml:space="preserve" font-family="YanoneKaffeesatz-Regular" font-size="75.0" fill="#FEFFFE" transform="matrix(1.00, 0.00, -0.00, -1.00, 315.0, 467.0)">n</text><text xml:space="preserve" font-family="YanoneKaffeesatz-Regular" font-size="75.0" fill="#FEFFFE" transform="matrix(1.00, 0.00, -0.00, -1.00, 343.6, 467.0)">u</text><text xml:space="preserve" font-family="YanoneKaffeesatz-Regular" font-size="75.0" fill="#FEFFFE" transform="matrix(1.00, 0.00, -0.00, -1.00, 372.9, 467.0)">m</text><text xml:space="preserve" font-family="YanoneKaffeesatz-Regular" font-size="75.0" fill="#FEFFFE" transform="matrix(1.00, 0.00, -0.00, -1.00, 415.1, 467.0)">b</text><text xml:space="preserve" font-family="YanoneKaffeesatz-Regular" font-size="75.0" fill="#FEFFFE" transform="matrix(1.00, 0.00, -0.00, -1.00, 443.9, 467.0)">e</text><text xml:space="preserve" font-family="YanoneKaffeesatz-Regular" font-size="75.0" fill="#FEFFFE" transform="matrix(1.00, 0.00, -0.00, -1.00, 470.9, 467.0)">r</text><text xml:space="preserve" font-family="YanoneKaffeesatz-Regular" font-size="75.0" fill="#FEFFFE" transform="matrix(1.00, 0.00, -0.00, -1.00, 490.6, 467.0)"> </text><text xml:space="preserve" font-family="YanoneKaffeesatz-Regular" font-size="75.0" fill="#FEFFFE" transform="matrix(1.00, 0.00, -0.00, -1.00, 502.4, 467.0)">o</text><text xml:space="preserve" font-family="YanoneKaffeesatz-Regular" font-size="75.0" fill="#FEFFFE" transform="matrix(1.00, 0.00, -0.00, -1.00, 529.3, 467.0)">f</text><text xml:space="preserve" font-family="YanoneKaffeesatz-Regular" font-size="75.0" fill="#FEFFFE" transform="matrix(1.00, 0.00, -0.00, -1.00, 548.4, 467.0)"> </text><text xml:space="preserve" font-family="YanoneKaffeesatz-Regular" font-size="75.0" fill="#FEFFFE" transform="matrix(1.00, 0.00, -0.00, -1.00, 560.2, 467.0)">b</text><text xml:space="preserve" font-family="YanoneKaffeesatz-Regular" font-size="75.0" fill="#FEFFFE" transform="matrix(1.00, 0.00, -0.00, -1.00, 588.9, 467.0)">l</text><text xml:space="preserve" font-family="YanoneKaffeesatz-Regular" font-size="75.0" fill="#FEFFFE" transform="matrix(1.00, 0.00, -0.00, -1.00, 601.9, 467.0)">a</text><text xml:space="preserve" font-family="YanoneKaffeesatz-Regular" font-size="75.0" fill="#FEFFFE" transform="matrix(1.00, 0.00, -0.00, -1.00, 628.4, 467.0)">c</text><text xml:space="preserve" font-family="YanoneKaffeesatz-Regular" font-size="75.0" fill="#FEFFFE" transform="matrix(1.00, 0.00, -0.00, -1.00, 651.9, 467.0)">k</text><text xml:space="preserve" font-family="YanoneKaffeesatz-Regular" font-size="75.0" fill="#FEFFFE" transform="matrix(1.00, 0.00, -0.00, -1.00, 680.5, 467.0)"> </text><text xml:space="preserve" font-family="YanoneKaffeesatz-Regular" font-size="75.0" fill="#FEFFFE" transform="matrix(1.00, 0.00, -0.00, -1.00, 692.2, 467.0)">n</text><text xml:space="preserve" font-family="YanoneKaffeesatz-Regular" font-size="75.0" fill="#FEFFFE" transform="matrix(1.00, 0.00, -0.00, -1.00, 720.9, 467.0)">o</text><text xml:space="preserve" font-family="YanoneKaffeesatz-Regular" font-size="75.0" fill="#FEFFFE" transform="matrix(1.00, 0.00, -0.00, -1.00, 748.5, 467.0)">d</text><text xml:space="preserve" font-family="YanoneKaffeesatz-Regular" font-size="75.0" fill="#FEFFFE" transform="matrix(1.00, 0.00, -0.00, -1.00, 777.5, 467.0)">e</text><text xml:space="preserve" font-family="YanoneKaffeesatz-Regular" font-size="75.0" fill="#FEFFFE" transform="matrix(1.00, 0.00, -0.00, -1.00, 804.5, 467.0)">s</text><text xml:space="preserve" font-family="YanoneKaffeesatz-Regular" font-size="75.0" fill="#FEFFFE" transform="matrix(1.00, 0.00, -0.00, -1.00, 830.4, 467.0)"> </text><text xml:space="preserve" font-family="YanoneKaffeesatz-Regular" font-size="75.0" fill="#FEFFFE" transform="matrix(1.00, 0.00, -0.00, -1.00, 315.0, 371.0)">W</text><text xml:space="preserve" font-family="YanoneKaffeesatz-Regular" font-size="75.0" fill="#FEFFFE" transform="matrix(1.00, 0.00, -0.00, -1.00, 364.1, 371.0)">h</text><text xml:space="preserve" font-family="YanoneKaffeesatz-Regular" font-size="75.0" fill="#FEFFFE" transform="matrix(1.00, 0.00, -0.00, -1.00, 392.6, 371.0)">e</text><text xml:space="preserve" font-family="YanoneKaffeesatz-Regular" font-size="75.0" fill="#FEFFFE" transform="matrix(1.00, 0.00, -0.00, -1.00, 419.7, 371.0)">n</text><text xml:space="preserve" font-family="YanoneKaffeesatz-Regular" font-size="75.0" fill="#FEFFFE" transform="matrix(1.00, 0.00, -0.00, -1.00, 448.4, 371.0)"> </text><text xml:space="preserve" font-family="YanoneKaffeesatz-Regular" font-size="75.0" fill="#FEFFFE" transform="matrix(1.00, 0.00, -0.00, -1.00, 460.1, 371.0)">n</text><text xml:space="preserve" font-family="YanoneKaffeesatz-Regular" font-size="75.0" fill="#FEFFFE" transform="matrix(1.00, 0.00, -0.00, -1.00, 488.8, 371.0)">e</text><text xml:space="preserve" font-family="YanoneKaffeesatz-Regular" font-size="75.0" fill="#FEFFFE" transform="matrix(1.00, 0.00, -0.00, -1.00, 515.6, 371.0)">w</text><text xml:space="preserve" font-family="YanoneKaffeesatz-Regular" font-size="75.0" fill="#FEFFFE" transform="matrix(1.00, 0.00, -0.00, -1.00, 556.1, 371.0)"> </text><text xml:space="preserve" font-family="YanoneKaffeesatz-Regular" font-size="75.0" fill="#FEFFFE" transform="matrix(1.00, 0.00, -0.00, -1.00, 567.9, 371.0)">n</text><text xml:space="preserve" font-family="YanoneKaffeesatz-Regular" font-size="75.0" fill="#FEFFFE" transform="matrix(1.00, 0.00, -0.00, -1.00, 596.5, 371.0)">o</text><text xml:space="preserve" font-family="YanoneKaffeesatz-Regular" font-size="75.0" fill="#FEFFFE" transform="matrix(1.00, 0.00, -0.00, -1.00, 624.2, 371.0)">d</text><text xml:space="preserve" font-family="YanoneKaffeesatz-Regular" font-size="75.0" fill="#FEFFFE" transform="matrix(1.00, 0.00, -0.00, -1.00, 653.1, 371.0)">e</text><text xml:space="preserve" font-family="YanoneKaffeesatz-Regular" font-size="75.0" fill="#FEFFFE" transform="matrix(1.00, 0.00, -0.00, -1.00, 680.2, 371.0)"> </text><text xml:space="preserve" font-family="YanoneKaffeesatz-Regular" font-size="75.0" fill="#FEFFFE" transform="matrix(1.00, 0.00, -0.00, -1.00, 692.0, 371.0)">i</text><text xml:space="preserve" font-family="YanoneKaffeesatz-Regular" font-size="75.0" fill="#FEFFFE" transform="matrix(1.00, 0.00, -0.00, -1.00, 705.1, 371.0)">s</text><text xml:space="preserve" font-family="YanoneKaffeesatz-Regular" font-size="75.0" fill="#FEFFFE" transform="matrix(1.00, 0.00, -0.00, -1.00, 731.0, 371.0)"> </text><text xml:space="preserve" font-family="YanoneKaffeesatz-Regular" font-size="75.0" fill="#FEFFFE" transform="matrix(1.00, 0.00, -0.00, -1.00, 742.7, 371.0)">i</text><text xml:space="preserve" font-family="YanoneKaffeesatz-Regular" font-size="75.0" fill="#FEFFFE" transform="matrix(1.00, 0.00, -0.00, -1.00, 755.8, 371.0)">n</text><text xml:space="preserve" font-family="YanoneKaffeesatz-Regular" font-size="75.0" fill="#FEFFFE" transform="matrix(1.00, 0.00, -0.00, -1.00, 784.5, 371.0)">s</text><text xml:space="preserve" font-family="YanoneKaffeesatz-Regular" font-size="75.0" fill="#FEFFFE" transform="matrix(1.00, 0.00, -0.00, -1.00, 810.4, 371.0)">e</text><text xml:space="preserve" font-family="YanoneKaffeesatz-Regular" font-size="75.0" fill="#FEFFFE" transform="matrix(1.00, 0.00, -0.00, -1.00, 837.4, 371.0)">r</text><text xml:space="preserve" font-family="YanoneKaffeesatz-Regular" font-size="75.0" fill="#FEFFFE" transform="matrix(1.00, 0.00, -0.00, -1.00, 857.2, 371.0)">t</text><text xml:space="preserve" font-family="YanoneKaffeesatz-Regular" font-size="75.0" fill="#FEFFFE" transform="matrix(1.00, 0.00, -0.00, -1.00, 877.3, 371.0)">e</text><text xml:space="preserve" font-family="YanoneKaffeesatz-Regular" font-size="75.0" fill="#FEFFFE" transform="matrix(1.00, 0.00, -0.00, -1.00, 904.4, 371.0)">d</text><text xml:space="preserve" font-family="YanoneKaffeesatz-Regular" font-size="75.0" fill="#FEFFFE" transform="matrix(1.00, 0.00, -0.00, -1.00, 933.3, 371.0)">:</text><text xml:space="preserve" font-family="YanoneKaffeesatz-Regular" font-size="75.0" fill="#FEFFFE" transform="matrix(1.00, 0.00, -0.00, -1.00, 947.0, 371.0)"> </text><text xml:space="preserve" font-family="YanoneKaffeesatz-Regular" font-size="75.0" fill="#FEFFFE" transform="matrix(1.00, 0.00, -0.00, -1.00, 958.8, 371.0)">i</text><text xml:space="preserve" font-family="YanoneKaffeesatz-Regular" font-size="75.0" fill="#FEFFFE" transform="matrix(1.00, 0.00, -0.00, -1.00, 971.9, 371.0)">t</text><text xml:space="preserve" font-family="YanoneKaffeesatz-Regular" font-size="75.0" fill="#FEFFFE" transform="matrix(1.00, 0.00, -0.00, -1.00, 993.8, 371.0)"> </text><text xml:space="preserve" font-family="YanoneKaffeesatz-Regular" font-size="75.0" fill="#FEFFFE" transform="matrix(1.00, 0.00, -0.00, -1.00, 1005.5, 371.0)">b</text><text xml:space="preserve" font-family="YanoneKaffeesatz-Regular" font-size="75.0" fill="#FEFFFE" transform="matrix(1.00, 0.00, -0.00, -1.00, 1034.2, 371.0)">e</text><text xml:space="preserve" font-family="YanoneKaffeesatz-Regular" font-size="75.0" fill="#FEFFFE" transform="matrix(1.00, 0.00, -0.00, -1.00, 1061.3, 371.0)">c</text><text xml:space="preserve" font-family="YanoneKaffeesatz-Regular" font-size="75.0" fill="#FEFFFE" transform="matrix(1.00, 0.00, -0.00, -1.00, 1083.9, 371.0)">o</text><text xml:space="preserve" font-family="YanoneKaffeesatz-Regular" font-size="75.0" fill="#FEFFFE" transform="matrix(1.00, 0.00, -0.00, -1.00, 1111.5, 371.0)">m</text><text xml:space="preserve" font-family="YanoneKaffeesatz-Regular" font-size="75.0" fill="#FEFFFE" transform="matrix(1.00, 0.00, -0.00, -1.00, 1153.7, 371.0)">e</text><text xml:space="preserve" font-family="YanoneKaffeesatz-Regular" font-size="75.0" fill="#FEFFFE" transform="matrix(1.00, 0.00, -0.00, -1.00, 1180.8, 371.0)">s</text><text xml:space="preserve" font-family="YanoneKaffeesatz-Regular" font-size="75.0" fill="#FEFFFE" transform="matrix(1.00, 0.00, -0.00, -1.00, 1206.7, 371.0)"> </text><text xml:space="preserve" font-family="YanoneKaffeesatz-Regular" font-size="75.0" fill="#FE2500" transform="matrix(1.00, 0.00, -0.00, -1.00, 1218.5, 371.0)">R</text><text xml:space="preserve" font-family="YanoneKaffeesatz-Regular" font-size="75.0" fill="#FE2500" transform="matrix(1.00, 0.00, -0.00, -1.00, 1245.5, 371.0)">e</text><text xml:space="preserve" font-family="YanoneKaffeesatz-Regular" font-size="75.0" fill="#FE2500" transform="matrix(1.00, 0.00, -0.00, -1.00, 1272.5, 371.0)">d</text></g></g></g></svg>