<?xml version="1.0" encoding="UTF-8" standalone="no"?><svg xmlns="http://www.w3.org/2000/svg" xmlns:xlink="http://www.w3.org/1999/xlink" clip-rule="evenodd" stroke-miterlimit="4.00" viewBox="0 0 1920 1080"><desc>SVG generated by Keynote</desc><defs></defs><g transform="matrix(1.00, 0.00, -0.00, -1.00, 0.0, 1080.0)"><g><clipPath id="clip-6861"><path d="M 0.0 1080.0 L 1920.0 1080.0 L 1920.0 0.0 L 0.0 0.0 Z M 0.0 1080.0 "></path></clipPath><g clip-path="url(#clip-6861)"><image xlink:href="../../C790834B-C1C8-4410-8563-9C912CD2A702/assets/4B0075050CC9D0F3DC006F0CDE78D676.jpeg" width="1365.00" height="767.00" transform="matrix(1.41, 0.00, -0.00, -1.41, 0.0, 1080.0)"></image></g></g><image xlink:href="48CCA21F451BB65E775F98BDFA5FCFEB.png" width="101.00" height="211.00" transform="matrix(-1.00, 0.00, 0.00, 1.00, 810.4, 266.0)" opacity="0.35"></image><path d="M 807.4 450.3 L 783.6 419.0 L 783.6 440.2 L 783.6 440.2 C 744.6 431.1 716.3 400.6 712.8 364.2 C 708.9 406.0 738.9 444.3 783.6 454.8 L 783.6 476.1 Z M 712.5 371.4 C 712.5 323.9 755.0 285.3 807.4 285.3 L 807.4 270.8 C 755.0 270.8 712.5 309.3 712.5 356.9 Z M 712.5 371.4 " fill="#E0E4CB"></path><path d="M 94.9 100.7 C 94.9 53.1 52.4 14.6 0.0 14.6 L 0.0 0.0 C 52.4 0.0 94.9 38.6 94.9 86.1 L 94.9 100.7 C 94.9 139.9 65.6 174.2 23.7 184.0 L 23.7 205.3 L 0.0 179.5 L 23.7 148.2 L 23.7 169.5 L 23.7 169.5 C 62.7 160.3 91.1 129.8 94.5 93.4 " fill="none" stroke="#E0E4CB" stroke-width="0.75" stroke-linejoin="round" transform="matrix(-1.00, 0.00, 0.00, 1.00, 807.4, 270.8)"></path><image xlink:href="../../E1E90664-3B91-4A39-ADA0-D0E15FD6DE3A/assets/48CCA21F451BB65E775F98BDFA5FCFEB.png" width="101.00" height="211.00" transform="matrix(1.00, 0.00, -0.00, -1.00, 1048.3, 832.3)" opacity="0.35"></image><path d="M 1051.3 651.6 L 1075.0 682.9 L 1075.0 661.6 L 1075.0 661.6 C 1114.0 670.8 1142.4 701.3 1145.8 737.7 C 1149.7 695.9 1119.8 657.6 1075.0 647.1 L 1075.0 625.8 Z M 1146.1 730.4 C 1146.1 778.0 1103.7 816.5 1051.3 816.5 L 1051.3 831.1 C 1103.7 831.1 1146.1 792.6 1146.1 745.0 Z M 1146.1 730.4 " fill="#E0E4CB"></path><path d="M 94.9 100.7 C 94.9 53.1 52.4 14.6 0.0 14.6 L 0.0 0.0 C 52.4 0.0 94.9 38.6 94.9 86.1 L 94.9 100.7 C 94.9 139.9 65.6 174.2 23.7 184.0 L 23.7 205.3 L 0.0 179.5 L 23.7 148.2 L 23.7 169.5 L 23.7 169.5 C 62.7 160.3 91.1 129.8 94.5 93.4 " fill="none" stroke="#E0E4CB" stroke-width="0.75" stroke-linejoin="round" transform="matrix(1.00, 0.00, 0.00, -1.00, 1051.3, 831.1)"></path><path d="M 977.7 991.2 C 989.5 979.5 989.5 960.5 977.7 948.7 C 966.0 937.0 947.0 937.0 935.3 948.7 C 923.6 960.5 923.6 979.5 935.3 991.2 C 947.0 1002.9 966.0 1002.9 977.7 991.2 Z M 977.7 991.2 " fill="#000000"></path><path d="M 51.2 8.8 C 62.9 20.5 62.9 39.5 51.2 51.2 C 39.5 62.9 20.5 62.9 8.8 51.2 C -2.9 39.5 -2.9 20.5 8.8 8.8 C 20.5 -2.9 39.5 -2.9 51.2 8.8 Z M 51.2 8.8 " fill="none" stroke="#E0E4CB" stroke-width="2.00" stroke-linejoin="round" transform="matrix(1.00, 0.00, 0.00, -1.00, 926.5, 1000.0)"></path><image xlink:href="494F09B69D289A03467F775902B4AE0A.png" width="21.00" height="28.00" transform="matrix(1.00, 0.00, -0.00, -1.00, 946.0, 976.0)"></image><g><clipPath id="clip-6862"><path d="M 926.5 928.6 L 986.5 928.6 L 986.5 1005.5 L 926.5 1005.5 Z M 926.5 928.6 "></path></clipPath><g clip-path="url(#clip-6862)"><text xml:space="preserve" font-family="YanoneKaffeesatz-Regular" font-size="40.0" fill="#FEFFFE" transform="matrix(1.00, 0.00, -0.00, -1.00, 950.0, 955.0)">z</text></g></g><path d="M 910.0 516.7 C 921.7 504.9 921.7 485.9 910.0 474.2 C 898.3 462.5 879.3 462.5 867.6 474.2 C 855.9 485.9 855.9 504.9 867.6 516.7 C 879.3 528.4 898.3 528.4 910.0 516.7 Z M 910.0 516.7 " fill="#FE2500"></path><path d="M 51.2 8.8 C 62.9 20.5 62.9 39.5 51.2 51.2 C 39.5 62.9 20.5 62.9 8.8 51.2 C -2.9 39.5 -2.9 20.5 8.8 8.8 C 20.5 -2.9 39.5 -2.9 51.2 8.8 Z M 51.2 8.8 " fill="none" stroke="#E0E4CB" stroke-width="2.00" stroke-linejoin="round" transform="matrix(1.00, 0.00, 0.00, -1.00, 858.8, 525.4)"></path><image xlink:href="D5B0F6171D032D349A7B4AFDC79DF129.png" width="24.00" height="28.00" transform="matrix(1.00, 0.00, -0.00, -1.00, 877.0, 502.0)"></image><g><clipPath id="clip-6863"><path d="M 858.8 454.0 L 918.8 454.0 L 918.8 531.0 L 858.8 531.0 Z M 858.8 454.0 "></path></clipPath><g clip-path="url(#clip-6863)"><text xml:space="preserve" font-family="YanoneKaffeesatz-Regular" font-size="40.0" fill="#FEFFFE" transform="matrix(1.00, 0.00, -0.00, -1.00, 881.0, 481.0)">x</text></g></g><path d="M 1041.9 516.7 C 1053.6 504.9 1053.6 485.9 1041.9 474.2 C 1030.2 462.5 1011.2 462.5 999.5 474.2 C 987.7 485.9 987.7 504.9 999.5 516.7 C 1011.2 528.4 1030.2 528.4 1041.9 516.7 Z M 1041.9 516.7 " fill="#FE2500"></path><path d="M 51.2 8.8 C 62.9 20.5 62.9 39.5 51.2 51.2 C 39.5 62.9 20.5 62.9 8.8 51.2 C -2.9 39.5 -2.9 20.5 8.8 8.8 C 20.5 -2.9 39.5 -2.9 51.2 8.8 Z M 51.2 8.8 " fill="none" stroke="#E0E4CB" stroke-width="2.00" stroke-linejoin="round" transform="matrix(1.00, 0.00, 0.00, -1.00, 990.7, 525.4)"></path><image xlink:href="../../E1E90664-3B91-4A39-ADA0-D0E15FD6DE3A/assets/494F09B69D289A03467F775902B4AE0A.png" width="21.00" height="28.00" transform="matrix(1.00, 0.00, -0.00, -1.00, 1010.0, 502.0)"></image><g><clipPath id="clip-6864"><path d="M 990.7 454.0 L 1050.7 454.0 L 1050.7 531.0 L 990.7 531.0 Z M 990.7 454.0 "></path></clipPath><g clip-path="url(#clip-6864)"><text xml:space="preserve" font-family="YanoneKaffeesatz-Regular" font-size="40.0" fill="#FEFFFE" transform="matrix(1.00, 0.00, -0.00, -1.00, 1014.0, 481.0)">z</text></g></g><path d="M 977.7 622.6 C 989.5 610.9 989.5 591.9 977.7 580.2 C 966.0 568.5 947.0 568.5 935.3 580.2 C 923.6 591.9 923.6 610.9 935.3 622.6 C 947.0 634.4 966.0 634.4 977.7 622.6 Z M 977.7 622.6 " fill="#000000"></path><path d="M 51.2 8.8 C 62.9 20.5 62.9 39.5 51.2 51.2 C 39.5 62.9 20.5 62.9 8.8 51.2 C -2.9 39.5 -2.9 20.5 8.8 8.8 C 20.5 -2.9 39.5 -2.9 51.2 8.8 Z M 51.2 8.8 " fill="none" stroke="#E0E4CB" stroke-width="2.00" stroke-linejoin="round" transform="matrix(1.00, 0.00, 0.00, -1.00, 926.5, 631.4)"></path><image xlink:href="FF9675E26A70913BBD8096CD48364AE2.png" width="23.00" height="36.00" transform="matrix(1.00, 0.00, -0.00, -1.00, 944.0, 608.0)"></image><g><clipPath id="clip-6865"><path d="M 926.5 560.0 L 986.5 560.0 L 986.5 637.0 L 926.5 637.0 Z M 926.5 560.0 "></path></clipPath><g clip-path="url(#clip-6865)"><text xml:space="preserve" font-family="YanoneKaffeesatz-Regular" font-size="40.0" fill="#FEFFFE" transform="matrix(1.00, 0.00, -0.00, -1.00, 949.0, 587.0)">y</text></g></g><path d="M 964.2 336.7 C 975.9 325.0 975.9 306.0 964.2 294.3 C 952.5 282.6 933.5 282.6 921.8 294.3 C 910.1 306.0 910.1 325.0 921.8 336.7 C 933.5 348.4 952.5 348.4 964.2 336.7 Z M 964.2 336.7 " fill="#000000"></path><path d="M 51.2 8.8 C 62.9 20.5 62.9 39.5 51.2 51.2 C 39.5 62.9 20.5 62.9 8.8 51.2 C -2.9 39.5 -2.9 20.5 8.8 8.8 C 20.5 -2.9 39.5 -2.9 51.2 8.8 Z M 51.2 8.8 " fill="none" stroke="#E0E4CB" stroke-width="2.00" stroke-linejoin="round" transform="matrix(1.00, 0.00, 0.00, -1.00, 913.0, 345.5)"></path><image xlink:href="../../E1E90664-3B91-4A39-ADA0-D0E15FD6DE3A/assets/D5B0F6171D032D349A7B4AFDC79DF129.png" width="24.00" height="28.00" transform="matrix(1.00, 0.00, -0.00, -1.00, 931.0, 322.0)"></image><g><clipPath id="clip-6866"><path d="M 913.0 274.1 L 973.0 274.1 L 973.0 351.1 L 913.0 351.1 Z M 913.0 274.1 "></path></clipPath><g clip-path="url(#clip-6866)"><text xml:space="preserve" font-family="YanoneKaffeesatz-Regular" font-size="40.0" fill="#FEFFFE" transform="matrix(1.00, 0.00, -0.00, -1.00, 935.0, 301.0)">x</text></g></g><path d="M 1031.7 228.8 C 1043.4 217.1 1043.4 198.1 1031.7 186.3 C 1020.0 174.6 1001.0 174.6 989.3 186.3 C 977.6 198.1 977.6 217.1 989.3 228.8 C 1001.0 240.5 1020.0 240.5 1031.7 228.8 Z M 1031.7 228.8 " fill="#FE2500"></path><path d="M 51.2 8.8 C 62.9 20.5 62.9 39.5 51.2 51.2 C 39.5 62.9 20.5 62.9 8.8 51.2 C -2.9 39.5 -2.9 20.5 8.8 8.8 C 20.5 -2.9 39.5 -2.9 51.2 8.8 Z M 51.2 8.8 " fill="none" stroke="#E0E4CB" stroke-width="2.00" stroke-linejoin="round" transform="matrix(1.00, 0.00, 0.00, -1.00, 980.5, 237.6)"></path><image xlink:href="../../E1E90664-3B91-4A39-ADA0-D0E15FD6DE3A/assets/494F09B69D289A03467F775902B4AE0A.png" width="21.00" height="28.00" transform="matrix(1.00, 0.00, -0.00, -1.00, 1000.0, 214.0)"></image><g><clipPath id="clip-6867"><path d="M 980.5 166.2 L 1040.5 166.2 L 1040.5 243.1 L 980.5 243.1 Z M 980.5 166.2 "></path></clipPath><g clip-path="url(#clip-6867)"><text xml:space="preserve" font-family="YanoneKaffeesatz-Regular" font-size="40.0" fill="#FEFFFE" transform="matrix(1.00, 0.00, -0.00, -1.00, 1004.0, 193.0)">z</text></g></g><path d="M 964.2 134.4 C 975.9 122.7 975.9 103.7 964.2 92.0 C 952.5 80.2 933.5 80.2 921.8 92.0 C 910.1 103.7 910.1 122.7 921.8 134.4 C 933.5 146.1 952.5 146.1 964.2 134.4 Z M 964.2 134.4 " fill="#FE2500"></path><path d="M 51.2 8.8 C 62.9 20.5 62.9 39.5 51.2 51.2 C 39.5 62.9 20.5 62.9 8.8 51.2 C -2.9 39.5 -2.9 20.5 8.8 8.8 C 20.5 -2.9 39.5 -2.9 51.2 8.8 Z M 51.2 8.8 " fill="none" stroke="#E0E4CB" stroke-width="2.00" stroke-linejoin="round" transform="matrix(1.00, 0.00, 0.00, -1.00, 913.0, 143.2)"></path><image xlink:href="../../E1E90664-3B91-4A39-ADA0-D0E15FD6DE3A/assets/FF9675E26A70913BBD8096CD48364AE2.png" width="23.00" height="36.00" transform="matrix(1.00, 0.00, -0.00, -1.00, 931.0, 119.0)"></image><g><clipPath id="clip-6868"><path d="M 913.0 71.8 L 973.0 71.8 L 973.0 148.7 L 913.0 148.7 Z M 913.0 71.8 "></path></clipPath><g clip-path="url(#clip-6868)"><text xml:space="preserve" font-family="YanoneKaffeesatz-Regular" font-size="40.0" fill="#FEFFFE" transform="matrix(1.00, 0.00, -0.00, -1.00, 936.0, 98.0)">y</text></g></g><path d="M 543.9 689.9 C 555.6 678.2 555.6 659.2 543.9 647.5 C 532.2 635.8 513.2 635.8 501.5 647.5 C 489.8 659.2 489.8 678.2 501.5 689.9 C 513.2 701.7 532.2 701.7 543.9 689.9 Z M 543.9 689.9 " fill="#000000"></path><path d="M 51.2 8.8 C 62.9 20.5 62.9 39.5 51.2 51.2 C 39.5 62.9 20.5 62.9 8.8 51.2 C -2.9 39.5 -2.9 20.5 8.8 8.8 C 20.5 -2.9 39.5 -2.9 51.2 8.8 Z M 51.2 8.8 " fill="none" stroke="#E0E4CB" stroke-width="2.00" stroke-linejoin="round" transform="matrix(1.00, 0.00, 0.00, -1.00, 492.7, 698.7)"></path><image xlink:href="../../E1E90664-3B91-4A39-ADA0-D0E15FD6DE3A/assets/494F09B69D289A03467F775902B4AE0A.png" width="21.00" height="28.00" transform="matrix(1.00, 0.00, -0.00, -1.00, 512.0, 675.0)"></image><g><clipPath id="clip-6869"><path d="M 492.7 627.3 L 552.7 627.3 L 552.7 704.3 L 492.7 704.3 Z M 492.7 627.3 "></path></clipPath><g clip-path="url(#clip-6869)"><text xml:space="preserve" font-family="YanoneKaffeesatz-Regular" font-size="40.0" fill="#FEFFFE" transform="matrix(1.00, 0.00, -0.00, -1.00, 516.0, 654.0)">z</text></g></g><path d="M 473.4 582.0 C 485.1 570.3 485.1 551.3 473.4 539.6 C 461.7 527.9 442.7 527.9 430.9 539.6 C 419.2 551.3 419.2 570.3 430.9 582.0 C 442.7 593.7 461.7 593.7 473.4 582.0 Z M 473.4 582.0 " fill="#FE2500"></path><path d="M 51.2 8.8 C 62.9 20.5 62.9 39.5 51.2 51.2 C 39.5 62.9 20.5 62.9 8.8 51.2 C -2.9 39.5 -2.9 20.5 8.8 8.8 C 20.5 -2.9 39.5 -2.9 51.2 8.8 Z M 51.2 8.8 " fill="none" stroke="#E0E4CB" stroke-width="2.00" stroke-linejoin="round" transform="matrix(1.00, 0.00, 0.00, -1.00, 422.2, 590.8)"></path><image xlink:href="../../E1E90664-3B91-4A39-ADA0-D0E15FD6DE3A/assets/FF9675E26A70913BBD8096CD48364AE2.png" width="23.00" height="36.00" transform="matrix(1.00, 0.00, -0.00, -1.00, 440.0, 567.0)"></image><g><clipPath id="clip-6870"><path d="M 422.2 519.4 L 482.2 519.4 L 482.2 596.4 L 422.2 596.4 Z M 422.2 519.4 "></path></clipPath><g clip-path="url(#clip-6870)"><text xml:space="preserve" font-family="YanoneKaffeesatz-Regular" font-size="40.0" fill="#FEFFFE" transform="matrix(1.00, 0.00, -0.00, -1.00, 445.0, 546.0)">y</text></g></g><path d="M 405.4 473.6 C 417.1 461.9 417.1 442.9 405.4 431.2 C 393.7 419.4 374.7 419.4 362.9 431.2 C 351.2 442.9 351.2 461.9 362.9 473.6 C 374.7 485.3 393.7 485.3 405.4 473.6 Z M 405.4 473.6 " fill="#FE2500"></path><path d="M 51.2 8.8 C 62.9 20.5 62.9 39.5 51.2 51.2 C 39.5 62.9 20.5 62.9 8.8 51.2 C -2.9 39.5 -2.9 20.5 8.8 8.8 C 20.5 -2.9 39.5 -2.9 51.2 8.8 Z M 51.2 8.8 " fill="none" stroke="#E0E4CB" stroke-width="2.00" stroke-linejoin="round" transform="matrix(1.00, 0.00, 0.00, -1.00, 354.2, 482.4)"></path><image xlink:href="../../E1E90664-3B91-4A39-ADA0-D0E15FD6DE3A/assets/D5B0F6171D032D349A7B4AFDC79DF129.png" width="24.00" height="28.00" transform="matrix(1.00, 0.00, -0.00, -1.00, 372.0, 459.0)"></image><g><clipPath id="clip-6871"><path d="M 354.2 411.0 L 414.2 411.0 L 414.2 487.9 L 354.2 487.9 Z M 354.2 411.0 "></path></clipPath><g clip-path="url(#clip-6871)"><text xml:space="preserve" font-family="YanoneKaffeesatz-Regular" font-size="40.0" fill="#FEFFFE" transform="matrix(1.00, 0.00, -0.00, -1.00, 376.0, 438.0)">x</text></g></g><path d="M 1479.1 552.9 C 1490.8 541.1 1490.8 522.1 1479.1 510.4 C 1467.4 498.7 1448.4 498.7 1436.7 510.4 C 1425.0 522.1 1425.0 541.1 1436.7 552.9 C 1448.4 564.6 1467.4 564.6 1479.1 552.9 Z M 1479.1 552.9 " fill="#FE2500"></path><path d="M 51.2 8.8 C 62.9 20.5 62.9 39.5 51.2 51.2 C 39.5 62.9 20.5 62.9 8.8 51.2 C -2.9 39.5 -2.9 20.5 8.8 8.8 C 20.5 -2.9 39.5 -2.9 51.2 8.8 Z M 51.2 8.8 " fill="none" stroke="#E0E4CB" stroke-width="2.00" stroke-linejoin="round" transform="matrix(1.00, 0.00, 0.00, -1.00, 1427.9, 561.6)"></path><image xlink:href="../../E1E90664-3B91-4A39-ADA0-D0E15FD6DE3A/assets/FF9675E26A70913BBD8096CD48364AE2.png" width="23.00" height="36.00" transform="matrix(1.00, 0.00, -0.00, -1.00, 1446.0, 538.0)"></image><g><clipPath id="clip-6872"><path d="M 1427.9 490.2 L 1487.9 490.2 L 1487.9 567.2 L 1427.9 567.2 Z M 1427.9 490.2 "></path></clipPath><g clip-path="url(#clip-6872)"><text xml:space="preserve" font-family="YanoneKaffeesatz-Regular" font-size="40.0" fill="#FEFFFE" transform="matrix(1.00, 0.00, -0.00, -1.00, 1451.0, 517.0)">y</text></g></g><path d="M 1554.3 450.5 C 1566.0 438.8 1566.0 419.8 1554.3 408.1 C 1542.6 396.3 1523.6 396.3 1511.8 408.1 C 1500.1 419.8 1500.1 438.8 1511.8 450.5 C 1523.6 462.2 1542.6 462.2 1554.3 450.5 Z M 1554.3 450.5 " fill="#FE2500"></path><path d="M 51.2 8.8 C 62.9 20.5 62.9 39.5 51.2 51.2 C 39.5 62.9 20.5 62.9 8.8 51.2 C -2.9 39.5 -2.9 20.5 8.8 8.8 C 20.5 -2.9 39.5 -2.9 51.2 8.8 Z M 51.2 8.8 " fill="none" stroke="#E0E4CB" stroke-width="2.00" stroke-linejoin="round" transform="matrix(1.00, 0.00, 0.00, -1.00, 1503.1, 459.3)"></path><image xlink:href="../../E1E90664-3B91-4A39-ADA0-D0E15FD6DE3A/assets/494F09B69D289A03467F775902B4AE0A.png" width="21.00" height="28.00" transform="matrix(1.00, 0.00, -0.00, -1.00, 1522.0, 435.0)"></image><g><clipPath id="clip-6873"><path d="M 1503.1 387.9 L 1563.1 387.9 L 1563.1 464.8 L 1503.1 464.8 Z M 1503.1 387.9 "></path></clipPath><g clip-path="url(#clip-6873)"><text xml:space="preserve" font-family="YanoneKaffeesatz-Regular" font-size="40.0" fill="#FEFFFE" transform="matrix(1.00, 0.00, -0.00, -1.00, 1526.0, 414.0)">z</text></g></g><path d="M 1397.8 661.7 C 1409.5 650.0 1409.5 631.0 1397.8 619.3 C 1386.1 607.6 1367.1 607.6 1355.4 619.3 C 1343.7 631.0 1343.7 650.0 1355.4 661.7 C 1367.1 673.4 1386.1 673.4 1397.8 661.7 Z M 1397.8 661.7 " fill="#000000"></path><path d="M 51.2 8.8 C 62.9 20.5 62.9 39.5 51.2 51.2 C 39.5 62.9 20.5 62.9 8.8 51.2 C -2.9 39.5 -2.9 20.5 8.8 8.8 C 20.5 -2.9 39.5 -2.9 51.2 8.8 Z M 51.2 8.8 " fill="none" stroke="#E0E4CB" stroke-width="2.00" stroke-linejoin="round" transform="matrix(1.00, 0.00, 0.00, -1.00, 1346.6, 670.5)"></path><image xlink:href="../../E1E90664-3B91-4A39-ADA0-D0E15FD6DE3A/assets/D5B0F6171D032D349A7B4AFDC79DF129.png" width="24.00" height="28.00" transform="matrix(1.00, 0.00, -0.00, -1.00, 1364.0, 647.0)"></image><g><clipPath id="clip-6874"><path d="M 1346.6 599.1 L 1406.6 599.1 L 1406.6 676.1 L 1346.6 676.1 Z M 1346.6 599.1 "></path></clipPath><g clip-path="url(#clip-6874)"><text xml:space="preserve" font-family="YanoneKaffeesatz-Regular" font-size="40.0" fill="#FEFFFE" transform="matrix(1.00, 0.00, -0.00, -1.00, 1368.0, 626.0)">x</text></g></g><path d="M 910.0 878.8 C 921.7 867.1 921.7 848.1 910.0 836.4 C 898.3 824.7 879.3 824.7 867.6 836.4 C 855.9 848.1 855.9 867.1 867.6 878.8 C 879.3 890.5 898.3 890.5 910.0 878.8 Z M 910.0 878.8 " fill="#FE2500"></path><path d="M 51.2 8.8 C 62.9 20.5 62.9 39.5 51.2 51.2 C 39.5 62.9 20.5 62.9 8.8 51.2 C -2.9 39.5 -2.9 20.5 8.8 8.8 C 20.5 -2.9 39.5 -2.9 51.2 8.8 Z M 51.2 8.8 " fill="none" stroke="#E0E4CB" stroke-width="2.00" stroke-linejoin="round" transform="matrix(1.00, 0.00, 0.00, -1.00, 858.8, 887.6)"></path><image xlink:href="../../E1E90664-3B91-4A39-ADA0-D0E15FD6DE3A/assets/D5B0F6171D032D349A7B4AFDC79DF129.png" width="24.00" height="28.00" transform="matrix(1.00, 0.00, -0.00, -1.00, 877.0, 864.0)"></image><g><clipPath id="clip-6875"><path d="M 858.8 816.2 L 918.8 816.2 L 918.8 893.2 L 858.8 893.2 Z M 858.8 816.2 "></path></clipPath><g clip-path="url(#clip-6875)"><text xml:space="preserve" font-family="YanoneKaffeesatz-Regular" font-size="40.0" fill="#FEFFFE" transform="matrix(1.00, 0.00, -0.00, -1.00, 881.0, 843.0)">x</text></g></g><path d="M 991.1 784.8 C 1002.8 773.1 1002.8 754.1 991.1 742.4 C 979.3 730.7 960.3 730.7 948.6 742.4 C 936.9 754.1 936.9 773.1 948.6 784.8 C 960.3 796.5 979.3 796.5 991.1 784.8 Z M 991.1 784.8 " fill="#FE2500"></path><path d="M 51.2 8.8 C 62.9 20.5 62.9 39.5 51.2 51.2 C 39.5 62.9 20.5 62.9 8.8 51.2 C -2.9 39.5 -2.9 20.5 8.8 8.8 C 20.5 -2.9 39.5 -2.9 51.2 8.8 Z M 51.2 8.8 " fill="none" stroke="#E0E4CB" stroke-width="2.00" stroke-linejoin="round" transform="matrix(1.00, 0.00, 0.00, -1.00, 939.8, 793.6)"></path><image xlink:href="../../E1E90664-3B91-4A39-ADA0-D0E15FD6DE3A/assets/FF9675E26A70913BBD8096CD48364AE2.png" width="23.00" height="36.00" transform="matrix(1.00, 0.00, -0.00, -1.00, 958.0, 770.0)"></image><g><clipPath id="clip-6876"><path d="M 939.8 722.2 L 999.8 722.2 L 999.8 799.2 L 939.8 799.2 Z M 939.8 722.2 "></path></clipPath><g clip-path="url(#clip-6876)"><text xml:space="preserve" font-family="YanoneKaffeesatz-Regular" font-size="40.0" fill="#FEFFFE" transform="matrix(1.00, 0.00, -0.00, -1.00, 963.0, 749.0)">y</text></g></g><image xlink:href="45BD4169114A149E57670BF371C5F0E1.png" width="47.00" height="65.00" transform="matrix(1.00, 0.00, -0.00, -1.00, 464.0, 645.6)" opacity="0.38"></image><path d="M 36.6 0.0 C 27.0 14.8 17.4 29.5 7.7 44.3 L 6.3 46.4 " fill="none" stroke="#E0E4CB" stroke-width="5.00" stroke-linejoin="round" transform="matrix(1.00, 0.00, 0.00, -1.00, 469.1, 642.8)"></path><path d="M 469.1 586.7 L 491.1 597.7 L 491.1 597.7 C 492.5 598.4 493.0 600.1 492.3 601.5 C 491.6 602.9 489.9 603.5 488.5 602.8 L 475.3 596.2 L 476.0 611.0 L 476.0 611.0 C 476.1 612.5 474.9 613.9 473.3 614.0 C 471.8 614.0 470.5 612.8 470.4 611.3 C 470.4 611.3 470.4 611.3 470.4 611.3 Z M 469.1 586.7 " fill="#E0E4CB"></path><image xlink:href="6881EF9211171CD8B0604342145B805A.png" width="45.00" height="65.00" transform="matrix(1.01, 0.00, -0.00, -0.99, 395.5, 537.3)" opacity="0.38"></image><path d="M 35.1 0.0 C 25.9 14.7 16.7 29.3 7.5 44.0 L 6.2 46.1 " fill="none" stroke="#E0E4CB" stroke-width="5.00" stroke-linejoin="round" transform="matrix(1.00, 0.00, 0.00, -1.00, 400.6, 534.5)"></path><path d="M 400.6 478.6 L 422.4 490.1 L 422.4 490.1 C 423.8 490.8 424.3 492.5 423.6 493.9 C 422.9 495.3 421.1 495.8 419.8 495.1 L 406.6 488.2 L 407.1 503.0 L 407.1 503.0 C 407.2 504.6 405.9 505.9 404.4 505.9 C 402.8 506.0 401.5 504.8 401.4 503.2 C 401.4 503.2 401.4 503.2 401.4 503.2 Z M 400.6 478.6 " fill="#E0E4CB"></path><image xlink:href="EC66E021E328DE21A4C5B6EC1F026756.png" width="54.00" height="68.00" transform="matrix(1.00, 0.00, -0.00, -1.00, 1390.1, 618.6)" opacity="0.38"></image><path d="M 0.0 0.0 C 11.9 16.0 23.9 31.9 35.8 47.9 L 37.3 49.9 " fill="none" stroke="#E0E4CB" stroke-width="5.00" stroke-linejoin="round" transform="matrix(1.00, 0.00, 0.00, -1.00, 1395.1, 615.7)"></path><path d="M 1439.4 556.5 L 1436.6 580.9 L 1436.6 580.9 C 1436.4 582.4 1435.0 583.6 1433.4 583.4 C 1431.9 583.2 1430.7 581.8 1430.9 580.2 L 1432.6 565.5 L 1419.0 571.3 L 1419.0 571.3 C 1417.5 571.9 1415.9 571.2 1415.2 569.8 C 1414.6 568.4 1415.3 566.7 1416.7 566.1 C 1416.7 566.1 1416.7 566.1 1416.7 566.1 Z M 1439.4 556.5 " fill="#E0E4CB"></path><image xlink:href="745F8CBFC74500AB6F721C9A99343495.png" width="49.00" height="61.00" transform="matrix(0.99, 0.00, -0.00, -1.01, 1471.2, 509.6)" opacity="0.38"></image><path d="M 0.0 0.0 C 10.0 13.7 20.1 27.4 30.1 41.1 L 31.6 43.1 " fill="none" stroke="#E0E4CB" stroke-width="5.00" stroke-linejoin="round" transform="matrix(1.00, 0.00, 0.00, -1.00, 1476.2, 506.7)"></path><path d="M 1514.7 454.2 L 1512.1 478.7 L 1512.1 478.7 C 1512.0 480.2 1510.6 481.4 1509.0 481.2 C 1507.4 481.0 1506.3 479.6 1506.5 478.1 L 1508.1 463.3 L 1494.4 469.2 L 1494.4 469.2 C 1493.0 469.9 1491.3 469.2 1490.7 467.8 C 1490.1 466.3 1490.8 464.7 1492.2 464.1 C 1492.2 464.1 1492.2 464.1 1492.2 464.1 Z M 1514.7 454.2 " fill="#E0E4CB"></path><image xlink:href="A9C0696B4A50C2545EA913E3FE87F1A1.png" width="45.00" height="62.00" transform="matrix(0.99, 0.00, -0.00, -1.01, 900.4, 578.1)" opacity="0.38"></image><path d="M 34.4 0.0 C 25.4 14.0 16.5 27.9 7.6 41.9 L 6.2 44.0 " fill="none" stroke="#E0E4CB" stroke-width="5.00" stroke-linejoin="round" transform="matrix(1.00, 0.00, 0.00, -1.00, 905.5, 575.3)"></path><path d="M 905.5 521.6 L 927.3 532.8 L 927.3 532.8 C 928.7 533.5 929.3 535.2 928.6 536.6 C 927.8 538.0 926.1 538.5 924.7 537.8 L 911.5 531.0 L 912.2 545.9 L 912.2 545.9 C 912.2 547.4 911.0 548.8 909.4 548.8 C 907.9 548.9 906.6 547.7 906.5 546.1 C 906.5 546.1 906.5 546.1 906.5 546.1 Z M 905.5 521.6 " fill="#E0E4CB"></path><image xlink:href="9FA5CD1922397A3DE89CEE6E131745F3.png" width="42.00" height="62.00" transform="matrix(1.01, 0.00, -0.00, -0.99, 967.4, 577.6)" opacity="0.38"></image><path d="M 0.0 0.0 C 8.2 13.6 16.5 27.3 24.7 40.9 L 26.0 43.0 " fill="none" stroke="#E0E4CB" stroke-width="5.00" stroke-linejoin="round" transform="matrix(1.00, 0.00, 0.00, -1.00, 972.6, 574.9)"></path><path d="M 1004.6 522.0 L 1004.2 546.5 L 1004.2 546.5 C 1004.2 548.1 1002.9 549.3 1001.3 549.3 C 999.8 549.3 998.5 548.0 998.5 546.4 L 998.8 531.6 L 985.8 538.7 L 985.8 538.7 C 984.4 539.5 982.7 538.9 981.9 537.6 C 981.2 536.2 981.7 534.5 983.1 533.7 C 983.1 533.7 983.1 533.7 983.1 533.7 Z M 1004.6 522.0 " fill="#E0E4CB"></path><image xlink:href="360E5076754BB29A1EAD901F4B086AE0.png" width="46.00" height="68.00" transform="matrix(1.00, 0.00, -0.00, -1.00, 899.6, 946.1)" opacity="0.38"></image><path d="M 35.7 0.0 C 26.3 15.7 16.8 31.5 7.3 47.2 L 6.0 49.4 " fill="none" stroke="#E0E4CB" stroke-width="5.00" stroke-linejoin="round" transform="matrix(1.00, 0.00, 0.00, -1.00, 904.8, 943.4)"></path><path d="M 904.8 884.1 L 926.3 895.9 L 926.3 895.9 C 927.7 896.7 928.2 898.4 927.5 899.8 C 926.7 901.1 925.0 901.7 923.6 900.9 L 910.6 893.8 L 910.8 908.6 L 910.8 908.6 C 910.9 910.2 909.6 911.5 908.0 911.5 C 906.5 911.5 905.2 910.3 905.2 908.7 C 905.2 908.7 905.2 908.7 905.2 908.7 Z M 904.8 884.1 " fill="#E0E4CB"></path><image xlink:href="8F835E3C1B713DC3BF26CD89CFD563EC.png" width="50.00" height="56.00" transform="matrix(1.01, 0.00, -0.00, -1.01, 904.1, 837.2)" opacity="0.38"></image><path d="M 0.0 0.0 C 10.5 12.1 20.9 24.3 31.4 36.4 L 33.0 38.3 " fill="none" stroke="#E0E4CB" stroke-width="5.00" stroke-linejoin="round" transform="matrix(1.00, 0.00, 0.00, -1.00, 909.0, 834.1)"></path><path d="M 949.6 787.0 L 945.1 811.2 L 945.1 811.2 C 944.8 812.7 943.3 813.8 941.8 813.5 C 940.3 813.2 939.2 811.7 939.5 810.2 L 942.3 795.6 L 928.2 800.4 L 928.2 800.4 C 926.7 800.9 925.1 800.1 924.6 798.7 C 924.1 797.2 924.9 795.6 926.4 795.1 C 926.4 795.1 926.4 795.1 926.4 795.1 Z M 949.6 787.0 " fill="#E0E4CB"></path><image xlink:href="E677782C31D75F8C5756D848798BA43F.png" width="45.00" height="64.00" transform="matrix(1.00, 0.00, -0.00, -1.00, 954.3, 292.0)" opacity="0.38"></image><path d="M 0.0 0.0 C 9.1 14.5 18.1 29.0 27.2 43.4 L 28.5 45.6 " fill="none" stroke="#E0E4CB" stroke-width="5.00" stroke-linejoin="round" transform="matrix(1.00, 0.00, 0.00, -1.00, 959.4, 289.2)"></path><path d="M 994.1 233.8 L 993.3 258.4 L 993.3 258.4 C 993.2 260.0 991.9 261.2 990.4 261.1 C 988.8 261.1 987.6 259.8 987.6 258.2 L 988.1 243.4 L 975.0 250.3 L 975.0 250.3 C 973.6 251.0 971.9 250.5 971.1 249.1 C 970.4 247.7 970.9 246.0 972.3 245.3 C 972.3 245.3 972.3 245.3 972.3 245.3 Z M 994.1 233.8 " fill="#E0E4CB"></path><image xlink:href="BE1FCA76AF2A1A8A90E41B529F9AF83E.png" width="42.00" height="53.00" transform="matrix(0.99, 0.00, -0.00, -1.00, 956.0, 185.2)" opacity="0.38"></image><path d="M 31.5 0.0 C 23.7 10.8 16.0 21.7 8.2 32.5 L 6.7 34.6 " fill="none" stroke="#E0E4CB" stroke-width="5.00" stroke-linejoin="round" transform="matrix(1.00, 0.00, 0.00, -1.00, 961.0, 182.4)"></path><path d="M 961.0 138.4 L 983.4 148.5 L 983.4 148.5 C 984.9 149.1 985.5 150.8 984.8 152.2 C 984.2 153.6 982.5 154.3 981.1 153.6 L 967.6 147.5 L 969.0 162.3 L 969.0 162.3 C 969.1 163.9 968.0 165.2 966.4 165.4 C 964.8 165.5 963.5 164.4 963.3 162.8 C 963.3 162.8 963.3 162.8 963.3 162.8 Z M 961.0 138.4 " fill="#E0E4CB"></path><path d="M 1146.1 730.4 C 1146.1 778.0 1103.7 816.5 1051.3 816.5 L 1051.3 831.1 C 1103.7 831.1 1146.1 792.6 1146.1 745.0 Z M 1146.1 730.4 " fill="#000000" fill-opacity="0.20"></path><path d="M 712.5 371.4 C 712.5 323.9 755.0 285.3 807.4 285.3 L 807.4 270.8 C 755.0 270.8 712.5 309.3 712.5 356.9 Z M 712.5 371.4 " fill="#000000" fill-opacity="0.20"></path><image xlink:href="9BDE466C2306690AEA02380362DBE1AE.png" width="156.00" height="41.00" transform="matrix(-1.00, 0.00, 0.00, 0.99, 1298.5, 521.0)" opacity="0.35"></image><path d="M 1163.1 551.6 L 1163.1 560.1 L 1146.1 543.1 L 1163.1 526.2 L 1163.1 534.7 L 1295.2 534.7 L 1295.2 551.6 Z M 1163.1 551.6 " fill="#E0E4CB"></path><path d="M 132.1 25.4 L 132.1 33.9 L 149.1 17.0 L 132.1 0.0 L 132.1 8.5 L 0.0 8.5 L 0.0 25.4 Z M 132.1 25.4 " fill="none" stroke="#000000" stroke-width="0.75" stroke-linejoin="round" transform="matrix(-1.00, 0.00, 0.00, 1.00, 1295.2, 526.2)"></path><image xlink:href="../../E1E90664-3B91-4A39-ADA0-D0E15FD6DE3A/assets/9BDE466C2306690AEA02380362DBE1AE.png" width="156.00" height="41.00" transform="matrix(1.00, 0.00, -0.00, -0.99, 600.7, 561.7)" opacity="0.35"></image><path d="M 736.2 534.7 L 736.2 526.2 L 753.2 543.1 L 736.2 560.1 L 736.2 551.6 L 604.1 551.6 L 604.1 534.7 Z M 736.2 534.7 " fill="#E0E4CB"></path><path d="M 132.1 25.4 L 132.1 33.9 L 149.1 17.0 L 132.1 0.0 L 132.1 8.5 L 0.0 8.5 L 0.0 25.4 Z M 132.1 25.4 " fill="none" stroke="#000000" stroke-width="0.75" stroke-linejoin="round" transform="matrix(1.00, 0.00, 0.00, -1.00, 604.1, 560.1)"></path><text xml:space="preserve" font-family="YanoneKaffeesatz-Bold" font-weight="bold" font-size="40.0" fill="#FEFFFE" transform="matrix(1.00, 0.00, -0.00, -1.00, 1014.0, 844.0)">D</text><text xml:space="preserve" font-family="YanoneKaffeesatz-Bold" font-weight="bold" font-size="40.0" fill="#FEFFFE" transform="matrix(1.00, 0.00, -0.00, -1.00, 1028.8, 844.0)">o</text><text xml:space="preserve" font-family="YanoneKaffeesatz-Bold" font-weight="bold" font-size="40.0" fill="#FEFFFE" transform="matrix(1.00, 0.00, -0.00, -1.00, 1042.8, 844.0)">u</text><text xml:space="preserve" font-family="YanoneKaffeesatz-Bold" font-weight="bold" font-size="40.0" fill="#FEFFFE" transform="matrix(1.00, 0.00, -0.00, -1.00, 1057.3, 844.0)">b</text><text xml:space="preserve" font-family="YanoneKaffeesatz-Bold" font-weight="bold" font-size="40.0" fill="#FEFFFE" transform="matrix(1.00, 0.00, -0.00, -1.00, 1071.8, 844.0)">l</text><text xml:space="preserve" font-family="YanoneKaffeesatz-Bold" font-weight="bold" font-size="40.0" fill="#FEFFFE" transform="matrix(1.00, 0.00, -0.00, -1.00, 1078.9, 844.0)">e</text><text xml:space="preserve" font-family="YanoneKaffeesatz-Bold" font-weight="bold" font-size="40.0" fill="#FEFFFE" transform="matrix(1.00, 0.00, -0.00, -1.00, 1092.7, 844.0)"> </text><text xml:space="preserve" font-family="YanoneKaffeesatz-Bold" font-weight="bold" font-size="40.0" fill="#FEFFFE" transform="matrix(1.00, 0.00, -0.00, -1.00, 1098.3, 844.0)">R</text><text xml:space="preserve" font-family="YanoneKaffeesatz-Bold" font-weight="bold" font-size="40.0" fill="#FEFFFE" transform="matrix(1.00, 0.00, -0.00, -1.00, 1112.7, 844.0)">o</text><text xml:space="preserve" font-family="YanoneKaffeesatz-Bold" font-weight="bold" font-size="40.0" fill="#FEFFFE" transform="matrix(1.00, 0.00, -0.00, -1.00, 1126.3, 844.0)">t</text><text xml:space="preserve" font-family="YanoneKaffeesatz-Bold" font-weight="bold" font-size="40.0" fill="#FEFFFE" transform="matrix(1.00, 0.00, -0.00, -1.00, 1137.7, 844.0)">a</text><text xml:space="preserve" font-family="YanoneKaffeesatz-Bold" font-weight="bold" font-size="40.0" fill="#FEFFFE" transform="matrix(1.00, 0.00, -0.00, -1.00, 1150.8, 844.0)">t</text><text xml:space="preserve" font-family="YanoneKaffeesatz-Bold" font-weight="bold" font-size="40.0" fill="#FEFFFE" transform="matrix(1.00, 0.00, -0.00, -1.00, 1162.2, 844.0)">i</text><text xml:space="preserve" font-family="YanoneKaffeesatz-Bold" font-weight="bold" font-size="40.0" fill="#FEFFFE" transform="matrix(1.00, 0.00, -0.00, -1.00, 1169.4, 844.0)">o</text><text xml:space="preserve" font-family="YanoneKaffeesatz-Bold" font-weight="bold" font-size="40.0" fill="#FEFFFE" transform="matrix(1.00, 0.00, -0.00, -1.00, 1183.4, 844.0)">n</text><text xml:space="preserve" font-family="YanoneKaffeesatz-Bold" font-weight="bold" font-size="40.0" fill="#FEFFFE" transform="matrix(1.00, 0.00, -0.00, -1.00, 594.0, 224.0)">D</text><text xml:space="preserve" font-family="YanoneKaffeesatz-Bold" font-weight="bold" font-size="40.0" fill="#FEFFFE" transform="matrix(1.00, 0.00, -0.00, -1.00, 608.8, 224.0)">o</text><text xml:space="preserve" font-family="YanoneKaffeesatz-Bold" font-weight="bold" font-size="40.0" fill="#FEFFFE" transform="matrix(1.00, 0.00, -0.00, -1.00, 622.8, 224.0)">u</text><text xml:space="preserve" font-family="YanoneKaffeesatz-Bold" font-weight="bold" font-size="40.0" fill="#FEFFFE" transform="matrix(1.00, 0.00, -0.00, -1.00, 637.3, 224.0)">b</text><text xml:space="preserve" font-family="YanoneKaffeesatz-Bold" font-weight="bold" font-size="40.0" fill="#FEFFFE" transform="matrix(1.00, 0.00, -0.00, -1.00, 651.8, 224.0)">l</text><text xml:space="preserve" font-family="YanoneKaffeesatz-Bold" font-weight="bold" font-size="40.0" fill="#FEFFFE" transform="matrix(1.00, 0.00, -0.00, -1.00, 658.9, 224.0)">e</text><text xml:space="preserve" font-family="YanoneKaffeesatz-Bold" font-weight="bold" font-size="40.0" fill="#FEFFFE" transform="matrix(1.00, 0.00, -0.00, -1.00, 672.7, 224.0)"> </text><text xml:space="preserve" font-family="YanoneKaffeesatz-Bold" font-weight="bold" font-size="40.0" fill="#FEFFFE" transform="matrix(1.00, 0.00, -0.00, -1.00, 678.3, 224.0)">R</text><text xml:space="preserve" font-family="YanoneKaffeesatz-Bold" font-weight="bold" font-size="40.0" fill="#FEFFFE" transform="matrix(1.00, 0.00, -0.00, -1.00, 692.7, 224.0)">o</text><text xml:space="preserve" font-family="YanoneKaffeesatz-Bold" font-weight="bold" font-size="40.0" fill="#FEFFFE" transform="matrix(1.00, 0.00, -0.00, -1.00, 706.3, 224.0)">t</text><text xml:space="preserve" font-family="YanoneKaffeesatz-Bold" font-weight="bold" font-size="40.0" fill="#FEFFFE" transform="matrix(1.00, 0.00, -0.00, -1.00, 717.7, 224.0)">a</text><text xml:space="preserve" font-family="YanoneKaffeesatz-Bold" font-weight="bold" font-size="40.0" fill="#FEFFFE" transform="matrix(1.00, 0.00, -0.00, -1.00, 730.8, 224.0)">t</text><text xml:space="preserve" font-family="YanoneKaffeesatz-Bold" font-weight="bold" font-size="40.0" fill="#FEFFFE" transform="matrix(1.00, 0.00, -0.00, -1.00, 742.2, 224.0)">i</text><text xml:space="preserve" font-family="YanoneKaffeesatz-Bold" font-weight="bold" font-size="40.0" fill="#FEFFFE" transform="matrix(1.00, 0.00, -0.00, -1.00, 749.4, 224.0)">o</text><text xml:space="preserve" font-family="YanoneKaffeesatz-Bold" font-weight="bold" font-size="40.0" fill="#FEFFFE" transform="matrix(1.00, 0.00, -0.00, -1.00, 763.4, 224.0)">n</text><text xml:space="preserve" font-family="YanoneKaffeesatz-Bold" font-weight="bold" font-size="40.0" fill="#FEFFFE" transform="matrix(1.00, 0.00, -0.00, -1.00, 1108.0, 482.0)">S</text><text xml:space="preserve" font-family="YanoneKaffeesatz-Bold" font-weight="bold" font-size="40.0" fill="#FEFFFE" transform="matrix(1.00, 0.00, -0.00, -1.00, 1121.8, 482.0)">i</text><text xml:space="preserve" font-family="YanoneKaffeesatz-Bold" font-weight="bold" font-size="40.0" fill="#FEFFFE" transform="matrix(1.00, 0.00, -0.00, -1.00, 1129.0, 482.0)">n</text><text xml:space="preserve" font-family="YanoneKaffeesatz-Bold" font-weight="bold" font-size="40.0" fill="#FEFFFE" transform="matrix(1.00, 0.00, -0.00, -1.00, 1143.4, 482.0)">g</text><text xml:space="preserve" font-family="YanoneKaffeesatz-Bold" font-weight="bold" font-size="40.0" fill="#FEFFFE" transform="matrix(1.00, 0.00, -0.00, -1.00, 1158.7, 482.0)">l</text><text xml:space="preserve" font-family="YanoneKaffeesatz-Bold" font-weight="bold" font-size="40.0" fill="#FEFFFE" transform="matrix(1.00, 0.00, -0.00, -1.00, 1165.8, 482.0)">e</text><text xml:space="preserve" font-family="YanoneKaffeesatz-Bold" font-weight="bold" font-size="40.0" fill="#FEFFFE" transform="matrix(1.00, 0.00, -0.00, -1.00, 1179.6, 482.0)"> </text><text xml:space="preserve" font-family="YanoneKaffeesatz-Bold" font-weight="bold" font-size="40.0" fill="#FEFFFE" transform="matrix(1.00, 0.00, -0.00, -1.00, 1185.2, 482.0)">R</text><text xml:space="preserve" font-family="YanoneKaffeesatz-Bold" font-weight="bold" font-size="40.0" fill="#FEFFFE" transform="matrix(1.00, 0.00, -0.00, -1.00, 1199.6, 482.0)">o</text><text xml:space="preserve" font-family="YanoneKaffeesatz-Bold" font-weight="bold" font-size="40.0" fill="#FEFFFE" transform="matrix(1.00, 0.00, -0.00, -1.00, 1213.2, 482.0)">t</text><text xml:space="preserve" font-family="YanoneKaffeesatz-Bold" font-weight="bold" font-size="40.0" fill="#FEFFFE" transform="matrix(1.00, 0.00, -0.00, -1.00, 1224.6, 482.0)">a</text><text xml:space="preserve" font-family="YanoneKaffeesatz-Bold" font-weight="bold" font-size="40.0" fill="#FEFFFE" transform="matrix(1.00, 0.00, -0.00, -1.00, 1237.7, 482.0)">t</text><text xml:space="preserve" font-family="YanoneKaffeesatz-Bold" font-weight="bold" font-size="40.0" fill="#FEFFFE" transform="matrix(1.00, 0.00, -0.00, -1.00, 1249.1, 482.0)">i</text><text xml:space="preserve" font-family="YanoneKaffeesatz-Bold" font-weight="bold" font-size="40.0" fill="#FEFFFE" transform="matrix(1.00, 0.00, -0.00, -1.00, 1256.3, 482.0)">o</text><text xml:space="preserve" font-family="YanoneKaffeesatz-Bold" font-weight="bold" font-size="40.0" fill="#FEFFFE" transform="matrix(1.00, 0.00, -0.00, -1.00, 1270.3, 482.0)">n</text><text xml:space="preserve" font-family="YanoneKaffeesatz-Bold" font-weight="bold" font-size="40.0" fill="#FEFFFE" transform="matrix(1.00, 0.00, -0.00, -1.00, 554.0, 573.0)">S</text><text xml:space="preserve" font-family="YanoneKaffeesatz-Bold" font-weight="bold" font-size="40.0" fill="#FEFFFE" transform="matrix(1.00, 0.00, -0.00, -1.00, 567.8, 573.0)">i</text><text xml:space="preserve" font-family="YanoneKaffeesatz-Bold" font-weight="bold" font-size="40.0" fill="#FEFFFE" transform="matrix(1.00, 0.00, -0.00, -1.00, 575.0, 573.0)">n</text><text xml:space="preserve" font-family="YanoneKaffeesatz-Bold" font-weight="bold" font-size="40.0" fill="#FEFFFE" transform="matrix(1.00, 0.00, -0.00, -1.00, 589.4, 573.0)">g</text><text xml:space="preserve" font-family="YanoneKaffeesatz-Bold" font-weight="bold" font-size="40.0" fill="#FEFFFE" transform="matrix(1.00, 0.00, -0.00, -1.00, 604.7, 573.0)">l</text><text xml:space="preserve" font-family="YanoneKaffeesatz-Bold" font-weight="bold" font-size="40.0" fill="#FEFFFE" transform="matrix(1.00, 0.00, -0.00, -1.00, 611.8, 573.0)">e</text><text xml:space="preserve" font-family="YanoneKaffeesatz-Bold" font-weight="bold" font-size="40.0" fill="#FEFFFE" transform="matrix(1.00, 0.00, -0.00, -1.00, 625.6, 573.0)"> </text><text xml:space="preserve" font-family="YanoneKaffeesatz-Bold" font-weight="bold" font-size="40.0" fill="#FEFFFE" transform="matrix(1.00, 0.00, -0.00, -1.00, 631.2, 573.0)">R</text><text xml:space="preserve" font-family="YanoneKaffeesatz-Bold" font-weight="bold" font-size="40.0" fill="#FEFFFE" transform="matrix(1.00, 0.00, -0.00, -1.00, 645.6, 573.0)">o</text><text xml:space="preserve" font-family="YanoneKaffeesatz-Bold" font-weight="bold" font-size="40.0" fill="#FEFFFE" transform="matrix(1.00, 0.00, -0.00, -1.00, 659.2, 573.0)">t</text><text xml:space="preserve" font-family="YanoneKaffeesatz-Bold" font-weight="bold" font-size="40.0" fill="#FEFFFE" transform="matrix(1.00, 0.00, -0.00, -1.00, 670.6, 573.0)">a</text><text xml:space="preserve" font-family="YanoneKaffeesatz-Bold" font-weight="bold" font-size="40.0" fill="#FEFFFE" transform="matrix(1.00, 0.00, -0.00, -1.00, 683.7, 573.0)">t</text><text xml:space="preserve" font-family="YanoneKaffeesatz-Bold" font-weight="bold" font-size="40.0" fill="#FEFFFE" transform="matrix(1.00, 0.00, -0.00, -1.00, 695.1, 573.0)">i</text><text xml:space="preserve" font-family="YanoneKaffeesatz-Bold" font-weight="bold" font-size="40.0" fill="#FEFFFE" transform="matrix(1.00, 0.00, -0.00, -1.00, 702.3, 573.0)">o</text><text xml:space="preserve" font-family="YanoneKaffeesatz-Bold" font-weight="bold" font-size="40.0" fill="#FEFFFE" transform="matrix(1.00, 0.00, -0.00, -1.00, 716.3, 573.0)">n</text><image xlink:href="AC1BB3DA8B3082EFC23619E8EDA32A5C.png" width="1015.00" height="42.00" transform="matrix(1.00, 0.00, -0.00, -1.00, 463.0, 66.0)"></image><text xml:space="preserve" font-family="YanoneKaffeesatz-Regular" font-size="35.0" fill="#FEFFFE" transform="matrix(1.00, 0.00, -0.00, -1.00, 466.0, 38.0)">h</text><text xml:space="preserve" font-family="YanoneKaffeesatz-Regular" font-size="35.0" fill="#FEFFFE" transform="matrix(1.00, 0.00, -0.00, -1.00, 479.1, 38.0)">t</text><text xml:space="preserve" font-family="YanoneKaffeesatz-Regular" font-size="35.0" fill="#FEFFFE" transform="matrix(1.00, 0.00, -0.00, -1.00, 487.4, 38.0)">t</text><text xml:space="preserve" font-family="YanoneKaffeesatz-Regular" font-size="35.0" fill="#FEFFFE" transform="matrix(1.00, 0.00, -0.00, -1.00, 497.5, 38.0)">p</text><text xml:space="preserve" font-family="YanoneKaffeesatz-Regular" font-size="35.0" fill="#FEFFFE" transform="matrix(1.00, 0.00, -0.00, -1.00, 510.9, 38.0)">:</text><text xml:space="preserve" font-family="YanoneKaffeesatz-Regular" font-size="35.0" fill="#FEFFFE" transform="matrix(1.00, 0.00, -0.00, -1.00, 517.6, 38.0)">/</text><text xml:space="preserve" font-family="YanoneKaffeesatz-Regular" font-size="35.0" fill="#FEFFFE" transform="matrix(1.00, 0.00, -0.00, -1.00, 524.7, 38.0)">/</text><text xml:space="preserve" font-family="YanoneKaffeesatz-Regular" font-size="35.0" fill="#FEFFFE" transform="matrix(1.00, 0.00, -0.00, -1.00, 535.7, 38.0)">w</text><text xml:space="preserve" font-family="YanoneKaffeesatz-Regular" font-size="35.0" fill="#FEFFFE" transform="matrix(1.00, 0.00, -0.00, -1.00, 554.6, 38.0)">w</text><text xml:space="preserve" font-family="YanoneKaffeesatz-Regular" font-size="35.0" fill="#FEFFFE" transform="matrix(1.00, 0.00, -0.00, -1.00, 573.5, 38.0)">w</text><text xml:space="preserve" font-family="YanoneKaffeesatz-Regular" font-size="35.0" fill="#FEFFFE" transform="matrix(1.00, 0.00, -0.00, -1.00, 591.1, 38.0)">.</text><text xml:space="preserve" font-family="YanoneKaffeesatz-Regular" font-size="35.0" fill="#FEFFFE" transform="matrix(1.00, 0.00, -0.00, -1.00, 597.5, 38.0)">s</text><text xml:space="preserve" font-family="YanoneKaffeesatz-Regular" font-size="35.0" fill="#FEFFFE" transform="matrix(1.00, 0.00, -0.00, -1.00, 609.5, 38.0)">l</text><text xml:space="preserve" font-family="YanoneKaffeesatz-Regular" font-size="35.0" fill="#FEFFFE" transform="matrix(1.00, 0.00, -0.00, -1.00, 615.6, 38.0)">i</text><text xml:space="preserve" font-family="YanoneKaffeesatz-Regular" font-size="35.0" fill="#FEFFFE" transform="matrix(1.00, 0.00, -0.00, -1.00, 621.7, 38.0)">d</text><text xml:space="preserve" font-family="YanoneKaffeesatz-Regular" font-size="35.0" fill="#FEFFFE" transform="matrix(1.00, 0.00, -0.00, -1.00, 635.2, 38.0)">e</text><text xml:space="preserve" font-family="YanoneKaffeesatz-Regular" font-size="35.0" fill="#FEFFFE" transform="matrix(1.00, 0.00, -0.00, -1.00, 647.9, 38.0)">s</text><text xml:space="preserve" font-family="YanoneKaffeesatz-Regular" font-size="35.0" fill="#FEFFFE" transform="matrix(1.00, 0.00, -0.00, -1.00, 659.9, 38.0)">h</text><text xml:space="preserve" font-family="YanoneKaffeesatz-Regular" font-size="35.0" fill="#FEFFFE" transform="matrix(1.00, 0.00, -0.00, -1.00, 673.2, 38.0)">a</text><text xml:space="preserve" font-family="YanoneKaffeesatz-Regular" font-size="35.0" fill="#FEFFFE" transform="matrix(1.00, 0.00, -0.00, -1.00, 685.6, 38.0)">r</text><text xml:space="preserve" font-family="YanoneKaffeesatz-Regular" font-size="35.0" fill="#FEFFFE" transform="matrix(1.00, 0.00, -0.00, -1.00, 694.1, 38.0)">e</text><text xml:space="preserve" font-family="YanoneKaffeesatz-Regular" font-size="35.0" fill="#FEFFFE" transform="matrix(1.00, 0.00, -0.00, -1.00, 706.7, 38.0)">.</text><text xml:space="preserve" font-family="YanoneKaffeesatz-Regular" font-size="35.0" fill="#FEFFFE" transform="matrix(1.00, 0.00, -0.00, -1.00, 713.1, 38.0)">n</text><text xml:space="preserve" font-family="YanoneKaffeesatz-Regular" font-size="35.0" fill="#FEFFFE" transform="matrix(1.00, 0.00, -0.00, -1.00, 726.5, 38.0)">e</text><text xml:space="preserve" font-family="YanoneKaffeesatz-Regular" font-size="35.0" fill="#FEFFFE" transform="matrix(1.00, 0.00, -0.00, -1.00, 739.0, 38.0)">t</text><text xml:space="preserve" font-family="YanoneKaffeesatz-Regular" font-size="35.0" fill="#FEFFFE" transform="matrix(1.00, 0.00, -0.00, -1.00, 749.7, 38.0)">/</text><text xml:space="preserve" font-family="YanoneKaffeesatz-Regular" font-size="35.0" fill="#FEFFFE" transform="matrix(1.00, 0.00, -0.00, -1.00, 760.9, 38.0)">v</text><text xml:space="preserve" font-family="YanoneKaffeesatz-Regular" font-size="35.0" fill="#FEFFFE" transform="matrix(1.00, 0.00, -0.00, -1.00, 772.7, 38.0)">k</text><text xml:space="preserve" font-family="YanoneKaffeesatz-Regular" font-size="35.0" fill="#FEFFFE" transform="matrix(1.00, 0.00, -0.00, -1.00, 785.8, 38.0)">o</text><text xml:space="preserve" font-family="YanoneKaffeesatz-Regular" font-size="35.0" fill="#FEFFFE" transform="matrix(1.00, 0.00, -0.00, -1.00, 798.6, 38.0)">s</text><text xml:space="preserve" font-family="YanoneKaffeesatz-Regular" font-size="35.0" fill="#FEFFFE" transform="matrix(1.00, 0.00, -0.00, -1.00, 810.7, 38.0)">t</text><text xml:space="preserve" font-family="YanoneKaffeesatz-Regular" font-size="35.0" fill="#FEFFFE" transform="matrix(1.00, 0.00, -0.00, -1.00, 820.9, 38.0)">y</text><text xml:space="preserve" font-family="YanoneKaffeesatz-Regular" font-size="35.0" fill="#FEFFFE" transform="matrix(1.00, 0.00, -0.00, -1.00, 832.9, 38.0)">u</text><text xml:space="preserve" font-family="YanoneKaffeesatz-Regular" font-size="35.0" fill="#FEFFFE" transform="matrix(1.00, 0.00, -0.00, -1.00, 846.5, 38.0)">k</text><text xml:space="preserve" font-family="YanoneKaffeesatz-Regular" font-size="35.0" fill="#FEFFFE" transform="matrix(1.00, 0.00, -0.00, -1.00, 859.6, 38.0)">o</text><text xml:space="preserve" font-family="YanoneKaffeesatz-Regular" font-size="35.0" fill="#FEFFFE" transform="matrix(1.00, 0.00, -0.00, -1.00, 872.1, 38.0)">v</text><text xml:space="preserve" font-family="YanoneKaffeesatz-Regular" font-size="35.0" fill="#FEFFFE" transform="matrix(1.00, 0.00, -0.00, -1.00, 883.4, 38.0)">/</text><text xml:space="preserve" font-family="YanoneKaffeesatz-Regular" font-size="35.0" fill="#FEFFFE" transform="matrix(1.00, 0.00, -0.00, -1.00, 893.2, 38.0)">p</text><text xml:space="preserve" font-family="YanoneKaffeesatz-Regular" font-size="35.0" fill="#FEFFFE" transform="matrix(1.00, 0.00, -0.00, -1.00, 906.6, 38.0)">u</text><text xml:space="preserve" font-family="YanoneKaffeesatz-Regular" font-size="35.0" fill="#FEFFFE" transform="matrix(1.00, 0.00, -0.00, -1.00, 920.3, 38.0)">r</text><text xml:space="preserve" font-family="YanoneKaffeesatz-Regular" font-size="35.0" fill="#FEFFFE" transform="matrix(1.00, 0.00, -0.00, -1.00, 928.7, 38.0)">e</text><text xml:space="preserve" font-family="YanoneKaffeesatz-Regular" font-size="35.0" fill="#FEFFFE" transform="matrix(1.00, 0.00, -0.00, -1.00, 941.4, 38.0)">l</text><text xml:space="preserve" font-family="YanoneKaffeesatz-Regular" font-size="35.0" fill="#FEFFFE" transform="matrix(1.00, 0.00, -0.00, -1.00, 947.4, 38.0)">y</text><text xml:space="preserve" font-family="YanoneKaffeesatz-Regular" font-size="35.0" fill="#FEFFFE" transform="matrix(1.00, 0.00, -0.00, -1.00, 958.9, 38.0)">-</text><text xml:space="preserve" font-family="YanoneKaffeesatz-Regular" font-size="35.0" fill="#FEFFFE" transform="matrix(1.00, 0.00, -0.00, -1.00, 967.6, 38.0)">f</text><text xml:space="preserve" font-family="YanoneKaffeesatz-Regular" font-size="35.0" fill="#FEFFFE" transform="matrix(1.00, 0.00, -0.00, -1.00, 976.3, 38.0)">u</text><text xml:space="preserve" font-family="YanoneKaffeesatz-Regular" font-size="35.0" fill="#FEFFFE" transform="matrix(1.00, 0.00, -0.00, -1.00, 989.9, 38.0)">n</text><text xml:space="preserve" font-family="YanoneKaffeesatz-Regular" font-size="35.0" fill="#FEFFFE" transform="matrix(1.00, 0.00, -0.00, -1.00, 1003.3, 38.0)">c</text><text xml:space="preserve" font-family="YanoneKaffeesatz-Regular" font-size="35.0" fill="#FEFFFE" transform="matrix(1.00, 0.00, -0.00, -1.00, 1014.5, 38.0)">t</text><text xml:space="preserve" font-family="YanoneKaffeesatz-Regular" font-size="35.0" fill="#FEFFFE" transform="matrix(1.00, 0.00, -0.00, -1.00, 1024.7, 38.0)">i</text><text xml:space="preserve" font-family="YanoneKaffeesatz-Regular" font-size="35.0" fill="#FEFFFE" transform="matrix(1.00, 0.00, -0.00, -1.00, 1030.8, 38.0)">o</text><text xml:space="preserve" font-family="YanoneKaffeesatz-Regular" font-size="35.0" fill="#FEFFFE" transform="matrix(1.00, 0.00, -0.00, -1.00, 1043.7, 38.0)">n</text><text xml:space="preserve" font-family="YanoneKaffeesatz-Regular" font-size="35.0" fill="#FEFFFE" transform="matrix(1.00, 0.00, -0.00, -1.00, 1057.0, 38.0)">a</text><text xml:space="preserve" font-family="YanoneKaffeesatz-Regular" font-size="35.0" fill="#FEFFFE" transform="matrix(1.00, 0.00, -0.00, -1.00, 1069.4, 38.0)">l</text><text xml:space="preserve" font-family="YanoneKaffeesatz-Regular" font-size="35.0" fill="#FEFFFE" transform="matrix(1.00, 0.00, -0.00, -1.00, 1075.5, 38.0)">-</text><text xml:space="preserve" font-family="YanoneKaffeesatz-Regular" font-size="35.0" fill="#FEFFFE" transform="matrix(1.00, 0.00, -0.00, -1.00, 1085.2, 38.0)">d</text><text xml:space="preserve" font-family="YanoneKaffeesatz-Regular" font-size="35.0" fill="#FEFFFE" transform="matrix(1.00, 0.00, -0.00, -1.00, 1098.7, 38.0)">a</text><text xml:space="preserve" font-family="YanoneKaffeesatz-Regular" font-size="35.0" fill="#FEFFFE" transform="matrix(1.00, 0.00, -0.00, -1.00, 1110.5, 38.0)">t</text><text xml:space="preserve" font-family="YanoneKaffeesatz-Regular" font-size="35.0" fill="#FEFFFE" transform="matrix(1.00, 0.00, -0.00, -1.00, 1120.7, 38.0)">a</text><text xml:space="preserve" font-family="YanoneKaffeesatz-Regular" font-size="35.0" fill="#FEFFFE" transform="matrix(1.00, 0.00, -0.00, -1.00, 1133.1, 38.0)">-</text><text xml:space="preserve" font-family="YanoneKaffeesatz-Regular" font-size="35.0" fill="#FEFFFE" transform="matrix(1.00, 0.00, -0.00, -1.00, 1142.8, 38.0)">s</text><text xml:space="preserve" font-family="YanoneKaffeesatz-Regular" font-size="35.0" fill="#FEFFFE" transform="matrix(1.00, 0.00, -0.00, -1.00, 1154.9, 38.0)">t</text><text xml:space="preserve" font-family="YanoneKaffeesatz-Regular" font-size="35.0" fill="#FEFFFE" transform="matrix(1.00, 0.00, -0.00, -1.00, 1165.1, 38.0)">r</text><text xml:space="preserve" font-family="YanoneKaffeesatz-Regular" font-size="35.0" fill="#FEFFFE" transform="matrix(1.00, 0.00, -0.00, -1.00, 1174.3, 38.0)">u</text><text xml:space="preserve" font-family="YanoneKaffeesatz-Regular" font-size="35.0" fill="#FEFFFE" transform="matrix(1.00, 0.00, -0.00, -1.00, 1187.9, 38.0)">c</text><text xml:space="preserve" font-family="YanoneKaffeesatz-Regular" font-size="35.0" fill="#FEFFFE" transform="matrix(1.00, 0.00, -0.00, -1.00, 1199.1, 38.0)">t</text><text xml:space="preserve" font-family="YanoneKaffeesatz-Regular" font-size="35.0" fill="#FEFFFE" transform="matrix(1.00, 0.00, -0.00, -1.00, 1209.0, 38.0)">u</text><text xml:space="preserve" font-family="YanoneKaffeesatz-Regular" font-size="35.0" fill="#FEFFFE" transform="matrix(1.00, 0.00, -0.00, -1.00, 1222.7, 38.0)">r</text><text xml:space="preserve" font-family="YanoneKaffeesatz-Regular" font-size="35.0" fill="#FEFFFE" transform="matrix(1.00, 0.00, -0.00, -1.00, 1231.2, 38.0)">e</text><text xml:space="preserve" font-family="YanoneKaffeesatz-Regular" font-size="35.0" fill="#FEFFFE" transform="matrix(1.00, 0.00, -0.00, -1.00, 1243.8, 38.0)">s</text><text xml:space="preserve" font-family="YanoneKaffeesatz-Regular" font-size="35.0" fill="#FEFFFE" transform="matrix(1.00, 0.00, -0.00, -1.00, 1254.7, 38.0)">-</text><text xml:space="preserve" font-family="YanoneKaffeesatz-Regular" font-size="35.0" fill="#FEFFFE" transform="matrix(1.00, 0.00, -0.00, -1.00, 1264.4, 38.0)">i</text><text xml:space="preserve" font-family="YanoneKaffeesatz-Regular" font-size="35.0" fill="#FEFFFE" transform="matrix(1.00, 0.00, -0.00, -1.00, 1270.5, 38.0)">n</text><text xml:space="preserve" font-family="YanoneKaffeesatz-Regular" font-size="35.0" fill="#FEFFFE" transform="matrix(1.00, 0.00, -0.00, -1.00, 1283.9, 38.0)">-</text><text xml:space="preserve" font-family="YanoneKaffeesatz-Regular" font-size="35.0" fill="#FEFFFE" transform="matrix(1.00, 0.00, -0.00, -1.00, 1293.6, 38.0)">s</text><text xml:space="preserve" font-family="YanoneKaffeesatz-Regular" font-size="35.0" fill="#FEFFFE" transform="matrix(1.00, 0.00, -0.00, -1.00, 1305.7, 38.0)">c</text><text xml:space="preserve" font-family="YanoneKaffeesatz-Regular" font-size="35.0" fill="#FEFFFE" transform="matrix(1.00, 0.00, -0.00, -1.00, 1316.7, 38.0)">a</text><text xml:space="preserve" font-family="YanoneKaffeesatz-Regular" font-size="35.0" fill="#FEFFFE" transform="matrix(1.00, 0.00, -0.00, -1.00, 1329.1, 38.0)">l</text><text xml:space="preserve" font-family="YanoneKaffeesatz-Regular" font-size="35.0" fill="#FEFFFE" transform="matrix(1.00, 0.00, -0.00, -1.00, 1335.1, 38.0)">a</text><text xml:space="preserve" font-family="YanoneKaffeesatz-Regular" font-size="35.0" fill="#FEFFFE" transform="matrix(1.00, 0.00, -0.00, -1.00, 1347.5, 38.0)">-</text><text xml:space="preserve" font-family="YanoneKaffeesatz-Regular" font-size="35.0" fill="#FEFFFE" transform="matrix(1.00, 0.00, -0.00, -1.00, 1357.2, 38.0)">2</text><text xml:space="preserve" font-family="YanoneKaffeesatz-Regular" font-size="35.0" fill="#FEFFFE" transform="matrix(1.00, 0.00, -0.00, -1.00, 1371.8, 38.0)">6</text><text xml:space="preserve" font-family="YanoneKaffeesatz-Regular" font-size="35.0" fill="#FEFFFE" transform="matrix(1.00, 0.00, -0.00, -1.00, 1386.4, 38.0)">1</text><text xml:space="preserve" font-family="YanoneKaffeesatz-Regular" font-size="35.0" fill="#FEFFFE" transform="matrix(1.00, 0.00, -0.00, -1.00, 1401.0, 38.0)">7</text><text xml:space="preserve" font-family="YanoneKaffeesatz-Regular" font-size="35.0" fill="#FEFFFE" transform="matrix(1.00, 0.00, -0.00, -1.00, 1415.6, 38.0)">5</text><text xml:space="preserve" font-family="YanoneKaffeesatz-Regular" font-size="35.0" fill="#FEFFFE" transform="matrix(1.00, 0.00, -0.00, -1.00, 1430.2, 38.0)">5</text><text xml:space="preserve" font-family="YanoneKaffeesatz-Regular" font-size="35.0" fill="#FEFFFE" transform="matrix(1.00, 0.00, -0.00, -1.00, 1444.8, 38.0)">2</text><text xml:space="preserve" font-family="YanoneKaffeesatz-Regular" font-size="35.0" fill="#FEFFFE" transform="matrix(1.00, 0.00, -0.00, -1.00, 1459.4, 38.0)">1</text></g></svg>