<?xml version="1.0" encoding="UTF-8" standalone="no"?><svg xmlns="http://www.w3.org/2000/svg" xmlns:xlink="http://www.w3.org/1999/xlink" clip-rule="evenodd" stroke-miterlimit="4.00" viewBox="0 0 1920 1080"><desc>SVG generated by Keynote</desc><defs></defs><g transform="matrix(1.00, 0.00, -0.00, -1.00, 0.0, 1080.0)"><g><clipPath id="clip-68"><path d="M 0.0 1080.0 L 1920.0 1080.0 L 1920.0 0.0 L 0.0 0.0 Z M 0.0 1080.0 "></path></clipPath><g clip-path="url(#clip-68)"><image xlink:href="../../C790834B-C1C8-4410-8563-9C912CD2A702/assets/4B0075050CC9D0F3DC006F0CDE78D676.jpeg" width="1365.00" height="767.00" transform="matrix(1.41, 0.00, -0.00, -1.41, 0.0, 1080.0)"></image></g></g><image xlink:href="../../C8AEE72E-70A3-4C9B-BA22-51AEE4FDAAFF/assets/4F168F6F35F7FBA71171BEC14308ADDB.png" width="626.00" height="157.00" transform="matrix(1.00, 0.00, -0.00, -1.00, 648.0, 1013.0)"></image><text xml:space="preserve" font-family="YanoneKaffeesatz-Bold" font-weight="bold" font-size="200.0" fill="#FC6900" transform="matrix(1.00, 0.00, -0.00, -1.00, 646.0, 865.0)">L</text><text xml:space="preserve" font-family="YanoneKaffeesatz-Bold" font-weight="bold" font-size="200.0" fill="#FC6900" transform="matrix(1.00, 0.00, -0.00, -1.00, 706.6, 865.0)">i</text><text xml:space="preserve" font-family="YanoneKaffeesatz-Bold" font-weight="bold" font-size="200.0" fill="#FC6900" transform="matrix(1.00, 0.00, -0.00, -1.00, 742.6, 865.0)">n</text><text xml:space="preserve" font-family="YanoneKaffeesatz-Bold" font-weight="bold" font-size="200.0" fill="#FC6900" transform="matrix(1.00, 0.00, -0.00, -1.00, 814.8, 865.0)">k</text><text xml:space="preserve" font-family="YanoneKaffeesatz-Bold" font-weight="bold" font-size="200.0" fill="#FC6900" transform="matrix(1.00, 0.00, -0.00, -1.00, 886.6, 865.0)">e</text><text xml:space="preserve" font-family="YanoneKaffeesatz-Bold" font-weight="bold" font-size="200.0" fill="#FC6900" transform="matrix(1.00, 0.00, -0.00, -1.00, 955.8, 865.0)">d</text><text xml:space="preserve" font-family="YanoneKaffeesatz-Bold" font-weight="bold" font-size="200.0" fill="#FC6900" transform="matrix(1.00, 0.00, -0.00, -1.00, 1029.0, 865.0)"> </text><text xml:space="preserve" font-family="YanoneKaffeesatz-Bold" font-weight="bold" font-size="200.0" fill="#FC6900" transform="matrix(1.00, 0.00, -0.00, -1.00, 1057.0, 865.0)">L</text><text xml:space="preserve" font-family="YanoneKaffeesatz-Bold" font-weight="bold" font-size="200.0" fill="#FC6900" transform="matrix(1.00, 0.00, -0.00, -1.00, 1117.6, 865.0)">i</text><text xml:space="preserve" font-family="YanoneKaffeesatz-Bold" font-weight="bold" font-size="200.0" fill="#FC6900" transform="matrix(1.00, 0.00, -0.00, -1.00, 1153.6, 865.0)">s</text><text xml:space="preserve" font-family="YanoneKaffeesatz-Bold" font-weight="bold" font-size="200.0" fill="#FC6900" transform="matrix(1.00, 0.00, -0.00, -1.00, 1217.2, 865.0)">t</text><image xlink:href="../../1C928CFA-8327-44FD-9F7F-0EA05380E5F4/assets/26CD3D1E8809EAD8FE46A4637DF4C297.png" width="135.00" height="62.00" transform="matrix(1.00, 0.00, -0.00, -1.00, 66.0, 732.0)"></image><text xml:space="preserve" font-family="YanoneKaffeesatz-Bold" font-weight="bold" font-size="75.0" fill="#FE2500" transform="matrix(1.00, 0.00, -0.00, -1.00, 68.0, 678.0)">I</text><text xml:space="preserve" font-family="YanoneKaffeesatz-Bold" font-weight="bold" font-size="75.0" fill="#FE2500" transform="matrix(1.00, 0.00, -0.00, -1.00, 81.0, 678.0)">n</text><text xml:space="preserve" font-family="YanoneKaffeesatz-Bold" font-weight="bold" font-size="75.0" fill="#FE2500" transform="matrix(1.00, 0.00, -0.00, -1.00, 108.0, 678.0)">s</text><text xml:space="preserve" font-family="YanoneKaffeesatz-Bold" font-weight="bold" font-size="75.0" fill="#FE2500" transform="matrix(1.00, 0.00, -0.00, -1.00, 131.9, 678.0)">e</text><text xml:space="preserve" font-family="YanoneKaffeesatz-Bold" font-weight="bold" font-size="75.0" fill="#FE2500" transform="matrix(1.00, 0.00, -0.00, -1.00, 157.8, 678.0)">r</text><text xml:space="preserve" font-family="YanoneKaffeesatz-Bold" font-weight="bold" font-size="75.0" fill="#FE2500" transform="matrix(1.00, 0.00, -0.00, -1.00, 176.5, 678.0)">t</text><path d="M 879.3 742.1 C 898.8 722.6 898.8 690.9 879.3 671.4 C 859.8 651.9 828.1 651.9 808.6 671.4 C 789.1 690.9 789.1 722.6 808.6 742.1 C 828.1 761.6 859.8 761.6 879.3 742.1 Z M 879.3 742.1 " fill="#0072CF"></path><image xlink:href="../../C8AEE72E-70A3-4C9B-BA22-51AEE4FDAAFF/assets/E0AD3E3C00BF5C2A46AEBAD9E7212B61.png" width="27.00" height="39.00" transform="matrix(1.00, 0.00, -0.00, -1.00, 831.0, 721.0)"></image><g><clipPath id="clip-69"><path d="M 790.8 656.7 L 897.1 656.7 L 897.1 756.7 L 790.8 756.7 Z M 790.8 656.7 "></path></clipPath><g clip-path="url(#clip-69)"><text xml:space="preserve" font-family="YanoneKaffeesatz-Regular" font-size="50.0" fill="#FEFFFE" transform="matrix(1.00, 0.00, -0.00, -1.00, 834.0, 689.0)">4</text></g></g><path d="M 1051.3 742.1 C 1070.9 722.6 1070.9 690.9 1051.3 671.4 C 1031.8 651.9 1000.2 651.9 980.6 671.4 C 961.1 690.9 961.1 722.6 980.6 742.1 C 1000.2 761.6 1031.8 761.6 1051.3 742.1 Z M 1051.3 742.1 " fill="#0072CF"></path><image xlink:href="../../C8AEE72E-70A3-4C9B-BA22-51AEE4FDAAFF/assets/39665D8815AD654D5AC45C1CE1A6FB8C.png" width="25.00" height="43.00" transform="matrix(1.00, 0.00, -0.00, -1.00, 1004.0, 720.0)"></image><g><clipPath id="clip-70"><path d="M 962.9 656.7 L 1069.1 656.7 L 1069.1 756.7 L 962.9 756.7 Z M 962.9 656.7 "></path></clipPath><g clip-path="url(#clip-70)"><text xml:space="preserve" font-family="YanoneKaffeesatz-Regular" font-size="50.0" fill="#FEFFFE" transform="matrix(1.00, 0.00, -0.00, -1.00, 1006.0, 689.0)">3</text></g></g><path d="M 0.0 0.0 L 50.1 0.0 L 52.6 0.0 " fill="none" stroke="#E0E4CB" stroke-width="5.00" transform="matrix(1.00, 0.00, 0.00, -1.00, 894.7, 706.7)"></path><path d="M 944.8 696.5 L 965.2 706.7 L 944.8 716.9 Z M 944.8 696.5 " fill="#E0E4CB"></path><path d="M 1223.7 742.1 C 1243.2 722.6 1243.2 690.9 1223.7 671.4 C 1204.2 651.9 1172.5 651.9 1153.0 671.4 C 1133.5 690.9 1133.5 722.6 1153.0 742.1 C 1172.5 761.6 1204.2 761.6 1223.7 742.1 Z M 1223.7 742.1 " fill="#0072CF"></path><image xlink:href="../../C8AEE72E-70A3-4C9B-BA22-51AEE4FDAAFF/assets/E7AEF64253C87F4D497618DC0AE9825F.png" width="27.00" height="38.00" transform="matrix(1.00, 0.00, -0.00, -1.00, 1175.0, 720.0)"></image><g><clipPath id="clip-71"><path d="M 1135.2 656.7 L 1241.5 656.7 L 1241.5 756.7 L 1135.2 756.7 Z M 1135.2 656.7 "></path></clipPath><g clip-path="url(#clip-71)"><text xml:space="preserve" font-family="YanoneKaffeesatz-Regular" font-size="50.0" fill="#FEFFFE" transform="matrix(1.00, 0.00, -0.00, -1.00, 1178.0, 689.0)">2</text></g></g><path d="M 0.0 0.0 L 50.1 0.0 L 52.6 0.0 " fill="none" stroke="#E0E4CB" stroke-width="5.00" transform="matrix(1.00, 0.00, 0.00, -1.00, 1067.1, 706.7)"></path><path d="M 1117.2 696.5 L 1137.6 706.7 L 1117.2 716.9 Z M 1117.2 696.5 " fill="#E0E4CB"></path><path d="M 1396.4 742.1 C 1416.0 722.6 1416.0 690.9 1396.4 671.4 C 1376.9 651.9 1345.2 651.9 1325.7 671.4 C 1306.2 690.9 1306.2 722.6 1325.7 742.1 C 1345.2 761.6 1376.9 761.6 1396.4 742.1 Z M 1396.4 742.1 " fill="#0072CF"></path><image xlink:href="../../C8AEE72E-70A3-4C9B-BA22-51AEE4FDAAFF/assets/71356A7CE7F435F08C902D1691E19ED5.png" width="27.00" height="38.00" transform="matrix(1.00, 0.00, -0.00, -1.00, 1348.0, 720.0)"></image><g><clipPath id="clip-72"><path d="M 1308.0 656.7 L 1414.2 656.7 L 1414.2 756.7 L 1308.0 756.7 Z M 1308.0 656.7 "></path></clipPath><g clip-path="url(#clip-72)"><text xml:space="preserve" font-family="YanoneKaffeesatz-Regular" font-size="50.0" fill="#FEFFFE" transform="matrix(1.00, 0.00, -0.00, -1.00, 1351.0, 689.0)">1</text></g></g><path d="M 0.0 0.0 L 50.1 0.0 L 52.6 0.0 " fill="none" stroke="#E0E4CB" stroke-width="5.00" transform="matrix(1.00, 0.00, 0.00, -1.00, 1239.8, 706.7)"></path><path d="M 1289.9 696.5 L 1310.3 706.7 L 1289.9 716.9 Z M 1289.9 696.5 " fill="#E0E4CB"></path><path d="M 707.3 742.1 C 726.8 722.6 726.8 690.9 707.3 671.4 C 687.8 651.9 656.1 651.9 636.6 671.4 C 617.1 690.9 617.1 722.6 636.6 742.1 C 656.1 761.6 687.8 761.6 707.3 742.1 Z M 707.3 742.1 " fill="#0072CF"></path><image xlink:href="../../C8AEE72E-70A3-4C9B-BA22-51AEE4FDAAFF/assets/FF07FE57AB571085446D29C043F45098.png" width="26.00" height="43.00" transform="matrix(1.00, 0.00, -0.00, -1.00, 659.0, 720.0)"></image><g><clipPath id="clip-73"><path d="M 618.8 656.7 L 725.1 656.7 L 725.1 756.7 L 618.8 756.7 Z M 618.8 656.7 "></path></clipPath><g clip-path="url(#clip-73)"><text xml:space="preserve" font-family="YanoneKaffeesatz-Regular" font-size="50.0" fill="#FEFFFE" transform="matrix(1.00, 0.00, -0.00, -1.00, 662.0, 689.0)">5</text></g></g><path d="M 0.0 0.0 L 49.6 0.0 L 52.1 0.0 " fill="none" stroke="#E0E4CB" stroke-width="5.00" transform="matrix(0.00, 1.00, 1.00, 0.00, 1016.0, 584.9)"></path><path d="M 1026.2 634.5 L 1016.0 654.9 L 1005.8 634.5 Z M 1026.2 634.5 " fill="#E0E4CB"></path><image xlink:href="../../C8AEE72E-70A3-4C9B-BA22-51AEE4FDAAFF/assets/97E19394EE026461A6CA9959733B4535.png" width="110.00" height="65.00" transform="matrix(1.00, 0.00, -0.00, -1.00, 436.0, 735.0)"></image><text xml:space="preserve" font-family="YanoneKaffeesatz-Bold" font-weight="bold" font-size="75.0" fill="#0073CF" transform="matrix(1.00, 0.00, -0.00, -1.00, 438.0, 678.0)">h</text><text xml:space="preserve" font-family="YanoneKaffeesatz-Bold" font-weight="bold" font-size="75.0" fill="#0073CF" transform="matrix(1.00, 0.00, -0.00, -1.00, 465.1, 678.0)">e</text><text xml:space="preserve" font-family="YanoneKaffeesatz-Bold" font-weight="bold" font-size="75.0" fill="#0073CF" transform="matrix(1.00, 0.00, -0.00, -1.00, 491.0, 678.0)">a</text><text xml:space="preserve" font-family="YanoneKaffeesatz-Bold" font-weight="bold" font-size="75.0" fill="#0073CF" transform="matrix(1.00, 0.00, -0.00, -1.00, 516.4, 678.0)">d</text><path d="M 0.0 0.0 L 50.1 0.0 L 52.6 0.0 " fill="none" stroke="#E0E4CB" stroke-width="5.00" transform="matrix(1.00, 0.00, 0.00, -1.00, 550.3, 706.7)"></path><path d="M 600.4 696.5 L 620.8 706.7 L 600.4 716.9 Z M 600.4 696.5 " fill="#E0E4CB"></path><path d="M 85.4 14.6 C 104.9 34.2 104.9 65.8 85.4 85.4 C 65.8 104.9 34.2 104.9 14.6 85.4 C -4.9 65.8 -4.9 34.2 14.6 14.6 C 34.2 -4.9 65.8 -4.9 85.4 14.6 Z M 85.4 14.6 " fill="none" stroke="#0073CF" stroke-width="5.00" transform="matrix(1.00, 0.00, 0.00, -1.00, 1483.8, 756.7)"></path><path d="M 0.0 0.0 L 50.1 0.0 L 52.6 0.0 " fill="none" stroke="#E0E4CB" stroke-width="5.00" transform="matrix(1.00, 0.00, 0.00, -1.00, 1412.5, 706.7)"></path><path d="M 1462.7 696.5 L 1483.1 706.7 L 1462.7 716.9 Z M 1462.7 696.5 " fill="#E0E4CB"></path><path d="M 707.3 568.0 C 726.8 548.5 726.8 516.8 707.3 497.3 C 687.8 477.8 656.1 477.8 636.6 497.3 C 617.1 516.8 617.1 548.5 636.6 568.0 C 656.1 587.5 687.8 587.5 707.3 568.0 Z M 707.3 568.0 " fill="#B26AE1"></path><image xlink:href="../../C8AEE72E-70A3-4C9B-BA22-51AEE4FDAAFF/assets/FF07FE57AB571085446D29C043F45098.png" width="26.00" height="43.00" transform="matrix(1.00, 0.00, -0.00, -1.00, 659.0, 546.0)"></image><g><clipPath id="clip-74"><path d="M 618.8 482.7 L 725.1 482.7 L 725.1 582.7 L 618.8 582.7 Z M 618.8 482.7 "></path></clipPath><g clip-path="url(#clip-74)"><text xml:space="preserve" font-family="YanoneKaffeesatz-Regular" font-size="50.0" fill="#FEFFFE" transform="matrix(1.00, 0.00, -0.00, -1.00, 662.0, 515.0)">5</text></g></g><image xlink:href="../../57DCFE9C-EB16-4547-A1E6-07AF019490C2/assets/46C44AA3F06F18BBC129C0D53A5AAFD6.png" width="212.00" height="65.00" transform="matrix(1.00, 0.00, -0.00, -1.00, 336.0, 561.0)"></image><text xml:space="preserve" font-family="YanoneKaffeesatz-Bold" font-weight="bold" font-size="75.0" fill="#FC6900" transform="matrix(1.00, 0.00, -0.00, -1.00, 338.0, 504.0)">n</text><text xml:space="preserve" font-family="YanoneKaffeesatz-Bold" font-weight="bold" font-size="75.0" fill="#FC6900" transform="matrix(1.00, 0.00, -0.00, -1.00, 365.1, 504.0)">e</text><text xml:space="preserve" font-family="YanoneKaffeesatz-Bold" font-weight="bold" font-size="75.0" fill="#FC6900" transform="matrix(1.00, 0.00, -0.00, -1.00, 390.6, 504.0)">w</text><text xml:space="preserve" font-family="YanoneKaffeesatz-Bold" font-weight="bold" font-size="75.0" fill="#FC6900" transform="matrix(1.00, 0.00, -0.00, -1.00, 430.1, 504.0)"> </text><text xml:space="preserve" font-family="YanoneKaffeesatz-Bold" font-weight="bold" font-size="75.0" fill="#FC6900" transform="matrix(1.00, 0.00, -0.00, -1.00, 440.6, 504.0)">h</text><text xml:space="preserve" font-family="YanoneKaffeesatz-Bold" font-weight="bold" font-size="75.0" fill="#FC6900" transform="matrix(1.00, 0.00, -0.00, -1.00, 467.7, 504.0)">e</text><text xml:space="preserve" font-family="YanoneKaffeesatz-Bold" font-weight="bold" font-size="75.0" fill="#FC6900" transform="matrix(1.00, 0.00, -0.00, -1.00, 493.6, 504.0)">a</text><text xml:space="preserve" font-family="YanoneKaffeesatz-Bold" font-weight="bold" font-size="75.0" fill="#FC6900" transform="matrix(1.00, 0.00, -0.00, -1.00, 519.0, 504.0)">d</text><path d="M 0.0 0.0 L 50.1 0.0 L 52.6 0.0 " fill="none" stroke="#E0E4CB" stroke-width="5.00" transform="matrix(1.00, 0.00, 0.00, -1.00, 551.1, 532.7)"></path><path d="M 601.2 522.5 L 621.6 532.7 L 601.2 542.9 Z M 601.2 522.5 " fill="#E0E4CB"></path><path d="M 0.0 0.0 L 50.1 0.0 L 52.6 0.0 " fill="none" stroke="#E0E4CB" stroke-width="5.00" transform="matrix(1.00, 0.00, 0.00, -1.00, 723.4, 706.7)"></path><path d="M 773.5 696.5 L 793.9 706.7 L 773.5 716.9 Z M 773.5 696.5 " fill="#E0E4CB"></path><image xlink:href="../../1C928CFA-8327-44FD-9F7F-0EA05380E5F4/assets/B8146CE32D3AB97682D63EEDC2218189.png" width="171.00" height="62.00" transform="matrix(1.00, 0.00, -0.00, -1.00, 66.0, 379.0)"></image><text xml:space="preserve" font-family="YanoneKaffeesatz-Bold" font-weight="bold" font-size="75.0" fill="#FE2500" transform="matrix(1.00, 0.00, -0.00, -1.00, 68.0, 325.0)">R</text><text xml:space="preserve" font-family="YanoneKaffeesatz-Bold" font-weight="bold" font-size="75.0" fill="#FE2500" transform="matrix(1.00, 0.00, -0.00, -1.00, 94.3, 325.0)">e</text><text xml:space="preserve" font-family="YanoneKaffeesatz-Bold" font-weight="bold" font-size="75.0" fill="#FE2500" transform="matrix(1.00, 0.00, -0.00, -1.00, 120.3, 325.0)">m</text><text xml:space="preserve" font-family="YanoneKaffeesatz-Bold" font-weight="bold" font-size="75.0" fill="#FE2500" transform="matrix(1.00, 0.00, -0.00, -1.00, 160.0, 325.0)">o</text><text xml:space="preserve" font-family="YanoneKaffeesatz-Bold" font-weight="bold" font-size="75.0" fill="#FE2500" transform="matrix(1.00, 0.00, -0.00, -1.00, 185.6, 325.0)">v</text><text xml:space="preserve" font-family="YanoneKaffeesatz-Bold" font-weight="bold" font-size="75.0" fill="#FE2500" transform="matrix(1.00, 0.00, -0.00, -1.00, 208.6, 325.0)">e</text><path d="M 885.4 388.9 C 904.9 369.3 904.9 337.7 885.4 318.1 C 865.9 298.6 834.2 298.6 814.7 318.1 C 795.1 337.7 795.1 369.3 814.7 388.9 C 834.2 408.4 865.9 408.4 885.4 388.9 Z M 885.4 388.9 " fill="#0072CF"></path><image xlink:href="../../C8AEE72E-70A3-4C9B-BA22-51AEE4FDAAFF/assets/E0AD3E3C00BF5C2A46AEBAD9E7212B61.png" width="27.00" height="39.00" transform="matrix(1.00, 0.00, -0.00, -1.00, 837.0, 368.0)"></image><g><clipPath id="clip-75"><path d="M 796.9 303.5 L 903.1 303.5 L 903.1 403.5 L 796.9 403.5 Z M 796.9 303.5 "></path></clipPath><g clip-path="url(#clip-75)"><text xml:space="preserve" font-family="YanoneKaffeesatz-Regular" font-size="50.0" fill="#FEFFFE" transform="matrix(1.00, 0.00, -0.00, -1.00, 840.0, 336.0)">4</text></g></g><path d="M 1057.4 388.9 C 1076.9 369.3 1076.9 337.7 1057.4 318.1 C 1037.9 298.6 1006.2 298.6 986.7 318.1 C 967.2 337.7 967.2 369.3 986.7 388.9 C 1006.2 408.4 1037.9 408.4 1057.4 388.9 Z M 1057.4 388.9 " fill="#0072CF"></path><image xlink:href="../../C8AEE72E-70A3-4C9B-BA22-51AEE4FDAAFF/assets/39665D8815AD654D5AC45C1CE1A6FB8C.png" width="25.00" height="43.00" transform="matrix(1.00, 0.00, -0.00, -1.00, 1010.0, 367.0)"></image><g><clipPath id="clip-76"><path d="M 968.9 303.5 L 1075.2 303.5 L 1075.2 403.5 L 968.9 403.5 Z M 968.9 303.5 "></path></clipPath><g clip-path="url(#clip-76)"><text xml:space="preserve" font-family="YanoneKaffeesatz-Regular" font-size="50.0" fill="#FEFFFE" transform="matrix(1.00, 0.00, -0.00, -1.00, 1012.0, 336.0)">3</text></g></g><path d="M 0.0 0.0 L 50.1 0.0 L 52.6 0.0 " fill="none" stroke="#E0E4CB" stroke-width="5.00" transform="matrix(1.00, 0.00, 0.00, -1.00, 900.8, 353.5)"></path><path d="M 950.9 343.3 L 971.3 353.5 L 950.9 363.7 Z M 950.9 343.3 " fill="#E0E4CB"></path><path d="M 1229.8 388.9 C 1249.3 369.3 1249.3 337.7 1229.8 318.1 C 1210.2 298.6 1178.6 298.6 1159.1 318.1 C 1139.5 337.7 1139.5 369.3 1159.1 388.9 C 1178.6 408.4 1210.2 408.4 1229.8 388.9 Z M 1229.8 388.9 " fill="#0072CF"></path><image xlink:href="../../C8AEE72E-70A3-4C9B-BA22-51AEE4FDAAFF/assets/E7AEF64253C87F4D497618DC0AE9825F.png" width="27.00" height="38.00" transform="matrix(1.00, 0.00, -0.00, -1.00, 1181.0, 367.0)"></image><g><clipPath id="clip-77"><path d="M 1141.3 303.5 L 1247.5 303.5 L 1247.5 403.5 L 1141.3 403.5 Z M 1141.3 303.5 "></path></clipPath><g clip-path="url(#clip-77)"><text xml:space="preserve" font-family="YanoneKaffeesatz-Regular" font-size="50.0" fill="#FEFFFE" transform="matrix(1.00, 0.00, -0.00, -1.00, 1184.0, 336.0)">2</text></g></g><path d="M 0.0 0.0 L 50.1 0.0 L 52.6 0.0 " fill="none" stroke="#E0E4CB" stroke-width="5.00" transform="matrix(1.00, 0.00, 0.00, -1.00, 1073.2, 353.5)"></path><path d="M 1123.3 343.3 L 1143.7 353.5 L 1123.3 363.7 Z M 1123.3 343.3 " fill="#E0E4CB"></path><path d="M 1402.5 388.9 C 1422.0 369.3 1422.0 337.7 1402.5 318.1 C 1383.0 298.6 1351.3 298.6 1331.8 318.1 C 1312.3 337.7 1312.3 369.3 1331.8 388.9 C 1351.3 408.4 1383.0 408.4 1402.5 388.9 Z M 1402.5 388.9 " fill="#0072CF"></path><image xlink:href="../../C8AEE72E-70A3-4C9B-BA22-51AEE4FDAAFF/assets/71356A7CE7F435F08C902D1691E19ED5.png" width="27.00" height="38.00" transform="matrix(1.00, 0.00, -0.00, -1.00, 1354.0, 367.0)"></image><g><clipPath id="clip-78"><path d="M 1314.0 303.5 L 1420.3 303.5 L 1420.3 403.5 L 1314.0 403.5 Z M 1314.0 303.5 "></path></clipPath><g clip-path="url(#clip-78)"><text xml:space="preserve" font-family="YanoneKaffeesatz-Regular" font-size="50.0" fill="#FEFFFE" transform="matrix(1.00, 0.00, -0.00, -1.00, 1357.0, 336.0)">1</text></g></g><path d="M 0.0 0.0 L 50.1 0.0 L 52.6 0.0 " fill="none" stroke="#E0E4CB" stroke-width="5.00" transform="matrix(1.00, 0.00, 0.00, -1.00, 1245.9, 353.5)"></path><path d="M 1296.0 343.3 L 1316.4 353.5 L 1296.0 363.7 Z M 1296.0 343.3 " fill="#E0E4CB"></path><path d="M 713.4 388.9 C 732.9 369.3 732.9 337.7 713.4 318.1 C 693.8 298.6 662.2 298.6 642.7 318.1 C 623.1 337.7 623.1 369.3 642.7 388.9 C 662.2 408.4 693.8 408.4 713.4 388.9 Z M 713.4 388.9 " fill="#0072CF"></path><image xlink:href="../../C8AEE72E-70A3-4C9B-BA22-51AEE4FDAAFF/assets/FF07FE57AB571085446D29C043F45098.png" width="26.00" height="43.00" transform="matrix(1.00, 0.00, -0.00, -1.00, 665.0, 367.0)"></image><g><clipPath id="clip-79"><path d="M 624.9 303.5 L 731.1 303.5 L 731.1 403.5 L 624.9 403.5 Z M 624.9 303.5 "></path></clipPath><g clip-path="url(#clip-79)"><text xml:space="preserve" font-family="YanoneKaffeesatz-Regular" font-size="50.0" fill="#FEFFFE" transform="matrix(1.00, 0.00, -0.00, -1.00, 668.0, 336.0)">5</text></g></g><image xlink:href="../../C8AEE72E-70A3-4C9B-BA22-51AEE4FDAAFF/assets/97E19394EE026461A6CA9959733B4535.png" width="110.00" height="65.00" transform="matrix(1.00, 0.00, -0.00, -1.00, 442.0, 382.0)"></image><text xml:space="preserve" font-family="YanoneKaffeesatz-Bold" font-weight="bold" font-size="75.0" fill="#0073CF" transform="matrix(1.00, 0.00, -0.00, -1.00, 444.0, 325.0)">h</text><text xml:space="preserve" font-family="YanoneKaffeesatz-Bold" font-weight="bold" font-size="75.0" fill="#0073CF" transform="matrix(1.00, 0.00, -0.00, -1.00, 471.1, 325.0)">e</text><text xml:space="preserve" font-family="YanoneKaffeesatz-Bold" font-weight="bold" font-size="75.0" fill="#0073CF" transform="matrix(1.00, 0.00, -0.00, -1.00, 497.0, 325.0)">a</text><text xml:space="preserve" font-family="YanoneKaffeesatz-Bold" font-weight="bold" font-size="75.0" fill="#0073CF" transform="matrix(1.00, 0.00, -0.00, -1.00, 522.4, 325.0)">d</text><path d="M 0.0 0.0 L 50.1 0.0 L 52.6 0.0 " fill="none" stroke="#E0E4CB" stroke-width="5.00" transform="matrix(1.00, 0.00, 0.00, -1.00, 556.4, 353.5)"></path><path d="M 606.5 343.3 L 626.9 353.5 L 606.5 363.7 Z M 606.5 343.3 " fill="#E0E4CB"></path><path d="M 85.4 14.6 C 104.9 34.2 104.9 65.8 85.4 85.4 C 65.8 104.9 34.2 104.9 14.6 85.4 C -4.9 65.8 -4.9 34.2 14.6 14.6 C 34.2 -4.9 65.8 -4.9 85.4 14.6 Z M 85.4 14.6 " fill="none" stroke="#0073CF" stroke-width="5.00" transform="matrix(1.00, 0.00, 0.00, -1.00, 1489.9, 403.5)"></path><path d="M 0.0 0.0 L 50.1 0.0 L 52.6 0.0 " fill="none" stroke="#E0E4CB" stroke-width="5.00" transform="matrix(1.00, 0.00, 0.00, -1.00, 1418.6, 353.5)"></path><path d="M 1468.7 343.3 L 1489.1 353.5 L 1468.7 363.7 Z M 1468.7 343.3 " fill="#E0E4CB"></path><path d="M 0.0 0.0 L 50.1 0.0 L 52.6 0.0 " fill="none" stroke="#E0E4CB" stroke-width="5.00" transform="matrix(1.00, 0.00, 0.00, -1.00, 729.4, 353.5)"></path><path d="M 779.6 343.3 L 800.0 353.5 L 779.6 363.7 Z M 779.6 343.3 " fill="#E0E4CB"></path><path d="M 879.3 568.5 C 898.8 549.0 898.8 517.3 879.3 497.8 C 859.8 478.2 828.1 478.2 808.6 497.8 C 789.1 517.3 789.1 549.0 808.6 568.5 C 828.1 588.0 859.8 588.0 879.3 568.5 Z M 879.3 568.5 " fill="#B26AE1"></path><image xlink:href="../../C8AEE72E-70A3-4C9B-BA22-51AEE4FDAAFF/assets/E0AD3E3C00BF5C2A46AEBAD9E7212B61.png" width="27.00" height="39.00" transform="matrix(1.00, 0.00, -0.00, -1.00, 831.0, 548.0)"></image><g><clipPath id="clip-80"><path d="M 790.8 483.1 L 897.1 483.1 L 897.1 583.1 L 790.8 583.1 Z M 790.8 483.1 "></path></clipPath><g clip-path="url(#clip-80)"><text xml:space="preserve" font-family="YanoneKaffeesatz-Regular" font-size="50.0" fill="#FEFFFE" transform="matrix(1.00, 0.00, -0.00, -1.00, 834.0, 516.0)">4</text></g></g><path d="M 1051.3 568.5 C 1070.9 549.0 1070.9 517.3 1051.3 497.8 C 1031.8 478.2 1000.2 478.2 980.6 497.8 C 961.1 517.3 961.1 549.0 980.6 568.5 C 1000.2 588.0 1031.8 588.0 1051.3 568.5 Z M 1051.3 568.5 " fill="#DE6A10"></path><image xlink:href="../../1C928CFA-8327-44FD-9F7F-0EA05380E5F4/assets/E6E4A52E300C49671CBECEFDF370C1CC.png" width="55.00" height="43.00" transform="matrix(1.00, 0.00, -0.00, -1.00, 989.0, 546.0)"></image><g><clipPath id="clip-81"><path d="M 962.5 483.1 L 1069.5 483.1 L 1069.5 583.1 L 962.5 583.1 Z M 962.5 483.1 "></path></clipPath><g clip-path="url(#clip-81)"><text xml:space="preserve" font-family="YanoneKaffeesatz-Regular" font-size="50.0" fill="#FEFFFE" transform="matrix(1.00, 0.00, -0.00, -1.00, 991.0, 515.0)">3</text><text xml:space="preserve" font-family="YanoneKaffeesatz-Regular" font-size="50.0" fill="#FEFFFE" transform="matrix(1.00, 0.00, -0.00, -1.00, 1011.9, 515.0)">.</text><text xml:space="preserve" font-family="YanoneKaffeesatz-Regular" font-size="50.0" fill="#FEFFFE" transform="matrix(1.00, 0.00, -0.00, -1.00, 1021.0, 515.0)">5</text></g></g><path d="M 0.0 0.0 L 50.1 0.0 L 52.6 0.0 " fill="none" stroke="#E0E4CB" stroke-width="5.00" transform="matrix(1.00, 0.00, 0.00, -1.00, 894.7, 533.1)"></path><path d="M 944.8 522.9 L 965.2 533.1 L 944.8 543.3 Z M 944.8 522.9 " fill="#E0E4CB"></path><path d="M 0.0 0.0 L 50.1 0.0 L 52.6 0.0 " fill="none" stroke="#E0E4CB" stroke-width="5.00" transform="matrix(1.00, 0.00, 0.00, -1.00, 723.4, 533.1)"></path><path d="M 773.5 522.9 L 793.9 533.1 L 773.5 543.3 Z M 773.5 522.9 " fill="#E0E4CB"></path><path d="M 0.0 0.0 L 49.6 0.0 L 52.1 0.0 " fill="none" stroke="#E0E4CB" stroke-width="5.00" transform="matrix(0.00, 1.00, 1.00, 0.00, 1194.4, 232.2)"></path><path d="M 1204.6 281.8 L 1194.4 302.2 L 1184.2 281.8 Z M 1204.6 281.8 " fill="#E0E4CB"></path><path d="M 1058.5 215.3 C 1078.0 195.8 1078.0 164.1 1058.5 144.6 C 1038.9 125.1 1007.3 125.1 987.8 144.6 C 968.2 164.1 968.2 195.8 987.8 215.3 C 1007.3 234.8 1038.9 234.8 1058.5 215.3 Z M 1058.5 215.3 " fill="#B26AE1"></path><image xlink:href="../../C8AEE72E-70A3-4C9B-BA22-51AEE4FDAAFF/assets/FF07FE57AB571085446D29C043F45098.png" width="26.00" height="43.00" transform="matrix(1.00, 0.00, -0.00, -1.00, 1010.0, 193.0)"></image><g><clipPath id="clip-82"><path d="M 970.0 130.0 L 1076.2 130.0 L 1076.2 230.0 L 970.0 230.0 Z M 970.0 130.0 "></path></clipPath><g clip-path="url(#clip-82)"><text xml:space="preserve" font-family="YanoneKaffeesatz-Regular" font-size="50.0" fill="#FEFFFE" transform="matrix(1.00, 0.00, -0.00, -1.00, 1013.0, 162.0)">5</text></g></g><image xlink:href="../../57DCFE9C-EB16-4547-A1E6-07AF019490C2/assets/46C44AA3F06F18BBC129C0D53A5AAFD6.png" width="212.00" height="65.00" transform="matrix(1.00, 0.00, -0.00, -1.00, 687.0, 209.0)"></image><text xml:space="preserve" font-family="YanoneKaffeesatz-Bold" font-weight="bold" font-size="75.0" fill="#FC6900" transform="matrix(1.00, 0.00, -0.00, -1.00, 689.0, 152.0)">n</text><text xml:space="preserve" font-family="YanoneKaffeesatz-Bold" font-weight="bold" font-size="75.0" fill="#FC6900" transform="matrix(1.00, 0.00, -0.00, -1.00, 716.1, 152.0)">e</text><text xml:space="preserve" font-family="YanoneKaffeesatz-Bold" font-weight="bold" font-size="75.0" fill="#FC6900" transform="matrix(1.00, 0.00, -0.00, -1.00, 741.6, 152.0)">w</text><text xml:space="preserve" font-family="YanoneKaffeesatz-Bold" font-weight="bold" font-size="75.0" fill="#FC6900" transform="matrix(1.00, 0.00, -0.00, -1.00, 781.1, 152.0)"> </text><text xml:space="preserve" font-family="YanoneKaffeesatz-Bold" font-weight="bold" font-size="75.0" fill="#FC6900" transform="matrix(1.00, 0.00, -0.00, -1.00, 791.6, 152.0)">h</text><text xml:space="preserve" font-family="YanoneKaffeesatz-Bold" font-weight="bold" font-size="75.0" fill="#FC6900" transform="matrix(1.00, 0.00, -0.00, -1.00, 818.7, 152.0)">e</text><text xml:space="preserve" font-family="YanoneKaffeesatz-Bold" font-weight="bold" font-size="75.0" fill="#FC6900" transform="matrix(1.00, 0.00, -0.00, -1.00, 844.6, 152.0)">a</text><text xml:space="preserve" font-family="YanoneKaffeesatz-Bold" font-weight="bold" font-size="75.0" fill="#FC6900" transform="matrix(1.00, 0.00, -0.00, -1.00, 870.0, 152.0)">d</text><path d="M 0.0 0.0 L 50.1 0.0 L 52.6 0.0 " fill="none" stroke="#E0E4CB" stroke-width="5.00" transform="matrix(1.00, 0.00, 0.00, -1.00, 902.2, 180.0)"></path><path d="M 952.3 169.8 L 972.7 180.0 L 952.3 190.2 Z M 952.3 169.8 " fill="#E0E4CB"></path><path d="M 1230.5 215.8 C 1250.0 196.2 1250.0 164.6 1230.5 145.1 C 1211.0 125.5 1179.3 125.5 1159.8 145.1 C 1140.3 164.6 1140.3 196.2 1159.8 215.8 C 1179.3 235.3 1211.0 235.3 1230.5 215.8 Z M 1230.5 215.8 " fill="#B26AE1"></path><image xlink:href="../../C8AEE72E-70A3-4C9B-BA22-51AEE4FDAAFF/assets/E0AD3E3C00BF5C2A46AEBAD9E7212B61.png" width="27.00" height="39.00" transform="matrix(1.00, 0.00, -0.00, -1.00, 1182.0, 195.0)"></image><g><clipPath id="clip-83"><path d="M 1142.0 130.4 L 1248.2 130.4 L 1248.2 230.4 L 1142.0 230.4 Z M 1142.0 130.4 "></path></clipPath><g clip-path="url(#clip-83)"><text xml:space="preserve" font-family="YanoneKaffeesatz-Regular" font-size="50.0" fill="#FEFFFE" transform="matrix(1.00, 0.00, -0.00, -1.00, 1185.0, 163.0)">4</text></g></g><path d="M 0.0 0.0 L 50.1 0.0 L 52.6 0.0 " fill="none" stroke="#E0E4CB" stroke-width="5.00" transform="matrix(1.00, 0.00, 0.00, -1.00, 1073.2, 180.4)"></path><path d="M 1123.3 170.2 L 1143.7 180.4 L 1123.3 190.6 Z M 1123.3 170.2 " fill="#E0E4CB"></path><path d="M 0.0 0.0 L 50.1 0.0 L 52.6 0.0 " fill="none" stroke="#E0E4CB" stroke-width="5.00" transform="matrix(1.00, 0.00, 0.00, -1.00, 1074.6, 180.4)"></path><path d="M 1124.7 170.2 L 1145.1 180.4 L 1124.7 190.6 Z M 1124.7 170.2 " fill="#E0E4CB"></path><image xlink:href="../../1C928CFA-8327-44FD-9F7F-0EA05380E5F4/assets/B00BF30EAAA53B6C1308437AF168628D.png" width="91.00" height="84.00" transform="matrix(1.00, 0.00, -0.00, -1.00, 1760.0, 740.0)"></image><text xml:space="preserve" font-family="YanoneKaffeesatz-Bold" font-weight="bold" font-size="75.0" fill="#FEFFFE" transform="matrix(1.00, 0.00, -0.00, -1.00, 1763.0, 678.0)">O</text><text xml:space="preserve" font-family="YanoneKaffeesatz-Bold" font-weight="bold" font-size="75.0" fill="#FEFFFE" transform="matrix(1.00, 0.00, -0.00, -1.00, 1793.6, 678.0)">(</text><text xml:space="preserve" font-family="YanoneKaffeesatz-Bold" font-weight="bold" font-size="75.0" fill="#FEFFFE" transform="matrix(1.00, 0.00, -0.00, -1.00, 1815.3, 678.0)">i</text><text xml:space="preserve" font-family="YanoneKaffeesatz-Bold" font-weight="bold" font-size="75.0" fill="#FEFFFE" transform="matrix(1.00, 0.00, -0.00, -1.00, 1828.8, 678.0)">)</text><image xlink:href="../../1C928CFA-8327-44FD-9F7F-0EA05380E5F4/assets/B00BF30EAAA53B6C1308437AF168628D.png" width="91.00" height="84.00" transform="matrix(1.00, 0.00, -0.00, -1.00, 1760.0, 387.0)"></image><text xml:space="preserve" font-family="YanoneKaffeesatz-Bold" font-weight="bold" font-size="75.0" fill="#FEFFFE" transform="matrix(1.00, 0.00, -0.00, -1.00, 1763.0, 325.0)">O</text><text xml:space="preserve" font-family="YanoneKaffeesatz-Bold" font-weight="bold" font-size="75.0" fill="#FEFFFE" transform="matrix(1.00, 0.00, -0.00, -1.00, 1793.6, 325.0)">(</text><text xml:space="preserve" font-family="YanoneKaffeesatz-Bold" font-weight="bold" font-size="75.0" fill="#FEFFFE" transform="matrix(1.00, 0.00, -0.00, -1.00, 1815.3, 325.0)">i</text><text xml:space="preserve" font-family="YanoneKaffeesatz-Bold" font-weight="bold" font-size="75.0" fill="#FEFFFE" transform="matrix(1.00, 0.00, -0.00, -1.00, 1828.8, 325.0)">)</text></g></svg>