<?xml version="1.0" encoding="UTF-8" standalone="no"?><svg xmlns="http://www.w3.org/2000/svg" xmlns:xlink="http://www.w3.org/1999/xlink" clip-rule="evenodd" stroke-miterlimit="4.00" viewBox="0 0 1920 1080"><desc>SVG generated by Keynote</desc><defs></defs><g transform="matrix(1.00, 0.00, -0.00, -1.00, 0.0, 1080.0)"><g><clipPath id="clip-6936"><path d="M 0.0 1080.0 L 1920.0 1080.0 L 1920.0 0.0 L 0.0 0.0 Z M 0.0 1080.0 "></path></clipPath><g clip-path="url(#clip-6936)"><image xlink:href="../../C790834B-C1C8-4410-8563-9C912CD2A702/assets/4B0075050CC9D0F3DC006F0CDE78D676.jpeg" width="1365.00" height="767.00" transform="matrix(1.41, 0.00, -0.00, -1.41, 0.0, 1080.0)"></image></g></g><image xlink:href="../../46B3C890-7B8E-43C6-B8B7-A6B112FA3157/assets/25D505548195CCA48BA282BD87254C4F.png" width="382.00" height="150.00" transform="matrix(1.00, 0.00, -0.00, -1.00, 769.0, 1006.0)"></image><text xml:space="preserve" font-family="YanoneKaffeesatz-Bold" font-weight="bold" font-size="200.0" fill="#FC6900" transform="matrix(1.00, 0.00, -0.00, -1.00, 772.0, 865.0)">V</text><text xml:space="preserve" font-family="YanoneKaffeesatz-Bold" font-weight="bold" font-size="200.0" fill="#FC6900" transform="matrix(1.00, 0.00, -0.00, -1.00, 846.6, 865.0)">e</text><text xml:space="preserve" font-family="YanoneKaffeesatz-Bold" font-weight="bold" font-size="200.0" fill="#FC6900" transform="matrix(1.00, 0.00, -0.00, -1.00, 915.8, 865.0)">c</text><text xml:space="preserve" font-family="YanoneKaffeesatz-Bold" font-weight="bold" font-size="200.0" fill="#FC6900" transform="matrix(1.00, 0.00, -0.00, -1.00, 976.2, 865.0)">t</text><text xml:space="preserve" font-family="YanoneKaffeesatz-Bold" font-weight="bold" font-size="200.0" fill="#FC6900" transform="matrix(1.00, 0.00, -0.00, -1.00, 1029.0, 865.0)">o</text><text xml:space="preserve" font-family="YanoneKaffeesatz-Bold" font-weight="bold" font-size="200.0" fill="#FC6900" transform="matrix(1.00, 0.00, -0.00, -1.00, 1099.2, 865.0)">r</text><image xlink:href="372D5F008B23D4864143E6C152F01308.png" width="209.00" height="79.00" transform="matrix(1.00, 0.00, -0.00, -1.00, 688.0, 841.0)"></image><text xml:space="preserve" font-family="YanoneKaffeesatz-Bold" font-weight="bold" font-size="75.0" fill="#FEFFFE" transform="matrix(1.00, 0.00, -0.00, -1.00, 690.0, 784.0)">I</text><text xml:space="preserve" font-family="YanoneKaffeesatz-Bold" font-weight="bold" font-size="75.0" fill="#FEFFFE" transform="matrix(1.00, 0.00, -0.00, -1.00, 703.0, 784.0)">n</text><text xml:space="preserve" font-family="YanoneKaffeesatz-Bold" font-weight="bold" font-size="75.0" fill="#FEFFFE" transform="matrix(1.00, 0.00, -0.00, -1.00, 730.0, 784.0)">d</text><text xml:space="preserve" font-family="YanoneKaffeesatz-Bold" font-weight="bold" font-size="75.0" fill="#FEFFFE" transform="matrix(1.00, 0.00, -0.00, -1.00, 757.5, 784.0)">e</text><text xml:space="preserve" font-family="YanoneKaffeesatz-Bold" font-weight="bold" font-size="75.0" fill="#FEFFFE" transform="matrix(1.00, 0.00, -0.00, -1.00, 782.7, 784.0)">x</text><text xml:space="preserve" font-family="YanoneKaffeesatz-Bold" font-weight="bold" font-size="75.0" fill="#FEFFFE" transform="matrix(1.00, 0.00, -0.00, -1.00, 811.1, 784.0)">i</text><text xml:space="preserve" font-family="YanoneKaffeesatz-Bold" font-weight="bold" font-size="75.0" fill="#FEFFFE" transform="matrix(1.00, 0.00, -0.00, -1.00, 824.6, 784.0)">n</text><text xml:space="preserve" font-family="YanoneKaffeesatz-Bold" font-weight="bold" font-size="75.0" fill="#FEFFFE" transform="matrix(1.00, 0.00, -0.00, -1.00, 851.7, 784.0)">g</text><text xml:space="preserve" font-family="YanoneKaffeesatz-Bold" font-weight="bold" font-size="75.0" fill="#FEFFFE" transform="matrix(1.00, 0.00, -0.00, -1.00, 880.4, 784.0)">:</text><text xml:space="preserve" font-family="YanoneKaffeesatz-Bold" font-weight="bold" font-size="75.0" fill="#FEFFFE" transform="matrix(1.00, 0.00, -0.00, -1.00, 894.5, 784.0)"> </text><image xlink:href="7748673D8986C1910613A0337B04DDD9.png" width="328.00" height="79.00" transform="matrix(1.00, 0.00, -0.00, -1.00, 903.0, 841.0)"></image><text xml:space="preserve" font-family="YanoneKaffeesatz-Bold" font-weight="bold" font-size="75.0" fill="#FE2500" transform="matrix(1.00, 0.00, -0.00, -1.00, 905.0, 784.0)">b</text><text xml:space="preserve" font-family="YanoneKaffeesatz-Bold" font-weight="bold" font-size="75.0" fill="#FE2500" transform="matrix(1.00, 0.00, -0.00, -1.00, 932.1, 784.0)">i</text><text xml:space="preserve" font-family="YanoneKaffeesatz-Bold" font-weight="bold" font-size="75.0" fill="#FE2500" transform="matrix(1.00, 0.00, -0.00, -1.00, 945.6, 784.0)">t</text><text xml:space="preserve" font-family="YanoneKaffeesatz-Bold" font-weight="bold" font-size="75.0" fill="#FE2500" transform="matrix(1.00, 0.00, -0.00, -1.00, 962.9, 784.0)">-</text><text xml:space="preserve" font-family="YanoneKaffeesatz-Bold" font-weight="bold" font-size="75.0" fill="#FE2500" transform="matrix(1.00, 0.00, -0.00, -1.00, 982.7, 784.0)">p</text><text xml:space="preserve" font-family="YanoneKaffeesatz-Bold" font-weight="bold" font-size="75.0" fill="#FE2500" transform="matrix(1.00, 0.00, -0.00, -1.00, 1009.2, 784.0)">a</text><text xml:space="preserve" font-family="YanoneKaffeesatz-Bold" font-weight="bold" font-size="75.0" fill="#FE2500" transform="matrix(1.00, 0.00, -0.00, -1.00, 1034.6, 784.0)">r</text><text xml:space="preserve" font-family="YanoneKaffeesatz-Bold" font-weight="bold" font-size="75.0" fill="#FE2500" transform="matrix(1.00, 0.00, -0.00, -1.00, 1053.2, 784.0)">t</text><text xml:space="preserve" font-family="YanoneKaffeesatz-Bold" font-weight="bold" font-size="75.0" fill="#FE2500" transform="matrix(1.00, 0.00, -0.00, -1.00, 1074.5, 784.0)">i</text><text xml:space="preserve" font-family="YanoneKaffeesatz-Bold" font-weight="bold" font-size="75.0" fill="#FE2500" transform="matrix(1.00, 0.00, -0.00, -1.00, 1088.0, 784.0)">t</text><text xml:space="preserve" font-family="YanoneKaffeesatz-Bold" font-weight="bold" font-size="75.0" fill="#FE2500" transform="matrix(1.00, 0.00, -0.00, -1.00, 1109.3, 784.0)">i</text><text xml:space="preserve" font-family="YanoneKaffeesatz-Bold" font-weight="bold" font-size="75.0" fill="#FE2500" transform="matrix(1.00, 0.00, -0.00, -1.00, 1122.8, 784.0)">o</text><text xml:space="preserve" font-family="YanoneKaffeesatz-Bold" font-weight="bold" font-size="75.0" fill="#FE2500" transform="matrix(1.00, 0.00, -0.00, -1.00, 1149.2, 784.0)">n</text><text xml:space="preserve" font-family="YanoneKaffeesatz-Bold" font-weight="bold" font-size="75.0" fill="#FE2500" transform="matrix(1.00, 0.00, -0.00, -1.00, 1176.2, 784.0)">e</text><text xml:space="preserve" font-family="YanoneKaffeesatz-Bold" font-weight="bold" font-size="75.0" fill="#FE2500" transform="matrix(1.00, 0.00, -0.00, -1.00, 1202.2, 784.0)">d</text><image xlink:href="6171DCD5E23C9615BAE8120FBA2AD33E.png" width="32.00" height="47.00" transform="matrix(1.00, 0.00, -0.00, -1.00, 421.0, 675.0)"></image><text xml:space="preserve" font-family="Hack-Regular" font-size="50.0" fill="#E0E4CB" transform="matrix(1.00, 0.00, -0.00, -1.00, 422.0, 636.0)">0</text><image xlink:href="E2B1F3ECB80A17349B680504F3E6439D.png" width="145.00" height="47.00" transform="matrix(1.00, 0.00, -0.00, -1.00, 459.0, 675.0)"></image><text xml:space="preserve" font-family="Hack-Regular" font-size="50.0" fill="#FEFFFE" transform="matrix(1.00, 0.00, -0.00, -1.00, 452.1, 636.0)">:</text><text xml:space="preserve" font-family="Hack-Regular" font-size="50.0" fill="#FEFFFE" transform="matrix(1.00, 0.00, -0.00, -1.00, 482.2, 636.0)">0</text><text xml:space="preserve" font-family="Hack-Regular" font-size="50.0" fill="#FEFFFE" transform="matrix(1.00, 0.00, -0.00, -1.00, 512.3, 636.0)">0</text><text xml:space="preserve" font-family="Hack-Regular" font-size="50.0" fill="#FEFFFE" transform="matrix(1.00, 0.00, -0.00, -1.00, 542.4, 636.0)">0</text><text xml:space="preserve" font-family="Hack-Regular" font-size="50.0" fill="#FEFFFE" transform="matrix(1.00, 0.00, -0.00, -1.00, 572.5, 636.0)">0</text><text xml:space="preserve" font-family="Hack-Regular" font-size="50.0" fill="#FEFFFE" transform="matrix(1.00, 0.00, -0.00, -1.00, 602.6, 636.0)"> </text><image xlink:href="4D6CDE9AAAD067FD2AA113F972D6DF69.png" width="29.00" height="45.00" transform="matrix(1.00, 0.00, -0.00, -1.00, 424.0, 616.0)"></image><text xml:space="preserve" font-family="Hack-Regular" font-size="50.0" fill="#E0E4CB" transform="matrix(1.00, 0.00, -0.00, -1.00, 422.0, 578.0)">1</text><image xlink:href="D5240529F0BB7C30BADBBBECCC42CF66.png" width="145.00" height="47.00" transform="matrix(1.00, 0.00, -0.00, -1.00, 459.0, 617.0)"></image><text xml:space="preserve" font-family="Hack-Regular" font-size="50.0" fill="#FEFFFE" transform="matrix(1.00, 0.00, -0.00, -1.00, 452.1, 578.0)">:</text><text xml:space="preserve" font-family="Hack-Regular" font-size="50.0" fill="#FEFFFE" transform="matrix(1.00, 0.00, -0.00, -1.00, 482.2, 578.0)">0</text><text xml:space="preserve" font-family="Hack-Regular" font-size="50.0" fill="#FEFFFE" transform="matrix(1.00, 0.00, -0.00, -1.00, 512.3, 578.0)">0</text><text xml:space="preserve" font-family="Hack-Regular" font-size="50.0" fill="#FEFFFE" transform="matrix(1.00, 0.00, -0.00, -1.00, 542.4, 578.0)">0</text><text xml:space="preserve" font-family="Hack-Regular" font-size="50.0" fill="#FEFFFE" transform="matrix(1.00, 0.00, -0.00, -1.00, 572.5, 578.0)">1</text><text xml:space="preserve" font-family="Hack-Regular" font-size="50.0" fill="#FEFFFE" transform="matrix(1.00, 0.00, -0.00, -1.00, 602.6, 578.0)"> </text><image xlink:href="77730E277A93BB44E33192D0D357DA99.png" width="31.00" height="46.00" transform="matrix(1.00, 0.00, -0.00, -1.00, 421.0, 559.0)"></image><text xml:space="preserve" font-family="Hack-Regular" font-size="50.0" fill="#E0E4CB" transform="matrix(1.00, 0.00, -0.00, -1.00, 422.0, 520.0)">2</text><image xlink:href="412211DD9952CB9E3BEB681072ECB141.png" width="145.00" height="47.00" transform="matrix(1.00, 0.00, -0.00, -1.00, 459.0, 559.0)"></image><text xml:space="preserve" font-family="Hack-Regular" font-size="50.0" fill="#FEFFFE" transform="matrix(1.00, 0.00, -0.00, -1.00, 452.1, 520.0)">:</text><text xml:space="preserve" font-family="Hack-Regular" font-size="50.0" fill="#FEFFFE" transform="matrix(1.00, 0.00, -0.00, -1.00, 482.2, 520.0)">0</text><text xml:space="preserve" font-family="Hack-Regular" font-size="50.0" fill="#FEFFFE" transform="matrix(1.00, 0.00, -0.00, -1.00, 512.3, 520.0)">0</text><text xml:space="preserve" font-family="Hack-Regular" font-size="50.0" fill="#FEFFFE" transform="matrix(1.00, 0.00, -0.00, -1.00, 542.4, 520.0)">1</text><text xml:space="preserve" font-family="Hack-Regular" font-size="50.0" fill="#FEFFFE" transform="matrix(1.00, 0.00, -0.00, -1.00, 572.5, 520.0)">0</text><text xml:space="preserve" font-family="Hack-Regular" font-size="50.0" fill="#FEFFFE" transform="matrix(1.00, 0.00, -0.00, -1.00, 602.6, 520.0)"> </text><image xlink:href="C4F92D59FCA5060875E5035AF905B83E.png" width="32.00" height="47.00" transform="matrix(1.00, 0.00, -0.00, -1.00, 421.0, 501.0)"></image><text xml:space="preserve" font-family="Hack-Regular" font-size="50.0" fill="#E0E4CB" transform="matrix(1.00, 0.00, -0.00, -1.00, 422.0, 462.0)">3</text><image xlink:href="38C18DDBC8C03AB06F1941B794F234AE.png" width="145.00" height="47.00" transform="matrix(1.00, 0.00, -0.00, -1.00, 459.0, 501.0)"></image><text xml:space="preserve" font-family="Hack-Regular" font-size="50.0" fill="#FEFFFE" transform="matrix(1.00, 0.00, -0.00, -1.00, 452.1, 462.0)">:</text><text xml:space="preserve" font-family="Hack-Regular" font-size="50.0" fill="#FEFFFE" transform="matrix(1.00, 0.00, -0.00, -1.00, 482.2, 462.0)">0</text><text xml:space="preserve" font-family="Hack-Regular" font-size="50.0" fill="#FEFFFE" transform="matrix(1.00, 0.00, -0.00, -1.00, 512.3, 462.0)">0</text><text xml:space="preserve" font-family="Hack-Regular" font-size="50.0" fill="#FEFFFE" transform="matrix(1.00, 0.00, -0.00, -1.00, 542.4, 462.0)">1</text><text xml:space="preserve" font-family="Hack-Regular" font-size="50.0" fill="#FEFFFE" transform="matrix(1.00, 0.00, -0.00, -1.00, 572.5, 462.0)">1</text><text xml:space="preserve" font-family="Hack-Regular" font-size="50.0" fill="#FEFFFE" transform="matrix(1.00, 0.00, -0.00, -1.00, 602.6, 462.0)"> </text><image xlink:href="63E696E08A5CEB3CA8141EDB5D6FBB64.png" width="34.00" height="45.00" transform="matrix(1.00, 0.00, -0.00, -1.00, 420.0, 442.0)"></image><text xml:space="preserve" font-family="Hack-Regular" font-size="50.0" fill="#E0E4CB" transform="matrix(1.00, 0.00, -0.00, -1.00, 422.0, 404.0)">4</text><image xlink:href="07D7DC742577513D31F815A40D70EA84.png" width="145.00" height="47.00" transform="matrix(1.00, 0.00, -0.00, -1.00, 459.0, 443.0)"></image><text xml:space="preserve" font-family="Hack-Regular" font-size="50.0" fill="#FEFFFE" transform="matrix(1.00, 0.00, -0.00, -1.00, 452.1, 404.0)">:</text><text xml:space="preserve" font-family="Hack-Regular" font-size="50.0" fill="#FEFFFE" transform="matrix(1.00, 0.00, -0.00, -1.00, 482.2, 404.0)">0</text><text xml:space="preserve" font-family="Hack-Regular" font-size="50.0" fill="#FEFFFE" transform="matrix(1.00, 0.00, -0.00, -1.00, 512.3, 404.0)">1</text><text xml:space="preserve" font-family="Hack-Regular" font-size="50.0" fill="#FEFFFE" transform="matrix(1.00, 0.00, -0.00, -1.00, 542.4, 404.0)">0</text><text xml:space="preserve" font-family="Hack-Regular" font-size="50.0" fill="#FEFFFE" transform="matrix(1.00, 0.00, -0.00, -1.00, 572.5, 404.0)">0</text><text xml:space="preserve" font-family="Hack-Regular" font-size="50.0" fill="#FEFFFE" transform="matrix(1.00, 0.00, -0.00, -1.00, 602.6, 404.0)"> </text><image xlink:href="87B5C72BFBA68B6F03C495CE0C913D22.png" width="32.00" height="46.00" transform="matrix(1.00, 0.00, -0.00, -1.00, 421.0, 384.0)"></image><text xml:space="preserve" font-family="Hack-Regular" font-size="50.0" fill="#E0E4CB" transform="matrix(1.00, 0.00, -0.00, -1.00, 422.0, 346.0)">5</text><image xlink:href="99A5C5CCBCCFC60A66CE5B8F4817BFEE.png" width="145.00" height="47.00" transform="matrix(1.00, 0.00, -0.00, -1.00, 459.0, 385.0)"></image><text xml:space="preserve" font-family="Hack-Regular" font-size="50.0" fill="#FEFFFE" transform="matrix(1.00, 0.00, -0.00, -1.00, 452.1, 346.0)">:</text><text xml:space="preserve" font-family="Hack-Regular" font-size="50.0" fill="#FEFFFE" transform="matrix(1.00, 0.00, -0.00, -1.00, 482.2, 346.0)">0</text><text xml:space="preserve" font-family="Hack-Regular" font-size="50.0" fill="#FEFFFE" transform="matrix(1.00, 0.00, -0.00, -1.00, 512.3, 346.0)">1</text><text xml:space="preserve" font-family="Hack-Regular" font-size="50.0" fill="#FEFFFE" transform="matrix(1.00, 0.00, -0.00, -1.00, 542.4, 346.0)">0</text><text xml:space="preserve" font-family="Hack-Regular" font-size="50.0" fill="#FEFFFE" transform="matrix(1.00, 0.00, -0.00, -1.00, 572.5, 346.0)">1</text><text xml:space="preserve" font-family="Hack-Regular" font-size="50.0" fill="#FEFFFE" transform="matrix(1.00, 0.00, -0.00, -1.00, 602.6, 346.0)"> </text><image xlink:href="58EFC8DEF93E8630FFAE788F39E82BDE.png" width="32.00" height="47.00" transform="matrix(1.00, 0.00, -0.00, -1.00, 421.0, 327.0)"></image><text xml:space="preserve" font-family="Hack-Regular" font-size="50.0" fill="#E0E4CB" transform="matrix(1.00, 0.00, -0.00, -1.00, 422.0, 288.0)">6</text><image xlink:href="328B41A8E0287013E1BF7601D3FF6BC5.png" width="145.00" height="47.00" transform="matrix(1.00, 0.00, -0.00, -1.00, 459.0, 327.0)"></image><text xml:space="preserve" font-family="Hack-Regular" font-size="50.0" fill="#FEFFFE" transform="matrix(1.00, 0.00, -0.00, -1.00, 452.1, 288.0)">:</text><text xml:space="preserve" font-family="Hack-Regular" font-size="50.0" fill="#FEFFFE" transform="matrix(1.00, 0.00, -0.00, -1.00, 482.2, 288.0)">0</text><text xml:space="preserve" font-family="Hack-Regular" font-size="50.0" fill="#FEFFFE" transform="matrix(1.00, 0.00, -0.00, -1.00, 512.3, 288.0)">1</text><text xml:space="preserve" font-family="Hack-Regular" font-size="50.0" fill="#FEFFFE" transform="matrix(1.00, 0.00, -0.00, -1.00, 542.4, 288.0)">1</text><text xml:space="preserve" font-family="Hack-Regular" font-size="50.0" fill="#FEFFFE" transform="matrix(1.00, 0.00, -0.00, -1.00, 572.5, 288.0)">0</text><text xml:space="preserve" font-family="Hack-Regular" font-size="50.0" fill="#FEFFFE" transform="matrix(1.00, 0.00, -0.00, -1.00, 602.6, 288.0)"> </text><image xlink:href="D833D7CD1D399B3FAE04D3FD8F162977.png" width="32.00" height="45.00" transform="matrix(1.00, 0.00, -0.00, -1.00, 421.0, 268.0)"></image><text xml:space="preserve" font-family="Hack-Regular" font-size="50.0" fill="#E0E4CB" transform="matrix(1.00, 0.00, -0.00, -1.00, 422.0, 230.0)">7</text><image xlink:href="3D9981897A0CAFF712CCC94E4ACFBA75.png" width="145.00" height="47.00" transform="matrix(1.00, 0.00, -0.00, -1.00, 459.0, 269.0)"></image><text xml:space="preserve" font-family="Hack-Regular" font-size="50.0" fill="#FEFFFE" transform="matrix(1.00, 0.00, -0.00, -1.00, 452.1, 230.0)">:</text><text xml:space="preserve" font-family="Hack-Regular" font-size="50.0" fill="#FEFFFE" transform="matrix(1.00, 0.00, -0.00, -1.00, 482.2, 230.0)">0</text><text xml:space="preserve" font-family="Hack-Regular" font-size="50.0" fill="#FEFFFE" transform="matrix(1.00, 0.00, -0.00, -1.00, 512.3, 230.0)">1</text><text xml:space="preserve" font-family="Hack-Regular" font-size="50.0" fill="#FEFFFE" transform="matrix(1.00, 0.00, -0.00, -1.00, 542.4, 230.0)">1</text><text xml:space="preserve" font-family="Hack-Regular" font-size="50.0" fill="#FEFFFE" transform="matrix(1.00, 0.00, -0.00, -1.00, 572.5, 230.0)">1</text><text xml:space="preserve" font-family="Hack-Regular" font-size="50.0" fill="#FEFFFE" transform="matrix(1.00, 0.00, -0.00, -1.00, 602.6, 230.0)"> </text><image xlink:href="F69E56B6186CC83E7A21E9EBF07F0B50.png" width="32.00" height="47.00" transform="matrix(1.00, 0.00, -0.00, -1.00, 421.0, 211.0)"></image><text xml:space="preserve" font-family="Hack-Regular" font-size="50.0" fill="#E0E4CB" transform="matrix(1.00, 0.00, -0.00, -1.00, 422.0, 172.0)">8</text><image xlink:href="14D1C417DFC25838804752CE1F1FB57D.png" width="145.00" height="47.00" transform="matrix(1.00, 0.00, -0.00, -1.00, 459.0, 211.0)"></image><text xml:space="preserve" font-family="Hack-Regular" font-size="50.0" fill="#FEFFFE" transform="matrix(1.00, 0.00, -0.00, -1.00, 452.1, 172.0)">:</text><text xml:space="preserve" font-family="Hack-Regular" font-size="50.0" fill="#FEFFFE" transform="matrix(1.00, 0.00, -0.00, -1.00, 482.2, 172.0)">1</text><text xml:space="preserve" font-family="Hack-Regular" font-size="50.0" fill="#FEFFFE" transform="matrix(1.00, 0.00, -0.00, -1.00, 512.3, 172.0)">0</text><text xml:space="preserve" font-family="Hack-Regular" font-size="50.0" fill="#FEFFFE" transform="matrix(1.00, 0.00, -0.00, -1.00, 542.4, 172.0)">0</text><text xml:space="preserve" font-family="Hack-Regular" font-size="50.0" fill="#FEFFFE" transform="matrix(1.00, 0.00, -0.00, -1.00, 572.5, 172.0)">0</text><text xml:space="preserve" font-family="Hack-Regular" font-size="50.0" fill="#FEFFFE" transform="matrix(1.00, 0.00, -0.00, -1.00, 602.6, 172.0)"> </text><image xlink:href="2AD6E371EE4903E26DCD29DE921D5FA3.png" width="32.00" height="47.00" transform="matrix(1.00, 0.00, -0.00, -1.00, 421.0, 153.0)"></image><text xml:space="preserve" font-family="Hack-Regular" font-size="50.0" fill="#E0E4CB" transform="matrix(1.00, 0.00, -0.00, -1.00, 422.0, 114.0)">9</text><image xlink:href="B0F58B3F964AA2EAAA7BF3FBFF91A2B6.png" width="145.00" height="47.00" transform="matrix(1.00, 0.00, -0.00, -1.00, 459.0, 153.0)"></image><text xml:space="preserve" font-family="Hack-Regular" font-size="50.0" fill="#FEFFFE" transform="matrix(1.00, 0.00, -0.00, -1.00, 452.1, 114.0)">:</text><text xml:space="preserve" font-family="Hack-Regular" font-size="50.0" fill="#FEFFFE" transform="matrix(1.00, 0.00, -0.00, -1.00, 482.2, 114.0)">1</text><text xml:space="preserve" font-family="Hack-Regular" font-size="50.0" fill="#FEFFFE" transform="matrix(1.00, 0.00, -0.00, -1.00, 512.3, 114.0)">0</text><text xml:space="preserve" font-family="Hack-Regular" font-size="50.0" fill="#FEFFFE" transform="matrix(1.00, 0.00, -0.00, -1.00, 542.4, 114.0)">0</text><text xml:space="preserve" font-family="Hack-Regular" font-size="50.0" fill="#FEFFFE" transform="matrix(1.00, 0.00, -0.00, -1.00, 572.5, 114.0)">1</text><path d="M 727.1 702.3 L 1497.1 702.3 L 1497.1 82.3 L 727.1 82.3 Z M 727.1 702.3 " fill="#E0E4CB"></path><image xlink:href="../../A7F227A4-BFBE-4702-9943-2545862ACCFC/assets/C47D358043C964A126BDB89DC8822B23.png" width="640.00" height="474.00" transform="matrix(1.27, 0.00, -0.00, -1.27, 707.0, 692.0)"></image><image xlink:href="194E1CCEC24F8D5FEB23128D26BC3373.png" width="27.00" height="39.00" transform="matrix(1.00, 0.00, -0.00, -1.00, 1078.0, 505.0)"></image><text xml:space="preserve" font-family="YanoneKaffeesatz-Regular" font-size="50.0" fill="#FEFFFE" transform="matrix(1.00, 0.00, -0.00, -1.00, 1081.0, 474.0)">0</text><image xlink:href="../../77632E8C-8A46-4700-8E91-C78F99B7AFDB/assets/194E1CCEC24F8D5FEB23128D26BC3373.png" width="27.00" height="39.00" transform="matrix(1.00, 0.00, -0.00, -1.00, 955.0, 374.0)"></image><text xml:space="preserve" font-family="YanoneKaffeesatz-Regular" font-size="50.0" fill="#FEFFFE" transform="matrix(1.00, 0.00, -0.00, -1.00, 958.0, 343.0)">0</text><image xlink:href="../../77632E8C-8A46-4700-8E91-C78F99B7AFDB/assets/194E1CCEC24F8D5FEB23128D26BC3373.png" width="27.00" height="39.00" transform="matrix(1.00, 0.00, -0.00, -1.00, 868.0, 222.0)"></image><text xml:space="preserve" font-family="YanoneKaffeesatz-Regular" font-size="50.0" fill="#FEFFFE" transform="matrix(1.00, 0.00, -0.00, -1.00, 871.0, 191.0)">0</text><image xlink:href="../../C8AEE72E-70A3-4C9B-BA22-51AEE4FDAAFF/assets/71356A7CE7F435F08C902D1691E19ED5.png" width="27.00" height="38.00" transform="matrix(1.00, 0.00, -0.00, -1.00, 1250.0, 505.0)"></image><text xml:space="preserve" font-family="YanoneKaffeesatz-Regular" font-size="50.0" fill="#FEFFFE" transform="matrix(1.00, 0.00, -0.00, -1.00, 1253.0, 474.0)">1</text><image xlink:href="../../77632E8C-8A46-4700-8E91-C78F99B7AFDB/assets/194E1CCEC24F8D5FEB23128D26BC3373.png" width="27.00" height="39.00" transform="matrix(1.00, 0.00, -0.00, -1.00, 1099.0, 222.0)"></image><text xml:space="preserve" font-family="YanoneKaffeesatz-Regular" font-size="50.0" fill="#FEFFFE" transform="matrix(1.00, 0.00, -0.00, -1.00, 1102.0, 191.0)">0</text><image xlink:href="../../C8AEE72E-70A3-4C9B-BA22-51AEE4FDAAFF/assets/71356A7CE7F435F08C902D1691E19ED5.png" width="27.00" height="38.00" transform="matrix(1.00, 0.00, -0.00, -1.00, 1131.0, 374.0)"></image><text xml:space="preserve" font-family="YanoneKaffeesatz-Regular" font-size="50.0" fill="#FEFFFE" transform="matrix(1.00, 0.00, -0.00, -1.00, 1134.0, 343.0)">1</text><image xlink:href="../../C8AEE72E-70A3-4C9B-BA22-51AEE4FDAAFF/assets/71356A7CE7F435F08C902D1691E19ED5.png" width="27.00" height="38.00" transform="matrix(1.00, 0.00, -0.00, -1.00, 1221.0, 222.0)"></image><text xml:space="preserve" font-family="YanoneKaffeesatz-Regular" font-size="50.0" fill="#FEFFFE" transform="matrix(1.00, 0.00, -0.00, -1.00, 1224.0, 191.0)">1</text><image xlink:href="../../77632E8C-8A46-4700-8E91-C78F99B7AFDB/assets/194E1CCEC24F8D5FEB23128D26BC3373.png" width="27.00" height="39.00" transform="matrix(1.00, 0.00, -0.00, -1.00, 1269.0, 337.0)"></image><text xml:space="preserve" font-family="YanoneKaffeesatz-Regular" font-size="50.0" fill="#FEFFFE" transform="matrix(1.00, 0.00, -0.00, -1.00, 1272.0, 306.0)">0</text><image xlink:href="../../77632E8C-8A46-4700-8E91-C78F99B7AFDB/assets/194E1CCEC24F8D5FEB23128D26BC3373.png" width="27.00" height="39.00" transform="matrix(1.00, 0.00, -0.00, -1.00, 1291.0, 213.0)"></image><text xml:space="preserve" font-family="YanoneKaffeesatz-Regular" font-size="50.0" fill="#FEFFFE" transform="matrix(1.00, 0.00, -0.00, -1.00, 1294.0, 182.0)">0</text></g></svg>