<?xml version="1.0" encoding="UTF-8" standalone="no"?><svg xmlns="http://www.w3.org/2000/svg" xmlns:xlink="http://www.w3.org/1999/xlink" clip-rule="evenodd" stroke-miterlimit="4.00" viewBox="0 0 1920 1080"><desc>SVG generated by Keynote</desc><defs></defs><g transform="matrix(1.00, 0.00, -0.00, -1.00, 0.0, 1080.0)"><g><clipPath id="clip-8505"><path d="M 0.0 1080.0 L 1920.0 1080.0 L 1920.0 0.0 L 0.0 0.0 Z M 0.0 1080.0 "></path></clipPath><g clip-path="url(#clip-8505)"><image xlink:href="../../C790834B-C1C8-4410-8563-9C912CD2A702/assets/4B0075050CC9D0F3DC006F0CDE78D676.jpeg" width="1365.00" height="767.00" transform="matrix(1.41, 0.00, -0.00, -1.41, 0.0, 1080.0)"></image></g></g><image xlink:href="../../2E331B7C-7617-4512-A881-368BC7309C1B/assets/5A8D98ADE81213C80040246DBC1A4E6C.png" width="514.00" height="195.00" transform="matrix(1.00, 0.00, -0.00, -1.00, 704.0, 1013.0)"></image><text xml:space="preserve" font-family="YanoneKaffeesatz-Bold" font-weight="bold" font-size="200.0" fill="#FC6900" transform="matrix(1.00, 0.00, -0.00, -1.00, 702.0, 865.0)">H</text><text xml:space="preserve" font-family="YanoneKaffeesatz-Bold" font-weight="bold" font-size="200.0" fill="#FC6900" transform="matrix(1.00, 0.00, -0.00, -1.00, 778.4, 865.0)">a</text><text xml:space="preserve" font-family="YanoneKaffeesatz-Bold" font-weight="bold" font-size="200.0" fill="#FC6900" transform="matrix(1.00, 0.00, -0.00, -1.00, 846.0, 865.0)">s</text><text xml:space="preserve" font-family="YanoneKaffeesatz-Bold" font-weight="bold" font-size="200.0" fill="#FC6900" transform="matrix(1.00, 0.00, -0.00, -1.00, 909.6, 865.0)">h</text><text xml:space="preserve" font-family="YanoneKaffeesatz-Bold" font-weight="bold" font-size="200.0" fill="#FC6900" transform="matrix(1.00, 0.00, -0.00, -1.00, 981.8, 865.0)">M</text><text xml:space="preserve" font-family="YanoneKaffeesatz-Bold" font-weight="bold" font-size="200.0" fill="#FC6900" transform="matrix(1.00, 0.00, -0.00, -1.00, 1077.2, 865.0)">a</text><text xml:space="preserve" font-family="YanoneKaffeesatz-Bold" font-weight="bold" font-size="200.0" fill="#FC6900" transform="matrix(1.00, 0.00, -0.00, -1.00, 1144.8, 865.0)">p</text><image xlink:href="../../F395103D-3F0C-4F94-ADB1-C1426D035A24/assets/F57D379158CBAD28A8D374CB1C2D0C01.png" width="960.00" height="191.00" transform="matrix(1.56, 0.00, -0.00, -1.57, 210.0, 690.0)"></image><image xlink:href="../../F395103D-3F0C-4F94-ADB1-C1426D035A24/assets/A47A486BEA26CDE337AE72327AD8FEC4.png" width="1581.00" height="57.00" transform="matrix(1.00, 0.00, -0.00, -1.00, 170.0, 121.0)"></image><text xml:space="preserve" font-family="YanoneKaffeesatz-Regular" font-size="50.0" fill="#FEFFFE" transform="matrix(1.00, 0.00, -0.00, -1.00, 172.0, 81.0)">h</text><text xml:space="preserve" font-family="YanoneKaffeesatz-Regular" font-size="50.0" fill="#FEFFFE" transform="matrix(1.00, 0.00, -0.00, -1.00, 190.7, 81.0)">t</text><text xml:space="preserve" font-family="YanoneKaffeesatz-Regular" font-size="50.0" fill="#FEFFFE" transform="matrix(1.00, 0.00, -0.00, -1.00, 202.5, 81.0)">t</text><text xml:space="preserve" font-family="YanoneKaffeesatz-Regular" font-size="50.0" fill="#FEFFFE" transform="matrix(1.00, 0.00, -0.00, -1.00, 217.1, 81.0)">p</text><text xml:space="preserve" font-family="YanoneKaffeesatz-Regular" font-size="50.0" fill="#FEFFFE" transform="matrix(1.00, 0.00, -0.00, -1.00, 236.2, 81.0)">s</text><text xml:space="preserve" font-family="YanoneKaffeesatz-Regular" font-size="50.0" fill="#FEFFFE" transform="matrix(1.00, 0.00, -0.00, -1.00, 253.4, 81.0)">:</text><text xml:space="preserve" font-family="YanoneKaffeesatz-Regular" font-size="50.0" fill="#FEFFFE" transform="matrix(1.00, 0.00, -0.00, -1.00, 263.0, 81.0)">/</text><text xml:space="preserve" font-family="YanoneKaffeesatz-Regular" font-size="50.0" fill="#FEFFFE" transform="matrix(1.00, 0.00, -0.00, -1.00, 273.1, 81.0)">/</text><text xml:space="preserve" font-family="YanoneKaffeesatz-Regular" font-size="50.0" fill="#FEFFFE" transform="matrix(1.00, 0.00, -0.00, -1.00, 287.0, 81.0)">g</text><text xml:space="preserve" font-family="YanoneKaffeesatz-Regular" font-size="50.0" fill="#FEFFFE" transform="matrix(1.00, 0.00, -0.00, -1.00, 306.6, 81.0)">i</text><text xml:space="preserve" font-family="YanoneKaffeesatz-Regular" font-size="50.0" fill="#FEFFFE" transform="matrix(1.00, 0.00, -0.00, -1.00, 315.4, 81.0)">t</text><text xml:space="preserve" font-family="YanoneKaffeesatz-Regular" font-size="50.0" fill="#FEFFFE" transform="matrix(1.00, 0.00, -0.00, -1.00, 330.0, 81.0)">h</text><text xml:space="preserve" font-family="YanoneKaffeesatz-Regular" font-size="50.0" fill="#FEFFFE" transform="matrix(1.00, 0.00, -0.00, -1.00, 349.0, 81.0)">u</text><text xml:space="preserve" font-family="YanoneKaffeesatz-Regular" font-size="50.0" fill="#FEFFFE" transform="matrix(1.00, 0.00, -0.00, -1.00, 368.5, 81.0)">b</text><text xml:space="preserve" font-family="YanoneKaffeesatz-Regular" font-size="50.0" fill="#FEFFFE" transform="matrix(1.00, 0.00, -0.00, -1.00, 386.6, 81.0)">.</text><text xml:space="preserve" font-family="YanoneKaffeesatz-Regular" font-size="50.0" fill="#FEFFFE" transform="matrix(1.00, 0.00, -0.00, -1.00, 395.4, 81.0)">c</text><text xml:space="preserve" font-family="YanoneKaffeesatz-Regular" font-size="50.0" fill="#FEFFFE" transform="matrix(1.00, 0.00, -0.00, -1.00, 410.5, 81.0)">o</text><text xml:space="preserve" font-family="YanoneKaffeesatz-Regular" font-size="50.0" fill="#FEFFFE" transform="matrix(1.00, 0.00, -0.00, -1.00, 428.9, 81.0)">m</text><text xml:space="preserve" font-family="YanoneKaffeesatz-Regular" font-size="50.0" fill="#FEFFFE" transform="matrix(1.00, 0.00, -0.00, -1.00, 458.1, 81.0)">/</text><text xml:space="preserve" font-family="YanoneKaffeesatz-Regular" font-size="50.0" fill="#FEFFFE" transform="matrix(1.00, 0.00, -0.00, -1.00, 471.4, 81.0)">c</text><text xml:space="preserve" font-family="YanoneKaffeesatz-Regular" font-size="50.0" fill="#FEFFFE" transform="matrix(1.00, 0.00, -0.00, -1.00, 487.0, 81.0)">l</text><text xml:space="preserve" font-family="YanoneKaffeesatz-Regular" font-size="50.0" fill="#FEFFFE" transform="matrix(1.00, 0.00, -0.00, -1.00, 495.6, 81.0)">o</text><text xml:space="preserve" font-family="YanoneKaffeesatz-Regular" font-size="50.0" fill="#FEFFFE" transform="matrix(1.00, 0.00, -0.00, -1.00, 514.0, 81.0)">j</text><text xml:space="preserve" font-family="YanoneKaffeesatz-Regular" font-size="50.0" fill="#FEFFFE" transform="matrix(1.00, 0.00, -0.00, -1.00, 523.2, 81.0)">u</text><text xml:space="preserve" font-family="YanoneKaffeesatz-Regular" font-size="50.0" fill="#FEFFFE" transform="matrix(1.00, 0.00, -0.00, -1.00, 542.8, 81.0)">r</text><text xml:space="preserve" font-family="YanoneKaffeesatz-Regular" font-size="50.0" fill="#FEFFFE" transform="matrix(1.00, 0.00, -0.00, -1.00, 554.8, 81.0)">e</text><text xml:space="preserve" font-family="YanoneKaffeesatz-Regular" font-size="50.0" fill="#FEFFFE" transform="matrix(1.00, 0.00, -0.00, -1.00, 573.1, 81.0)">/</text><text xml:space="preserve" font-family="YanoneKaffeesatz-Regular" font-size="50.0" fill="#FEFFFE" transform="matrix(1.00, 0.00, -0.00, -1.00, 586.4, 81.0)">c</text><text xml:space="preserve" font-family="YanoneKaffeesatz-Regular" font-size="50.0" fill="#FEFFFE" transform="matrix(1.00, 0.00, -0.00, -1.00, 602.0, 81.0)">l</text><text xml:space="preserve" font-family="YanoneKaffeesatz-Regular" font-size="50.0" fill="#FEFFFE" transform="matrix(1.00, 0.00, -0.00, -1.00, 610.7, 81.0)">o</text><text xml:space="preserve" font-family="YanoneKaffeesatz-Regular" font-size="50.0" fill="#FEFFFE" transform="matrix(1.00, 0.00, -0.00, -1.00, 629.1, 81.0)">j</text><text xml:space="preserve" font-family="YanoneKaffeesatz-Regular" font-size="50.0" fill="#FEFFFE" transform="matrix(1.00, 0.00, -0.00, -1.00, 638.3, 81.0)">u</text><text xml:space="preserve" font-family="YanoneKaffeesatz-Regular" font-size="50.0" fill="#FEFFFE" transform="matrix(1.00, 0.00, -0.00, -1.00, 657.8, 81.0)">r</text><text xml:space="preserve" font-family="YanoneKaffeesatz-Regular" font-size="50.0" fill="#FEFFFE" transform="matrix(1.00, 0.00, -0.00, -1.00, 669.9, 81.0)">e</text><text xml:space="preserve" font-family="YanoneKaffeesatz-Regular" font-size="50.0" fill="#FEFFFE" transform="matrix(1.00, 0.00, -0.00, -1.00, 688.2, 81.0)">/</text><text xml:space="preserve" font-family="YanoneKaffeesatz-Regular" font-size="50.0" fill="#FEFFFE" transform="matrix(1.00, 0.00, -0.00, -1.00, 704.9, 81.0)">b</text><text xml:space="preserve" font-family="YanoneKaffeesatz-Regular" font-size="50.0" fill="#FEFFFE" transform="matrix(1.00, 0.00, -0.00, -1.00, 724.1, 81.0)">l</text><text xml:space="preserve" font-family="YanoneKaffeesatz-Regular" font-size="50.0" fill="#FEFFFE" transform="matrix(1.00, 0.00, -0.00, -1.00, 732.7, 81.0)">o</text><text xml:space="preserve" font-family="YanoneKaffeesatz-Regular" font-size="50.0" fill="#FEFFFE" transform="matrix(1.00, 0.00, -0.00, -1.00, 751.1, 81.0)">b</text><text xml:space="preserve" font-family="YanoneKaffeesatz-Regular" font-size="50.0" fill="#FEFFFE" transform="matrix(1.00, 0.00, -0.00, -1.00, 769.8, 81.0)">/</text><text xml:space="preserve" font-family="YanoneKaffeesatz-Regular" font-size="50.0" fill="#FEFFFE" transform="matrix(1.00, 0.00, -0.00, -1.00, 784.0, 81.0)">m</text><text xml:space="preserve" font-family="YanoneKaffeesatz-Regular" font-size="50.0" fill="#FEFFFE" transform="matrix(1.00, 0.00, -0.00, -1.00, 812.2, 81.0)">a</text><text xml:space="preserve" font-family="YanoneKaffeesatz-Regular" font-size="50.0" fill="#FEFFFE" transform="matrix(1.00, 0.00, -0.00, -1.00, 829.9, 81.0)">s</text><text xml:space="preserve" font-family="YanoneKaffeesatz-Regular" font-size="50.0" fill="#FEFFFE" transform="matrix(1.00, 0.00, -0.00, -1.00, 847.1, 81.0)">t</text><text xml:space="preserve" font-family="YanoneKaffeesatz-Regular" font-size="50.0" fill="#FEFFFE" transform="matrix(1.00, 0.00, -0.00, -1.00, 860.5, 81.0)">e</text><text xml:space="preserve" font-family="YanoneKaffeesatz-Regular" font-size="50.0" fill="#FEFFFE" transform="matrix(1.00, 0.00, -0.00, -1.00, 878.6, 81.0)">r</text><text xml:space="preserve" font-family="YanoneKaffeesatz-Regular" font-size="50.0" fill="#FEFFFE" transform="matrix(1.00, 0.00, -0.00, -1.00, 891.2, 81.0)">/</text><text xml:space="preserve" font-family="YanoneKaffeesatz-Regular" font-size="50.0" fill="#FEFFFE" transform="matrix(1.00, 0.00, -0.00, -1.00, 905.1, 81.0)">s</text><text xml:space="preserve" font-family="YanoneKaffeesatz-Regular" font-size="50.0" fill="#FEFFFE" transform="matrix(1.00, 0.00, -0.00, -1.00, 922.3, 81.0)">r</text><text xml:space="preserve" font-family="YanoneKaffeesatz-Regular" font-size="50.0" fill="#FEFFFE" transform="matrix(1.00, 0.00, -0.00, -1.00, 934.5, 81.0)">c</text><text xml:space="preserve" font-family="YanoneKaffeesatz-Regular" font-size="50.0" fill="#FEFFFE" transform="matrix(1.00, 0.00, -0.00, -1.00, 951.0, 81.0)">/</text><text xml:space="preserve" font-family="YanoneKaffeesatz-Regular" font-size="50.0" fill="#FEFFFE" transform="matrix(1.00, 0.00, -0.00, -1.00, 967.3, 81.0)">j</text><text xml:space="preserve" font-family="YanoneKaffeesatz-Regular" font-size="50.0" fill="#FEFFFE" transform="matrix(1.00, 0.00, -0.00, -1.00, 976.5, 81.0)">v</text><text xml:space="preserve" font-family="YanoneKaffeesatz-Regular" font-size="50.0" fill="#FEFFFE" transform="matrix(1.00, 0.00, -0.00, -1.00, 993.0, 81.0)">m</text><text xml:space="preserve" font-family="YanoneKaffeesatz-Regular" font-size="50.0" fill="#FEFFFE" transform="matrix(1.00, 0.00, -0.00, -1.00, 1022.2, 81.0)">/</text><text xml:space="preserve" font-family="YanoneKaffeesatz-Regular" font-size="50.0" fill="#FEFFFE" transform="matrix(1.00, 0.00, -0.00, -1.00, 1035.5, 81.0)">c</text><text xml:space="preserve" font-family="YanoneKaffeesatz-Regular" font-size="50.0" fill="#FEFFFE" transform="matrix(1.00, 0.00, -0.00, -1.00, 1051.1, 81.0)">l</text><text xml:space="preserve" font-family="YanoneKaffeesatz-Regular" font-size="50.0" fill="#FEFFFE" transform="matrix(1.00, 0.00, -0.00, -1.00, 1059.8, 81.0)">o</text><text xml:space="preserve" font-family="YanoneKaffeesatz-Regular" font-size="50.0" fill="#FEFFFE" transform="matrix(1.00, 0.00, -0.00, -1.00, 1078.2, 81.0)">j</text><text xml:space="preserve" font-family="YanoneKaffeesatz-Regular" font-size="50.0" fill="#FEFFFE" transform="matrix(1.00, 0.00, -0.00, -1.00, 1087.4, 81.0)">u</text><text xml:space="preserve" font-family="YanoneKaffeesatz-Regular" font-size="50.0" fill="#FEFFFE" transform="matrix(1.00, 0.00, -0.00, -1.00, 1106.9, 81.0)">r</text><text xml:space="preserve" font-family="YanoneKaffeesatz-Regular" font-size="50.0" fill="#FEFFFE" transform="matrix(1.00, 0.00, -0.00, -1.00, 1119.0, 81.0)">e</text><text xml:space="preserve" font-family="YanoneKaffeesatz-Regular" font-size="50.0" fill="#FEFFFE" transform="matrix(1.00, 0.00, -0.00, -1.00, 1137.3, 81.0)">/</text><text xml:space="preserve" font-family="YanoneKaffeesatz-Regular" font-size="50.0" fill="#FEFFFE" transform="matrix(1.00, 0.00, -0.00, -1.00, 1154.0, 81.0)">l</text><text xml:space="preserve" font-family="YanoneKaffeesatz-Regular" font-size="50.0" fill="#FEFFFE" transform="matrix(1.00, 0.00, -0.00, -1.00, 1162.7, 81.0)">a</text><text xml:space="preserve" font-family="YanoneKaffeesatz-Regular" font-size="50.0" fill="#FEFFFE" transform="matrix(1.00, 0.00, -0.00, -1.00, 1180.4, 81.0)">n</text><text xml:space="preserve" font-family="YanoneKaffeesatz-Regular" font-size="50.0" fill="#FEFFFE" transform="matrix(1.00, 0.00, -0.00, -1.00, 1199.5, 81.0)">g</text><text xml:space="preserve" font-family="YanoneKaffeesatz-Regular" font-size="50.0" fill="#FEFFFE" transform="matrix(1.00, 0.00, -0.00, -1.00, 1219.5, 81.0)">/</text><text xml:space="preserve" font-family="YanoneKaffeesatz-Regular" font-size="50.0" fill="#FEFFFE" transform="matrix(1.00, 0.00, -0.00, -1.00, 1236.3, 81.0)">P</text><text xml:space="preserve" font-family="YanoneKaffeesatz-Regular" font-size="50.0" fill="#FEFFFE" transform="matrix(1.00, 0.00, -0.00, -1.00, 1253.1, 81.0)">e</text><text xml:space="preserve" font-family="YanoneKaffeesatz-Regular" font-size="50.0" fill="#FEFFFE" transform="matrix(1.00, 0.00, -0.00, -1.00, 1271.2, 81.0)">r</text><text xml:space="preserve" font-family="YanoneKaffeesatz-Regular" font-size="50.0" fill="#FEFFFE" transform="matrix(1.00, 0.00, -0.00, -1.00, 1284.3, 81.0)">s</text><text xml:space="preserve" font-family="YanoneKaffeesatz-Regular" font-size="50.0" fill="#FEFFFE" transform="matrix(1.00, 0.00, -0.00, -1.00, 1301.6, 81.0)">i</text><text xml:space="preserve" font-family="YanoneKaffeesatz-Regular" font-size="50.0" fill="#FEFFFE" transform="matrix(1.00, 0.00, -0.00, -1.00, 1310.3, 81.0)">s</text><text xml:space="preserve" font-family="YanoneKaffeesatz-Regular" font-size="50.0" fill="#FEFFFE" transform="matrix(1.00, 0.00, -0.00, -1.00, 1327.6, 81.0)">t</text><text xml:space="preserve" font-family="YanoneKaffeesatz-Regular" font-size="50.0" fill="#FEFFFE" transform="matrix(1.00, 0.00, -0.00, -1.00, 1341.0, 81.0)">e</text><text xml:space="preserve" font-family="YanoneKaffeesatz-Regular" font-size="50.0" fill="#FEFFFE" transform="matrix(1.00, 0.00, -0.00, -1.00, 1359.0, 81.0)">n</text><text xml:space="preserve" font-family="YanoneKaffeesatz-Regular" font-size="50.0" fill="#FEFFFE" transform="matrix(1.00, 0.00, -0.00, -1.00, 1378.1, 81.0)">t</text><text xml:space="preserve" font-family="YanoneKaffeesatz-Regular" font-size="50.0" fill="#FEFFFE" transform="matrix(1.00, 0.00, -0.00, -1.00, 1392.7, 81.0)">H</text><text xml:space="preserve" font-family="YanoneKaffeesatz-Regular" font-size="50.0" fill="#FEFFFE" transform="matrix(1.00, 0.00, -0.00, -1.00, 1413.1, 81.0)">a</text><text xml:space="preserve" font-family="YanoneKaffeesatz-Regular" font-size="50.0" fill="#FEFFFE" transform="matrix(1.00, 0.00, -0.00, -1.00, 1430.8, 81.0)">s</text><text xml:space="preserve" font-family="YanoneKaffeesatz-Regular" font-size="50.0" fill="#FEFFFE" transform="matrix(1.00, 0.00, -0.00, -1.00, 1448.1, 81.0)">h</text><text xml:space="preserve" font-family="YanoneKaffeesatz-Regular" font-size="50.0" fill="#FEFFFE" transform="matrix(1.00, 0.00, -0.00, -1.00, 1467.1, 81.0)">M</text><text xml:space="preserve" font-family="YanoneKaffeesatz-Regular" font-size="50.0" fill="#FEFFFE" transform="matrix(1.00, 0.00, -0.00, -1.00, 1491.5, 81.0)">a</text><text xml:space="preserve" font-family="YanoneKaffeesatz-Regular" font-size="50.0" fill="#FEFFFE" transform="matrix(1.00, 0.00, -0.00, -1.00, 1509.2, 81.0)">p</text><text xml:space="preserve" font-family="YanoneKaffeesatz-Regular" font-size="50.0" fill="#FEFFFE" transform="matrix(1.00, 0.00, -0.00, -1.00, 1527.4, 81.0)">.</text><text xml:space="preserve" font-family="YanoneKaffeesatz-Regular" font-size="50.0" fill="#FEFFFE" transform="matrix(1.00, 0.00, -0.00, -1.00, 1536.5, 81.0)">j</text><text xml:space="preserve" font-family="YanoneKaffeesatz-Regular" font-size="50.0" fill="#FEFFFE" transform="matrix(1.00, 0.00, -0.00, -1.00, 1545.7, 81.0)">a</text><text xml:space="preserve" font-family="YanoneKaffeesatz-Regular" font-size="50.0" fill="#FEFFFE" transform="matrix(1.00, 0.00, -0.00, -1.00, 1563.4, 81.0)">v</text><text xml:space="preserve" font-family="YanoneKaffeesatz-Regular" font-size="50.0" fill="#FEFFFE" transform="matrix(1.00, 0.00, -0.00, -1.00, 1580.1, 81.0)">a</text><text xml:space="preserve" font-family="YanoneKaffeesatz-Regular" font-size="50.0" fill="#FEFFFE" transform="matrix(1.00, 0.00, -0.00, -1.00, 1597.8, 81.0)">#</text><text xml:space="preserve" font-family="YanoneKaffeesatz-Regular" font-size="50.0" fill="#FEFFFE" transform="matrix(1.00, 0.00, -0.00, -1.00, 1618.6, 81.0)">L</text><text xml:space="preserve" font-family="YanoneKaffeesatz-Regular" font-size="50.0" fill="#FEFFFE" transform="matrix(1.00, 0.00, -0.00, -1.00, 1634.5, 81.0)">1</text><text xml:space="preserve" font-family="YanoneKaffeesatz-Regular" font-size="50.0" fill="#FEFFFE" transform="matrix(1.00, 0.00, -0.00, -1.00, 1655.3, 81.0)">8</text><text xml:space="preserve" font-family="YanoneKaffeesatz-Regular" font-size="50.0" fill="#FEFFFE" transform="matrix(1.00, 0.00, -0.00, -1.00, 1676.2, 81.0)">-</text><text xml:space="preserve" font-family="YanoneKaffeesatz-Regular" font-size="50.0" fill="#FEFFFE" transform="matrix(1.00, 0.00, -0.00, -1.00, 1690.0, 81.0)">L</text><text xml:space="preserve" font-family="YanoneKaffeesatz-Regular" font-size="50.0" fill="#FEFFFE" transform="matrix(1.00, 0.00, -0.00, -1.00, 1705.9, 81.0)">2</text><text xml:space="preserve" font-family="YanoneKaffeesatz-Regular" font-size="50.0" fill="#FEFFFE" transform="matrix(1.00, 0.00, -0.00, -1.00, 1726.7, 81.0)">6</text></g></svg>