<?xml version="1.0" encoding="UTF-8" standalone="no"?><svg xmlns="http://www.w3.org/2000/svg" xmlns:xlink="http://www.w3.org/1999/xlink" clip-rule="evenodd" stroke-miterlimit="4.00" viewBox="0 0 1920 1080"><desc>SVG generated by Keynote</desc><defs></defs><g transform="matrix(1.00, 0.00, -0.00, -1.00, 0.0, 1080.0)"><g><clipPath id="clip-3196"><path d="M 0.0 1080.0 L 1920.0 1080.0 L 1920.0 0.0 L 0.0 0.0 Z M 0.0 1080.0 "></path></clipPath><g clip-path="url(#clip-3196)"><image xlink:href="../../C790834B-C1C8-4410-8563-9C912CD2A702/assets/4B0075050CC9D0F3DC006F0CDE78D676.jpeg" width="1365.00" height="767.00" transform="matrix(1.41, 0.00, -0.00, -1.41, 0.0, 1080.0)"></image></g></g><image xlink:href="../../BF5C73BB-AF41-4A4B-874D-724E48A7FB74/assets/602DE1103DE7A71829C1E0A27015326D.png" width="504.00" height="157.00" transform="matrix(1.00, 0.00, -0.00, -1.00, 708.0, 1013.0)"></image><text xml:space="preserve" font-family="YanoneKaffeesatz-Bold" font-weight="bold" font-size="200.0" fill="#FC6900" transform="matrix(1.00, 0.00, -0.00, -1.00, 706.0, 865.0)">F</text><text xml:space="preserve" font-family="YanoneKaffeesatz-Bold" font-weight="bold" font-size="200.0" fill="#FC6900" transform="matrix(1.00, 0.00, -0.00, -1.00, 761.0, 865.0)">r</text><text xml:space="preserve" font-family="YanoneKaffeesatz-Bold" font-weight="bold" font-size="200.0" fill="#FC6900" transform="matrix(1.00, 0.00, -0.00, -1.00, 806.8, 865.0)">o</text><text xml:space="preserve" font-family="YanoneKaffeesatz-Bold" font-weight="bold" font-size="200.0" fill="#FC6900" transform="matrix(1.00, 0.00, -0.00, -1.00, 877.0, 865.0)">n</text><text xml:space="preserve" font-family="YanoneKaffeesatz-Bold" font-weight="bold" font-size="200.0" fill="#FC6900" transform="matrix(1.00, 0.00, -0.00, -1.00, 949.2, 865.0)">t</text><text xml:space="preserve" font-family="YanoneKaffeesatz-Bold" font-weight="bold" font-size="200.0" fill="#FC6900" transform="matrix(1.00, 0.00, -0.00, -1.00, 1000.0, 865.0)">e</text><text xml:space="preserve" font-family="YanoneKaffeesatz-Bold" font-weight="bold" font-size="200.0" fill="#FC6900" transform="matrix(1.00, 0.00, -0.00, -1.00, 1069.2, 865.0)">n</text><text xml:space="preserve" font-family="YanoneKaffeesatz-Bold" font-weight="bold" font-size="200.0" fill="#FC6900" transform="matrix(1.00, 0.00, -0.00, -1.00, 1141.4, 865.0)">d</text><image xlink:href="../../8AF5771B-6E80-481F-8212-6133A2E04629/assets/D66AFD7753F5CBDD81493CD10C55AA60.png" width="1279.00" height="105.00" transform="matrix(1.00, 0.00, -0.00, -1.00, 322.0, 654.0)"></image><text xml:space="preserve" font-family="YanoneKaffeesatz-Regular" font-size="100.0" fill="#FEFFFE" transform="matrix(1.00, 0.00, -0.00, -1.00, 322.0, 576.0)">h</text><text xml:space="preserve" font-family="YanoneKaffeesatz-Regular" font-size="100.0" fill="#FEFFFE" transform="matrix(1.00, 0.00, -0.00, -1.00, 359.3, 576.0)">t</text><text xml:space="preserve" font-family="YanoneKaffeesatz-Regular" font-size="100.0" fill="#FEFFFE" transform="matrix(1.00, 0.00, -0.00, -1.00, 383.0, 576.0)">t</text><text xml:space="preserve" font-family="YanoneKaffeesatz-Regular" font-size="100.0" fill="#FEFFFE" transform="matrix(1.00, 0.00, -0.00, -1.00, 412.1, 576.0)">p</text><text xml:space="preserve" font-family="YanoneKaffeesatz-Regular" font-size="100.0" fill="#FEFFFE" transform="matrix(1.00, 0.00, -0.00, -1.00, 450.4, 576.0)">s</text><text xml:space="preserve" font-family="YanoneKaffeesatz-Regular" font-size="100.0" fill="#FEFFFE" transform="matrix(1.00, 0.00, -0.00, -1.00, 484.9, 576.0)">:</text><text xml:space="preserve" font-family="YanoneKaffeesatz-Regular" font-size="100.0" fill="#FEFFFE" transform="matrix(1.00, 0.00, -0.00, -1.00, 504.0, 576.0)">/</text><text xml:space="preserve" font-family="YanoneKaffeesatz-Regular" font-size="100.0" fill="#FEFFFE" transform="matrix(1.00, 0.00, -0.00, -1.00, 524.2, 576.0)">/</text><text xml:space="preserve" font-family="YanoneKaffeesatz-Regular" font-size="100.0" fill="#FEFFFE" transform="matrix(1.00, 0.00, -0.00, -1.00, 556.1, 576.0)">f</text><text xml:space="preserve" font-family="YanoneKaffeesatz-Regular" font-size="100.0" fill="#FEFFFE" transform="matrix(1.00, 0.00, -0.00, -1.00, 581.6, 576.0)">a</text><text xml:space="preserve" font-family="YanoneKaffeesatz-Regular" font-size="100.0" fill="#FEFFFE" transform="matrix(1.00, 0.00, -0.00, -1.00, 617.0, 576.0)">c</text><text xml:space="preserve" font-family="YanoneKaffeesatz-Regular" font-size="100.0" fill="#FEFFFE" transform="matrix(1.00, 0.00, -0.00, -1.00, 646.7, 576.0)">e</text><text xml:space="preserve" font-family="YanoneKaffeesatz-Regular" font-size="100.0" fill="#FEFFFE" transform="matrix(1.00, 0.00, -0.00, -1.00, 682.8, 576.0)">b</text><text xml:space="preserve" font-family="YanoneKaffeesatz-Regular" font-size="100.0" fill="#FEFFFE" transform="matrix(1.00, 0.00, -0.00, -1.00, 721.1, 576.0)">o</text><text xml:space="preserve" font-family="YanoneKaffeesatz-Regular" font-size="100.0" fill="#FEFFFE" transform="matrix(1.00, 0.00, -0.00, -1.00, 757.9, 576.0)">o</text><text xml:space="preserve" font-family="YanoneKaffeesatz-Regular" font-size="100.0" fill="#FEFFFE" transform="matrix(1.00, 0.00, -0.00, -1.00, 794.7, 576.0)">k</text><text xml:space="preserve" font-family="YanoneKaffeesatz-Regular" font-size="100.0" fill="#FEFFFE" transform="matrix(1.00, 0.00, -0.00, -1.00, 832.8, 576.0)">.</text><text xml:space="preserve" font-family="YanoneKaffeesatz-Regular" font-size="100.0" fill="#FEFFFE" transform="matrix(1.00, 0.00, -0.00, -1.00, 851.1, 576.0)">g</text><text xml:space="preserve" font-family="YanoneKaffeesatz-Regular" font-size="100.0" fill="#FEFFFE" transform="matrix(1.00, 0.00, -0.00, -1.00, 890.4, 576.0)">i</text><text xml:space="preserve" font-family="YanoneKaffeesatz-Regular" font-size="100.0" fill="#FEFFFE" transform="matrix(1.00, 0.00, -0.00, -1.00, 907.9, 576.0)">t</text><text xml:space="preserve" font-family="YanoneKaffeesatz-Regular" font-size="100.0" fill="#FEFFFE" transform="matrix(1.00, 0.00, -0.00, -1.00, 937.0, 576.0)">h</text><text xml:space="preserve" font-family="YanoneKaffeesatz-Regular" font-size="100.0" fill="#FEFFFE" transform="matrix(1.00, 0.00, -0.00, -1.00, 975.0, 576.0)">u</text><text xml:space="preserve" font-family="YanoneKaffeesatz-Regular" font-size="100.0" fill="#FEFFFE" transform="matrix(1.00, 0.00, -0.00, -1.00, 1014.0, 576.0)">b</text><text xml:space="preserve" font-family="YanoneKaffeesatz-Regular" font-size="100.0" fill="#FEFFFE" transform="matrix(1.00, 0.00, -0.00, -1.00, 1050.3, 576.0)">.</text><text xml:space="preserve" font-family="YanoneKaffeesatz-Regular" font-size="100.0" fill="#FEFFFE" transform="matrix(1.00, 0.00, -0.00, -1.00, 1068.6, 576.0)">i</text><text xml:space="preserve" font-family="YanoneKaffeesatz-Regular" font-size="100.0" fill="#FEFFFE" transform="matrix(1.00, 0.00, -0.00, -1.00, 1086.1, 576.0)">o</text><text xml:space="preserve" font-family="YanoneKaffeesatz-Regular" font-size="100.0" fill="#FEFFFE" transform="matrix(1.00, 0.00, -0.00, -1.00, 1124.5, 576.0)">/</text><text xml:space="preserve" font-family="YanoneKaffeesatz-Regular" font-size="100.0" fill="#FEFFFE" transform="matrix(1.00, 0.00, -0.00, -1.00, 1157.5, 576.0)">i</text><text xml:space="preserve" font-family="YanoneKaffeesatz-Regular" font-size="100.0" fill="#FEFFFE" transform="matrix(1.00, 0.00, -0.00, -1.00, 1175.0, 576.0)">m</text><text xml:space="preserve" font-family="YanoneKaffeesatz-Regular" font-size="100.0" fill="#FEFFFE" transform="matrix(1.00, 0.00, -0.00, -1.00, 1231.3, 576.0)">m</text><text xml:space="preserve" font-family="YanoneKaffeesatz-Regular" font-size="100.0" fill="#FEFFFE" transform="matrix(1.00, 0.00, -0.00, -1.00, 1287.6, 576.0)">u</text><text xml:space="preserve" font-family="YanoneKaffeesatz-Regular" font-size="100.0" fill="#FEFFFE" transform="matrix(1.00, 0.00, -0.00, -1.00, 1326.6, 576.0)">t</text><text xml:space="preserve" font-family="YanoneKaffeesatz-Regular" font-size="100.0" fill="#FEFFFE" transform="matrix(1.00, 0.00, -0.00, -1.00, 1355.7, 576.0)">a</text><text xml:space="preserve" font-family="YanoneKaffeesatz-Regular" font-size="100.0" fill="#FEFFFE" transform="matrix(1.00, 0.00, -0.00, -1.00, 1391.1, 576.0)">b</text><text xml:space="preserve" font-family="YanoneKaffeesatz-Regular" font-size="100.0" fill="#FEFFFE" transform="matrix(1.00, 0.00, -0.00, -1.00, 1429.4, 576.0)">l</text><text xml:space="preserve" font-family="YanoneKaffeesatz-Regular" font-size="100.0" fill="#FEFFFE" transform="matrix(1.00, 0.00, -0.00, -1.00, 1446.7, 576.0)">e</text><text xml:space="preserve" font-family="YanoneKaffeesatz-Regular" font-size="100.0" fill="#FEFFFE" transform="matrix(1.00, 0.00, -0.00, -1.00, 1482.8, 576.0)">-</text><text xml:space="preserve" font-family="YanoneKaffeesatz-Regular" font-size="100.0" fill="#FEFFFE" transform="matrix(1.00, 0.00, -0.00, -1.00, 1510.6, 576.0)">j</text><text xml:space="preserve" font-family="YanoneKaffeesatz-Regular" font-size="100.0" fill="#FEFFFE" transform="matrix(1.00, 0.00, -0.00, -1.00, 1529.0, 576.0)">s</text><text xml:space="preserve" font-family="YanoneKaffeesatz-Regular" font-size="100.0" fill="#FEFFFE" transform="matrix(1.00, 0.00, -0.00, -1.00, 1564.3, 576.0)">/</text><image xlink:href="../../8AF5771B-6E80-481F-8212-6133A2E04629/assets/CEF712FD5992B12D15E580F352B64F65.png" width="601.00" height="105.00" transform="matrix(1.00, 0.00, -0.00, -1.00, 661.0, 506.0)"></image><text xml:space="preserve" font-family="YanoneKaffeesatz-Regular" font-size="100.0" fill="#FEFFFE" transform="matrix(1.00, 0.00, -0.00, -1.00, 661.0, 428.0)">h</text><text xml:space="preserve" font-family="YanoneKaffeesatz-Regular" font-size="100.0" fill="#FEFFFE" transform="matrix(1.00, 0.00, -0.00, -1.00, 698.3, 428.0)">t</text><text xml:space="preserve" font-family="YanoneKaffeesatz-Regular" font-size="100.0" fill="#FEFFFE" transform="matrix(1.00, 0.00, -0.00, -1.00, 722.0, 428.0)">t</text><text xml:space="preserve" font-family="YanoneKaffeesatz-Regular" font-size="100.0" fill="#FEFFFE" transform="matrix(1.00, 0.00, -0.00, -1.00, 751.1, 428.0)">p</text><text xml:space="preserve" font-family="YanoneKaffeesatz-Regular" font-size="100.0" fill="#FEFFFE" transform="matrix(1.00, 0.00, -0.00, -1.00, 789.4, 428.0)">:</text><text xml:space="preserve" font-family="YanoneKaffeesatz-Regular" font-size="100.0" fill="#FEFFFE" transform="matrix(1.00, 0.00, -0.00, -1.00, 808.5, 428.0)">/</text><text xml:space="preserve" font-family="YanoneKaffeesatz-Regular" font-size="100.0" fill="#FEFFFE" transform="matrix(1.00, 0.00, -0.00, -1.00, 828.7, 428.0)">/</text><text xml:space="preserve" font-family="YanoneKaffeesatz-Regular" font-size="100.0" fill="#FEFFFE" transform="matrix(1.00, 0.00, -0.00, -1.00, 857.3, 428.0)">r</text><text xml:space="preserve" font-family="YanoneKaffeesatz-Regular" font-size="100.0" fill="#FEFFFE" transform="matrix(1.00, 0.00, -0.00, -1.00, 881.5, 428.0)">e</text><text xml:space="preserve" font-family="YanoneKaffeesatz-Regular" font-size="100.0" fill="#FEFFFE" transform="matrix(1.00, 0.00, -0.00, -1.00, 917.6, 428.0)">d</text><text xml:space="preserve" font-family="YanoneKaffeesatz-Regular" font-size="100.0" fill="#FEFFFE" transform="matrix(1.00, 0.00, -0.00, -1.00, 956.2, 428.0)">u</text><text xml:space="preserve" font-family="YanoneKaffeesatz-Regular" font-size="100.0" fill="#FEFFFE" transform="matrix(1.00, 0.00, -0.00, -1.00, 995.2, 428.0)">x</text><text xml:space="preserve" font-family="YanoneKaffeesatz-Regular" font-size="100.0" fill="#FEFFFE" transform="matrix(1.00, 0.00, -0.00, -1.00, 1036.2, 428.0)">.</text><text xml:space="preserve" font-family="YanoneKaffeesatz-Regular" font-size="100.0" fill="#FEFFFE" transform="matrix(1.00, 0.00, -0.00, -1.00, 1054.5, 428.0)">j</text><text xml:space="preserve" font-family="YanoneKaffeesatz-Regular" font-size="100.0" fill="#FEFFFE" transform="matrix(1.00, 0.00, -0.00, -1.00, 1072.9, 428.0)">s</text><text xml:space="preserve" font-family="YanoneKaffeesatz-Regular" font-size="100.0" fill="#FEFFFE" transform="matrix(1.00, 0.00, -0.00, -1.00, 1107.4, 428.0)">.</text><text xml:space="preserve" font-family="YanoneKaffeesatz-Regular" font-size="100.0" fill="#FEFFFE" transform="matrix(1.00, 0.00, -0.00, -1.00, 1123.7, 428.0)">o</text><text xml:space="preserve" font-family="YanoneKaffeesatz-Regular" font-size="100.0" fill="#FEFFFE" transform="matrix(1.00, 0.00, -0.00, -1.00, 1160.5, 428.0)">r</text><text xml:space="preserve" font-family="YanoneKaffeesatz-Regular" font-size="100.0" fill="#FEFFFE" transform="matrix(1.00, 0.00, -0.00, -1.00, 1184.7, 428.0)">g</text><text xml:space="preserve" font-family="YanoneKaffeesatz-Regular" font-size="100.0" fill="#FEFFFE" transform="matrix(1.00, 0.00, -0.00, -1.00, 1224.8, 428.0)">/</text></g></svg>