<?xml version="1.0" encoding="UTF-8" standalone="no"?><svg xmlns="http://www.w3.org/2000/svg" xmlns:xlink="http://www.w3.org/1999/xlink" clip-rule="evenodd" stroke-miterlimit="4.00" viewBox="0 0 1920 1080"><desc>SVG generated by Keynote</desc><defs></defs><g transform="matrix(1.00, 0.00, -0.00, -1.00, 0.0, 1080.0)"><g><clipPath id="clip-12"><path d="M 0.0 1080.0 L 1920.0 1080.0 L 1920.0 0.0 L 0.0 0.0 Z M 0.0 1080.0 "></path></clipPath><g clip-path="url(#clip-12)"><image xlink:href="../../C790834B-C1C8-4410-8563-9C912CD2A702/assets/4B0075050CC9D0F3DC006F0CDE78D676.jpeg" width="1365.00" height="767.00" transform="matrix(1.41, 0.00, -0.00, -1.41, 0.0, 1080.0)"></image></g></g><image xlink:href="CFDE06BB8DF5D51AA94FEA180D0689C3.png" width="328.00" height="499.00" transform="matrix(1.60, 0.00, -0.00, -1.60, 697.0, 940.0)"></image><image xlink:href="7C10F893049E8401314836FC9F76C699.png" width="1329.00" height="57.00" transform="matrix(1.00, 0.00, -0.00, -1.00, 296.0, 74.0)"></image><text xml:space="preserve" font-family="YanoneKaffeesatz-Regular" font-size="50.0" fill="#FEFFFE" transform="matrix(1.00, 0.00, -0.00, -1.00, 298.0, 34.0)">h</text><text xml:space="preserve" font-family="YanoneKaffeesatz-Regular" font-size="50.0" fill="#FEFFFE" transform="matrix(1.00, 0.00, -0.00, -1.00, 316.6, 34.0)">t</text><text xml:space="preserve" font-family="YanoneKaffeesatz-Regular" font-size="50.0" fill="#FEFFFE" transform="matrix(1.00, 0.00, -0.00, -1.00, 328.5, 34.0)">t</text><text xml:space="preserve" font-family="YanoneKaffeesatz-Regular" font-size="50.0" fill="#FEFFFE" transform="matrix(1.00, 0.00, -0.00, -1.00, 343.1, 34.0)">p</text><text xml:space="preserve" font-family="YanoneKaffeesatz-Regular" font-size="50.0" fill="#FEFFFE" transform="matrix(1.00, 0.00, -0.00, -1.00, 362.2, 34.0)">:</text><text xml:space="preserve" font-family="YanoneKaffeesatz-Regular" font-size="50.0" fill="#FEFFFE" transform="matrix(1.00, 0.00, -0.00, -1.00, 371.8, 34.0)">/</text><text xml:space="preserve" font-family="YanoneKaffeesatz-Regular" font-size="50.0" fill="#FEFFFE" transform="matrix(1.00, 0.00, -0.00, -1.00, 381.9, 34.0)">/</text><text xml:space="preserve" font-family="YanoneKaffeesatz-Regular" font-size="50.0" fill="#FEFFFE" transform="matrix(1.00, 0.00, -0.00, -1.00, 397.6, 34.0)">w</text><text xml:space="preserve" font-family="YanoneKaffeesatz-Regular" font-size="50.0" fill="#FEFFFE" transform="matrix(1.00, 0.00, -0.00, -1.00, 424.6, 34.0)">w</text><text xml:space="preserve" font-family="YanoneKaffeesatz-Regular" font-size="50.0" fill="#FEFFFE" transform="matrix(1.00, 0.00, -0.00, -1.00, 451.6, 34.0)">w</text><text xml:space="preserve" font-family="YanoneKaffeesatz-Regular" font-size="50.0" fill="#FEFFFE" transform="matrix(1.00, 0.00, -0.00, -1.00, 476.7, 34.0)">.</text><text xml:space="preserve" font-family="YanoneKaffeesatz-Regular" font-size="50.0" fill="#FEFFFE" transform="matrix(1.00, 0.00, -0.00, -1.00, 485.8, 34.0)">a</text><text xml:space="preserve" font-family="YanoneKaffeesatz-Regular" font-size="50.0" fill="#FEFFFE" transform="matrix(1.00, 0.00, -0.00, -1.00, 503.5, 34.0)">m</text><text xml:space="preserve" font-family="YanoneKaffeesatz-Regular" font-size="50.0" fill="#FEFFFE" transform="matrix(1.00, 0.00, -0.00, -1.00, 531.7, 34.0)">a</text><text xml:space="preserve" font-family="YanoneKaffeesatz-Regular" font-size="50.0" fill="#FEFFFE" transform="matrix(1.00, 0.00, -0.00, -1.00, 549.4, 34.0)">z</text><text xml:space="preserve" font-family="YanoneKaffeesatz-Regular" font-size="50.0" fill="#FEFFFE" transform="matrix(1.00, 0.00, -0.00, -1.00, 565.5, 34.0)">o</text><text xml:space="preserve" font-family="YanoneKaffeesatz-Regular" font-size="50.0" fill="#FEFFFE" transform="matrix(1.00, 0.00, -0.00, -1.00, 584.0, 34.0)">n</text><text xml:space="preserve" font-family="YanoneKaffeesatz-Regular" font-size="50.0" fill="#FEFFFE" transform="matrix(1.00, 0.00, -0.00, -1.00, 603.0, 34.0)">.</text><text xml:space="preserve" font-family="YanoneKaffeesatz-Regular" font-size="50.0" fill="#FEFFFE" transform="matrix(1.00, 0.00, -0.00, -1.00, 611.8, 34.0)">c</text><text xml:space="preserve" font-family="YanoneKaffeesatz-Regular" font-size="50.0" fill="#FEFFFE" transform="matrix(1.00, 0.00, -0.00, -1.00, 626.9, 34.0)">o</text><text xml:space="preserve" font-family="YanoneKaffeesatz-Regular" font-size="50.0" fill="#FEFFFE" transform="matrix(1.00, 0.00, -0.00, -1.00, 645.3, 34.0)">m</text><text xml:space="preserve" font-family="YanoneKaffeesatz-Regular" font-size="50.0" fill="#FEFFFE" transform="matrix(1.00, 0.00, -0.00, -1.00, 674.5, 34.0)">/</text><text xml:space="preserve" font-family="YanoneKaffeesatz-Regular" font-size="50.0" fill="#FEFFFE" transform="matrix(1.00, 0.00, -0.00, -1.00, 691.3, 34.0)">P</text><text xml:space="preserve" font-family="YanoneKaffeesatz-Regular" font-size="50.0" fill="#FEFFFE" transform="matrix(1.00, 0.00, -0.00, -1.00, 709.3, 34.0)">u</text><text xml:space="preserve" font-family="YanoneKaffeesatz-Regular" font-size="50.0" fill="#FEFFFE" transform="matrix(1.00, 0.00, -0.00, -1.00, 728.8, 34.0)">r</text><text xml:space="preserve" font-family="YanoneKaffeesatz-Regular" font-size="50.0" fill="#FEFFFE" transform="matrix(1.00, 0.00, -0.00, -1.00, 740.9, 34.0)">e</text><text xml:space="preserve" font-family="YanoneKaffeesatz-Regular" font-size="50.0" fill="#FEFFFE" transform="matrix(1.00, 0.00, -0.00, -1.00, 758.9, 34.0)">l</text><text xml:space="preserve" font-family="YanoneKaffeesatz-Regular" font-size="50.0" fill="#FEFFFE" transform="matrix(1.00, 0.00, -0.00, -1.00, 767.6, 34.0)">y</text><text xml:space="preserve" font-family="YanoneKaffeesatz-Regular" font-size="50.0" fill="#FEFFFE" transform="matrix(1.00, 0.00, -0.00, -1.00, 784.0, 34.0)">-</text><text xml:space="preserve" font-family="YanoneKaffeesatz-Regular" font-size="50.0" fill="#FEFFFE" transform="matrix(1.00, 0.00, -0.00, -1.00, 797.9, 34.0)">F</text><text xml:space="preserve" font-family="YanoneKaffeesatz-Regular" font-size="50.0" fill="#FEFFFE" transform="matrix(1.00, 0.00, -0.00, -1.00, 812.5, 34.0)">u</text><text xml:space="preserve" font-family="YanoneKaffeesatz-Regular" font-size="50.0" fill="#FEFFFE" transform="matrix(1.00, 0.00, -0.00, -1.00, 832.0, 34.0)">n</text><text xml:space="preserve" font-family="YanoneKaffeesatz-Regular" font-size="50.0" fill="#FEFFFE" transform="matrix(1.00, 0.00, -0.00, -1.00, 851.1, 34.0)">c</text><text xml:space="preserve" font-family="YanoneKaffeesatz-Regular" font-size="50.0" fill="#FEFFFE" transform="matrix(1.00, 0.00, -0.00, -1.00, 867.0, 34.0)">t</text><text xml:space="preserve" font-family="YanoneKaffeesatz-Regular" font-size="50.0" fill="#FEFFFE" transform="matrix(1.00, 0.00, -0.00, -1.00, 881.6, 34.0)">i</text><text xml:space="preserve" font-family="YanoneKaffeesatz-Regular" font-size="50.0" fill="#FEFFFE" transform="matrix(1.00, 0.00, -0.00, -1.00, 890.3, 34.0)">o</text><text xml:space="preserve" font-family="YanoneKaffeesatz-Regular" font-size="50.0" fill="#FEFFFE" transform="matrix(1.00, 0.00, -0.00, -1.00, 908.7, 34.0)">n</text><text xml:space="preserve" font-family="YanoneKaffeesatz-Regular" font-size="50.0" fill="#FEFFFE" transform="matrix(1.00, 0.00, -0.00, -1.00, 927.8, 34.0)">a</text><text xml:space="preserve" font-family="YanoneKaffeesatz-Regular" font-size="50.0" fill="#FEFFFE" transform="matrix(1.00, 0.00, -0.00, -1.00, 945.5, 34.0)">l</text><text xml:space="preserve" font-family="YanoneKaffeesatz-Regular" font-size="50.0" fill="#FEFFFE" transform="matrix(1.00, 0.00, -0.00, -1.00, 954.2, 34.0)">-</text><text xml:space="preserve" font-family="YanoneKaffeesatz-Regular" font-size="50.0" fill="#FEFFFE" transform="matrix(1.00, 0.00, -0.00, -1.00, 963.4, 34.0)">S</text><text xml:space="preserve" font-family="YanoneKaffeesatz-Regular" font-size="50.0" fill="#FEFFFE" transform="matrix(1.00, 0.00, -0.00, -1.00, 981.3, 34.0)">t</text><text xml:space="preserve" font-family="YanoneKaffeesatz-Regular" font-size="50.0" fill="#FEFFFE" transform="matrix(1.00, 0.00, -0.00, -1.00, 995.9, 34.0)">r</text><text xml:space="preserve" font-family="YanoneKaffeesatz-Regular" font-size="50.0" fill="#FEFFFE" transform="matrix(1.00, 0.00, -0.00, -1.00, 1009.0, 34.0)">u</text><text xml:space="preserve" font-family="YanoneKaffeesatz-Regular" font-size="50.0" fill="#FEFFFE" transform="matrix(1.00, 0.00, -0.00, -1.00, 1028.5, 34.0)">c</text><text xml:space="preserve" font-family="YanoneKaffeesatz-Regular" font-size="50.0" fill="#FEFFFE" transform="matrix(1.00, 0.00, -0.00, -1.00, 1044.5, 34.0)">t</text><text xml:space="preserve" font-family="YanoneKaffeesatz-Regular" font-size="50.0" fill="#FEFFFE" transform="matrix(1.00, 0.00, -0.00, -1.00, 1058.7, 34.0)">u</text><text xml:space="preserve" font-family="YanoneKaffeesatz-Regular" font-size="50.0" fill="#FEFFFE" transform="matrix(1.00, 0.00, -0.00, -1.00, 1078.2, 34.0)">r</text><text xml:space="preserve" font-family="YanoneKaffeesatz-Regular" font-size="50.0" fill="#FEFFFE" transform="matrix(1.00, 0.00, -0.00, -1.00, 1090.3, 34.0)">e</text><text xml:space="preserve" font-family="YanoneKaffeesatz-Regular" font-size="50.0" fill="#FEFFFE" transform="matrix(1.00, 0.00, -0.00, -1.00, 1108.3, 34.0)">s</text><text xml:space="preserve" font-family="YanoneKaffeesatz-Regular" font-size="50.0" fill="#FEFFFE" transform="matrix(1.00, 0.00, -0.00, -1.00, 1123.9, 34.0)">-</text><text xml:space="preserve" font-family="YanoneKaffeesatz-Regular" font-size="50.0" fill="#FEFFFE" transform="matrix(1.00, 0.00, -0.00, -1.00, 1137.8, 34.0)">C</text><text xml:space="preserve" font-family="YanoneKaffeesatz-Regular" font-size="50.0" fill="#FEFFFE" transform="matrix(1.00, 0.00, -0.00, -1.00, 1154.7, 34.0)">h</text><text xml:space="preserve" font-family="YanoneKaffeesatz-Regular" font-size="50.0" fill="#FEFFFE" transform="matrix(1.00, 0.00, -0.00, -1.00, 1173.7, 34.0)">r</text><text xml:space="preserve" font-family="YanoneKaffeesatz-Regular" font-size="50.0" fill="#FEFFFE" transform="matrix(1.00, 0.00, -0.00, -1.00, 1186.9, 34.0)">i</text><text xml:space="preserve" font-family="YanoneKaffeesatz-Regular" font-size="50.0" fill="#FEFFFE" transform="matrix(1.00, 0.00, -0.00, -1.00, 1195.6, 34.0)">s</text><text xml:space="preserve" font-family="YanoneKaffeesatz-Regular" font-size="50.0" fill="#FEFFFE" transform="matrix(1.00, 0.00, -0.00, -1.00, 1211.2, 34.0)">-</text><text xml:space="preserve" font-family="YanoneKaffeesatz-Regular" font-size="50.0" fill="#FEFFFE" transform="matrix(1.00, 0.00, -0.00, -1.00, 1225.1, 34.0)">O</text><text xml:space="preserve" font-family="YanoneKaffeesatz-Regular" font-size="50.0" fill="#FEFFFE" transform="matrix(1.00, 0.00, -0.00, -1.00, 1246.5, 34.0)">k</text><text xml:space="preserve" font-family="YanoneKaffeesatz-Regular" font-size="50.0" fill="#FEFFFE" transform="matrix(1.00, 0.00, -0.00, -1.00, 1265.5, 34.0)">a</text><text xml:space="preserve" font-family="YanoneKaffeesatz-Regular" font-size="50.0" fill="#FEFFFE" transform="matrix(1.00, 0.00, -0.00, -1.00, 1283.2, 34.0)">s</text><text xml:space="preserve" font-family="YanoneKaffeesatz-Regular" font-size="50.0" fill="#FEFFFE" transform="matrix(1.00, 0.00, -0.00, -1.00, 1300.5, 34.0)">a</text><text xml:space="preserve" font-family="YanoneKaffeesatz-Regular" font-size="50.0" fill="#FEFFFE" transform="matrix(1.00, 0.00, -0.00, -1.00, 1318.2, 34.0)">k</text><text xml:space="preserve" font-family="YanoneKaffeesatz-Regular" font-size="50.0" fill="#FEFFFE" transform="matrix(1.00, 0.00, -0.00, -1.00, 1337.2, 34.0)">i</text><text xml:space="preserve" font-family="YanoneKaffeesatz-Regular" font-size="50.0" fill="#FEFFFE" transform="matrix(1.00, 0.00, -0.00, -1.00, 1347.1, 34.0)">/</text><text xml:space="preserve" font-family="YanoneKaffeesatz-Regular" font-size="50.0" fill="#FEFFFE" transform="matrix(1.00, 0.00, -0.00, -1.00, 1360.5, 34.0)">d</text><text xml:space="preserve" font-family="YanoneKaffeesatz-Regular" font-size="50.0" fill="#FEFFFE" transform="matrix(1.00, 0.00, -0.00, -1.00, 1379.8, 34.0)">p</text><text xml:space="preserve" font-family="YanoneKaffeesatz-Regular" font-size="50.0" fill="#FEFFFE" transform="matrix(1.00, 0.00, -0.00, -1.00, 1399.2, 34.0)">/</text><text xml:space="preserve" font-family="YanoneKaffeesatz-Regular" font-size="50.0" fill="#FEFFFE" transform="matrix(1.00, 0.00, -0.00, -1.00, 1413.5, 34.0)">0</text><text xml:space="preserve" font-family="YanoneKaffeesatz-Regular" font-size="50.0" fill="#FEFFFE" transform="matrix(1.00, 0.00, -0.00, -1.00, 1434.4, 34.0)">5</text><text xml:space="preserve" font-family="YanoneKaffeesatz-Regular" font-size="50.0" fill="#FEFFFE" transform="matrix(1.00, 0.00, -0.00, -1.00, 1455.2, 34.0)">2</text><text xml:space="preserve" font-family="YanoneKaffeesatz-Regular" font-size="50.0" fill="#FEFFFE" transform="matrix(1.00, 0.00, -0.00, -1.00, 1476.1, 34.0)">1</text><text xml:space="preserve" font-family="YanoneKaffeesatz-Regular" font-size="50.0" fill="#FEFFFE" transform="matrix(1.00, 0.00, -0.00, -1.00, 1496.9, 34.0)">6</text><text xml:space="preserve" font-family="YanoneKaffeesatz-Regular" font-size="50.0" fill="#FEFFFE" transform="matrix(1.00, 0.00, -0.00, -1.00, 1517.8, 34.0)">6</text><text xml:space="preserve" font-family="YanoneKaffeesatz-Regular" font-size="50.0" fill="#FEFFFE" transform="matrix(1.00, 0.00, -0.00, -1.00, 1538.6, 34.0)">3</text><text xml:space="preserve" font-family="YanoneKaffeesatz-Regular" font-size="50.0" fill="#FEFFFE" transform="matrix(1.00, 0.00, -0.00, -1.00, 1559.5, 34.0)">5</text><text xml:space="preserve" font-family="YanoneKaffeesatz-Regular" font-size="50.0" fill="#FEFFFE" transform="matrix(1.00, 0.00, -0.00, -1.00, 1580.3, 34.0)">0</text><text xml:space="preserve" font-family="YanoneKaffeesatz-Regular" font-size="50.0" fill="#FEFFFE" transform="matrix(1.00, 0.00, -0.00, -1.00, 1601.2, 34.0)">4</text></g></svg>