<?xml version="1.0" encoding="UTF-8" standalone="no"?><svg xmlns="http://www.w3.org/2000/svg" xmlns:xlink="http://www.w3.org/1999/xlink" clip-rule="evenodd" stroke-miterlimit="4.00" viewBox="0 0 1920 1080"><desc>SVG generated by Keynote</desc><defs></defs><g transform="matrix(1.00, 0.00, -0.00, -1.00, 0.0, 1080.0)"><g><clipPath id="clip-11"><path d="M 0.0 1080.0 L 1920.0 1080.0 L 1920.0 0.0 L 0.0 0.0 Z M 0.0 1080.0 "></path></clipPath><g clip-path="url(#clip-11)"><image xlink:href="../../C790834B-C1C8-4410-8563-9C912CD2A702/assets/4B0075050CC9D0F3DC006F0CDE78D676.jpeg" width="1365.00" height="767.00" transform="matrix(1.41, 0.00, -0.00, -1.41, 0.0, 1080.0)"></image></g></g><image xlink:href="../../74F3BA3C-C577-46E4-835E-1E95E6C4F8AD/assets/45762739F8942F4799FD832D0179C5AE.png" width="947.00" height="149.00" transform="matrix(1.00, 0.00, -0.00, -1.00, 345.0, 764.0)"></image><text xml:space="preserve" font-family="YanoneKaffeesatz-Bold" font-weight="bold" font-size="150.0" fill="#FEFFFE" transform="matrix(1.00, 0.00, -0.00, -1.00, 345.0, 652.0)">R</text><text xml:space="preserve" font-family="YanoneKaffeesatz-Bold" font-weight="bold" font-size="150.0" fill="#FEFFFE" transform="matrix(1.00, 0.00, -0.00, -1.00, 397.6, 652.0)">e</text><text xml:space="preserve" font-family="YanoneKaffeesatz-Bold" font-weight="bold" font-size="150.0" fill="#FEFFFE" transform="matrix(1.00, 0.00, -0.00, -1.00, 449.6, 652.0)">a</text><text xml:space="preserve" font-family="YanoneKaffeesatz-Bold" font-weight="bold" font-size="150.0" fill="#FEFFFE" transform="matrix(1.00, 0.00, -0.00, -1.00, 500.2, 652.0)">s</text><text xml:space="preserve" font-family="YanoneKaffeesatz-Bold" font-weight="bold" font-size="150.0" fill="#FEFFFE" transform="matrix(1.00, 0.00, -0.00, -1.00, 548.0, 652.0)">o</text><text xml:space="preserve" font-family="YanoneKaffeesatz-Bold" font-weight="bold" font-size="150.0" fill="#FEFFFE" transform="matrix(1.00, 0.00, -0.00, -1.00, 600.6, 652.0)">n</text><text xml:space="preserve" font-family="YanoneKaffeesatz-Bold" font-weight="bold" font-size="150.0" fill="#FEFFFE" transform="matrix(1.00, 0.00, -0.00, -1.00, 654.8, 652.0)">i</text><text xml:space="preserve" font-family="YanoneKaffeesatz-Bold" font-weight="bold" font-size="150.0" fill="#FEFFFE" transform="matrix(1.00, 0.00, -0.00, -1.00, 681.8, 652.0)">n</text><text xml:space="preserve" font-family="YanoneKaffeesatz-Bold" font-weight="bold" font-size="150.0" fill="#FEFFFE" transform="matrix(1.00, 0.00, -0.00, -1.00, 735.9, 652.0)">g</text><text xml:space="preserve" font-family="YanoneKaffeesatz-Bold" font-weight="bold" font-size="150.0" fill="#FEFFFE" transform="matrix(1.00, 0.00, -0.00, -1.00, 793.2, 652.0)"> </text><text xml:space="preserve" font-family="YanoneKaffeesatz-Bold" font-weight="bold" font-size="150.0" fill="#FEFFFE" transform="matrix(1.00, 0.00, -0.00, -1.00, 814.2, 652.0)">a</text><text xml:space="preserve" font-family="YanoneKaffeesatz-Bold" font-weight="bold" font-size="150.0" fill="#FEFFFE" transform="matrix(1.00, 0.00, -0.00, -1.00, 864.9, 652.0)">b</text><text xml:space="preserve" font-family="YanoneKaffeesatz-Bold" font-weight="bold" font-size="150.0" fill="#FEFFFE" transform="matrix(1.00, 0.00, -0.00, -1.00, 919.2, 652.0)">o</text><text xml:space="preserve" font-family="YanoneKaffeesatz-Bold" font-weight="bold" font-size="150.0" fill="#FEFFFE" transform="matrix(1.00, 0.00, -0.00, -1.00, 971.8, 652.0)">u</text><text xml:space="preserve" font-family="YanoneKaffeesatz-Bold" font-weight="bold" font-size="150.0" fill="#FEFFFE" transform="matrix(1.00, 0.00, -0.00, -1.00, 1026.0, 652.0)">t</text><text xml:space="preserve" font-family="YanoneKaffeesatz-Bold" font-weight="bold" font-size="150.0" fill="#FEFFFE" transform="matrix(1.00, 0.00, -0.00, -1.00, 1068.6, 652.0)"> </text><text xml:space="preserve" font-family="YanoneKaffeesatz-Bold" font-weight="bold" font-size="150.0" fill="#FEFFFE" transform="matrix(1.00, 0.00, -0.00, -1.00, 1089.6, 652.0)">c</text><text xml:space="preserve" font-family="YanoneKaffeesatz-Bold" font-weight="bold" font-size="150.0" fill="#FEFFFE" transform="matrix(1.00, 0.00, -0.00, -1.00, 1131.0, 652.0)">o</text><text xml:space="preserve" font-family="YanoneKaffeesatz-Bold" font-weight="bold" font-size="150.0" fill="#FEFFFE" transform="matrix(1.00, 0.00, -0.00, -1.00, 1183.6, 652.0)">d</text><text xml:space="preserve" font-family="YanoneKaffeesatz-Bold" font-weight="bold" font-size="150.0" fill="#FEFFFE" transform="matrix(1.00, 0.00, -0.00, -1.00, 1238.5, 652.0)">e</text><text xml:space="preserve" font-family="YanoneKaffeesatz-Bold" font-weight="bold" font-size="150.0" fill="#FEFFFE" transform="matrix(1.00, 0.00, -0.00, -1.00, 1290.5, 652.0)"> </text><image xlink:href="../../74F3BA3C-C577-46E4-835E-1E95E6C4F8AD/assets/4BC8E11A3184144D567C90EF42BCD3EF.png" width="530.00" height="144.00" transform="matrix(1.00, 0.00, -0.00, -1.00, 344.0, 582.0)"></image><text xml:space="preserve" font-family="YanoneKaffeesatz-Bold" font-weight="bold" font-size="150.0" fill="#FEFFFE" transform="matrix(1.00, 0.00, -0.00, -1.00, 345.0, 474.0)">C</text><text xml:space="preserve" font-family="YanoneKaffeesatz-Bold" font-weight="bold" font-size="150.0" fill="#FEFFFE" transform="matrix(1.00, 0.00, -0.00, -1.00, 392.4, 474.0)">o</text><text xml:space="preserve" font-family="YanoneKaffeesatz-Bold" font-weight="bold" font-size="150.0" fill="#FEFFFE" transform="matrix(1.00, 0.00, -0.00, -1.00, 445.1, 474.0)">n</text><text xml:space="preserve" font-family="YanoneKaffeesatz-Bold" font-weight="bold" font-size="150.0" fill="#FEFFFE" transform="matrix(1.00, 0.00, -0.00, -1.00, 499.2, 474.0)">c</text><text xml:space="preserve" font-family="YanoneKaffeesatz-Bold" font-weight="bold" font-size="150.0" fill="#FEFFFE" transform="matrix(1.00, 0.00, -0.00, -1.00, 543.0, 474.0)">u</text><text xml:space="preserve" font-family="YanoneKaffeesatz-Bold" font-weight="bold" font-size="150.0" fill="#FEFFFE" transform="matrix(1.00, 0.00, -0.00, -1.00, 597.1, 474.0)">r</text><text xml:space="preserve" font-family="YanoneKaffeesatz-Bold" font-weight="bold" font-size="150.0" fill="#FEFFFE" transform="matrix(1.00, 0.00, -0.00, -1.00, 634.5, 474.0)">r</text><text xml:space="preserve" font-family="YanoneKaffeesatz-Bold" font-weight="bold" font-size="150.0" fill="#FEFFFE" transform="matrix(1.00, 0.00, -0.00, -1.00, 668.9, 474.0)">e</text><text xml:space="preserve" font-family="YanoneKaffeesatz-Bold" font-weight="bold" font-size="150.0" fill="#FEFFFE" transform="matrix(1.00, 0.00, -0.00, -1.00, 720.8, 474.0)">n</text><text xml:space="preserve" font-family="YanoneKaffeesatz-Bold" font-weight="bold" font-size="150.0" fill="#FEFFFE" transform="matrix(1.00, 0.00, -0.00, -1.00, 774.9, 474.0)">c</text><text xml:space="preserve" font-family="YanoneKaffeesatz-Bold" font-weight="bold" font-size="150.0" fill="#FEFFFE" transform="matrix(1.00, 0.00, -0.00, -1.00, 819.5, 474.0)">y</text><text xml:space="preserve" font-family="YanoneKaffeesatz-Bold" font-weight="bold" font-size="150.0" fill="#FEFFFE" transform="matrix(1.00, 0.00, -0.00, -1.00, 870.5, 474.0)"> </text><image xlink:href="../../74F3BA3C-C577-46E4-835E-1E95E6C4F8AD/assets/B956F9A59EFDC4D64227A28819D51602.png" width="1203.00" height="159.00" transform="matrix(1.00, 0.00, -0.00, -1.00, 345.0, 418.0)"></image><text xml:space="preserve" font-family="YanoneKaffeesatz-Bold" font-weight="bold" font-size="150.0" fill="#FEFFFE" transform="matrix(1.00, 0.00, -0.00, -1.00, 345.0, 296.0)">H</text><text xml:space="preserve" font-family="YanoneKaffeesatz-Bold" font-weight="bold" font-size="150.0" fill="#FEFFFE" transform="matrix(1.00, 0.00, -0.00, -1.00, 402.3, 296.0)">i</text><text xml:space="preserve" font-family="YanoneKaffeesatz-Bold" font-weight="bold" font-size="150.0" fill="#FEFFFE" transform="matrix(1.00, 0.00, -0.00, -1.00, 429.3, 296.0)">s</text><text xml:space="preserve" font-family="YanoneKaffeesatz-Bold" font-weight="bold" font-size="150.0" fill="#FEFFFE" transform="matrix(1.00, 0.00, -0.00, -1.00, 477.0, 296.0)">t</text><text xml:space="preserve" font-family="YanoneKaffeesatz-Bold" font-weight="bold" font-size="150.0" fill="#FEFFFE" transform="matrix(1.00, 0.00, -0.00, -1.00, 516.6, 296.0)">o</text><text xml:space="preserve" font-family="YanoneKaffeesatz-Bold" font-weight="bold" font-size="150.0" fill="#FEFFFE" transform="matrix(1.00, 0.00, -0.00, -1.00, 569.2, 296.0)">r</text><text xml:space="preserve" font-family="YanoneKaffeesatz-Bold" font-weight="bold" font-size="150.0" fill="#FEFFFE" transform="matrix(1.00, 0.00, -0.00, -1.00, 606.6, 296.0)">y</text><text xml:space="preserve" font-family="YanoneKaffeesatz-Bold" font-weight="bold" font-size="150.0" fill="#FEFFFE" transform="matrix(1.00, 0.00, -0.00, -1.00, 657.6, 296.0)"> </text><text xml:space="preserve" font-family="YanoneKaffeesatz-Bold" font-weight="bold" font-size="150.0" fill="#FEFFFE" transform="matrix(1.00, 0.00, -0.00, -1.00, 678.6, 296.0)">(</text><text xml:space="preserve" font-family="YanoneKaffeesatz-Bold" font-weight="bold" font-size="150.0" fill="#FEFFFE" transform="matrix(1.00, 0.00, -0.00, -1.00, 722.1, 296.0)">s</text><text xml:space="preserve" font-family="YanoneKaffeesatz-Bold" font-weight="bold" font-size="150.0" fill="#FEFFFE" transform="matrix(1.00, 0.00, -0.00, -1.00, 769.8, 296.0)">t</text><text xml:space="preserve" font-family="YanoneKaffeesatz-Bold" font-weight="bold" font-size="150.0" fill="#FEFFFE" transform="matrix(1.00, 0.00, -0.00, -1.00, 812.4, 296.0)">r</text><text xml:space="preserve" font-family="YanoneKaffeesatz-Bold" font-weight="bold" font-size="150.0" fill="#FEFFFE" transform="matrix(1.00, 0.00, -0.00, -1.00, 849.8, 296.0)">u</text><text xml:space="preserve" font-family="YanoneKaffeesatz-Bold" font-weight="bold" font-size="150.0" fill="#FEFFFE" transform="matrix(1.00, 0.00, -0.00, -1.00, 903.9, 296.0)">c</text><text xml:space="preserve" font-family="YanoneKaffeesatz-Bold" font-weight="bold" font-size="150.0" fill="#FEFFFE" transform="matrix(1.00, 0.00, -0.00, -1.00, 949.2, 296.0)">t</text><text xml:space="preserve" font-family="YanoneKaffeesatz-Bold" font-weight="bold" font-size="150.0" fill="#FEFFFE" transform="matrix(1.00, 0.00, -0.00, -1.00, 990.3, 296.0)">u</text><text xml:space="preserve" font-family="YanoneKaffeesatz-Bold" font-weight="bold" font-size="150.0" fill="#FEFFFE" transform="matrix(1.00, 0.00, -0.00, -1.00, 1044.5, 296.0)">r</text><text xml:space="preserve" font-family="YanoneKaffeesatz-Bold" font-weight="bold" font-size="150.0" fill="#FEFFFE" transform="matrix(1.00, 0.00, -0.00, -1.00, 1081.8, 296.0)">a</text><text xml:space="preserve" font-family="YanoneKaffeesatz-Bold" font-weight="bold" font-size="150.0" fill="#FEFFFE" transform="matrix(1.00, 0.00, -0.00, -1.00, 1132.5, 296.0)">l</text><text xml:space="preserve" font-family="YanoneKaffeesatz-Bold" font-weight="bold" font-size="150.0" fill="#FEFFFE" transform="matrix(1.00, 0.00, -0.00, -1.00, 1159.2, 296.0)"> </text><text xml:space="preserve" font-family="YanoneKaffeesatz-Bold" font-weight="bold" font-size="150.0" fill="#FEFFFE" transform="matrix(1.00, 0.00, -0.00, -1.00, 1180.2, 296.0)">s</text><text xml:space="preserve" font-family="YanoneKaffeesatz-Bold" font-weight="bold" font-size="150.0" fill="#FEFFFE" transform="matrix(1.00, 0.00, -0.00, -1.00, 1227.9, 296.0)">h</text><text xml:space="preserve" font-family="YanoneKaffeesatz-Bold" font-weight="bold" font-size="150.0" fill="#FEFFFE" transform="matrix(1.00, 0.00, -0.00, -1.00, 1282.1, 296.0)">a</text><text xml:space="preserve" font-family="YanoneKaffeesatz-Bold" font-weight="bold" font-size="150.0" fill="#FEFFFE" transform="matrix(1.00, 0.00, -0.00, -1.00, 1332.8, 296.0)">r</text><text xml:space="preserve" font-family="YanoneKaffeesatz-Bold" font-weight="bold" font-size="150.0" fill="#FEFFFE" transform="matrix(1.00, 0.00, -0.00, -1.00, 1370.1, 296.0)">i</text><text xml:space="preserve" font-family="YanoneKaffeesatz-Bold" font-weight="bold" font-size="150.0" fill="#FEFFFE" transform="matrix(1.00, 0.00, -0.00, -1.00, 1397.1, 296.0)">n</text><text xml:space="preserve" font-family="YanoneKaffeesatz-Bold" font-weight="bold" font-size="150.0" fill="#FEFFFE" transform="matrix(1.00, 0.00, -0.00, -1.00, 1451.3, 296.0)">g</text><text xml:space="preserve" font-family="YanoneKaffeesatz-Bold" font-weight="bold" font-size="150.0" fill="#FEFFFE" transform="matrix(1.00, 0.00, -0.00, -1.00, 1508.6, 296.0)">)</text><text xml:space="preserve" font-family="YanoneKaffeesatz-Bold" font-weight="bold" font-size="150.0" fill="#FEFFFE" transform="matrix(1.00, 0.00, -0.00, -1.00, 1552.0, 296.0)"> </text><image xlink:href="../../74F3BA3C-C577-46E4-835E-1E95E6C4F8AD/assets/E4E5665EBD758C90504F213011BD3396.png" width="1125.00" height="158.00" transform="matrix(1.00, 0.00, -0.00, -1.00, 345.0, 240.0)"></image><text xml:space="preserve" font-family="YanoneKaffeesatz-Bold" font-weight="bold" font-size="150.0" fill="#FEFFFE" transform="matrix(1.00, 0.00, -0.00, -1.00, 345.0, 118.0)">P</text><text xml:space="preserve" font-family="YanoneKaffeesatz-Bold" font-weight="bold" font-size="150.0" fill="#FEFFFE" transform="matrix(1.00, 0.00, -0.00, -1.00, 393.9, 118.0)">e</text><text xml:space="preserve" font-family="YanoneKaffeesatz-Bold" font-weight="bold" font-size="150.0" fill="#FEFFFE" transform="matrix(1.00, 0.00, -0.00, -1.00, 445.8, 118.0)">r</text><text xml:space="preserve" font-family="YanoneKaffeesatz-Bold" font-weight="bold" font-size="150.0" fill="#FEFFFE" transform="matrix(1.00, 0.00, -0.00, -1.00, 483.1, 118.0)">f</text><text xml:space="preserve" font-family="YanoneKaffeesatz-Bold" font-weight="bold" font-size="150.0" fill="#FEFFFE" transform="matrix(1.00, 0.00, -0.00, -1.00, 519.5, 118.0)">o</text><text xml:space="preserve" font-family="YanoneKaffeesatz-Bold" font-weight="bold" font-size="150.0" fill="#FEFFFE" transform="matrix(1.00, 0.00, -0.00, -1.00, 572.1, 118.0)">r</text><text xml:space="preserve" font-family="YanoneKaffeesatz-Bold" font-weight="bold" font-size="150.0" fill="#FEFFFE" transform="matrix(1.00, 0.00, -0.00, -1.00, 609.5, 118.0)">m</text><text xml:space="preserve" font-family="YanoneKaffeesatz-Bold" font-weight="bold" font-size="150.0" fill="#FEFFFE" transform="matrix(1.00, 0.00, -0.00, -1.00, 689.0, 118.0)">a</text><text xml:space="preserve" font-family="YanoneKaffeesatz-Bold" font-weight="bold" font-size="150.0" fill="#FEFFFE" transform="matrix(1.00, 0.00, -0.00, -1.00, 739.6, 118.0)">n</text><text xml:space="preserve" font-family="YanoneKaffeesatz-Bold" font-weight="bold" font-size="150.0" fill="#FEFFFE" transform="matrix(1.00, 0.00, -0.00, -1.00, 793.8, 118.0)">c</text><text xml:space="preserve" font-family="YanoneKaffeesatz-Bold" font-weight="bold" font-size="150.0" fill="#FEFFFE" transform="matrix(1.00, 0.00, -0.00, -1.00, 835.2, 118.0)">e</text><text xml:space="preserve" font-family="YanoneKaffeesatz-Bold" font-weight="bold" font-size="150.0" fill="#FEFFFE" transform="matrix(1.00, 0.00, -0.00, -1.00, 887.1, 118.0)"> </text><text xml:space="preserve" font-family="YanoneKaffeesatz-Bold" font-weight="bold" font-size="150.0" fill="#FEFFFE" transform="matrix(1.00, 0.00, -0.00, -1.00, 908.1, 118.0)">(</text><text xml:space="preserve" font-family="YanoneKaffeesatz-Bold" font-weight="bold" font-size="150.0" fill="#FEFFFE" transform="matrix(1.00, 0.00, -0.00, -1.00, 951.6, 118.0)">s</text><text xml:space="preserve" font-family="YanoneKaffeesatz-Bold" font-weight="bold" font-size="150.0" fill="#FEFFFE" transform="matrix(1.00, 0.00, -0.00, -1.00, 999.3, 118.0)">o</text><text xml:space="preserve" font-family="YanoneKaffeesatz-Bold" font-weight="bold" font-size="150.0" fill="#FEFFFE" transform="matrix(1.00, 0.00, -0.00, -1.00, 1052.0, 118.0)">m</text><text xml:space="preserve" font-family="YanoneKaffeesatz-Bold" font-weight="bold" font-size="150.0" fill="#FEFFFE" transform="matrix(1.00, 0.00, -0.00, -1.00, 1131.5, 118.0)">e</text><text xml:space="preserve" font-family="YanoneKaffeesatz-Bold" font-weight="bold" font-size="150.0" fill="#FEFFFE" transform="matrix(1.00, 0.00, -0.00, -1.00, 1183.3, 118.0)">t</text><text xml:space="preserve" font-family="YanoneKaffeesatz-Bold" font-weight="bold" font-size="150.0" fill="#FEFFFE" transform="matrix(1.00, 0.00, -0.00, -1.00, 1226.0, 118.0)">i</text><text xml:space="preserve" font-family="YanoneKaffeesatz-Bold" font-weight="bold" font-size="150.0" fill="#FEFFFE" transform="matrix(1.00, 0.00, -0.00, -1.00, 1253.0, 118.0)">m</text><text xml:space="preserve" font-family="YanoneKaffeesatz-Bold" font-weight="bold" font-size="150.0" fill="#FEFFFE" transform="matrix(1.00, 0.00, -0.00, -1.00, 1332.5, 118.0)">e</text><text xml:space="preserve" font-family="YanoneKaffeesatz-Bold" font-weight="bold" font-size="150.0" fill="#FEFFFE" transform="matrix(1.00, 0.00, -0.00, -1.00, 1384.4, 118.0)">s</text><text xml:space="preserve" font-family="YanoneKaffeesatz-Bold" font-weight="bold" font-size="150.0" fill="#FEFFFE" transform="matrix(1.00, 0.00, -0.00, -1.00, 1430.6, 118.0)">)</text><image xlink:href="../../74F3BA3C-C577-46E4-835E-1E95E6C4F8AD/assets/5EA67DF33627124B14CF17B9F01610DA.png" width="336.00" height="194.00" transform="matrix(1.00, 0.00, -0.00, -1.00, 792.0, 1013.0)"></image><text xml:space="preserve" font-family="YanoneKaffeesatz-Bold" font-weight="bold" font-size="200.0" fill="#FC6900" transform="matrix(1.00, 0.00, -0.00, -1.00, 795.0, 865.0)">W</text><text xml:space="preserve" font-family="YanoneKaffeesatz-Bold" font-weight="bold" font-size="200.0" fill="#FC6900" transform="matrix(1.00, 0.00, -0.00, -1.00, 928.6, 865.0)">h</text><text xml:space="preserve" font-family="YanoneKaffeesatz-Bold" font-weight="bold" font-size="200.0" fill="#FC6900" transform="matrix(1.00, 0.00, -0.00, -1.00, 998.8, 865.0)">y</text><text xml:space="preserve" font-family="YanoneKaffeesatz-Bold" font-weight="bold" font-size="200.0" fill="#FC6900" transform="matrix(1.00, 0.00, -0.00, -1.00, 1066.8, 865.0)">?</text></g></svg>