<?xml version="1.0" encoding="UTF-8" standalone="no"?><svg xmlns="http://www.w3.org/2000/svg" xmlns:xlink="http://www.w3.org/1999/xlink" clip-rule="evenodd" stroke-miterlimit="4.00" viewBox="0 0 1920 1080"><desc>SVG generated by Keynote</desc><defs></defs><g transform="matrix(1.00, 0.00, -0.00, -1.00, 0.0, 1080.0)"><g><clipPath id="clip-9330"><path d="M 0.0 1080.0 L 1920.0 1080.0 L 1920.0 0.0 L 0.0 0.0 Z M 0.0 1080.0 "></path></clipPath><g clip-path="url(#clip-9330)"><image xlink:href="../../C790834B-C1C8-4410-8563-9C912CD2A702/assets/4B0075050CC9D0F3DC006F0CDE78D676.jpeg" width="1365.00" height="767.00" transform="matrix(1.41, 0.00, -0.00, -1.41, 0.0, 1080.0)"></image></g></g><path d="M 229.8 500.5 L 1690.2 500.5 L 1690.2 321.8 L 229.8 321.8 Z M 229.8 500.5 " fill="#0072CF"></path><image xlink:href="../../F084ED7B-BA1D-4B8C-8774-8C77B9A16F15/assets/0D777B852638A2E9CF4822328C3CA0E4.png" width="204.00" height="57.00" transform="matrix(1.00, 0.00, -0.00, -1.00, 254.0, 459.0)"></image><text xml:space="preserve" font-family="Hack-Regular" font-size="50.0" fill="#FEFFFE" transform="matrix(1.00, 0.00, -0.00, -1.00, 254.0, 420.0)">b</text><text xml:space="preserve" font-family="Hack-Regular" font-size="50.0" fill="#FEFFFE" transform="matrix(1.00, 0.00, -0.00, -1.00, 284.1, 420.0)">i</text><text xml:space="preserve" font-family="Hack-Regular" font-size="50.0" fill="#FEFFFE" transform="matrix(1.00, 0.00, -0.00, -1.00, 314.2, 420.0)">t</text><text xml:space="preserve" font-family="Hack-Regular" font-size="50.0" fill="#FEFFFE" transform="matrix(1.00, 0.00, -0.00, -1.00, 344.3, 420.0)">m</text><text xml:space="preserve" font-family="Hack-Regular" font-size="50.0" fill="#FEFFFE" transform="matrix(1.00, 0.00, -0.00, -1.00, 374.4, 420.0)">a</text><text xml:space="preserve" font-family="Hack-Regular" font-size="50.0" fill="#FEFFFE" transform="matrix(1.00, 0.00, -0.00, -1.00, 404.5, 420.0)">p</text><text xml:space="preserve" font-family="Hack-Regular" font-size="50.0" fill="#FEFFFE" transform="matrix(1.00, 0.00, -0.00, -1.00, 434.6, 420.0)">:</text><image xlink:href="029E57E710B6A283E68EB8F9C61F00C4.png" width="390.00" height="47.00" transform="matrix(1.00, 0.00, -0.00, -1.00, 164.0, 741.0)"></image><text xml:space="preserve" font-family="Hack-Regular" font-size="50.0" fill="#E0E4CB" transform="matrix(1.00, 0.00, -0.00, -1.00, 162.0, 702.0)">1</text><text xml:space="preserve" font-family="Hack-Regular" font-size="50.0" fill="#E0E4CB" transform="matrix(1.00, 0.00, -0.00, -1.00, 192.1, 702.0)"> </text><text xml:space="preserve" font-family="Hack-Regular" font-size="50.0" fill="#E0E4CB" transform="matrix(1.00, 0.00, -0.00, -1.00, 222.2, 702.0)">0</text><text xml:space="preserve" font-family="Hack-Regular" font-size="50.0" fill="#E0E4CB" transform="matrix(1.00, 0.00, -0.00, -1.00, 252.3, 702.0)">0</text><text xml:space="preserve" font-family="Hack-Regular" font-size="50.0" fill="#E0E4CB" transform="matrix(1.00, 0.00, -0.00, -1.00, 282.4, 702.0)">0</text><text xml:space="preserve" font-family="Hack-Regular" font-size="50.0" fill="#E0E4CB" transform="matrix(1.00, 0.00, -0.00, -1.00, 312.5, 702.0)"> </text><text xml:space="preserve" font-family="Hack-Regular" font-size="50.0" fill="#E0E4CB" transform="matrix(1.00, 0.00, -0.00, -1.00, 342.6, 702.0)">0</text><text xml:space="preserve" font-family="Hack-Regular" font-size="50.0" fill="#E0E4CB" transform="matrix(1.00, 0.00, -0.00, -1.00, 372.8, 702.0)">0</text><text xml:space="preserve" font-family="Hack-Regular" font-size="50.0" fill="#E0E4CB" transform="matrix(1.00, 0.00, -0.00, -1.00, 402.9, 702.0)">0</text><text xml:space="preserve" font-family="Hack-Regular" font-size="50.0" fill="#E0E4CB" transform="matrix(1.00, 0.00, -0.00, -1.00, 433.0, 702.0)"> </text><text xml:space="preserve" font-family="Hack-Regular" font-size="50.0" fill="#E0E4CB" transform="matrix(1.00, 0.00, -0.00, -1.00, 463.1, 702.0)">0</text><text xml:space="preserve" font-family="Hack-Regular" font-size="50.0" fill="#E0E4CB" transform="matrix(1.00, 0.00, -0.00, -1.00, 493.2, 702.0)">0</text><text xml:space="preserve" font-family="Hack-Regular" font-size="50.0" fill="#E0E4CB" transform="matrix(1.00, 0.00, -0.00, -1.00, 523.3, 702.0)">5</text><image xlink:href="../../69E04C23-E5CC-48A3-9D2B-60E18EA842C6/assets/F2F92E3778A164B8D3DFA6B0856C4ED8.png" width="17.00" height="35.00" transform="matrix(1.00, 0.00, -0.00, -1.00, 560.0, 731.0)"></image><text xml:space="preserve" font-family="Hack-Regular" font-size="50.0" fill="#FEFFFE" transform="matrix(1.00, 0.00, -0.00, -1.00, 553.3, 702.0)">:</text><text xml:space="preserve" font-family="Hack-Regular" font-size="50.0" fill="#FEFFFE" transform="matrix(1.00, 0.00, -0.00, -1.00, 583.4, 702.0)"> </text><image xlink:href="../../69E04C23-E5CC-48A3-9D2B-60E18EA842C6/assets/1242B22D28EAA3F9328A5AC78A1309DA.png" width="63.00" height="47.00" transform="matrix(1.00, 0.00, -0.00, -1.00, 612.0, 741.0)"></image><text xml:space="preserve" font-family="Hack-Regular" font-size="50.0" fill="#55E3B7" transform="matrix(1.00, 0.00, -0.00, -1.00, 613.5, 702.0)">0</text><text xml:space="preserve" font-family="Hack-Regular" font-size="50.0" fill="#55E3B7" transform="matrix(1.00, 0.00, -0.00, -1.00, 643.6, 702.0)">0</text><text xml:space="preserve" font-family="Hack-Regular" font-size="50.0" fill="#FEFFFE" transform="matrix(1.00, 0.00, -0.00, -1.00, 673.7, 702.0)"> </text><image xlink:href="../../69E04C23-E5CC-48A3-9D2B-60E18EA842C6/assets/17BDE80DF2FBFF8EB86BD43B8AFEF888.png" width="150.00" height="47.00" transform="matrix(1.00, 0.00, -0.00, -1.00, 705.0, 741.0)"></image><text xml:space="preserve" font-family="Hack-Regular" font-size="50.0" fill="#64D1E8" transform="matrix(1.00, 0.00, -0.00, -1.00, 703.8, 702.0)">1</text><text xml:space="preserve" font-family="Hack-Regular" font-size="50.0" fill="#64D1E8" transform="matrix(1.00, 0.00, -0.00, -1.00, 734.0, 702.0)">1</text><text xml:space="preserve" font-family="Hack-Regular" font-size="50.0" fill="#64D1E8" transform="matrix(1.00, 0.00, -0.00, -1.00, 764.1, 702.0)">1</text><text xml:space="preserve" font-family="Hack-Regular" font-size="50.0" fill="#64D1E8" transform="matrix(1.00, 0.00, -0.00, -1.00, 794.2, 702.0)">0</text><text xml:space="preserve" font-family="Hack-Regular" font-size="50.0" fill="#64D1E8" transform="matrix(1.00, 0.00, -0.00, -1.00, 824.3, 702.0)">1</text><text xml:space="preserve" font-family="Hack-Regular" font-size="50.0" fill="#FEFFFE" transform="matrix(1.00, 0.00, -0.00, -1.00, 854.4, 702.0)"> </text><image xlink:href="../../69E04C23-E5CC-48A3-9D2B-60E18EA842C6/assets/5488384F64D6F947916697A8B007107C.png" width="150.00" height="47.00" transform="matrix(1.00, 0.00, -0.00, -1.00, 886.0, 741.0)"></image><text xml:space="preserve" font-family="Hack-Regular" font-size="50.0" fill="#E37055" transform="matrix(1.00, 0.00, -0.00, -1.00, 884.5, 702.0)">1</text><text xml:space="preserve" font-family="Hack-Regular" font-size="50.0" fill="#E37055" transform="matrix(1.00, 0.00, -0.00, -1.00, 914.6, 702.0)">1</text><text xml:space="preserve" font-family="Hack-Regular" font-size="50.0" fill="#E37055" transform="matrix(1.00, 0.00, -0.00, -1.00, 944.7, 702.0)">0</text><text xml:space="preserve" font-family="Hack-Regular" font-size="50.0" fill="#E37055" transform="matrix(1.00, 0.00, -0.00, -1.00, 974.8, 702.0)">0</text><text xml:space="preserve" font-family="Hack-Regular" font-size="50.0" fill="#E37055" transform="matrix(1.00, 0.00, -0.00, -1.00, 1004.9, 702.0)">1</text><text xml:space="preserve" font-family="Hack-Regular" font-size="50.0" fill="#FEFFFE" transform="matrix(1.00, 0.00, -0.00, -1.00, 1035.0, 702.0)"> </text><image xlink:href="../../69E04C23-E5CC-48A3-9D2B-60E18EA842C6/assets/683E989DB8335FBB9D24CB47DF18E035.png" width="150.00" height="47.00" transform="matrix(1.00, 0.00, -0.00, -1.00, 1067.0, 741.0)"></image><text xml:space="preserve" font-family="Hack-Regular" font-size="50.0" fill="#E0E4CB" transform="matrix(1.00, 0.00, -0.00, -1.00, 1065.1, 702.0)">1</text><text xml:space="preserve" font-family="Hack-Regular" font-size="50.0" fill="#E0E4CB" transform="matrix(1.00, 0.00, -0.00, -1.00, 1095.2, 702.0)">0</text><text xml:space="preserve" font-family="Hack-Regular" font-size="50.0" fill="#E0E4CB" transform="matrix(1.00, 0.00, -0.00, -1.00, 1125.3, 702.0)">1</text><text xml:space="preserve" font-family="Hack-Regular" font-size="50.0" fill="#E0E4CB" transform="matrix(1.00, 0.00, -0.00, -1.00, 1155.4, 702.0)">0</text><text xml:space="preserve" font-family="Hack-Regular" font-size="50.0" fill="#E0E4CB" transform="matrix(1.00, 0.00, -0.00, -1.00, 1185.5, 702.0)">1</text><text xml:space="preserve" font-family="Hack-Regular" font-size="50.0" fill="#FEFFFE" transform="matrix(1.00, 0.00, -0.00, -1.00, 1215.6, 702.0)"> </text><image xlink:href="../../69E04C23-E5CC-48A3-9D2B-60E18EA842C6/assets/F30F944981A7A31124544760D2A79904.png" width="150.00" height="47.00" transform="matrix(1.00, 0.00, -0.00, -1.00, 1247.0, 741.0)"></image><text xml:space="preserve" font-family="Hack-Regular" font-size="50.0" fill="#0073CF" transform="matrix(1.00, 0.00, -0.00, -1.00, 1245.7, 702.0)">1</text><text xml:space="preserve" font-family="Hack-Regular" font-size="50.0" fill="#0073CF" transform="matrix(1.00, 0.00, -0.00, -1.00, 1275.8, 702.0)">0</text><text xml:space="preserve" font-family="Hack-Regular" font-size="50.0" fill="#0073CF" transform="matrix(1.00, 0.00, -0.00, -1.00, 1305.9, 702.0)">0</text><text xml:space="preserve" font-family="Hack-Regular" font-size="50.0" fill="#0073CF" transform="matrix(1.00, 0.00, -0.00, -1.00, 1336.0, 702.0)">1</text><text xml:space="preserve" font-family="Hack-Regular" font-size="50.0" fill="#0073CF" transform="matrix(1.00, 0.00, -0.00, -1.00, 1366.1, 702.0)">0</text><text xml:space="preserve" font-family="Hack-Regular" font-size="50.0" fill="#FEFFFE" transform="matrix(1.00, 0.00, -0.00, -1.00, 1396.2, 702.0)"> </text><image xlink:href="../../69E04C23-E5CC-48A3-9D2B-60E18EA842C6/assets/9B1157E541114996B678D006AC4B29F3.png" width="150.00" height="47.00" transform="matrix(1.00, 0.00, -0.00, -1.00, 1428.0, 741.0)"></image><text xml:space="preserve" font-family="Hack-Regular" font-size="50.0" fill="#FE2500" transform="matrix(1.00, 0.00, -0.00, -1.00, 1426.3, 702.0)">1</text><text xml:space="preserve" font-family="Hack-Regular" font-size="50.0" fill="#FE2500" transform="matrix(1.00, 0.00, -0.00, -1.00, 1456.4, 702.0)">0</text><text xml:space="preserve" font-family="Hack-Regular" font-size="50.0" fill="#FE2500" transform="matrix(1.00, 0.00, -0.00, -1.00, 1486.5, 702.0)">0</text><text xml:space="preserve" font-family="Hack-Regular" font-size="50.0" fill="#FE2500" transform="matrix(1.00, 0.00, -0.00, -1.00, 1516.6, 702.0)">0</text><text xml:space="preserve" font-family="Hack-Regular" font-size="50.0" fill="#FE2500" transform="matrix(1.00, 0.00, -0.00, -1.00, 1546.7, 702.0)">0</text><text xml:space="preserve" font-family="Hack-Regular" font-size="50.0" fill="#FEFFFE" transform="matrix(1.00, 0.00, -0.00, -1.00, 1576.8, 702.0)"> </text><image xlink:href="1D8A1947F0C67F8362623BD466839786.png" width="153.00" height="47.00" transform="matrix(1.00, 0.00, -0.00, -1.00, 1606.0, 741.0)"></image><text xml:space="preserve" font-family="Hack-Regular" font-size="50.0" fill="#FC6900" transform="matrix(1.00, 0.00, -0.00, -1.00, 1606.9, 702.0)">0</text><text xml:space="preserve" font-family="Hack-Regular" font-size="50.0" fill="#FC6900" transform="matrix(1.00, 0.00, -0.00, -1.00, 1637.0, 702.0)">0</text><text xml:space="preserve" font-family="Hack-Regular" font-size="50.0" fill="#FC6900" transform="matrix(1.00, 0.00, -0.00, -1.00, 1667.1, 702.0)">1</text><text xml:space="preserve" font-family="Hack-Regular" font-size="50.0" fill="#FC6900" transform="matrix(1.00, 0.00, -0.00, -1.00, 1697.2, 702.0)">0</text><text xml:space="preserve" font-family="Hack-Regular" font-size="50.0" fill="#FC6900" transform="matrix(1.00, 0.00, -0.00, -1.00, 1727.4, 702.0)">1</text><g><clipPath id="clip-9331"><path d="M 494.5 395.9 L 544.5 395.9 L 544.5 345.9 L 494.5 345.9 Z M 494.5 395.9 "></path></clipPath><g clip-path="url(#clip-9331)"><image xlink:href="../../8C2C8740-BD7C-4FE1-9B12-B3CBCCB84962/assets/33FC92A43BC30733746F965AC876E15E.jpeg" width="317.00" height="317.00" transform="matrix(1.00, 0.00, -0.00, -1.00, 494.5, 395.9)"></image><path d="M 494.5 395.9 L 544.5 395.9 L 544.5 345.9 L 494.5 345.9 Z M 494.5 395.9 " fill="#0096EA" fill-opacity="0.70"></path></g></g><path d="M 0.0 0.0 L 50.0 0.0 L 50.0 50.0 L 0.0 50.0 Z M 0.0 0.0 " fill="none" stroke="#64D1E8" stroke-width="5.00" transform="matrix(1.00, 0.00, 0.00, -1.00, 494.5, 395.9)"></path><image xlink:href="../../67E9BE5C-0AC1-48D3-A0DD-969A2C93FEA6/assets/0CCF06F6D833B97E86625EEC1535969F.png" width="31.00" height="31.00" transform="matrix(1.00, 0.00, -0.00, -1.00, 505.0, 384.0)"></image><g><clipPath id="clip-9332"><path d="M 488.9 338.1 L 550.2 338.1 L 550.2 398.6 L 488.9 398.6 Z M 488.9 338.1 "></path></clipPath><g clip-path="url(#clip-9332)"><text xml:space="preserve" font-family="YanoneKaffeesatz-Regular" font-size="30.0" fill="#FEFFFE" transform="matrix(1.00, 0.00, -0.00, -1.00, 508.0, 360.0)">k</text><text xml:space="preserve" font-family="YanoneKaffeesatz-Regular" font-size="30.0" fill="#FEFFFE" transform="matrix(1.00, 0.00, -0.00, -1.00, 519.4, 360.0)">2</text></g></g><g><clipPath id="clip-9333"><path d="M 549.5 395.9 L 599.5 395.9 L 599.5 345.9 L 549.5 345.9 Z M 549.5 395.9 "></path></clipPath><g clip-path="url(#clip-9333)"><image xlink:href="../../8C2C8740-BD7C-4FE1-9B12-B3CBCCB84962/assets/33FC92A43BC30733746F965AC876E15E.jpeg" width="317.00" height="317.00" transform="matrix(1.00, 0.00, -0.00, -1.00, 549.5, 395.9)"></image><path d="M 549.5 395.9 L 599.5 395.9 L 599.5 345.9 L 549.5 345.9 Z M 549.5 395.9 " fill="#0096EA" fill-opacity="0.70"></path></g></g><path d="M 0.0 0.0 L 50.0 0.0 L 50.0 50.0 L 0.0 50.0 Z M 0.0 0.0 " fill="none" stroke="#64D1E8" stroke-width="5.00" transform="matrix(1.00, 0.00, 0.00, -1.00, 549.5, 395.9)"></path><image xlink:href="../../67E9BE5C-0AC1-48D3-A0DD-969A2C93FEA6/assets/98CA62169E0DB039215E34E38B2D39C1.png" width="30.00" height="27.00" transform="matrix(1.00, 0.00, -0.00, -1.00, 559.0, 379.0)"></image><g><clipPath id="clip-9334"><path d="M 543.8 338.1 L 605.2 338.1 L 605.2 398.6 L 543.8 398.6 Z M 543.8 338.1 "></path></clipPath><g clip-path="url(#clip-9334)"><text xml:space="preserve" font-family="YanoneKaffeesatz-Regular" font-size="30.0" fill="#FEFFFE" transform="matrix(1.00, 0.00, -0.00, -1.00, 563.0, 360.0)">v</text><text xml:space="preserve" font-family="YanoneKaffeesatz-Regular" font-size="30.0" fill="#FEFFFE" transform="matrix(1.00, 0.00, -0.00, -1.00, 573.3, 360.0)">2</text></g></g><g><clipPath id="clip-9335"><path d="M 776.0 652.7 L 1034.1 652.7 L 1034.1 602.7 L 776.0 602.7 Z M 776.0 652.7 "></path></clipPath><g clip-path="url(#clip-9335)"><image xlink:href="../../8C2C8740-BD7C-4FE1-9B12-B3CBCCB84962/assets/33FC92A43BC30733746F965AC876E15E.jpeg" width="317.00" height="317.00" transform="matrix(1.00, 0.00, -0.00, -1.00, 776.0, 652.7)"></image><path d="M 776.0 652.7 L 1034.1 652.7 L 1034.1 602.7 L 776.0 602.7 Z M 776.0 652.7 " fill="#0096EA" fill-opacity="0.70"></path></g></g><path d="M 0.0 0.0 L 258.0 0.0 L 258.0 50.0 L 0.0 50.0 Z M 0.0 0.0 " fill="none" stroke="#64D1E8" stroke-width="5.00" transform="matrix(1.00, 0.00, 0.00, -1.00, 776.0, 652.7)"></path><g><clipPath id="clip-9336"><path d="M 1039.0 652.7 L 1089.0 652.7 L 1089.0 602.7 L 1039.0 602.7 Z M 1039.0 652.7 "></path></clipPath><g clip-path="url(#clip-9336)"><image xlink:href="../../8C2C8740-BD7C-4FE1-9B12-B3CBCCB84962/assets/33FC92A43BC30733746F965AC876E15E.jpeg" width="317.00" height="317.00" transform="matrix(1.00, 0.00, -0.00, -1.00, 1039.0, 652.7)"></image><path d="M 1039.0 652.7 L 1089.0 652.7 L 1089.0 602.7 L 1039.0 602.7 Z M 1039.0 652.7 " fill="#0096EA" fill-opacity="0.70"></path></g></g><path d="M 0.0 0.0 L 50.0 0.0 L 50.0 50.0 L 0.0 50.0 Z M 0.0 0.0 " fill="none" stroke="#64D1E8" stroke-width="5.00" transform="matrix(1.00, 0.00, 0.00, -1.00, 1039.0, 652.7)"></path><image xlink:href="3AA0D5608969ED385CB90A028BA5F192.png" width="96.00" height="32.00" transform="matrix(1.00, 0.00, -0.00, -1.00, 1425.0, 405.0)"></image><text xml:space="preserve" font-family="Hack-Bold" font-weight="bold" font-size="30.0" fill="#FC6900" transform="matrix(1.00, 0.00, -0.00, -1.00, 1428.0, 381.0)">0</text><text xml:space="preserve" font-family="Hack-Bold" font-weight="bold" font-size="30.0" fill="#FC6900" transform="matrix(1.00, 0.00, -0.00, -1.00, 1446.1, 381.0)">0</text><text xml:space="preserve" font-family="Hack-Bold" font-weight="bold" font-size="30.0" fill="#FC6900" transform="matrix(1.00, 0.00, -0.00, -1.00, 1464.1, 381.0)">1</text><text xml:space="preserve" font-family="Hack-Bold" font-weight="bold" font-size="30.0" fill="#FC6900" transform="matrix(1.00, 0.00, -0.00, -1.00, 1482.2, 381.0)">0</text><text xml:space="preserve" font-family="Hack-Bold" font-weight="bold" font-size="30.0" fill="#FC6900" transform="matrix(1.00, 0.00, -0.00, -1.00, 1500.3, 381.0)">1</text><image xlink:href="../../F084ED7B-BA1D-4B8C-8774-8C77B9A16F15/assets/ACF2D03063F880C6B55BFCAC9A8F3FC3.png" width="175.00" height="48.00" transform="matrix(1.00, 0.00, -0.00, -1.00, 253.0, 384.0)"></image><text xml:space="preserve" font-family="Hack-Regular" font-size="50.0" fill="#FEFFFE" transform="matrix(1.00, 0.00, -0.00, -1.00, 254.0, 354.0)">a</text><text xml:space="preserve" font-family="Hack-Regular" font-size="50.0" fill="#FEFFFE" transform="matrix(1.00, 0.00, -0.00, -1.00, 284.1, 354.0)">r</text><text xml:space="preserve" font-family="Hack-Regular" font-size="50.0" fill="#FEFFFE" transform="matrix(1.00, 0.00, -0.00, -1.00, 314.2, 354.0)">r</text><text xml:space="preserve" font-family="Hack-Regular" font-size="50.0" fill="#FEFFFE" transform="matrix(1.00, 0.00, -0.00, -1.00, 344.3, 354.0)">a</text><text xml:space="preserve" font-family="Hack-Regular" font-size="50.0" fill="#FEFFFE" transform="matrix(1.00, 0.00, -0.00, -1.00, 374.4, 354.0)">y</text><text xml:space="preserve" font-family="Hack-Regular" font-size="50.0" fill="#FEFFFE" transform="matrix(1.00, 0.00, -0.00, -1.00, 404.5, 354.0)">:</text><image xlink:href="ECF5425059DCCD28E94C2DB232DB1671.png" width="966.00" height="47.00" transform="matrix(1.00, 0.00, -0.00, -1.00, 492.0, 459.0)"></image><text xml:space="preserve" font-family="Hack-Regular" font-size="50.0" fill="#FEFFFE" transform="matrix(1.00, 0.00, -0.00, -1.00, 493.0, 420.0)">0</text><text xml:space="preserve" font-family="Hack-Regular" font-size="50.0" fill="#FEFFFE" transform="matrix(1.00, 0.00, -0.00, -1.00, 523.1, 420.0)">0</text><text xml:space="preserve" font-family="Hack-Regular" font-size="50.0" fill="#FEFFFE" transform="matrix(1.00, 0.00, -0.00, -1.00, 553.2, 420.0)">0</text><text xml:space="preserve" font-family="Hack-Regular" font-size="50.0" fill="#FEFFFE" transform="matrix(1.00, 0.00, -0.00, -1.00, 583.3, 420.0)">0</text><text xml:space="preserve" font-family="Hack-Regular" font-size="50.0" fill="#FEFFFE" transform="matrix(1.00, 0.00, -0.00, -1.00, 613.4, 420.0)"> </text><text xml:space="preserve" font-family="Hack-Regular" font-size="50.0" fill="#FEFFFE" transform="matrix(1.00, 0.00, -0.00, -1.00, 643.5, 420.0)">0</text><text xml:space="preserve" font-family="Hack-Regular" font-size="50.0" fill="#FEFFFE" transform="matrix(1.00, 0.00, -0.00, -1.00, 673.6, 420.0)">0</text><text xml:space="preserve" font-family="Hack-Regular" font-size="50.0" fill="#FEFFFE" transform="matrix(1.00, 0.00, -0.00, -1.00, 703.8, 420.0)">0</text><text xml:space="preserve" font-family="Hack-Regular" font-size="50.0" fill="#FEFFFE" transform="matrix(1.00, 0.00, -0.00, -1.00, 733.9, 420.0)">0</text><text xml:space="preserve" font-family="Hack-Regular" font-size="50.0" fill="#FEFFFE" transform="matrix(1.00, 0.00, -0.00, -1.00, 764.0, 420.0)"> </text><text xml:space="preserve" font-family="Hack-Regular" font-size="50.0" fill="#FEFFFE" transform="matrix(1.00, 0.00, -0.00, -1.00, 794.1, 420.0)">0</text><text xml:space="preserve" font-family="Hack-Regular" font-size="50.0" fill="#FEFFFE" transform="matrix(1.00, 0.00, -0.00, -1.00, 824.2, 420.0)">0</text><text xml:space="preserve" font-family="Hack-Regular" font-size="50.0" fill="#FEFFFE" transform="matrix(1.00, 0.00, -0.00, -1.00, 854.3, 420.0)">0</text><text xml:space="preserve" font-family="Hack-Regular" font-size="50.0" fill="#FEFFFE" transform="matrix(1.00, 0.00, -0.00, -1.00, 884.4, 420.0)">0</text><text xml:space="preserve" font-family="Hack-Regular" font-size="50.0" fill="#FEFFFE" transform="matrix(1.00, 0.00, -0.00, -1.00, 914.5, 420.0)"> </text><text xml:space="preserve" font-family="Hack-Regular" font-size="50.0" fill="#FEFFFE" transform="matrix(1.00, 0.00, -0.00, -1.00, 944.6, 420.0)">0</text><text xml:space="preserve" font-family="Hack-Regular" font-size="50.0" fill="#FEFFFE" transform="matrix(1.00, 0.00, -0.00, -1.00, 974.7, 420.0)">0</text><text xml:space="preserve" font-family="Hack-Regular" font-size="50.0" fill="#FEFFFE" transform="matrix(1.00, 0.00, -0.00, -1.00, 1004.8, 420.0)">0</text><text xml:space="preserve" font-family="Hack-Regular" font-size="50.0" fill="#FEFFFE" transform="matrix(1.00, 0.00, -0.00, -1.00, 1034.9, 420.0)">0</text><text xml:space="preserve" font-family="Hack-Regular" font-size="50.0" fill="#FEFFFE" transform="matrix(1.00, 0.00, -0.00, -1.00, 1065.0, 420.0)"> </text><text xml:space="preserve" font-family="Hack-Regular" font-size="50.0" fill="#FEFFFE" transform="matrix(1.00, 0.00, -0.00, -1.00, 1095.2, 420.0)">0</text><text xml:space="preserve" font-family="Hack-Regular" font-size="50.0" fill="#FEFFFE" transform="matrix(1.00, 0.00, -0.00, -1.00, 1125.3, 420.0)">0</text><text xml:space="preserve" font-family="Hack-Regular" font-size="50.0" fill="#FEFFFE" transform="matrix(1.00, 0.00, -0.00, -1.00, 1155.4, 420.0)">0</text><text xml:space="preserve" font-family="Hack-Regular" font-size="50.0" fill="#FEFFFE" transform="matrix(1.00, 0.00, -0.00, -1.00, 1185.5, 420.0)">0</text><text xml:space="preserve" font-family="Hack-Regular" font-size="50.0" fill="#FEFFFE" transform="matrix(1.00, 0.00, -0.00, -1.00, 1215.6, 420.0)"> </text><text xml:space="preserve" font-family="Hack-Regular" font-size="50.0" fill="#FEFFFE" transform="matrix(1.00, 0.00, -0.00, -1.00, 1245.7, 420.0)">0</text><text xml:space="preserve" font-family="Hack-Regular" font-size="50.0" fill="#FEFFFE" transform="matrix(1.00, 0.00, -0.00, -1.00, 1275.8, 420.0)">0</text><text xml:space="preserve" font-family="Hack-Regular" font-size="50.0" fill="#FEFFFE" transform="matrix(1.00, 0.00, -0.00, -1.00, 1305.9, 420.0)">0</text><text xml:space="preserve" font-family="Hack-Regular" font-size="50.0" fill="#FEFFFE" transform="matrix(1.00, 0.00, -0.00, -1.00, 1336.0, 420.0)">0</text><text xml:space="preserve" font-family="Hack-Regular" font-size="50.0" fill="#FEFFFE" transform="matrix(1.00, 0.00, -0.00, -1.00, 1366.1, 420.0)"> </text><text xml:space="preserve" font-family="Hack-Regular" font-size="50.0" fill="#FEFFFE" transform="matrix(1.00, 0.00, -0.00, -1.00, 1396.2, 420.0)">0</text><text xml:space="preserve" font-family="Hack-Regular" font-size="50.0" fill="#FEFFFE" transform="matrix(1.00, 0.00, -0.00, -1.00, 1426.3, 420.0)">0</text><image xlink:href="FE3CA7B630F9F57ABC46E909F328B8B3.png" width="29.00" height="45.00" transform="matrix(1.00, 0.00, -0.00, -1.00, 1458.0, 458.0)"></image><text xml:space="preserve" font-family="Hack-Regular" font-size="50.0" fill="#FE2500" transform="matrix(1.00, 0.00, -0.00, -1.00, 1456.3, 420.0)">1</text><image xlink:href="91B91F125EDE12CA8C920E4DAD3D65FD.png" width="33.00" height="47.00" transform="matrix(1.00, 0.00, -0.00, -1.00, 1485.0, 459.0)"></image><text xml:space="preserve" font-family="Hack-Regular" font-size="50.0" fill="#FEFFFE" transform="matrix(1.00, 0.00, -0.00, -1.00, 1486.4, 420.0)">0</text><text xml:space="preserve" font-family="Hack-Regular" font-size="50.0" fill="#FEFFFE" transform="matrix(1.00, 0.00, -0.00, -1.00, 1516.5, 420.0)"> </text><image xlink:href="../../F084ED7B-BA1D-4B8C-8774-8C77B9A16F15/assets/94533FB02836310F2F0BD2F491C939CB.png" width="30.00" height="45.00" transform="matrix(1.00, 0.00, -0.00, -1.00, 1548.0, 458.0)"></image><text xml:space="preserve" font-family="Hack-Regular" font-size="50.0" fill="#FE2500" transform="matrix(1.00, 0.00, -0.00, -1.00, 1546.6, 420.0)">1</text><image xlink:href="../../67E9BE5C-0AC1-48D3-A0DD-969A2C93FEA6/assets/3424C5CEF0EB9E0BBC7B0746F2C9D984.png" width="63.00" height="47.00" transform="matrix(1.00, 0.00, -0.00, -1.00, 1575.0, 459.0)"></image><text xml:space="preserve" font-family="Hack-Regular" font-size="50.0" fill="#FEFFFE" transform="matrix(1.00, 0.00, -0.00, -1.00, 1576.7, 420.0)">0</text><text xml:space="preserve" font-family="Hack-Regular" font-size="50.0" fill="#FEFFFE" transform="matrix(1.00, 0.00, -0.00, -1.00, 1606.8, 420.0)">0</text><image xlink:href="../../67E9BE5C-0AC1-48D3-A0DD-969A2C93FEA6/assets/6F01BD27D707CC8DEADB1E6486E9AE5A.png" width="30.00" height="45.00" transform="matrix(1.00, 0.00, -0.00, -1.00, 1638.0, 458.0)"></image><text xml:space="preserve" font-family="Hack-Regular" font-size="50.0" fill="#FE2500" transform="matrix(1.00, 0.00, -0.00, -1.00, 1636.9, 420.0)">1</text><path d="M 0.0 0.0 L 73.5 0.0 L 76.0 0.0 " fill="none" stroke="#E0E4CB" stroke-width="5.00" transform="matrix(0.00, -1.00, -1.00, 0.00, 910.1, 597.3)"></path><path d="M 899.9 523.8 L 910.1 503.4 L 920.3 523.8 Z M 899.9 523.8 " fill="#E0E4CB"></path><g><clipPath id="clip-9337"><path d="M 602.8 395.9 L 652.8 395.9 L 652.8 345.9 L 602.8 345.9 Z M 602.8 395.9 "></path></clipPath><g clip-path="url(#clip-9337)"><image xlink:href="../../8C2C8740-BD7C-4FE1-9B12-B3CBCCB84962/assets/33FC92A43BC30733746F965AC876E15E.jpeg" width="317.00" height="317.00" transform="matrix(1.00, 0.00, -0.00, -1.00, 602.8, 395.9)"></image><path d="M 602.8 395.9 L 652.8 395.9 L 652.8 345.9 L 602.8 345.9 Z M 602.8 395.9 " fill="#0096EA" fill-opacity="0.70"></path></g></g><path d="M 0.0 0.0 L 50.0 0.0 L 50.0 50.0 L 0.0 50.0 Z M 0.0 0.0 " fill="none" stroke="#64D1E8" stroke-width="5.00" transform="matrix(1.00, 0.00, 0.00, -1.00, 602.8, 395.9)"></path><image xlink:href="../../F084ED7B-BA1D-4B8C-8774-8C77B9A16F15/assets/9C763FEA137F2830325B51332587EC5A.png" width="31.00" height="31.00" transform="matrix(1.00, 0.00, -0.00, -1.00, 613.0, 384.0)"></image><g><clipPath id="clip-9338"><path d="M 597.1 338.1 L 658.4 338.1 L 658.4 398.6 L 597.1 398.6 Z M 597.1 338.1 "></path></clipPath><g clip-path="url(#clip-9338)"><text xml:space="preserve" font-family="YanoneKaffeesatz-Regular" font-size="30.0" fill="#FEFFFE" transform="matrix(1.00, 0.00, -0.00, -1.00, 616.0, 360.0)">k</text><text xml:space="preserve" font-family="YanoneKaffeesatz-Regular" font-size="30.0" fill="#FEFFFE" transform="matrix(1.00, 0.00, -0.00, -1.00, 627.4, 360.0)">1</text></g></g><g><clipPath id="clip-9339"><path d="M 657.7 395.9 L 707.7 395.9 L 707.7 345.9 L 657.7 345.9 Z M 657.7 395.9 "></path></clipPath><g clip-path="url(#clip-9339)"><image xlink:href="../../8C2C8740-BD7C-4FE1-9B12-B3CBCCB84962/assets/33FC92A43BC30733746F965AC876E15E.jpeg" width="317.00" height="317.00" transform="matrix(1.00, 0.00, -0.00, -1.00, 657.7, 395.9)"></image><path d="M 657.7 395.9 L 707.7 395.9 L 707.7 345.9 L 657.7 345.9 Z M 657.7 395.9 " fill="#0096EA" fill-opacity="0.70"></path></g></g><path d="M 0.0 0.0 L 50.0 0.0 L 50.0 50.0 L 0.0 50.0 Z M 0.0 0.0 " fill="none" stroke="#64D1E8" stroke-width="5.00" transform="matrix(1.00, 0.00, 0.00, -1.00, 657.7, 395.9)"></path><image xlink:href="../../F084ED7B-BA1D-4B8C-8774-8C77B9A16F15/assets/E67F5C0A157457A4CD703138C3D45B39.png" width="30.00" height="27.00" transform="matrix(1.00, 0.00, -0.00, -1.00, 667.0, 379.0)"></image><g><clipPath id="clip-9340"><path d="M 652.0 338.1 L 713.4 338.1 L 713.4 398.6 L 652.0 398.6 Z M 652.0 338.1 "></path></clipPath><g clip-path="url(#clip-9340)"><text xml:space="preserve" font-family="YanoneKaffeesatz-Regular" font-size="30.0" fill="#FEFFFE" transform="matrix(1.00, 0.00, -0.00, -1.00, 671.0, 360.0)">v</text><text xml:space="preserve" font-family="YanoneKaffeesatz-Regular" font-size="30.0" fill="#FEFFFE" transform="matrix(1.00, 0.00, -0.00, -1.00, 681.3, 360.0)">1</text></g></g><g><clipPath id="clip-9341"><path d="M 712.7 395.9 L 762.7 395.9 L 762.7 345.9 L 712.7 345.9 Z M 712.7 395.9 "></path></clipPath><g clip-path="url(#clip-9341)"><image xlink:href="../../8C2C8740-BD7C-4FE1-9B12-B3CBCCB84962/assets/33FC92A43BC30733746F965AC876E15E.jpeg" width="317.00" height="317.00" transform="matrix(1.00, 0.00, -0.00, -1.00, 712.7, 395.9)"></image><path d="M 712.7 395.9 L 762.7 395.9 L 762.7 345.9 L 712.7 345.9 Z M 712.7 395.9 " fill="#0096EA" fill-opacity="0.70"></path></g></g><path d="M 0.0 0.0 L 50.0 0.0 L 50.0 50.0 L 0.0 50.0 Z M 0.0 0.0 " fill="none" stroke="#64D1E8" stroke-width="5.00" transform="matrix(1.00, 0.00, 0.00, -1.00, 712.7, 395.9)"></path><image xlink:href="A5FD9A103BC99E903E33D31A30CB86F0.png" width="30.00" height="34.00" transform="matrix(1.00, 0.00, -0.00, -1.00, 723.0, 384.0)"></image><g><clipPath id="clip-9342"><path d="M 707.0 338.1 L 768.4 338.1 L 768.4 398.6 L 707.0 398.6 Z M 707.0 338.1 "></path></clipPath><g clip-path="url(#clip-9342)"><text xml:space="preserve" font-family="YanoneKaffeesatz-Regular" font-size="30.0" fill="#FEFFFE" transform="matrix(1.00, 0.00, -0.00, -1.00, 726.0, 360.0)">k</text><text xml:space="preserve" font-family="YanoneKaffeesatz-Regular" font-size="30.0" fill="#FEFFFE" transform="matrix(1.00, 0.00, -0.00, -1.00, 737.4, 360.0)">3</text></g></g><g><clipPath id="clip-9343"><path d="M 767.6 395.9 L 817.6 395.9 L 817.6 345.9 L 767.6 345.9 Z M 767.6 395.9 "></path></clipPath><g clip-path="url(#clip-9343)"><image xlink:href="../../8C2C8740-BD7C-4FE1-9B12-B3CBCCB84962/assets/33FC92A43BC30733746F965AC876E15E.jpeg" width="317.00" height="317.00" transform="matrix(1.00, 0.00, -0.00, -1.00, 767.6, 395.9)"></image><path d="M 767.6 395.9 L 817.6 395.9 L 817.6 345.9 L 767.6 345.9 Z M 767.6 395.9 " fill="#0096EA" fill-opacity="0.70"></path></g></g><path d="M 0.0 0.0 L 50.0 0.0 L 50.0 50.0 L 0.0 50.0 Z M 0.0 0.0 " fill="none" stroke="#64D1E8" stroke-width="5.00" transform="matrix(1.00, 0.00, 0.00, -1.00, 767.6, 395.9)"></path><image xlink:href="BF3FC7ADA1C7A82443DB078BCF9AF6C8.png" width="30.00" height="29.00" transform="matrix(1.00, 0.00, -0.00, -1.00, 777.0, 379.0)"></image><g><clipPath id="clip-9344"><path d="M 762.0 338.1 L 823.3 338.1 L 823.3 398.6 L 762.0 398.6 Z M 762.0 338.1 "></path></clipPath><g clip-path="url(#clip-9344)"><text xml:space="preserve" font-family="YanoneKaffeesatz-Regular" font-size="30.0" fill="#FEFFFE" transform="matrix(1.00, 0.00, -0.00, -1.00, 781.0, 360.0)">v</text><text xml:space="preserve" font-family="YanoneKaffeesatz-Regular" font-size="30.0" fill="#FEFFFE" transform="matrix(1.00, 0.00, -0.00, -1.00, 791.3, 360.0)">3</text></g></g><image xlink:href="../../6CAEB48F-6BC2-4BCF-82BC-862AB737F63A/assets/44F77562D82A809E3D67E6A898B692E3.png" width="444.00" height="79.00" transform="matrix(1.00, 0.00, -0.00, -1.00, 738.0, 1014.0)"></image><text xml:space="preserve" font-family="YanoneKaffeesatz-Bold" font-weight="bold" font-size="75.0" fill="#FEFFFE" transform="matrix(1.00, 0.00, -0.00, -1.00, 740.0, 957.0)">B</text><text xml:space="preserve" font-family="YanoneKaffeesatz-Bold" font-weight="bold" font-size="75.0" fill="#FEFFFE" transform="matrix(1.00, 0.00, -0.00, -1.00, 766.9, 957.0)">i</text><text xml:space="preserve" font-family="YanoneKaffeesatz-Bold" font-weight="bold" font-size="75.0" fill="#FEFFFE" transform="matrix(1.00, 0.00, -0.00, -1.00, 780.4, 957.0)">t</text><text xml:space="preserve" font-family="YanoneKaffeesatz-Bold" font-weight="bold" font-size="75.0" fill="#FEFFFE" transform="matrix(1.00, 0.00, -0.00, -1.00, 801.6, 957.0)">m</text><text xml:space="preserve" font-family="YanoneKaffeesatz-Bold" font-weight="bold" font-size="75.0" fill="#FEFFFE" transform="matrix(1.00, 0.00, -0.00, -1.00, 841.4, 957.0)">a</text><text xml:space="preserve" font-family="YanoneKaffeesatz-Bold" font-weight="bold" font-size="75.0" fill="#FEFFFE" transform="matrix(1.00, 0.00, -0.00, -1.00, 866.8, 957.0)">p</text><text xml:space="preserve" font-family="YanoneKaffeesatz-Bold" font-weight="bold" font-size="75.0" fill="#FEFFFE" transform="matrix(1.00, 0.00, -0.00, -1.00, 894.0, 957.0)">I</text><text xml:space="preserve" font-family="YanoneKaffeesatz-Bold" font-weight="bold" font-size="75.0" fill="#FEFFFE" transform="matrix(1.00, 0.00, -0.00, -1.00, 907.0, 957.0)">n</text><text xml:space="preserve" font-family="YanoneKaffeesatz-Bold" font-weight="bold" font-size="75.0" fill="#FEFFFE" transform="matrix(1.00, 0.00, -0.00, -1.00, 934.1, 957.0)">d</text><text xml:space="preserve" font-family="YanoneKaffeesatz-Bold" font-weight="bold" font-size="75.0" fill="#FEFFFE" transform="matrix(1.00, 0.00, -0.00, -1.00, 961.5, 957.0)">e</text><text xml:space="preserve" font-family="YanoneKaffeesatz-Bold" font-weight="bold" font-size="75.0" fill="#FEFFFE" transform="matrix(1.00, 0.00, -0.00, -1.00, 986.8, 957.0)">x</text><text xml:space="preserve" font-family="YanoneKaffeesatz-Bold" font-weight="bold" font-size="75.0" fill="#FEFFFE" transform="matrix(1.00, 0.00, -0.00, -1.00, 1013.4, 957.0)">e</text><text xml:space="preserve" font-family="YanoneKaffeesatz-Bold" font-weight="bold" font-size="75.0" fill="#FEFFFE" transform="matrix(1.00, 0.00, -0.00, -1.00, 1039.3, 957.0)">d</text><text xml:space="preserve" font-family="YanoneKaffeesatz-Bold" font-weight="bold" font-size="75.0" fill="#FEFFFE" transform="matrix(1.00, 0.00, -0.00, -1.00, 1066.8, 957.0)">N</text><text xml:space="preserve" font-family="YanoneKaffeesatz-Bold" font-weight="bold" font-size="75.0" fill="#FEFFFE" transform="matrix(1.00, 0.00, -0.00, -1.00, 1099.0, 957.0)">o</text><text xml:space="preserve" font-family="YanoneKaffeesatz-Bold" font-weight="bold" font-size="75.0" fill="#FEFFFE" transform="matrix(1.00, 0.00, -0.00, -1.00, 1125.3, 957.0)">d</text><text xml:space="preserve" font-family="YanoneKaffeesatz-Bold" font-weight="bold" font-size="75.0" fill="#FEFFFE" transform="matrix(1.00, 0.00, -0.00, -1.00, 1152.8, 957.0)">e</text><image xlink:href="E1C3CC268DC498C758689D4A5A0A06CF.png" width="331.00" height="56.00" transform="matrix(1.00, 0.00, -0.00, -1.00, 656.0, 913.0)"></image><text xml:space="preserve" font-family="Hack-Bold" font-weight="bold" font-size="50.0" fill="#FE2500" transform="matrix(1.00, 0.00, -0.00, -1.00, 658.0, 874.0)">a</text><text xml:space="preserve" font-family="Hack-Bold" font-weight="bold" font-size="50.0" fill="#FE2500" transform="matrix(1.00, 0.00, -0.00, -1.00, 688.1, 874.0)">d</text><text xml:space="preserve" font-family="Hack-Bold" font-weight="bold" font-size="50.0" fill="#FE2500" transform="matrix(1.00, 0.00, -0.00, -1.00, 718.2, 874.0)">d</text><text xml:space="preserve" font-family="Hack-Bold" font-weight="bold" font-size="50.0" fill="#FE2500" transform="matrix(1.00, 0.00, -0.00, -1.00, 748.3, 874.0)">(</text><text xml:space="preserve" font-family="Hack-Bold" font-weight="bold" font-size="50.0" fill="#FE2500" transform="matrix(1.00, 0.00, -0.00, -1.00, 778.4, 874.0)">k</text><text xml:space="preserve" font-family="Hack-Bold" font-weight="bold" font-size="50.0" fill="#FE2500" transform="matrix(1.00, 0.00, -0.00, -1.00, 808.5, 874.0)">3</text><text xml:space="preserve" font-family="Hack-Bold" font-weight="bold" font-size="50.0" fill="#FE2500" transform="matrix(1.00, 0.00, -0.00, -1.00, 838.6, 874.0)">,</text><text xml:space="preserve" font-family="Hack-Bold" font-weight="bold" font-size="50.0" fill="#FE2500" transform="matrix(1.00, 0.00, -0.00, -1.00, 868.8, 874.0)"> </text><text xml:space="preserve" font-family="Hack-Bold" font-weight="bold" font-size="50.0" fill="#FE2500" transform="matrix(1.00, 0.00, -0.00, -1.00, 898.9, 874.0)">v</text><text xml:space="preserve" font-family="Hack-Bold" font-weight="bold" font-size="50.0" fill="#FE2500" transform="matrix(1.00, 0.00, -0.00, -1.00, 929.0, 874.0)">3</text><text xml:space="preserve" font-family="Hack-Bold" font-weight="bold" font-size="50.0" fill="#FE2500" transform="matrix(1.00, 0.00, -0.00, -1.00, 959.1, 874.0)">)</text><text xml:space="preserve" font-family="Hack-Bold" font-weight="bold" font-size="50.0" fill="#FE2500" transform="matrix(1.00, 0.00, -0.00, -1.00, 989.2, 874.0)"> </text><image xlink:href="91B5F638B82D0DADB064BBE0D69D3459.png" width="303.00" height="53.00" transform="matrix(1.00, 0.00, -0.00, -1.00, 658.0, 855.0)"></image><text xml:space="preserve" font-family="Hack-Bold" font-weight="bold" font-size="50.0" fill="#FE2500" transform="matrix(1.00, 0.00, -0.00, -1.00, 658.0, 816.0)">h</text><text xml:space="preserve" font-family="Hack-Bold" font-weight="bold" font-size="50.0" fill="#FE2500" transform="matrix(1.00, 0.00, -0.00, -1.00, 688.1, 816.0)">a</text><text xml:space="preserve" font-family="Hack-Bold" font-weight="bold" font-size="50.0" fill="#FE2500" transform="matrix(1.00, 0.00, -0.00, -1.00, 718.2, 816.0)">s</text><text xml:space="preserve" font-family="Hack-Bold" font-weight="bold" font-size="50.0" fill="#FE2500" transform="matrix(1.00, 0.00, -0.00, -1.00, 748.3, 816.0)">h</text><text xml:space="preserve" font-family="Hack-Bold" font-weight="bold" font-size="50.0" fill="#FE2500" transform="matrix(1.00, 0.00, -0.00, -1.00, 778.4, 816.0)">(</text><text xml:space="preserve" font-family="Hack-Bold" font-weight="bold" font-size="50.0" fill="#FE2500" transform="matrix(1.00, 0.00, -0.00, -1.00, 808.5, 816.0)">k</text><text xml:space="preserve" font-family="Hack-Bold" font-weight="bold" font-size="50.0" fill="#FE2500" transform="matrix(1.00, 0.00, -0.00, -1.00, 838.6, 816.0)">3</text><text xml:space="preserve" font-family="Hack-Bold" font-weight="bold" font-size="50.0" fill="#FE2500" transform="matrix(1.00, 0.00, -0.00, -1.00, 868.8, 816.0)">)</text><text xml:space="preserve" font-family="Hack-Bold" font-weight="bold" font-size="50.0" fill="#FE2500" transform="matrix(1.00, 0.00, -0.00, -1.00, 898.9, 816.0)">=</text><text xml:space="preserve" font-family="Hack-Bold" font-weight="bold" font-size="50.0" fill="#FE2500" transform="matrix(1.00, 0.00, -0.00, -1.00, 929.0, 816.0)">=</text><image xlink:href="66059A4DC6993C86846970AEAA7AF1A9.png" width="302.00" height="47.00" transform="matrix(1.00, 0.00, -0.00, -1.00, 959.0, 855.0)"></image><text xml:space="preserve" font-family="Hack-Bold" font-weight="bold" font-size="50.0" fill="#E0E4CB" transform="matrix(1.00, 0.00, -0.00, -1.00, 959.0, 816.0)">1</text><text xml:space="preserve" font-family="Hack-Bold" font-weight="bold" font-size="50.0" fill="#E0E4CB" transform="matrix(1.00, 0.00, -0.00, -1.00, 989.1, 816.0)">0</text><text xml:space="preserve" font-family="Hack-Bold" font-weight="bold" font-size="50.0" fill="#E0E4CB" transform="matrix(1.00, 0.00, -0.00, -1.00, 1019.2, 816.0)">0</text><text xml:space="preserve" font-family="Hack-Bold" font-weight="bold" font-size="50.0" fill="#E0E4CB" transform="matrix(1.00, 0.00, -0.00, -1.00, 1049.3, 816.0)">0</text><text xml:space="preserve" font-family="Hack-Bold" font-weight="bold" font-size="50.0" fill="#E0E4CB" transform="matrix(1.00, 0.00, -0.00, -1.00, 1079.5, 816.0)">0</text><text xml:space="preserve" font-family="Hack-Bold" font-weight="bold" font-size="50.0" fill="#E0E4CB" transform="matrix(1.00, 0.00, -0.00, -1.00, 1109.6, 816.0)">0</text><text xml:space="preserve" font-family="Hack-Bold" font-weight="bold" font-size="50.0" fill="#E0E4CB" transform="matrix(1.00, 0.00, -0.00, -1.00, 1139.7, 816.0)">0</text><text xml:space="preserve" font-family="Hack-Bold" font-weight="bold" font-size="50.0" fill="#E0E4CB" transform="matrix(1.00, 0.00, -0.00, -1.00, 1169.8, 816.0)">0</text><text xml:space="preserve" font-family="Hack-Bold" font-weight="bold" font-size="50.0" fill="#E0E4CB" transform="matrix(1.00, 0.00, -0.00, -1.00, 1199.9, 816.0)">0</text><text xml:space="preserve" font-family="Hack-Bold" font-weight="bold" font-size="50.0" fill="#E0E4CB" transform="matrix(1.00, 0.00, -0.00, -1.00, 1230.0, 816.0)">5</text></g></svg>