<?xml version="1.0" encoding="UTF-8" standalone="no"?><svg xmlns="http://www.w3.org/2000/svg" xmlns:xlink="http://www.w3.org/1999/xlink" clip-rule="evenodd" stroke-miterlimit="4.00" viewBox="0 0 1920 1080"><desc>SVG generated by Keynote</desc><defs></defs><g transform="matrix(1.00, 0.00, -0.00, -1.00, 0.0, 1080.0)"><g><clipPath id="clip-6363"><path d="M 0.0 1080.0 L 1920.0 1080.0 L 1920.0 0.0 L 0.0 0.0 Z M 0.0 1080.0 "></path></clipPath><g clip-path="url(#clip-6363)"><image xlink:href="../../C790834B-C1C8-4410-8563-9C912CD2A702/assets/4B0075050CC9D0F3DC006F0CDE78D676.jpeg" width="1365.00" height="767.00" transform="matrix(1.41, 0.00, -0.00, -1.41, 0.0, 1080.0)"></image></g></g><g><clipPath id="clip-6364"><path d="M 0.0 1437.0 L 1920.0 1437.0 L 1920.0 -3.0 L 0.0 -3.0 Z M 0.0 1437.5 "></path></clipPath><g clip-path="url(#clip-6364)"><image xlink:href="DCEA08DFAFDE04BE5C8E69C0FA0FCC0D.jpeg" width="1024.00" height="768.00" transform="matrix(2.05, 0.00, -0.00, -2.05, -90.0, 1575.0)"></image></g></g><image xlink:href="C66C27239D9A2120A7D802E471A5D1D9.png" width="341.00" height="102.00" transform="matrix(1.00, 0.00, -0.00, -1.00, 634.0, 656.0)"></image><text xml:space="preserve" font-family="YanoneKaffeesatz-Regular" font-size="100.0" fill="#A5DBD8" transform="matrix(1.00, 0.00, -0.00, -1.00, 634.0, 581.0)">@</text><text xml:space="preserve" font-family="YanoneKaffeesatz-Regular" font-size="100.0" fill="#A5DBD8" transform="matrix(1.00, 0.00, -0.00, -1.00, 707.8, 581.0)">f</text><text xml:space="preserve" font-family="YanoneKaffeesatz-Regular" font-size="100.0" fill="#A5DBD8" transform="matrix(1.00, 0.00, -0.00, -1.00, 733.3, 581.0)">x</text><text xml:space="preserve" font-family="YanoneKaffeesatz-Regular" font-size="100.0" fill="#A5DBD8" transform="matrix(1.00, 0.00, -0.00, -1.00, 773.3, 581.0)">p</text><text xml:space="preserve" font-family="YanoneKaffeesatz-Regular" font-size="100.0" fill="#A5DBD8" transform="matrix(1.00, 0.00, -0.00, -1.00, 811.6, 581.0)">o</text><text xml:space="preserve" font-family="YanoneKaffeesatz-Regular" font-size="100.0" fill="#A5DBD8" transform="matrix(1.00, 0.00, -0.00, -1.00, 848.4, 581.0)">s</text><text xml:space="preserve" font-family="YanoneKaffeesatz-Regular" font-size="100.0" fill="#A5DBD8" transform="matrix(1.00, 0.00, -0.00, -1.00, 882.9, 581.0)">t</text><text xml:space="preserve" font-family="YanoneKaffeesatz-Regular" font-size="100.0" fill="#A5DBD8" transform="matrix(1.00, 0.00, -0.00, -1.00, 909.7, 581.0)">e</text><text xml:space="preserve" font-family="YanoneKaffeesatz-Regular" font-size="100.0" fill="#A5DBD8" transform="matrix(1.00, 0.00, -0.00, -1.00, 945.8, 581.0)">r</text></g></svg>