<?xml version="1.0" encoding="UTF-8" standalone="no"?><svg xmlns="http://www.w3.org/2000/svg" xmlns:xlink="http://www.w3.org/1999/xlink" clip-rule="evenodd" stroke-miterlimit="4.00" viewBox="0 0 1920 1080"><desc>SVG generated by Keynote</desc><defs></defs><g transform="matrix(1.00, 0.00, -0.00, -1.00, 0.0, 1080.0)"><g><clipPath id="clip-8501"><path d="M 0.0 1080.0 L 1920.0 1080.0 L 1920.0 0.0 L 0.0 0.0 Z M 0.0 1080.0 "></path></clipPath><g clip-path="url(#clip-8501)"><image xlink:href="../../C790834B-C1C8-4410-8563-9C912CD2A702/assets/4B0075050CC9D0F3DC006F0CDE78D676.jpeg" width="1365.00" height="767.00" transform="matrix(1.41, 0.00, -0.00, -1.41, 0.0, 1080.0)"></image></g></g><image xlink:href="../../2E331B7C-7617-4512-A881-368BC7309C1B/assets/5A8D98ADE81213C80040246DBC1A4E6C.png" width="514.00" height="195.00" transform="matrix(1.00, 0.00, -0.00, -1.00, 704.0, 1013.0)"></image><text xml:space="preserve" font-family="YanoneKaffeesatz-Bold" font-weight="bold" font-size="200.0" fill="#FC6900" transform="matrix(1.00, 0.00, -0.00, -1.00, 702.0, 865.0)">H</text><text xml:space="preserve" font-family="YanoneKaffeesatz-Bold" font-weight="bold" font-size="200.0" fill="#FC6900" transform="matrix(1.00, 0.00, -0.00, -1.00, 778.4, 865.0)">a</text><text xml:space="preserve" font-family="YanoneKaffeesatz-Bold" font-weight="bold" font-size="200.0" fill="#FC6900" transform="matrix(1.00, 0.00, -0.00, -1.00, 846.0, 865.0)">s</text><text xml:space="preserve" font-family="YanoneKaffeesatz-Bold" font-weight="bold" font-size="200.0" fill="#FC6900" transform="matrix(1.00, 0.00, -0.00, -1.00, 909.6, 865.0)">h</text><text xml:space="preserve" font-family="YanoneKaffeesatz-Bold" font-weight="bold" font-size="200.0" fill="#FC6900" transform="matrix(1.00, 0.00, -0.00, -1.00, 981.8, 865.0)">M</text><text xml:space="preserve" font-family="YanoneKaffeesatz-Bold" font-weight="bold" font-size="200.0" fill="#FC6900" transform="matrix(1.00, 0.00, -0.00, -1.00, 1077.2, 865.0)">a</text><text xml:space="preserve" font-family="YanoneKaffeesatz-Bold" font-weight="bold" font-size="200.0" fill="#FC6900" transform="matrix(1.00, 0.00, -0.00, -1.00, 1144.8, 865.0)">p</text><image xlink:href="../../97A940DC-794B-4E41-B500-E97DC4D90C20/assets/91378FEA877AC38CE20B137A0F0044D1.png" width="302.00" height="82.00" transform="matrix(1.00, 0.00, -0.00, -1.00, 466.0, 576.0)"></image><text xml:space="preserve" font-family="YanoneKaffeesatz-Bold" font-weight="bold" font-size="100.0" fill="#FE2500" transform="matrix(1.00, 0.00, -0.00, -1.00, 467.0, 502.0)">P</text><text xml:space="preserve" font-family="YanoneKaffeesatz-Bold" font-weight="bold" font-size="100.0" fill="#FE2500" transform="matrix(1.00, 0.00, -0.00, -1.00, 499.6, 502.0)">e</text><text xml:space="preserve" font-family="YanoneKaffeesatz-Bold" font-weight="bold" font-size="100.0" fill="#FE2500" transform="matrix(1.00, 0.00, -0.00, -1.00, 534.2, 502.0)">r</text><text xml:space="preserve" font-family="YanoneKaffeesatz-Bold" font-weight="bold" font-size="100.0" fill="#FE2500" transform="matrix(1.00, 0.00, -0.00, -1.00, 559.1, 502.0)">s</text><text xml:space="preserve" font-family="YanoneKaffeesatz-Bold" font-weight="bold" font-size="100.0" fill="#FE2500" transform="matrix(1.00, 0.00, -0.00, -1.00, 590.9, 502.0)">i</text><text xml:space="preserve" font-family="YanoneKaffeesatz-Bold" font-weight="bold" font-size="100.0" fill="#FE2500" transform="matrix(1.00, 0.00, -0.00, -1.00, 608.9, 502.0)">s</text><text xml:space="preserve" font-family="YanoneKaffeesatz-Bold" font-weight="bold" font-size="100.0" fill="#FE2500" transform="matrix(1.00, 0.00, -0.00, -1.00, 640.7, 502.0)">t</text><text xml:space="preserve" font-family="YanoneKaffeesatz-Bold" font-weight="bold" font-size="100.0" fill="#FE2500" transform="matrix(1.00, 0.00, -0.00, -1.00, 666.1, 502.0)">e</text><text xml:space="preserve" font-family="YanoneKaffeesatz-Bold" font-weight="bold" font-size="100.0" fill="#FE2500" transform="matrix(1.00, 0.00, -0.00, -1.00, 700.7, 502.0)">n</text><text xml:space="preserve" font-family="YanoneKaffeesatz-Bold" font-weight="bold" font-size="100.0" fill="#FE2500" transform="matrix(1.00, 0.00, -0.00, -1.00, 736.8, 502.0)">t</text><text xml:space="preserve" font-family="YanoneKaffeesatz-Bold" font-weight="bold" font-size="100.0" fill="#FE2500" transform="matrix(1.00, 0.00, -0.00, -1.00, 765.2, 502.0)"> </text><image xlink:href="../../5BED2ACE-98A1-4D6A-85A5-132FDA2588D8/assets/7752C42E479A4A1E45A08CCA653EBFC9.png" width="143.00" height="83.00" transform="matrix(1.00, 0.00, -0.00, -1.00, 778.0, 577.0)"></image><text xml:space="preserve" font-family="YanoneKaffeesatz-Bold" font-weight="bold" font-size="100.0" fill="#64D1E8" transform="matrix(1.00, 0.00, -0.00, -1.00, 779.2, 502.0)">H</text><text xml:space="preserve" font-family="YanoneKaffeesatz-Bold" font-weight="bold" font-size="100.0" fill="#64D1E8" transform="matrix(1.00, 0.00, -0.00, -1.00, 817.4, 502.0)">a</text><text xml:space="preserve" font-family="YanoneKaffeesatz-Bold" font-weight="bold" font-size="100.0" fill="#64D1E8" transform="matrix(1.00, 0.00, -0.00, -1.00, 851.2, 502.0)">s</text><text xml:space="preserve" font-family="YanoneKaffeesatz-Bold" font-weight="bold" font-size="100.0" fill="#64D1E8" transform="matrix(1.00, 0.00, -0.00, -1.00, 883.0, 502.0)">h</text><text xml:space="preserve" font-family="YanoneKaffeesatz-Bold" font-weight="bold" font-size="100.0" fill="#64D1E8" transform="matrix(1.00, 0.00, -0.00, -1.00, 919.1, 502.0)"> </text><image xlink:href="../../5BED2ACE-98A1-4D6A-85A5-132FDA2588D8/assets/E734E0973D18528D25731538A8E1823A.png" width="169.00" height="99.00" transform="matrix(1.00, 0.00, -0.00, -1.00, 929.0, 574.0)"></image><text xml:space="preserve" font-family="YanoneKaffeesatz-Bold" font-weight="bold" font-size="100.0" fill="#E37055" transform="matrix(1.00, 0.00, -0.00, -1.00, 933.1, 502.0)">A</text><text xml:space="preserve" font-family="YanoneKaffeesatz-Bold" font-weight="bold" font-size="100.0" fill="#E37055" transform="matrix(1.00, 0.00, -0.00, -1.00, 976.8, 502.0)">r</text><text xml:space="preserve" font-family="YanoneKaffeesatz-Bold" font-weight="bold" font-size="100.0" fill="#E37055" transform="matrix(1.00, 0.00, -0.00, -1.00, 1001.7, 502.0)">r</text><text xml:space="preserve" font-family="YanoneKaffeesatz-Bold" font-weight="bold" font-size="100.0" fill="#E37055" transform="matrix(1.00, 0.00, -0.00, -1.00, 1026.6, 502.0)">a</text><text xml:space="preserve" font-family="YanoneKaffeesatz-Bold" font-weight="bold" font-size="100.0" fill="#E37055" transform="matrix(1.00, 0.00, -0.00, -1.00, 1059.6, 502.0)">y</text><text xml:space="preserve" font-family="YanoneKaffeesatz-Bold" font-weight="bold" font-size="100.0" fill="#FE2500" transform="matrix(1.00, 0.00, -0.00, -1.00, 1093.6, 502.0)"> </text><image xlink:href="../../5BED2ACE-98A1-4D6A-85A5-132FDA2588D8/assets/6D2A98946035065C68254C1010FA71DC.png" width="228.00" height="102.00" transform="matrix(1.00, 0.00, -0.00, -1.00, 1106.0, 577.0)"></image><text xml:space="preserve" font-family="YanoneKaffeesatz-Bold" font-weight="bold" font-size="100.0" fill="#55E3B7" transform="matrix(1.00, 0.00, -0.00, -1.00, 1107.6, 502.0)">M</text><text xml:space="preserve" font-family="YanoneKaffeesatz-Bold" font-weight="bold" font-size="100.0" fill="#55E3B7" transform="matrix(1.00, 0.00, -0.00, -1.00, 1155.3, 502.0)">a</text><text xml:space="preserve" font-family="YanoneKaffeesatz-Bold" font-weight="bold" font-size="100.0" fill="#55E3B7" transform="matrix(1.00, 0.00, -0.00, -1.00, 1189.1, 502.0)">p</text><text xml:space="preserve" font-family="YanoneKaffeesatz-Bold" font-weight="bold" font-size="100.0" fill="#55E3B7" transform="matrix(1.00, 0.00, -0.00, -1.00, 1225.5, 502.0)">p</text><text xml:space="preserve" font-family="YanoneKaffeesatz-Bold" font-weight="bold" font-size="100.0" fill="#55E3B7" transform="matrix(1.00, 0.00, -0.00, -1.00, 1261.9, 502.0)">e</text><text xml:space="preserve" font-family="YanoneKaffeesatz-Bold" font-weight="bold" font-size="100.0" fill="#55E3B7" transform="matrix(1.00, 0.00, -0.00, -1.00, 1296.5, 502.0)">d</text><text xml:space="preserve" font-family="YanoneKaffeesatz-Bold" font-weight="bold" font-size="100.0" fill="#FE2500" transform="matrix(1.00, 0.00, -0.00, -1.00, 1333.1, 502.0)"> </text><image xlink:href="../../5BED2ACE-98A1-4D6A-85A5-132FDA2588D8/assets/28410CA8A11F37CBBBFD978351500190.png" width="111.00" height="82.00" transform="matrix(1.00, 0.00, -0.00, -1.00, 1344.0, 576.0)"></image><text xml:space="preserve" font-family="YanoneKaffeesatz-Bold" font-weight="bold" font-size="100.0" fill="#FC6900" transform="matrix(1.00, 0.00, -0.00, -1.00, 1347.1, 502.0)">T</text><text xml:space="preserve" font-family="YanoneKaffeesatz-Bold" font-weight="bold" font-size="100.0" fill="#FC6900" transform="matrix(1.00, 0.00, -0.00, -1.00, 1374.9, 502.0)">r</text><text xml:space="preserve" font-family="YanoneKaffeesatz-Bold" font-weight="bold" font-size="100.0" fill="#FC6900" transform="matrix(1.00, 0.00, -0.00, -1.00, 1399.8, 502.0)">i</text><text xml:space="preserve" font-family="YanoneKaffeesatz-Bold" font-weight="bold" font-size="100.0" fill="#FC6900" transform="matrix(1.00, 0.00, -0.00, -1.00, 1417.8, 502.0)">e</text></g></svg>